<svg width="19" height="19" viewBox="0 0 19 19" fill="none" xmlns="http://www.w3.org/2000/svg">
<path d="M14.6155 13.4154L13.749 12.0559C13.3488 11.4285 13.1374 10.7098 13.1374 9.9783V8.78747C13.1374 7.2841 12.0715 6.01254 10.6141 5.60261V4.74999C10.6141 4.22606 10.1614 3.79999 9.60477 3.79999C9.04813 3.79999 8.59546 4.22606 8.59546 4.74999V5.60261C7.13803 6.01254 6.0722 7.2841 6.0722 8.78747V9.9783C6.0722 10.7098 5.86074 11.428 5.46105 12.0555L4.59457 13.4149C4.54764 13.4885 4.54662 13.5797 4.59154 13.6543C4.63646 13.7289 4.71973 13.775 4.81057 13.775H14.399C14.4898 13.775 14.5736 13.7289 14.6185 13.6548C14.6634 13.5807 14.6619 13.4885 14.6155 13.4154Z" fill="#DFB644"/>
<path d="M8.01562 14.25C8.30025 14.8096 8.90281 15.2 9.60477 15.2C10.3067 15.2 10.9093 14.8096 11.1939 14.25H8.01562Z" fill="#DFB644"/>
<circle cx="9.5" cy="9.5" r="9" stroke="#DFB644"/>
</svg>
