<svg width="20" height="20" viewBox="0 0 20 20" fill="none" xmlns="http://www.w3.org/2000/svg">
<path d="M17.0712 2.92832C13.1662 -0.974236 6.83352 -0.974236 2.92974 2.92832C-0.976578 6.83089 -0.976578 13.166 2.92974 17.0711C4.87871 19.0201 7.43267 19.9955 9.98745 19.9986H10.0152C12.57 19.9949 15.1235 19.0188 17.0711 17.0711C20.9763 13.1688 20.9763 6.83089 17.0712 2.92832ZM9.29518 3.45834H11.3665C11.989 3.45834 12.0805 3.82106 12.0805 4.03784L12.0753 4.22578L12.0596 4.44231L11.6342 12.0344C11.5729 12.6047 11.321 12.7158 10.9021 12.7158H9.79804C9.38038 12.7158 9.12584 12.6037 9.06441 12.0202L8.64027 4.44505L8.62735 4.22578L8.61964 4.03784C8.61898 3.82106 8.70651 3.45834 9.29518 3.45834ZM10.36 18.0449C9.27161 18.0449 8.38658 17.1678 8.38658 16.0898C8.38658 14.9831 9.25321 14.1164 10.36 14.1164C11.4382 14.1164 12.315 15.0012 12.315 16.0898C12.3152 17.1494 11.4173 18.0449 10.36 18.0449Z" fill="#DFB644"/>
</svg>
