<svg width="50" height="50" viewBox="0 0 50 50" fill="none" xmlns="http://www.w3.org/2000/svg">
<path d="M42.3978 41.086L39.2103 25.7812H10.7884C7.41344 42 7.24937 41.5547 7.92125 42.3906C8.59312 43.2266 6.7025 42.9688 40.8666 42.9688C41.0991 42.9691 41.3288 42.9174 41.5388 42.8177C41.7489 42.7179 41.934 42.5725 42.0807 42.3921C42.2274 42.2117 42.332 42.0009 42.3869 41.7749C42.4418 41.5489 42.4455 41.3136 42.3978 41.086V41.086ZM21.8744 28.9063H36.7181C36.9253 28.9063 37.124 28.9886 37.2706 29.1351C37.4171 29.2816 37.4994 29.4803 37.4994 29.6875C37.4994 29.8947 37.4171 30.0934 37.2706 30.2399C37.124 30.3864 36.9253 30.4688 36.7181 30.4688H21.8744C21.6672 30.4688 21.4685 30.3864 21.3219 30.2399C21.1754 30.0934 21.0931 29.8947 21.0931 29.6875C21.0931 29.4803 21.1754 29.2816 21.3219 29.1351C21.4685 28.9886 21.6672 28.9063 21.8744 28.9063V28.9063ZM21.8744 33.5938H37.4994C37.7066 33.5938 37.9053 33.6761 38.0518 33.8226C38.1983 33.9691 38.2806 34.1678 38.2806 34.375C38.2806 34.5822 38.1983 34.7809 38.0518 34.9274C37.9053 35.074 37.7066 35.1563 37.4994 35.1563H21.8744C21.6672 35.1563 21.4685 35.074 21.3219 34.9274C21.1754 34.7809 21.0931 34.5822 21.0931 34.375C21.0931 34.1678 21.1754 33.9691 21.3219 33.8226C21.4685 33.6761 21.6672 33.5938 21.8744 33.5938V33.5938ZM17.9681 39.8438H11.7181C11.5109 39.8438 11.3122 39.7615 11.1657 39.6149C11.0192 39.4684 10.9369 39.2697 10.9369 39.0625C10.9369 38.8553 11.0192 38.6566 11.1657 38.5101C11.3122 38.3636 11.5109 38.2813 11.7181 38.2813H17.9681C18.1753 38.2813 18.374 38.3636 18.5206 38.5101C18.6671 38.6566 18.7494 38.8553 18.7494 39.0625C18.7494 39.2697 18.6671 39.4684 18.5206 39.6149C18.374 39.7615 18.1753 39.8438 17.9681 39.8438ZM17.9681 35.1563H12.4994C12.2922 35.1563 12.0935 35.074 11.9469 34.9274C11.8004 34.7809 11.7181 34.5822 11.7181 34.375C11.7181 34.1678 11.8004 33.9691 11.9469 33.8226C12.0935 33.6761 12.2922 33.5938 12.4994 33.5938H17.9681C18.1753 33.5938 18.374 33.6761 18.5206 33.8226C18.6671 33.9691 18.7494 34.1678 18.7494 34.375C18.7494 34.5822 18.6671 34.7809 18.5206 34.9274C18.374 35.074 18.1753 35.1563 17.9681 35.1563ZM17.9681 30.4688H13.2806C13.0734 30.4688 12.8747 30.3864 12.7282 30.2399C12.5817 30.0934 12.4994 29.8947 12.4994 29.6875C12.4994 29.4803 12.5817 29.2816 12.7282 29.1351C12.8747 28.9886 13.0734 28.9063 13.2806 28.9063H17.9681C18.1753 28.9063 18.374 28.9886 18.5206 29.1351C18.6671 29.2816 18.7494 29.4803 18.7494 29.6875C18.7494 29.8947 18.6671 30.0934 18.5206 30.2399C18.374 30.3864 18.1753 30.4688 17.9681 30.4688ZM38.2806 39.8438H21.8744C21.6672 39.8438 21.4685 39.7615 21.3219 39.6149C21.1754 39.4684 21.0931 39.2697 21.0931 39.0625C21.0931 38.8553 21.1754 38.6566 21.3219 38.5101C21.4685 38.3636 21.6672 38.2813 21.8744 38.2813H38.2806C38.4878 38.2813 38.6865 38.3636 38.8331 38.5101C38.9796 38.6566 39.0619 38.8553 39.0619 39.0625C39.0619 39.2697 38.9796 39.4684 38.8331 39.6149C38.6865 39.7615 38.4878 39.8438 38.2806 39.8438Z" fill="#DFB644"/>
<path d="M36.7188 7.03125H13.2812C12.6596 7.03125 12.0635 7.27818 11.624 7.71772C11.1844 8.15726 10.9375 8.7534 10.9375 9.375V24.2188H39.0625V9.375C39.0625 8.7534 38.8156 8.15726 38.376 7.71772C37.9365 7.27818 37.3404 7.03125 36.7188 7.03125V7.03125ZM14.0625 10.9375H20.3125C20.5197 10.9375 20.7184 11.0198 20.8649 11.1663C21.0114 11.3128 21.0938 11.5115 21.0938 11.7188C21.0938 11.926 21.0114 12.1247 20.8649 12.2712C20.7184 12.4177 20.5197 12.5 20.3125 12.5H14.0625C13.8553 12.5 13.6566 12.4177 13.5101 12.2712C13.3636 12.1247 13.2812 11.926 13.2812 11.7188C13.2812 11.5115 13.3636 11.3128 13.5101 11.1663C13.6566 11.0198 13.8553 10.9375 14.0625 10.9375ZM25.7812 16.4062H14.0625C13.8553 16.4062 13.6566 16.3239 13.5101 16.1774C13.3636 16.0309 13.2812 15.8322 13.2812 15.625C13.2812 15.4178 13.3636 15.2191 13.5101 15.0726C13.6566 14.9261 13.8553 14.8438 14.0625 14.8438H25.7812C25.9885 14.8438 26.1872 14.9261 26.3337 15.0726C26.4802 15.2191 26.5625 15.4178 26.5625 15.625C26.5625 15.8322 26.4802 16.0309 26.3337 16.1774C26.1872 16.3239 25.9885 16.4062 25.7812 16.4062ZM32.4219 14.8438H33.2031C33.7211 14.7919 34.2385 14.948 34.6414 15.2777C35.0443 15.6074 35.2998 16.0836 35.3516 16.6016C35.4034 17.1196 35.2473 17.6369 34.9176 18.0398C34.588 18.4427 34.1118 18.6982 33.5938 18.75C33.5938 18.9572 33.5114 19.1559 33.3649 19.3024C33.2184 19.4489 33.0197 19.5312 32.8125 19.5312C32.6053 19.5312 32.4066 19.4489 32.2601 19.3024C32.1136 19.1559 32.0312 18.9572 32.0312 18.75H31.25C31.0428 18.75 30.8441 18.6677 30.6976 18.5212C30.5511 18.3747 30.4688 18.176 30.4688 17.9688C30.4688 17.7615 30.5511 17.5628 30.6976 17.4163C30.8441 17.2698 31.0428 17.1875 31.25 17.1875H33.2031C33.3067 17.1875 33.4061 17.1463 33.4793 17.0731C33.5526 16.9998 33.5938 16.9005 33.5938 16.7969C33.5938 16.6933 33.5526 16.5939 33.4793 16.5207C33.4061 16.4474 33.3067 16.4062 33.2031 16.4062H32.4219C31.9375 16.4067 31.4703 16.2272 31.1108 15.9026C30.7514 15.5779 30.5254 15.1313 30.4767 14.6494C30.428 14.1675 30.5601 13.6847 30.8474 13.2947C31.1347 12.9048 31.5566 12.6354 32.0312 12.5391C32.0287 12.4365 32.0464 12.3344 32.0832 12.2386C32.1201 12.1428 32.1755 12.0553 32.2463 11.9809C32.317 11.9066 32.4017 11.8469 32.4955 11.8052C32.5893 11.7636 32.6904 11.7408 32.793 11.7383C32.8956 11.7357 32.9977 11.7534 33.0934 11.7903C33.1892 11.8272 33.2768 11.8826 33.3511 11.9533C33.4255 12.024 33.4852 12.1087 33.5268 12.2025C33.5684 12.2963 33.5912 12.3974 33.5938 12.5H34.375C34.5822 12.5 34.7809 12.5823 34.9274 12.7288C35.0739 12.8753 35.1562 13.074 35.1562 13.2812C35.1562 13.4885 35.0739 13.6872 34.9274 13.8337C34.7809 13.9802 34.5822 14.0625 34.375 14.0625H32.4219C32.3183 14.0625 32.2189 14.1037 32.1457 14.1769C32.0724 14.2502 32.0312 14.3495 32.0312 14.4531C32.0312 14.5567 32.0724 14.6561 32.1457 14.7293C32.2189 14.8026 32.3183 14.8438 32.4219 14.8438Z" fill="#DFB644"/>
</svg>
