<svg width="40" height="40" viewBox="0 0 40 40" fill="none" xmlns="http://www.w3.org/2000/svg">
<path d="M8.1935 10.1434H14.1835V9.16672C14.1835 7.42062 15.6041 6.00006 17.3502 6.00006H23.0443C24.7904 6.00006 26.2109 7.42062 26.2109 9.16672V10.1434H32.2009C32.6449 10.1434 33 10.4985 33 10.9424C33 11.3863 32.6449 11.7415 32.2009 11.7415H30.7567V30.5165C30.7567 32.8723 28.8389 34.7901 26.4832 34.7901H13.9112C11.5555 34.7901 9.63773 32.8723 9.63773 30.5165V11.7415H8.1935C7.74957 11.7415 7.39443 11.3863 7.39443 10.9424C7.39443 10.4985 7.74957 10.1434 8.1935 10.1434ZM24.6128 9.16672C24.6128 8.30255 23.9084 7.59819 23.0443 7.59819H17.3502C16.486 7.59819 15.7816 8.30255 15.7816 9.16672V10.1434H24.6128V9.16672ZM11.2359 30.5165C11.2359 31.9904 12.4374 33.1919 13.9112 33.1919H26.4832C27.957 33.1919 29.1586 31.9904 29.1586 30.5165V11.7415H11.2299V30.5165H11.2359Z" fill="#9C9FA4"/>
<path d="M20.2009 30.3284C19.757 30.3284 19.4019 29.9732 19.4019 29.5293V15.4065C19.4019 14.9626 19.757 14.6075 20.2009 14.6075C20.6449 14.6075 21 14.9626 21 15.4065V29.5234C21 29.9673 20.6449 30.3284 20.2009 30.3284Z" fill="#9C9FA4"/>
<path d="M25.4119 29.444C24.9679 29.444 24.6128 29.0888 24.6128 28.6449V16.2801C24.6128 15.8362 24.9679 15.481 25.4119 15.481C25.8558 15.481 26.2109 15.8362 26.2109 16.2801V28.6449C26.2109 29.0888 25.8499 29.444 25.4119 29.444Z" fill="#9C9FA4"/>
<path d="M14.9822 29.444C14.5383 29.444 14.1831 29.0889 14.1831 28.645V16.2801C14.1831 15.8362 14.5383 15.4811 14.9822 15.4811C15.4261 15.4811 15.7812 15.8362 15.7812 16.2801V28.645C15.7812 29.0889 15.4261 29.444 14.9822 29.444Z" fill="#9C9FA4"/>
</svg>
