<svg width="29" height="28" viewBox="0 0 29 28" fill="none" xmlns="http://www.w3.org/2000/svg">
<path d="M9.64645 23.3536C9.84171 23.5488 10.1583 23.5488 10.3536 23.3536L13.5355 20.1716C13.7308 19.9763 13.7308 19.6597 13.5355 19.4645C13.3403 19.2692 13.0237 19.2692 12.8284 19.4645L10 22.2929L7.17157 19.4645C6.97631 19.2692 6.65973 19.2692 6.46447 19.4645C6.2692 19.6597 6.2692 19.9763 6.46447 20.1716L9.64645 23.3536ZM9.5 5L9.5 23L10.5 23L10.5 5L9.5 5Z" fill="#2B2A35"/>
<path d="M17.6464 4.64645C17.8417 4.45119 18.1583 4.45119 18.3536 4.64645L21.5355 7.82843C21.7308 8.02369 21.7308 8.34027 21.5355 8.53553C21.3403 8.7308 21.0237 8.7308 20.8284 8.53553L18 5.70711L15.1716 8.53553C14.9763 8.7308 14.6597 8.7308 14.4645 8.53553C14.2692 8.34027 14.2692 8.02369 14.4645 7.82843L17.6464 4.64645ZM17.5 23L17.5 5L18.5 5L18.5 23L17.5 23Z" fill="#2B2A35"/>
</svg>
