<?xml version="1.0" encoding="utf-8"?>
<!-- Generator: Adobe Illustrator 24.0.2, SVG Export Plug-In . SVG Version: 6.00 Build 0)  -->
<svg version="1.1" id="圖層_1" xmlns="http://www.w3.org/2000/svg" xmlns:xlink="http://www.w3.org/1999/xlink" x="0px" y="0px"
	 viewBox="0 0 26.6 44.3" enable-background="new 0 0 26.6 44.3" xml:space="preserve">
<g>
	<ellipse opacity="0.3" fill="#CDCDCD" cx="11.9" cy="38.6" rx="11.9" ry="5.7"/>
	<ellipse fill="#C8C8C6" cx="13.5" cy="37.6" rx="8.6" ry="4.2"/>
	<polygon fill="#C8C8C6" points="22.1,37.6 4.9,37.6 0.4,11.4 26.6,11.4 	"/>
	<ellipse fill="#F7F7F7" cx="13.5" cy="11.4" rx="13.1" ry="6.3"/>
	<ellipse fill="#A4A4A4" cx="13.5" cy="11.4" rx="11.1" ry="5.4"/>
	<g>
		<path fill="#D2D2D2" d="M13.5,40.5c-0.5,0-1-0.4-1-1V20.5c0-0.5,0.4-1,1-1s1,0.4,1,1v19.1C14.5,40.1,14,40.5,13.5,40.5z"/>
	</g>
	<g>
		<path fill="#D2D2D2" d="M17,40.1C16.9,40.1,16.9,40.1,17,40.1c-0.6,0-1-0.5-1-1l1.3-19.3c0-0.5,0.5-0.9,1-0.9c0.5,0,0.9,0.5,0.9,1
			l-1.3,19.3C17.9,39.7,17.5,40.1,17,40.1z"/>
	</g>
	<g>
		<path fill="#D2D2D2" d="M20.2,38.9c0,0-0.1,0-0.1,0c-0.5-0.1-0.9-0.5-0.9-1.1l2.2-19.3c0.1-0.5,0.5-0.9,1.1-0.9
			c0.5,0.1,0.9,0.5,0.9,1.1L21.2,38C21.1,38.5,20.7,38.9,20.2,38.9z"/>
	</g>
	<g>
		<path fill="#D2D2D2" d="M10,40.1c-0.5,0-0.9-0.4-1-0.9L7.7,19.8c0-0.5,0.4-1,0.9-1c0.5,0,1,0.4,1,0.9L11,39
			C11,39.6,10.6,40,10,40.1C10.1,40.1,10,40.1,10,40.1z"/>
	</g>
	<g>
		<path fill="#D2D2D2" d="M6.8,38.6c-0.5,0-0.9-0.4-1-0.9L3.6,18.6c-0.1-0.5,0.3-1,0.9-1.1c0.5-0.1,1,0.3,1.1,0.9l2.2,19.2
			c0.1,0.5-0.3,1-0.9,1.1C6.8,38.6,6.8,38.6,6.8,38.6z"/>
	</g>
	<path fill="#334ABF" d="M1.3,3.7c-0.2-0.5-0.3-1-0.1-1.5C1.3,2,1.6,1.8,1.9,1.7c0.9,0,1.4,1,1.7,1.6c0.5,0.9,1,1.8,1.4,2.7
		c0.7,1.3,1.3,2.6,1.8,4c0.4,1,0.7,2,1,3c0.2,0.5,0.9,2,0.3,2.5c-0.1,0.1-0.3,0.1-0.5,0c-0.2-0.1-0.3-0.2-0.4-0.3
		c-0.8-1-1.4-2.2-2-3.3c-0.7-1.2-1.3-2.4-2-3.7c-0.5-1-1-2.1-1.4-3.1C1.8,4.8,1.5,4.3,1.3,3.7z"/>
	<path fill="#E49245" d="M4.7,1.9c-0.1-0.6,0-1.1,0.3-1.5C5.1,0.1,5.4-0.1,5.7,0C6.6,0.2,6.9,1.4,7,2c0.3,1,0.5,2.1,0.7,3.1
		c0.3,1.5,0.7,3,0.8,4.5c0.1,1.1,0.2,2.2,0.3,3.3c0,0.6,0.4,2.2-0.3,2.6c-0.1,0.1-0.3,0-0.5-0.1c-0.1-0.1-0.2-0.3-0.3-0.4
		c-0.6-1.2-0.8-2.6-1.2-3.8C6.2,9.9,5.9,8.4,5.6,7C5.4,5.9,5.2,4.7,5,3.5C4.9,3.1,4.8,2.5,4.7,1.9z"/>
	<path fill="#2B2A35" d="M24,13c-0.2-0.7-0.5-1.4-1-1.9c-0.4-0.4-0.8-0.6-1.3-0.7c-0.7-0.1-0.6-0.1-0.3-0.8c0.2-0.5,0.4-1,0.4-1.6
		C21.7,7.5,21.4,7,21,6.7c-0.6-0.6-1.5-0.9-2.2-0.7c-0.6,0.2-2,2.1-2.6,1.2c-0.2-0.3-0.1-0.7-0.2-1.1c-0.2-0.9-0.5-1.7-1.1-2.3
		c-0.4-0.4-0.8-0.8-1.3-1c-0.5-0.2-1.1-0.2-1.6-0.1C10.4,2.9,9,4.1,8.3,5.5C8.1,5.9,7.9,6.3,7.8,6.8C7.6,7.3,7.5,7.9,7.5,8.5
		c0,0.4,0.2,0.9-0.2,1.2C7,9.9,6.8,9.9,6.5,10c-0.7,0.1-1.4,0.2-2.1,0.5c-0.6,0.3-1.5,0.8-2,1.4c0.5,2.7,5.3,4.9,11.1,4.9
		C18.4,16.7,22.6,15.2,24,13C24,13,24,13,24,13z"/>
	<g>
		<path fill="#534741" d="M18.6,15.5c-0.1-1.4-0.3-2.8-1-4c-0.8-1.1-2.3-1.9-3.6-1.5c-0.7,0.3-1.3,0.9-1.7,1.6
			C12.1,12.4,12,13.2,12,14c-0.6-1.3-2.1-2-3.5-1.8c-1.4,0.2-2.6,1.3-3.1,2.6c0,0.1,0,0.1-0.1,0.2c2,1.1,5,1.8,8.2,1.8
			c1.9,0,3.6-0.2,5.2-0.6C18.7,15.9,18.7,15.7,18.6,15.5z"/>
	</g>
</g>
</svg>
