<?xml version="1.0" encoding="utf-8"?>
<!-- Generator: Adobe Illustrator 24.0.2, SVG Export Plug-In . SVG Version: 6.00 Build 0)  -->
<svg version="1.1" id="圖層_1" xmlns="http://www.w3.org/2000/svg" xmlns:xlink="http://www.w3.org/1999/xlink" x="0px" y="0px"
	 viewBox="0 0 122.6 91.1" enable-background="new 0 0 122.6 91.1" xml:space="preserve">
<g>
	<polygon fill="#CBCBCB" points="0,79.8 81,22.7 81,0 0,57.1 	"/>
	<g>
		<polygon opacity="0.3" fill="#CDCDCD" points="46.6,91.1 1.9,78.4 78,24.7 122.6,37.4 		"/>
		<polygon fill="#FFFFFF" points="46.6,70.6 2.9,58.2 79,4.5 122.6,16.9 		"/>
		<polygon fill="#F3F3F3" points="45.7,67.2 6.1,56 75.9,6.6 115.5,17.8 		"/>
		<g>
			<polygon fill="#D8DADA" points="46.6,90.1 122.6,36.4 122.6,16.9 46.6,70.6 			"/>
			<polygon fill="#EEEEEE" points="46.6,90.1 2.9,77.7 2.9,58.2 46.6,70.6 			"/>
		</g>
		<g>
			<polygon opacity="0.3" fill="#CDCDCD" points="8.1,79.2 2.9,77.7 2.9,58.2 8.1,59.7 			"/>
			<polygon opacity="0.3" fill="#CDCDCD" points="8.1,59.7 2.9,58.2 6.1,56 11.3,57.4 			"/>
		</g>
		<g>
			<polygon fill="#CBCBCB" points="25.9,61.6 76,26.1 76,6.6 6.1,56 			"/>
			<polygon fill="#EEEEEE" points="95.8,31.7 76,26.1 76,6.6 115.5,17.8 			"/>
		</g>
		<g>
			<polygon opacity="0.3" fill="#CDCDCD" points="81.1,8.1 76,6.6 79,4.5 84.1,6 			"/>
			<polygon opacity="0.3" fill="#CDCDCD" points="81.1,27.6 76,26.1 76,6.6 81.1,8.1 			"/>
		</g>
		<g>
			<g>
				<path fill="#C6B198" d="M77.3,57.4c1.4,0.5,2.8,1.5,4.3,0.7c0.6-0.3,1.2-0.8,1.7-1.2c0.7-0.5,1.4-1,2.1-1.5
					c3.1-2.2,6.1-4.4,9.1-6.7c0.4-0.3,0.3-1.1-0.3-1.1c0.2,0,0,0-0.1,0c-0.1,0-0.2-0.1-0.3-0.1c-0.3-0.1-0.5-0.2-0.8-0.3
					c-0.7-0.2-1.4-0.4-2-0.6c-0.7-0.2-1,0.9-0.3,1.1c0.7,0.2,1.4,0.3,2.1,0.6c0.4,0.1,0.9,0.4,1.3,0.4c-0.1-0.4-0.2-0.7-0.3-1.1
					c-2.8,2.1-5.6,4.2-8.5,6.2c-1.2,0.9-2.4,1.8-3.6,2.6c-0.6,0.4-1.1,0.7-1.9,0.5c-0.8-0.2-1.5-0.6-2.3-0.8
					C76.9,56.3,76.6,57.2,77.3,57.4L77.3,57.4z"/>
			</g>
		</g>
		<g>
			<defs>
				<polygon id="SVGID_1_" points="45.7,67.2 6.1,56 75.9,6.6 115.5,17.8 				"/>
			</defs>
			<clipPath id="SVGID_2_">
				<use xlink:href="#SVGID_1_"  overflow="visible"/>
			</clipPath>
			<path opacity="0.3" clip-path="url(#SVGID_2_)" fill="#CDCDCD" d="M20.5,47.7c1.2-0.5,2.5-0.9,3.9-1c0.8-0.1,1.7-0.2,2.4-0.6
				c1.3-0.9,1.7-2.7,2.8-3.8c1.4-1.5,3.5-2.4,5.5-2.8c0.9-0.2,1.7-0.3,2.6-0.4c0.4-0.1,0.9-0.1,1.3-0.3c0.7-0.4,0.9-1,1.2-1.7
				c0.4-0.7,1-1.4,1.5-2c2.6-2.6,6.6-3.8,10.1-2.5c0.4,0.2,0.8,0.3,1.3,0.4c1.7,0.2,3.4-1.7,4.9-2.4c0.9-0.4,1.5-1.5,2.3-1.9
				c0.9-1,1.9-1.8,2.9-2.8c0.6-0.6,1.1-1.3,1.8-1.8c0.8-0.5,1.7-0.9,2.5-1.4c1.6-0.9,3.1-2.1,4.3-3.6c0.9-1.1,1.6-2.2,2.6-3.2
				c1-0.9,2.2-1.6,3.4-2.4c1-0.6,1.9-1.2,3-1.5c1.6-0.5,3.1,0,4.7,0.3c3.7,0.7,7,2.5,10.4,4.1c0.6,0.3,1.2,0.5,1.8,0.5
				c0.8,0,1.6-0.5,2.4-0.6c0.9,0,1.7,0.6,2.6,1.1c1.1,0.7,2.4,1.1,3.7,1.2c1,0.1,2,0.1,3,0.5c1,0.5,1.7,1.4,2.2,2.3
				c0.1,0.2,0.1,0.3,0.1,0.5c0,0.2-0.1,0.3-0.3,0.4c-0.7,0.6-1.5,1-2.3,1.4c-3.5,1.4-7.6,1.5-11.2,0.3c-0.8-0.3-1.5-0.6-2.3-0.7
				c-2.8-0.3-4.6,2-6.7,3.4c-2.4,1.6-4.9,3.2-7.5,4.7c-5.1,3-10.3,5.7-15.6,8.3c-7.4,3.7-14.9,7.2-22.3,11c-4.5,2.3-9,4.8-12.9,8
				c-1.4,1.1-2.7,2.3-4.3,3.1c-2.6,1.2-5.5,0.9-8.1,0.1c-1-0.3-2.1-0.5-3.1-1c-0.8-0.4-2.2-1-2.8-1.7c-0.1-0.1-0.2-0.3-0.3-0.5
				c-0.1-0.2-0.2-0.4-0.2-0.6c0-0.4,0.2-0.7,0.5-1.1c0.7-0.8,1.6-1.6,2-2.6c0.4-1,0.6-1.8,1.3-2.7C16.7,49.9,18.5,48.5,20.5,47.7z"
				/>
			<g clip-path="url(#SVGID_2_)">
				<path fill="none" d="M91.7,10c-0.6,0.3-1.2,0.6-1.7,1c-1.6,1-3.1,2.1-4.6,3.2c1,0.5,2,1.1,3,1.5C89.7,13.9,90.9,12,91.7,10z"/>
				<path fill="#DA935E" d="M67.2,30c1.9-1.2,3.8-2.3,5.6-3.7c3.5-2.8,6.3-6.3,9.5-9.3c1-1,2.1-1.9,3.2-2.7c-0.1,0-0.2-0.1-0.3-0.1
					c-2-0.9-4.3-0.9-6.3-0.2c-1.8,0.6-2.8,1.9-4.1,2.9c-0.1,0.1-0.2,0.3-0.2,0.4C72.2,21.5,70,26,67.2,30z"/>
				<path fill="#E49E65" d="M63.2,32.4c1.3-0.8,2.7-1.6,4-2.4c2.8-4,5-8.4,7.3-12.8c0.1-0.1,0.2-0.3,0.2-0.4
					c-0.2,0.2-0.4,0.3-0.6,0.4c-1.5,1-3.4,1.5-4.8,2.6c-1.8,1.4-2.8,3.5-4.1,5.4c-1.3,2-3,3.7-5,5c-2.2,1.5-7.3,3.8-6.1,7.5
					c0.2,0.6,0.7,1.1,1.3,1.6C57.4,36.5,60.2,34.3,63.2,32.4z"/>
				<path fill="#DA935E" d="M76.2,32.4c0.3-0.9,0.7-1.7,1-2.6c-4.7,2.1-9.4,4.2-12.8,8c-0.9,1-1.7,2.2-2.5,3.4c0.4,0,0.7,0.1,1,0.1
					c2.3,0.4,4.6,0.5,7,0.5C72.9,39.4,74.8,36,76.2,32.4z"/>
				<path fill="#ECAA7A" d="M106.8,20.8c-0.9,0-1.8-0.2-2.6-0.6c-0.4,0.3-0.8,0.6-1.2,0.9C96.2,26.5,90.3,33,84.6,39.5
					c3.3-1.1,6.6-2.5,9.6-4.3c2.4-1.4,4.7-3,7.2-4c2-0.5,1.7-1.7,2.1-3.2c0.5-1.6,2.8-2.4,4.1-3.2c0.6-0.3,1.1-0.7,1.5-1.3
					c0.4-0.5,0.6-1.3,0.2-1.9C109,20.8,107.8,20.8,106.8,20.8z"/>
				<path fill="#E49E65" d="M103,21.1c0.4-0.3,0.8-0.6,1.2-0.9c-0.4-0.2-0.8-0.5-1.1-0.8c-0.6-0.7-0.9-1.6-1.7-2.1
					c-0.8-0.6-1.8-0.5-2.8-0.4c-2.3,1.5-4.6,3.2-6.8,4.8c-3.3,2.4-6.7,4.5-10.3,6.3c-1.4,0.7-2.8,1.3-4.3,2c-0.3,0.9-0.7,1.7-1,2.6
					c-1.4,3.5-3.3,7-6.3,9.4c1.2,0,2.4,0,3.6-0.1c3.7-0.3,7.5-1,11-2.2C90.3,33,96.2,26.5,103,21.1z"/>
				<path fill="#ECAA7A" d="M98.3,16.8c-1.8,0.1-3.5-0.1-5.2-0.3c-1.4-0.2-2.9-0.1-4.2-0.5c-0.2-0.1-0.3-0.1-0.5-0.2
					c-1-0.4-2-1-3-1.5c-1.1,0.9-2.1,1.8-3.2,2.7c-3.2,3.1-6,6.6-9.5,9.3c-1.8,1.4-3.7,2.6-5.6,3.7c-1.3,0.8-2.7,1.6-4,2.4
					c-2.9,1.9-5.8,4.1-7.7,6.9c1.7,1.2,4.5,1.6,6.5,1.8c0.8-1.2,1.6-2.3,2.5-3.4c3.4-3.8,8.1-5.9,12.8-8c1.4-0.6,2.9-1.3,4.3-2
					c3.6-1.8,7-3.9,10.3-6.3c2.2-1.6,4.4-3.3,6.8-4.8C98.5,16.8,98.4,16.8,98.3,16.8z"/>
			</g>
			<g clip-path="url(#SVGID_2_)">
				<path fill="#C9D8B5" d="M46.9,34.2c2.3-0.4,4.7,0.1,6.7,1.3c-0.5,0.4-1,0.7-1.5,1C50.6,35.3,48.8,34.5,46.9,34.2z"/>
				<path fill="#B9C68F" d="M44,40.8c-0.8-0.1-1.5-0.3-2.3-0.6c-0.6-0.2-1.1-0.5-1.6-0.9c0.1-0.2,0.1-0.4,0.2-0.6
					c0.2-0.4,0.5-0.8,0.8-1.2c0.3,0.6,0.7,1.1,1.2,1.6C42.8,39.8,43.4,40.3,44,40.8z"/>
				<path fill="#BBCCAD" d="M47.4,37.5c-0.9-0.4-1.7-0.8-2.5-1.4c-0.4-0.2-0.7-0.6-0.9-1c0.9-0.4,1.8-0.8,2.7-0.9c0.1,0,0.1,0,0.2,0
					c1.9,0.3,3.7,1.1,5.2,2.3C50.7,37.2,49,37.6,47.4,37.5z"/>
				<path fill="#C8D6A5" d="M47.4,37.5c2,0.9,4.1,1.5,6.3,1.8c-0.5,0.4-1.1,0.7-1.7,0.9c-1.7,0.7-3.6,0.8-5.5,0.8
					c-0.8,0-1.6-0.1-2.4-0.2c-0.6-0.5-1.2-1.1-1.7-1.7c-0.4-0.5-0.8-1-1.2-1.6c0.4-0.6,1-1.1,1.6-1.5c1.2,0.7,2.5,1.2,3.8,1.4
					C46.8,37.5,47.1,37.5,47.4,37.5z"/>
				<path fill="#B9C68F" d="M44.9,36.1c0.8,0.5,1.6,1,2.5,1.4c-0.3,0-0.6,0-0.9-0.1c-1.4-0.2-2.7-0.7-3.8-1.4
					c0.4-0.3,0.9-0.6,1.4-0.9C44.2,35.6,44.5,35.9,44.9,36.1z"/>
				<path fill="#98A77D" d="M50.9,44.6c-2.6-0.7-4.9-2-6.9-3.7c0.8,0.1,1.6,0.2,2.4,0.2c1.9,0,3.8-0.1,5.5-0.8
					c0.6-0.2,1.2-0.5,1.7-0.9c1.1,0.2,2.2,0.3,3.3,0.3c0.3,0.8,0.5,1.6,0.6,2.5c-1.4,1.4-3.6,2.1-5.6,2.4
					C51.6,44.5,51.3,44.5,50.9,44.6z"/>
				<path fill="#C8D6A5" d="M53.6,39.3c-2.2-0.3-4.3-0.9-6.3-1.8c1.6,0.1,3.3-0.3,4.8-1c0.1,0.1,0.3,0.2,0.4,0.3
					c-0.1-0.1-0.3-0.2-0.4-0.3c0.5-0.3,1-0.6,1.5-1c0.2,0.2,0.5,0.3,0.7,0.5c0.5,0.4,0.9,0.8,1.3,1.3C55.1,38.1,54.4,38.8,53.6,39.3
					z"/>
				<path fill="#B9C68F" d="M40.1,39.4c0.5,0.4,1.1,0.7,1.6,0.9c0.7,0.3,1.5,0.5,2.3,0.6c2,1.7,4.4,3,6.9,3.7
					c-2.9,0.3-5.8,0.3-8.7-0.5c-0.8-0.2-1.6-0.5-2.4-0.8C39.6,42,39.6,40.6,40.1,39.4z"/>
				<path fill="#B9C68F" d="M50.9,44.6c1.4,0.4,2.8,0.6,4.3,0.6c0.6,0,1.1,0,1.7-0.1c-0.2,0.3-0.4,0.6-0.6,0.9
					c-2.3,2.9-6.5,2.7-9.8,2.2c-1.8-0.3-3.6-0.7-4.9-1.9c-0.9-0.8-1.5-1.8-1.7-3c0.8,0.3,1.6,0.6,2.4,0.8
					C45.1,44.8,48,44.9,50.9,44.6z"/>
				<path fill="#C8D6A5" d="M55.2,45.2c-1.4,0-2.9-0.2-4.3-0.6c0.3,0,0.7-0.1,1-0.1c2-0.3,4.2-0.9,5.6-2.4c0,1-0.2,2-0.6,2.9
					C56.3,45.1,55.8,45.2,55.2,45.2z"/>
				<path fill="#98A77D" d="M55.6,37.3c0.6,0.7,1,1.5,1.4,2.3c-1.1,0-2.2-0.1-3.3-0.3C54.4,38.8,55.1,38.1,55.6,37.3z"/>
			</g>
			<g clip-path="url(#SVGID_2_)">
				<path fill="#FFD5DE" d="M36.8,41.4c-2.3-0.1-4.7,0.6-6.5,2c0.5,0.3,1,0.6,1.6,0.8C33.3,42.9,35,41.9,36.8,41.4z"/>
				<path fill="#FFCDD6" d="M40.5,47.6c0.8-0.2,1.5-0.5,2.2-0.8c0.5-0.3,1.1-0.7,1.5-1.1c-0.1-0.2-0.2-0.4-0.3-0.6
					c-0.3-0.4-0.6-0.8-0.9-1.1c-0.3,0.6-0.6,1.2-1,1.7C41.5,46.4,41,47,40.5,47.6z"/>
				<path fill="#FFE1EA" d="M36.7,44.7c0.8-0.5,1.6-1,2.3-1.6c0.3-0.3,0.7-0.7,0.8-1.1c-0.9-0.3-1.8-0.5-2.8-0.6c-0.1,0-0.1,0-0.2,0
					c-1.8,0.5-3.5,1.5-4.9,2.8C33.4,44.8,35.1,44.9,36.7,44.7z"/>
				<path fill="#FFCDD6" d="M36.7,44.7c-1.9,1.1-3.9,2-6,2.5c0.6,0.3,1.2,0.5,1.8,0.7c1.8,0.5,3.7,0.4,5.6,0.2
					c0.8-0.1,1.6-0.2,2.4-0.4c0.5-0.6,1.1-1.2,1.5-1.9c0.4-0.5,0.7-1.1,1-1.7c-0.5-0.5-1.1-1-1.7-1.4c-1.1,0.8-2.3,1.5-3.6,1.8
					C37.3,44.6,37,44.6,36.7,44.7z"/>
				<path fill="#FFBAC2" d="M39,43c-0.7,0.6-1.5,1.1-2.3,1.6c0.3,0,0.6-0.1,0.9-0.2c1.3-0.3,2.6-1,3.6-1.8c-0.5-0.3-0.9-0.5-1.4-0.7
					C39.7,42.4,39.4,42.7,39,43z"/>
				<path fill="#FFBAC2" d="M34,52.1c2.5-1,4.7-2.5,6.5-4.5c-0.8,0.2-1.6,0.3-2.4,0.4c-1.9,0.2-3.8,0.3-5.6-0.2
					c-0.6-0.2-1.2-0.4-1.8-0.7c-1.1,0.3-2.2,0.5-3.3,0.6c-0.2,0.8-0.3,1.7-0.3,2.5c1.5,1.3,3.8,1.6,5.8,1.7
					C33.3,52.1,33.6,52.1,34,52.1z"/>
				<path fill="#FFCDD6" d="M30.7,47.2c2.1-0.5,4.2-1.4,6-2.5c-1.6,0.3-3.3,0.1-4.8-0.5c-0.1,0.1-0.2,0.2-0.3,0.3
					c0.1-0.1,0.2-0.2,0.3-0.3c-0.6-0.2-1.1-0.5-1.6-0.8c-0.2,0.2-0.5,0.4-0.7,0.6c-0.4,0.4-0.8,0.9-1.1,1.4
					C29.1,46.1,29.9,46.7,30.7,47.2z"/>
				<path fill="#FFDDE6" d="M44.2,45.7c-0.5,0.4-1,0.8-1.5,1.1c-0.7,0.4-1.4,0.6-2.2,0.8c-1.8,2-4,3.5-6.5,4.5
					c2.9,0,5.8-0.4,8.6-1.4c0.8-0.3,1.6-0.7,2.3-1.1C45,48.3,44.8,46.9,44.2,45.7z"/>
				<path fill="#FBBEC7" d="M34,52.1c-1.3,0.5-2.7,0.9-4.2,1.1c-0.6,0.1-1.1,0.1-1.7,0c0.2,0.3,0.4,0.6,0.7,0.9
					c2.6,2.6,6.8,2,9.9,1.1c1.7-0.5,3.5-1.1,4.7-2.4c0.8-0.9,1.3-2,1.4-3.1c-0.7,0.4-1.5,0.8-2.3,1.1C39.8,51.7,36.9,52.1,34,52.1z"
					/>
				<path fill="#FBBEC7" d="M29.8,53.2c1.4-0.2,2.8-0.5,4.2-1.1c-0.3,0-0.7,0-1,0c-2.1-0.1-4.3-0.5-5.8-1.7c0.1,1,0.4,2,1,2.8
					C28.7,53.2,29.2,53.2,29.8,53.2z"/>
				<path fill="#FFDDE6" d="M28.5,45.4c-0.5,0.7-0.9,1.6-1.1,2.4c1.1-0.1,2.2-0.4,3.3-0.6C29.9,46.7,29.1,46.1,28.5,45.4z"/>
			</g>
			<g clip-path="url(#SVGID_2_)">
				<path fill="#FFEEDF" d="M21.9,48.5c2.3-0.5,4.7-0.3,6.8,0.8c-0.4,0.4-0.9,0.8-1.4,1.1C25.6,49.3,23.8,48.7,21.9,48.5z"/>
				<path fill="#FBEADC" d="M19.5,55.3c-0.8-0.1-1.6-0.2-2.3-0.4c-0.6-0.2-1.2-0.4-1.7-0.8c0.1-0.2,0.1-0.4,0.2-0.6
					c0.2-0.5,0.4-0.9,0.7-1.3c0.4,0.5,0.8,1,1.3,1.5C18.2,54.3,18.8,54.8,19.5,55.3z"/>
				<path fill="#FBE7D6" d="M22.6,51.7c-0.9-0.3-1.7-0.7-2.6-1.2c-0.4-0.2-0.8-0.5-1-0.9c0.8-0.5,1.7-0.9,2.6-1.1c0.1,0,0.1,0,0.2,0
					c1.9,0.2,3.8,0.8,5.4,1.9C25.8,51.2,24.2,51.7,22.6,51.7z"/>
				<path fill="#F1E0D3" d="M22.6,51.7c2,0.8,4.2,1.2,6.4,1.3c-0.5,0.4-1.1,0.8-1.6,1c-1.7,0.8-3.6,1.1-5.4,1.2
					c-0.8,0-1.6,0.1-2.4,0c-0.7-0.5-1.3-1-1.9-1.6c-0.5-0.5-0.9-1-1.3-1.5c0.4-0.6,0.9-1.2,1.4-1.7c1.2,0.6,2.6,1,3.9,1.1
					C22,51.7,22.3,51.7,22.6,51.7z"/>
				<path fill="#F1E0D3" d="M20,50.5c0.8,0.5,1.7,0.8,2.6,1.2c-0.3,0-0.6,0-0.9,0c-1.4-0.1-2.7-0.5-3.9-1.1c0.4-0.4,0.8-0.7,1.3-1
					C19.2,50,19.6,50.3,20,50.5z"/>
				<path fill="#F1E0D3" d="M26.7,58.5c-2.6-0.5-5.1-1.6-7.2-3.2c0.8,0.1,1.6,0,2.4,0c1.9-0.1,3.8-0.4,5.4-1.2
					c0.6-0.3,1.1-0.6,1.6-1c1.1,0.1,2.2,0.1,3.4,0c0.4,0.8,0.6,1.6,0.7,2.4c-1.3,1.5-3.4,2.3-5.4,2.8C27.3,58.4,27,58.4,26.7,58.5z"
					/>
				<path fill="#FBE7D8" d="M28.9,53c-2.2-0.1-4.3-0.6-6.4-1.3c1.6,0,3.3-0.5,4.7-1.4c0.1,0.1,0.3,0.2,0.4,0.3
					c-0.1-0.1-0.3-0.2-0.4-0.3c0.5-0.3,1-0.7,1.4-1.1c0.3,0.1,0.5,0.3,0.8,0.5c0.5,0.3,0.9,0.7,1.4,1.2C30.3,51.7,29.7,52.4,28.9,53
					z"/>
				<path fill="#E7D3C3" d="M15.5,54.1c0.5,0.3,1.1,0.6,1.7,0.8c0.8,0.2,1.5,0.3,2.3,0.4c2.1,1.6,4.6,2.7,7.2,3.2
					c-2.9,0.6-5.8,0.7-8.7,0.2c-0.8-0.1-1.6-0.4-2.4-0.6C15.1,56.8,15.1,55.4,15.5,54.1z"/>
				<path fill="#FBF6F3" d="M26.7,58.5c1.4,0.3,2.9,0.4,4.3,0.3c0.6,0,1.1-0.1,1.7-0.3c-0.1,0.3-0.3,0.7-0.5,1
					c-2.1,3-6.3,3.2-9.6,2.9c-1.8-0.2-3.6-0.4-5-1.5c-1-0.7-1.6-1.7-2-2.8c0.8,0.3,1.6,0.5,2.4,0.6C20.9,59.2,23.8,59,26.7,58.5z"/>
				<path fill="#FBF6F3" d="M31,58.8c-1.4,0.1-2.9,0-4.3-0.3c0.3-0.1,0.6-0.1,1-0.2c2-0.5,4.1-1.2,5.4-2.8c0.1,1,0,2-0.4,3
					C32.1,58.6,31.5,58.7,31,58.8z"/>
				<path fill="#E7D3C3" d="M30.8,50.9c0.6,0.6,1.1,1.4,1.5,2.2c-1.1,0.1-2.2,0-3.4,0C29.7,52.4,30.3,51.7,30.8,50.9z"/>
			</g>
			<g clip-path="url(#SVGID_2_)">
				<path fill="#C59B6D" d="M64.6,34.2c0.1,0,0.2,0.1,0.3,0.2c0.4,0.6-1.4,1.2-1.7,1.5c-0.9,0.7-1.8,1.4-2.7,2.1
					c-1.8,1.4-3.6,2.8-5.4,4.2C51.5,45,47.9,48,44.5,51c-3.5,3-6.8,6.1-10.2,9.3c-1.9,1.9-3.8,3.7-6,5.2c-0.9,0.6-1.8,1.1-2.8,1.2
					c-2.3,0.1-2-1.3-0.8-2.6c1.3-1.4,2.7-2.7,4.1-4c2.8-2.7,5.6-5.3,8.5-7.8c5.7-5,11.6-9.9,17.7-14.4c1.9-1.4,3.5-3,5.8-3.8
					c0.5-0.2,1-0.3,1.6-0.3c0.4,0,0.8,0.1,1.1,0.2c0.3,0.1,0.7,0.1,1,0.2C64.5,34.2,64.6,34.2,64.6,34.2z"/>
				<path fill="#F83439" d="M70.5,33.2c0.3,0,0.5,0.1,0.6,0.3c0.2,0.4-0.2,0.9-0.5,1.3c-1,0.9-2,1.9-3.1,2.6
					c-1.2,0.7-2.4,1.5-3.6,2.3c-2.3,1.6-4.4,3.5-6.8,5.2c-3.5,2.7-7,5.6-10.4,8.6c-4.7,4.1-9.2,8.5-13.7,12.9
					c-1.1,1.1-3.1,3-4.7,1.9c-1.9-1.3,0.5-3.1,1.5-4c3.2-3.2,6.5-6.2,9.9-9.3c6.6-6,13.5-11.7,20.5-17.2c1.5-1.2,2.8-2.4,4.5-3.2
					c1.7-0.8,3.5-1.3,5.4-1.4C70.3,33.2,70.4,33.2,70.5,33.2z"/>
				<path fill="#334ABF" d="M69.9,34.4c1.3-0.9,2.7-1.7,4.2-2.1c0.4-0.1,0.8-0.2,1.2-0.2c0.4,0.1,0.8,0.3,0.9,0.7
					c0.1,0.4-0.1,0.8-0.1,1.2c0,0.4,0.3,2.1,1,1.6c-1.7,1-3.4,1.9-5,2.9c-15.2,9-29,20.7-41.6,33.5c-1.1,1.1-3.1,3-4.7,1.9
					c-1.9-1.3,0.5-3.1,1.5-4c3.2-3.2,6.5-6.2,9.9-9.3c6.6-6,13.5-11.7,20.5-17.2c2.8-2.1,5.6-4.3,8.4-6.3
					C67.4,36.2,68.6,35.2,69.9,34.4z"/>
				<path fill="#00A89C" d="M77.8,31.6c0.3-0.2,0.5-0.4,0.8-0.4c0.4-0.1,0.8,0,1.2,0.1c1.7,0.5,3.5,1,5.2,1.6c-1.7,1-3.4,1.9-5,2.9
					c-15.2,9-29,20.7-41.6,33.5c-1.1,1.1-3.1,3-4.7,1.9c-1.9-1.3,0.5-3.1,1.5-4c3.2-3.2,6.5-6.2,9.9-9.3c6.6-6,13.5-11.7,20.5-17.2
					C69.5,37.6,73.6,34.5,77.8,31.6z"/>
			</g>
			<g clip-path="url(#SVGID_2_)">
				<g>
					<g>
						<path fill-rule="evenodd" clip-rule="evenodd" fill="#E8ECF7" d="M71.3,71.2c0.2-0.1,0.3-0.1,0.5-0.2c0,0.7-0.5,1.3-1.4,1.8
							c-0.9,0.5-2,0.8-3.3,0.8c-1.3,0-2.4-0.3-3.3-0.8c-0.8-0.4-1.2-1-1.3-1.6c0-0.1,0-0.2,0-0.3c0.2,0.1,0.4,0.1,0.5,0.2
							c0.2,0.2,0.5,0.5,0.9,0.7c0.9,0.5,2,0.8,3.3,0.8c1.3,0,2.4-0.3,3.3-0.8C70.8,71.7,71.1,71.5,71.3,71.2z"/>
						<path fill-rule="evenodd" clip-rule="evenodd" fill="#D3D4D5" d="M63,71.2c1.2,0.5,2.6,0.7,4.2,0.7c1.6,0,2.9-0.2,4.2-0.7
							c-0.2,0.2-0.5,0.5-0.8,0.7c-0.9,0.5-2,0.8-3.3,0.8c-1.3,0-2.4-0.3-3.3-0.8C63.5,71.7,63.2,71.5,63,71.2z"/>
					</g>
					<path fill-rule="evenodd" clip-rule="evenodd" fill="#FFB2A2" d="M73.2,43.9C73.2,43.9,73.2,43.9,73.2,43.9
						c0,1-0.6,1.8-1.7,2.5c-1.1,0.7-2.5,1-4.1,1c-1.6,0-3-0.3-4.1-1c-1.1-0.7-1.7-1.4-1.7-2.4c0,0,0-0.1,0-0.1
						c0-0.9,0.6-1.7,1.7-2.3c0.2-0.1,0.3-0.2,0.5-0.3v2.5c0,0.1,0,0.1,0,0.2c0,0.6,0.3,1,1,1.4c0.7,0.4,1.4,0.6,2.4,0.6
						c0.9,0,1.7-0.2,2.4-0.6c0.7-0.4,1-0.8,1-1.4c0,0,0-0.1,0-0.1h0v-2.8c0.3,0.1,0.6,0.3,0.9,0.4C72.6,42.2,73.1,43,73.2,43.9z"/>
					<path fill-rule="evenodd" clip-rule="evenodd" fill="#EEC850" d="M73.2,43.9C73.2,43.9,73.2,43.9,73.2,43.9
						c0,1-0.6,1.8-1.7,2.5c-1.1,0.7-2.5,1-4.1,1c-1.6,0-3-0.3-4.1-1c-1.1-0.7-1.7-1.4-1.7-2.4c0,0,0-0.1,0-0.1
						c0,0-2.2,23.2-2.2,23.5c0,0.3,0,0.5,0.1,0.8c0.1,0.2,0.2,0.5,0.3,0.7c0.3,0.5,0.8,1,1.4,1.4c0.2,0.1,0.3,0.2,0.5,0.3
						c0.3,0.2,0.6,0.3,0.9,0.5c1.3,0.6,2.9,0.9,4.6,0.9c1.7,0,3.3-0.3,4.6-0.9c0.3-0.1,0.6-0.3,1-0.5c0.2-0.1,0.5-0.3,0.7-0.4
						c0.1-0.1,0.3-0.2,0.4-0.3c0,0,0,0,0,0c0.3-0.3,0.5-0.5,0.7-0.8c0.2-0.3,0.3-0.6,0.4-0.9c0,0,0,0,0,0c0.1-0.3,0.1-0.5,0.1-0.8
						C75,67.1,73.2,43.9,73.2,43.9z"/>
					<g>
						<path fill="#F5917C" d="M59.4,65.9c-0.1,0.9-0.1,1.4-0.1,1.5c0,0.3,0,0.5,0.1,0.8c0.1,0.2,0.2,0.5,0.3,0.7
							c0.3,0.5,0.8,1,1.4,1.4c0.2,0.1,0.3,0.2,0.5,0.3c0.3,0.2,0.6,0.3,0.9,0.5c1.3,0.6,2.9,0.9,4.6,0.9c1.7,0,3.3-0.3,4.6-0.9
							c0.3-0.1,0.6-0.3,1-0.5c0.2-0.1,0.5-0.3,0.7-0.4c0.1-0.1,0.3-0.2,0.4-0.3c0,0,0,0,0,0c0.3-0.3,0.5-0.5,0.7-0.8
							c0.2-0.3,0.3-0.6,0.4-0.9c0,0,0,0,0,0c0.1-0.3,0.1-0.5,0.1-0.8c0,0,0-0.4-0.1-1C67.3,69.4,62,67.3,59.4,65.9z"/>
						<path fill="#FFA287" d="M73.6,49.5c-0.3-3.3-0.4-5.7-0.4-5.7c0,0,0,0,0,0.1c0,0.9-0.6,1.7-1.7,2.4c-1.1,0.7-2.5,1-4.1,1
							c-1.6,0-3-0.3-4.1-1c-1.1-0.7-1.7-1.4-1.7-2.4c0,0,0-0.1,0-0.1c0,0-0.2,1.7-0.4,4.1c0,0.3-0.1,0.7-0.1,1.1
							c2.3,0.8,6.3,1.6,12.6,1C73.6,49.8,73.6,49.7,73.6,49.5z"/>
						<path fill="#F5917C" d="M73.7,51.3c0-0.5-0.1-0.9-0.1-1.4c-6.3,0.6-10.3-0.1-12.6-1c-0.1,1-0.2,2-0.3,3.1c0,0.3,0,0.5-0.1,0.8
							c2.6,0.4,7,0.7,13.2-0.4C73.8,52.1,73.8,51.7,73.7,51.3z"/>
						<g>
							<path fill="#FFAEA5" d="M60.7,53c-0.1,0.8-0.2,1.6-0.2,2.4c0,0.3,0,0.5-0.1,0.8c3.2,0.6,6.4,0.8,9.2,0.7
								c-2.3-1.3-4-2.5-5-3.4C63,53.3,61.7,53.1,60.7,53z"/>
							<path fill="#FFA287" d="M74.1,55.5c-0.1-1-0.2-2-0.2-3c-3.7,0.7-6.9,0.9-9.3,0.8c1,0.9,2.7,2.1,5,3.4
								c1.7-0.1,3.3-0.2,4.6-0.4C74.1,56,74.1,55.8,74.1,55.5z"/>
						</g>
						<g>
							<path fill="#FFA287" d="M74.5,61c-2.5,0.7-7.3,1.5-14.7,0.8c-0.1,1.1-0.2,2.1-0.3,3c0,0.4-0.1,0.8-0.1,1.1
								c0.7,0.4,1.7,0.9,2.9,1.3c2.1-0.3,7.1-1.2,12.3-4.3C74.6,62.2,74.6,61.6,74.5,61z"/>
							<path fill="#FFAEA5" d="M74.6,62.8c-5.2,3.1-10.2,4.1-12.3,4.3c2.9,0.9,7.2,1.4,12.6-0.8c0-0.2,0-0.5-0.1-0.8
								C74.8,64.8,74.7,63.9,74.6,62.8z"/>
						</g>
						<g>
							<path fill="#E98374" d="M59.9,61.4c0,0.1,0,0.2,0,0.4c3.8,0.4,7,0.3,9.5,0.1c-4.6-0.4-7.6-2.3-9.1-3.7
								C60.1,59.3,60,60.4,59.9,61.4z"/>
							<path fill="#F5917C" d="M74.5,60.4c-0.1-1.3-0.2-2.7-0.3-4c-3.5,0.5-8.7,0.8-13.8-0.3c-0.1,0.7-0.1,1.4-0.2,2.1
								c1.5,1.4,4.5,3.3,9.1,3.7c2.3-0.2,4-0.6,5.2-0.9C74.5,60.8,74.5,60.6,74.5,60.4z"/>
						</g>
					</g>
					<g>
						<g>
							<path fill="#CED7E4" d="M69.5,42.3c-0.7,0.4-1.5,0.6-2.4,0.6c-0.9,0-1.7-0.2-2.4-0.6c-0.5-0.3-0.8-0.6-1-1c0-0.1,0-0.1,0-0.2
								v0.2v2.5c0,0.1,0,0.1,0,0.2c0,0.6,0.3,1,1,1.4c0.7,0.4,1.4,0.6,2.4,0.6c0.9,0,1.7-0.2,2.4-0.6c0.7-0.4,1-0.8,1-1.4
								c0,0,0-0.1,0-0.1h0v-2.8h0C70.4,41.6,70.1,42,69.5,42.3z"/>
						</g>
						<path fill-rule="evenodd" clip-rule="evenodd" fill="#E8ECF7" d="M63.8,41.3c0-0.1,0-0.1,0-0.2c0-0.1,0-0.1,0-0.2
							c0-0.1,0.1-0.2,0.1-0.3c0.1-0.1,0.1-0.2,0.2-0.3c0.1-0.1,0.2-0.2,0.3-0.3c0.1-0.1,0.2-0.2,0.4-0.3c0.7-0.4,1.4-0.6,2.4-0.6
							c0.9,0,1.7,0.2,2.4,0.6c0.5,0.3,0.9,0.7,1,1.1c0,0.1,0,0.2,0,0.3c0,0.1,0,0.1,0,0.2c-0.1,0.5-0.4,0.9-1,1.2
							c-0.7,0.4-1.5,0.6-2.4,0.6c-0.9,0-1.7-0.2-2.4-0.6c-0.5-0.3-0.8-0.6-1-1C63.8,41.4,63.8,41.3,63.8,41.3z"/>
						<path fill-rule="evenodd" clip-rule="evenodd" fill="#8F8F92" d="M65,41c0-0.3,0.2-0.6,0.6-0.8c0.4-0.2,0.9-0.4,1.5-0.4
							c0.6,0,1.1,0.1,1.5,0.4c0.3,0.2,0.5,0.4,0.6,0.7c0,0.1,0,0.1,0,0.2c0,0.3-0.2,0.6-0.6,0.9c-0.4,0.2-0.9,0.4-1.5,0.4
							c-0.6,0-1.1-0.1-1.5-0.4c-0.4-0.2-0.6-0.5-0.6-0.8C65,41.1,65,41,65,41z"/>
					</g>
				</g>
				<g>
					<g>
						<path fill-rule="evenodd" clip-rule="evenodd" fill="#E8ECF7" d="M60.9,77.9c0.2-0.1,0.3-0.1,0.5-0.2c0,0.7-0.5,1.3-1.4,1.8
							c-0.9,0.5-2,0.8-3.3,0.8c-1.3,0-2.4-0.3-3.3-0.8c-0.8-0.4-1.2-1-1.3-1.6c0-0.1,0-0.2,0-0.3c0.2,0.1,0.4,0.1,0.5,0.2
							c0.2,0.2,0.5,0.5,0.9,0.7c0.9,0.5,2,0.8,3.3,0.8c1.3,0,2.4-0.3,3.3-0.8C60.4,78.4,60.7,78.2,60.9,77.9z"/>
						<path fill-rule="evenodd" clip-rule="evenodd" fill="#D3D4D5" d="M52.5,77.9c1.2,0.5,2.6,0.7,4.2,0.7c1.6,0,2.9-0.2,4.2-0.7
							c-0.2,0.2-0.5,0.5-0.8,0.7c-0.9,0.5-2,0.8-3.3,0.8c-1.3,0-2.4-0.3-3.3-0.8C53,78.4,52.8,78.2,52.5,77.9z"/>
					</g>
					<path fill-rule="evenodd" clip-rule="evenodd" fill="#3FDF9D" d="M62.7,50.6C62.7,50.6,62.7,50.6,62.7,50.6
						c0,1-0.6,1.8-1.7,2.5c-1.1,0.7-2.5,1-4.1,1c-1.6,0-3-0.3-4.1-1c-1.1-0.7-1.7-1.4-1.7-2.4c0,0,0-0.1,0-0.1
						c0-0.9,0.6-1.7,1.7-2.3c0.2-0.1,0.3-0.2,0.5-0.3v2.5c0,0.1,0,0.1,0,0.2c0,0.6,0.3,1,1,1.4c0.7,0.4,1.4,0.6,2.4,0.6
						c0.9,0,1.7-0.2,2.4-0.6c0.7-0.4,1-0.8,1-1.4c0,0,0-0.1,0-0.1h0v-2.8c0.3,0.1,0.6,0.3,0.9,0.4C62.1,48.9,62.7,49.7,62.7,50.6z"
						/>
					<path fill-rule="evenodd" clip-rule="evenodd" fill="#2AC589" d="M62.7,50.6C62.7,50.6,62.7,50.6,62.7,50.6
						c0,1-0.6,1.8-1.7,2.5c-1.1,0.7-2.5,1-4.1,1c-1.6,0-3-0.3-4.1-1c-1.1-0.7-1.7-1.4-1.7-2.4c0,0,0-0.1,0-0.1
						c0,0-2.2,23.2-2.2,23.5c0,0.3,0,0.5,0.1,0.8c0.1,0.2,0.2,0.5,0.3,0.7c0.3,0.5,0.8,1,1.4,1.4c0.2,0.1,0.3,0.2,0.5,0.3
						c0.3,0.2,0.6,0.3,0.9,0.5c1.3,0.6,2.9,0.9,4.6,0.9c1.7,0,3.3-0.3,4.6-0.9c0.3-0.1,0.6-0.3,1-0.5c0.2-0.1,0.5-0.3,0.7-0.4
						c0.1-0.1,0.3-0.2,0.4-0.3c0,0,0,0,0,0c0.3-0.3,0.5-0.5,0.7-0.8c0.2-0.3,0.3-0.6,0.4-0.9c0,0,0,0,0,0c0.1-0.3,0.1-0.5,0.1-0.8
						C64.6,73.8,62.7,50.6,62.7,50.6z"/>
					<g>
						<path fill="#18B676" d="M49,72.6c-0.1,0.9-0.1,1.4-0.1,1.5c0,0.3,0,0.5,0.1,0.8c0.1,0.2,0.2,0.5,0.3,0.7
							c0.3,0.5,0.8,1,1.4,1.4c0.2,0.1,0.3,0.2,0.5,0.3c0.3,0.2,0.6,0.3,0.9,0.5c1.3,0.6,2.9,0.9,4.6,0.9c1.7,0,3.3-0.3,4.6-0.9
							c0.3-0.1,0.6-0.3,1-0.5c0.2-0.1,0.5-0.3,0.7-0.4c0.1-0.1,0.3-0.2,0.4-0.3c0,0,0,0,0,0c0.3-0.3,0.5-0.5,0.7-0.8
							c0.2-0.3,0.3-0.6,0.4-0.9c0,0,0,0,0,0c0.1-0.3,0.1-0.5,0.1-0.8c0,0,0-0.4-0.1-1C56.9,76.1,51.5,74.1,49,72.6z"/>
						<path fill="#2AC589" d="M63.2,56.3c-0.3-3.3-0.4-5.7-0.4-5.7c0,0,0,0,0,0.1c0,0.9-0.6,1.7-1.7,2.4c-1.1,0.7-2.5,1-4.1,1
							c-1.6,0-3-0.3-4.1-1c-1.1-0.7-1.7-1.4-1.7-2.4c0,0,0-0.1,0-0.1c0,0-0.2,1.7-0.4,4.1c0,0.3-0.1,0.7-0.1,1.1
							c2.3,0.8,6.3,1.6,12.6,1C63.2,56.6,63.2,56.4,63.2,56.3z"/>
						<path fill="#18B676" d="M63.3,58.1c0-0.5-0.1-0.9-0.1-1.4c-6.3,0.6-10.3-0.1-12.6-1c-0.1,1-0.2,2-0.3,3.1c0,0.3,0,0.5-0.1,0.8
							c2.6,0.4,7,0.7,13.2-0.4C63.4,58.8,63.3,58.4,63.3,58.1z"/>
						<g>
							<path fill="#3ACD90" d="M50.2,59.7c-0.1,0.8-0.2,1.6-0.2,2.4c0,0.3,0,0.5-0.1,0.8c3.2,0.6,6.4,0.8,9.2,0.7
								c-2.3-1.3-4-2.5-5-3.4C52.5,60,51.2,59.8,50.2,59.7z"/>
							<path fill="#2AC589" d="M63.6,62.2c-0.1-1-0.2-2-0.2-3c-3.7,0.7-6.9,0.9-9.3,0.8c1,0.9,2.7,2.1,5,3.4
								c1.7-0.1,3.3-0.2,4.6-0.4C63.7,62.8,63.7,62.5,63.6,62.2z"/>
						</g>
						<g>
							<path fill="#2AC589" d="M64.1,67.7c-2.5,0.7-7.3,1.5-14.7,0.8c-0.1,1.1-0.2,2.1-0.3,3c0,0.4-0.1,0.8-0.1,1.1
								c0.7,0.4,1.7,0.9,2.9,1.3c2.1-0.3,7.1-1.2,12.3-4.3C64.2,68.9,64.1,68.3,64.1,67.7z"/>
							<path fill="#3ACD90" d="M64.2,69.5C59,72.6,54,73.6,51.9,73.9c2.9,0.9,7.2,1.4,12.6-0.8c0-0.2,0-0.5-0.1-0.8
								C64.4,71.5,64.3,70.6,64.2,69.5z"/>
						</g>
						<g>
							<path fill="#16A468" d="M49.4,68.1c0,0.1,0,0.2,0,0.4c3.8,0.4,7,0.3,9.5,0.1c-4.6-0.4-7.6-2.3-9.1-3.7
								C49.6,66,49.5,67.1,49.4,68.1z"/>
							<path fill="#18B676" d="M64,67.1c-0.1-1.3-0.2-2.7-0.3-4c-3.5,0.5-8.7,0.8-13.8-0.3c-0.1,0.7-0.1,1.4-0.2,2.1
								c1.5,1.4,4.5,3.3,9.1,3.7c2.3-0.2,4-0.6,5.2-0.9C64.1,67.5,64,67.3,64,67.1z"/>
						</g>
					</g>
					<g>
						<path fill="#CED7E4" d="M59.1,49c-0.7,0.4-1.5,0.6-2.4,0.6c-0.9,0-1.7-0.2-2.4-0.6c-0.5-0.3-0.8-0.6-1-1c0-0.1,0-0.1,0-0.2V48
							v2.5c0,0.1,0,0.1,0,0.2c0,0.6,0.3,1,1,1.4c0.7,0.4,1.4,0.6,2.4,0.6c0.9,0,1.7-0.2,2.4-0.6c0.7-0.4,1-0.8,1-1.4
							c0,0,0-0.1,0-0.1h0v-2.8h0C60,48.3,59.7,48.7,59.1,49z"/>
					</g>
					<path fill-rule="evenodd" clip-rule="evenodd" fill="#E8ECF7" d="M53.3,48c0-0.1,0-0.1,0-0.2c0-0.1,0-0.1,0-0.2
						c0-0.1,0.1-0.2,0.1-0.3c0.1-0.1,0.1-0.2,0.2-0.3c0.1-0.1,0.2-0.2,0.3-0.3c0.1-0.1,0.2-0.2,0.4-0.3c0.7-0.4,1.4-0.6,2.4-0.6
						c0.9,0,1.7,0.2,2.4,0.6c0.5,0.3,0.9,0.7,1,1.1c0,0.1,0,0.2,0,0.3c0,0.1,0,0.1,0,0.2c-0.1,0.5-0.4,0.9-1,1.2
						c-0.7,0.4-1.5,0.6-2.4,0.6c-0.9,0-1.7-0.2-2.4-0.6c-0.5-0.3-0.8-0.6-1-1C53.4,48.1,53.3,48,53.3,48z"/>
					<path fill-rule="evenodd" clip-rule="evenodd" fill="#8F8F92" d="M54.6,47.7c0-0.3,0.2-0.6,0.6-0.8c0.4-0.2,0.9-0.4,1.5-0.4
						c0.6,0,1.1,0.1,1.5,0.4c0.3,0.2,0.5,0.4,0.6,0.7c0,0.1,0,0.1,0,0.2c0,0.3-0.2,0.6-0.6,0.9c-0.4,0.2-0.9,0.4-1.5,0.4
						c-0.6,0-1.1-0.1-1.5-0.4c-0.4-0.2-0.6-0.5-0.6-0.8C54.6,47.8,54.6,47.8,54.6,47.7z"/>
				</g>
				<g>
					<g>
						<path fill-rule="evenodd" clip-rule="evenodd" fill="#E8ECF7" d="M50.4,85.4c0.2-0.1,0.3-0.1,0.5-0.2c0,0.7-0.5,1.3-1.4,1.8
							c-0.9,0.5-2,0.8-3.3,0.8c-1.3,0-2.4-0.3-3.3-0.8c-0.8-0.4-1.2-1-1.3-1.6c0-0.1,0-0.2,0-0.3c0.2,0.1,0.4,0.1,0.5,0.2
							c0.2,0.2,0.5,0.5,0.9,0.7c0.9,0.5,2,0.8,3.3,0.8c1.3,0,2.4-0.3,3.3-0.8C49.9,85.8,50.2,85.6,50.4,85.4z"/>
						<path fill-rule="evenodd" clip-rule="evenodd" fill="#D3D4D5" d="M42,85.4c1.2,0.5,2.6,0.7,4.2,0.7c1.6,0,2.9-0.2,4.2-0.7
							c-0.2,0.2-0.5,0.5-0.8,0.7c-0.9,0.5-2,0.8-3.3,0.8c-1.3,0-2.4-0.3-3.3-0.8C42.5,85.8,42.2,85.6,42,85.4z"/>
					</g>
					<path fill-rule="evenodd" clip-rule="evenodd" fill="#FBD86B" d="M52.2,58C52.2,58,52.2,58,52.2,58c0,1-0.6,1.8-1.7,2.5
						c-1.1,0.7-2.5,1-4.1,1c-1.6,0-3-0.3-4.1-1c-1.1-0.7-1.7-1.4-1.7-2.4c0,0,0-0.1,0-0.1c0-0.9,0.6-1.7,1.7-2.3
						c0.2-0.1,0.3-0.2,0.5-0.3V58c0,0.1,0,0.1,0,0.2c0,0.6,0.3,1,1,1.4c0.7,0.4,1.4,0.6,2.4,0.6c0.9,0,1.7-0.2,2.4-0.6
						c0.7-0.4,1-0.8,1-1.4c0,0,0-0.1,0-0.1h0v-2.8c0.3,0.1,0.6,0.3,0.9,0.4C51.6,56.3,52.2,57.1,52.2,58z"/>
					<path fill-rule="evenodd" clip-rule="evenodd" fill="#EEC850" d="M52.2,58C52.2,58,52.2,58,52.2,58c0,1-0.6,1.8-1.7,2.5
						c-1.1,0.7-2.5,1-4.1,1c-1.6,0-3-0.3-4.1-1c-1.1-0.7-1.7-1.4-1.7-2.4c0,0,0-0.1,0-0.1c0,0-2.2,23.2-2.2,23.5
						c0,0.3,0,0.5,0.1,0.8c0.1,0.2,0.2,0.5,0.3,0.7c0.3,0.5,0.8,1,1.4,1.4c0.2,0.1,0.3,0.2,0.5,0.3c0.3,0.2,0.6,0.3,0.9,0.5
						c1.3,0.6,2.9,0.9,4.6,0.9c1.7,0,3.3-0.3,4.6-0.9c0.3-0.1,0.6-0.3,1-0.5c0.2-0.1,0.5-0.3,0.7-0.4c0.1-0.1,0.3-0.2,0.4-0.3
						c0,0,0,0,0,0c0.3-0.3,0.5-0.5,0.7-0.8c0.2-0.3,0.3-0.6,0.4-0.9c0,0,0,0,0,0C54,82,54,81.8,54,81.5C54,81.2,52.2,58,52.2,58z"/>
					<g>
						<path fill="#E1B744" d="M38.5,80c-0.1,0.9-0.1,1.4-0.1,1.5c0,0.3,0,0.5,0.1,0.8c0.1,0.2,0.2,0.5,0.3,0.7
							c0.3,0.5,0.8,1,1.4,1.4c0.2,0.1,0.3,0.2,0.5,0.3c0.3,0.2,0.6,0.3,0.9,0.5c1.3,0.6,2.9,0.9,4.6,0.9c1.7,0,3.3-0.3,4.6-0.9
							c0.3-0.1,0.6-0.3,1-0.5c0.2-0.1,0.5-0.3,0.7-0.4c0.1-0.1,0.3-0.2,0.4-0.3c0,0,0,0,0,0c0.3-0.3,0.5-0.5,0.7-0.8
							c0.2-0.3,0.3-0.6,0.4-0.9c0,0,0,0,0,0C54,82,54,81.8,54,81.5c0,0,0-0.4-0.1-1C46.4,83.5,41,81.5,38.5,80z"/>
						<path fill="#EEC850" d="M52.7,63.7c-0.3-3.3-0.4-5.7-0.4-5.7c0,0,0,0,0,0.1c0,0.9-0.6,1.7-1.7,2.4c-1.1,0.7-2.5,1-4.1,1
							c-1.6,0-3-0.3-4.1-1c-1.1-0.7-1.7-1.4-1.7-2.4c0,0,0-0.1,0-0.1c0,0-0.2,1.7-0.4,4.1c0,0.3-0.1,0.7-0.1,1.1
							c2.3,0.8,6.3,1.6,12.6,1C52.7,64,52.7,63.8,52.7,63.7z"/>
						<path fill="#E1B744" d="M52.8,65.5c0-0.5-0.1-0.9-0.1-1.4c-6.3,0.6-10.3-0.1-12.6-1c-0.1,1-0.2,2-0.3,3.1c0,0.3,0,0.5-0.1,0.8
							c2.6,0.4,7,0.7,13.2-0.4C52.9,66.3,52.8,65.9,52.8,65.5z"/>
						<g>
							<path fill="#F8D46E" d="M39.7,67.1c-0.1,0.8-0.2,1.6-0.2,2.4c0,0.3,0,0.5-0.1,0.8c3.2,0.6,6.4,0.8,9.2,0.7
								c-2.3-1.3-4-2.5-5-3.4C42,67.4,40.7,67.3,39.7,67.1z"/>
							<path fill="#EEC850" d="M53.1,69.6c-0.1-1-0.2-2-0.2-3c-3.7,0.7-6.9,0.9-9.3,0.8c1,0.9,2.7,2.1,5,3.4
								c1.7-0.1,3.3-0.2,4.6-0.4C53.2,70.2,53.2,69.9,53.1,69.6z"/>
						</g>
						<g>
							<path fill="#EEC850" d="M53.6,75.1c-2.5,0.7-7.3,1.5-14.7,0.8c-0.1,1.1-0.2,2.1-0.3,3c0,0.4-0.1,0.8-0.1,1.1
								c0.7,0.4,1.7,0.9,2.9,1.3c2.1-0.3,7.1-1.2,12.3-4.3C53.7,76.4,53.6,75.7,53.6,75.1z"/>
							<path fill="#F8D46E" d="M53.7,76.9C48.5,80,43.5,81,41.4,81.3c2.9,0.9,7.2,1.4,12.6-0.8c0-0.2,0-0.5-0.1-0.8
								C53.9,78.9,53.8,78,53.7,76.9z"/>
						</g>
						<g>
							<path fill="#D5A93C" d="M38.9,75.6c0,0.1,0,0.2,0,0.4c3.8,0.4,7,0.3,9.5,0.1c-4.6-0.4-7.6-2.3-9.1-3.7
								C39.1,73.5,39,74.5,38.9,75.6z"/>
							<path fill="#E1B744" d="M53.5,74.5c-0.1-1.3-0.2-2.7-0.3-4c-3.5,0.5-8.7,0.8-13.8-0.3c-0.1,0.7-0.1,1.4-0.2,2.1
								c1.5,1.4,4.5,3.3,9.1,3.7c2.3-0.2,4-0.6,5.2-0.9C53.5,74.9,53.5,74.7,53.5,74.5z"/>
						</g>
					</g>
					<g>
						<g>
							<path fill="#CED7E4" d="M48.6,56.4c-0.7,0.4-1.5,0.6-2.4,0.6c-0.9,0-1.7-0.2-2.4-0.6c-0.5-0.3-0.8-0.6-1-1c0-0.1,0-0.1,0-0.2
								v0.2V58c0,0.1,0,0.1,0,0.2c0,0.6,0.3,1,1,1.4c0.7,0.4,1.4,0.6,2.4,0.6c0.9,0,1.7-0.2,2.4-0.6c0.7-0.4,1-0.8,1-1.4
								c0,0,0-0.1,0-0.1h0v-2.8h0C49.5,55.7,49.2,56.1,48.6,56.4z"/>
						</g>
						<path fill-rule="evenodd" clip-rule="evenodd" fill="#E8ECF7" d="M42.8,55.4c0-0.1,0-0.1,0-0.2c0-0.1,0-0.1,0-0.2
							c0-0.1,0.1-0.2,0.1-0.3c0.1-0.1,0.1-0.2,0.2-0.3c0.1-0.1,0.2-0.2,0.3-0.3c0.1-0.1,0.2-0.2,0.4-0.3c0.7-0.4,1.4-0.6,2.4-0.6
							c0.9,0,1.7,0.2,2.4,0.6c0.5,0.3,0.9,0.7,1,1.1c0,0.1,0,0.2,0,0.3c0,0.1,0,0.1,0,0.2c-0.1,0.5-0.4,0.9-1,1.2
							c-0.7,0.4-1.5,0.6-2.4,0.6c-0.9,0-1.7-0.2-2.4-0.6c-0.5-0.3-0.8-0.6-1-1C42.8,55.5,42.8,55.5,42.8,55.4z"/>
						<path fill-rule="evenodd" clip-rule="evenodd" fill="#8F8F92" d="M44.1,55.2c0-0.3,0.2-0.6,0.6-0.8c0.4-0.2,0.9-0.4,1.5-0.4
							c0.6,0,1.1,0.1,1.5,0.4c0.3,0.2,0.5,0.4,0.6,0.7c0,0.1,0,0.1,0,0.2c0,0.3-0.2,0.6-0.6,0.9c-0.4,0.2-0.9,0.4-1.5,0.4
							c-0.6,0-1.1-0.1-1.5-0.4c-0.4-0.2-0.6-0.5-0.6-0.8C44.1,55.2,44.1,55.2,44.1,55.2z"/>
					</g>
				</g>
			</g>
		</g>
	</g>
</g>
</svg>
