<?xml version="1.0" encoding="utf-8"?>
<!-- Generator: Adobe Illustrator 24.0.2, SVG Export Plug-In . SVG Version: 6.00 Build 0)  -->
<svg version="1.1" id="drawingOutSvg" xmlns="http://www.w3.org/2000/svg" xmlns:xlink="http://www.w3.org/1999/xlink" x="0px"
	 y="0px" viewBox="0 0 686.9 300" enable-background="new 0 0 686.9 300" xml:space="preserve">
<polygon fill="#B6B6B6" points="686.9,144.2 222.8,12.7 222.8,0 686.9,131.5 "/>
<polygon id="drawingOutSvg-shadow1" opacity="0.3" fill="#CDCDCD" points="681.4,160.8 681.4,135.7 656.3,153.6 681.4,160.8 "/>
<defs>
	<polygon id="SVGID_3_" points="0,171.8 230.4,7.5 681.4,135.7 451,300 		"/>
</defs>
<clipPath id="SVGID_4_">
	<use xlink:href="#SVGID_3_"  overflow="visible"/>
</clipPath>
<g id="drawingOutSvg-paper-wrap" clip-path="url(#SVGID_4_)">
	<g id="drawingOutSvg-paper">
		<polygon fill="#FFFFFF" points="0,171.8 230.4,7.5 681.4,135.7 451,300 		"/>
		<g>
			
				<path fill="none" stroke="#000000" stroke-width="0.4831" stroke-linecap="round" stroke-linejoin="round" stroke-miterlimit="10" d="
				M237,29.4c0,0-31.8,23.9-34.9,26.1s-11.4,7.5-27.7,5.6c0,0-19.8,22.2-29.8,31.1s-22.5,19.7-35.3,29.5s-55.8,43.6-55.8,43.6
				l50.9,14.5c0,0,57.3-39.6,81.8-55.4s68.1-40.9,81.5-50.4s34.8-27.8,34.8-27.8s-14.4-2.1-22.2-5.6c0,0-7.9-0.8-13.9-3.4
				C266.3,37.2,263.9,37.7,237,29.4z"/>
			
				<path fill="none" stroke="#000000" stroke-width="0.4831" stroke-linecap="round" stroke-linejoin="round" stroke-miterlimit="10" d="
				M244.5,31.7c0,0-35.5,26.8-39.6,29.4c-4.1,2.7-11.6,7.9-25.8,7c0,0-21.5,22.8-35.8,34.9c-14.3,12.1-75.3,59.3-75.3,59.3"/>
			
				<line fill="none" stroke="#000000" stroke-width="0.4831" stroke-linecap="round" stroke-linejoin="round" stroke-miterlimit="10" x1="60.2" y1="160" x2="111.8" y2="174.6"/>
			
				<path fill="none" stroke="#000000" stroke-width="0.4831" stroke-linecap="round" stroke-linejoin="round" stroke-miterlimit="10" d="
				M104,172.4c0,0,45.6-30.7,72.2-48.4s49.8-31.1,63.2-39.3s39.5-28,53-40.4"/>
			
				<polyline fill="none" stroke="#000000" stroke-width="0.4831" stroke-linecap="round" stroke-linejoin="round" stroke-miterlimit="10" points="
				277.6,40.3 216.2,84.7 284.8,42.3 			"/>
			
				<polyline fill="none" stroke="#000000" stroke-width="0.4831" stroke-linecap="round" stroke-linejoin="round" stroke-miterlimit="10" points="
				269.7,38.5 223.4,71.4 261.6,36.4 			"/>
			
				<path fill="none" stroke="#000000" stroke-width="0.4831" stroke-linecap="round" stroke-linejoin="round" stroke-miterlimit="10" d="
				M286.2,49.8c0,0-4.4-0.4-9.8-2"/>
			
				<line fill="none" stroke="#000000" stroke-width="0.4831" stroke-linecap="round" stroke-linejoin="round" stroke-miterlimit="10" x1="269.8" y1="45.9" x2="261.8" y2="44.1"/>
			
				<path fill="none" stroke="#000000" stroke-width="0.4831" stroke-linecap="round" stroke-linejoin="round" stroke-miterlimit="10" d="
				M255.2,42.2c0,0-5.3-0.1-17.8-5.1"/>
			
				<line fill="none" stroke="#000000" stroke-width="0.4831" stroke-linecap="round" stroke-linejoin="round" stroke-miterlimit="10" x1="205" y1="61.1" x2="227.6" y2="67.6"/>
			
				<line fill="none" stroke="#000000" stroke-width="0.4831" stroke-linecap="round" stroke-linejoin="round" stroke-miterlimit="10" x1="228.5" y1="67.8" x2="236.4" y2="70.1"/>
			
				<line fill="none" stroke="#000000" stroke-width="0.4831" stroke-linecap="round" stroke-linejoin="round" stroke-miterlimit="10" x1="238.8" y1="70.7" x2="254" y2="75"/>
			
				<line fill="none" stroke="#000000" stroke-width="0.4831" stroke-linecap="round" stroke-linejoin="round" stroke-miterlimit="10" x1="179.2" y1="68.1" x2="222.2" y2="80.3"/>
			
				<line fill="none" stroke="#000000" stroke-width="0.4831" stroke-linecap="round" stroke-linejoin="round" stroke-miterlimit="10" x1="222.9" y1="80.5" x2="238.8" y2="85.1"/>
			
				<line fill="none" stroke="#000000" stroke-width="0.4831" stroke-linecap="round" stroke-linejoin="round" stroke-miterlimit="10" x1="132" y1="112.1" x2="175.8" y2="124.3"/>
			
				<line fill="none" stroke="#000000" stroke-width="0.4831" stroke-linecap="round" stroke-linejoin="round" stroke-miterlimit="10" x1="85.8" y1="167.3" x2="235.7" y2="60.1"/>
			
				<polyline fill="none" stroke="#000000" stroke-width="0.4831" stroke-linecap="round" stroke-linejoin="round" stroke-miterlimit="10" points="
				101.2,151.9 85.8,167.3 110.3,154.4 			"/>
		</g>
		<g>
			
				<path fill="none" stroke="#000000" stroke-width="0.4831" stroke-linecap="round" stroke-linejoin="round" stroke-miterlimit="10" d="
				M382.7,70.9c0,0-34.2,23.2-37.3,25.4c-3.1,2.2-10.1,7.8,0.7,13.7c0,0-35.9,17.6-49.6,25.5c-13.7,7.9-29.8,17.6-44,27.1
				s-63.4,41.4-63.4,41.4l-50.9-14.5c0,0,54.8-40.3,75.9-57.1s52.6-45.2,66-54.8S321,51.5,321,51.5s10.4,4.9,20.8,6.6
				c0,0,5,2.9,12.8,4.2C354.5,62.3,354.7,63.5,382.7,70.9z"/>
			
				<path fill="none" stroke="#000000" stroke-width="0.4831" stroke-linecap="round" stroke-linejoin="round" stroke-miterlimit="10" d="
				M374.9,68.8c0,0-38.4,25.9-41.9,28.7s-10.8,8.1-2.9,13.5c0,0-36.4,18.5-54.5,29.6s-86.4,56.1-86.4,56.1"/>
			
				<line fill="none" stroke="#000000" stroke-width="0.4831" stroke-linecap="round" stroke-linejoin="round" stroke-miterlimit="10" x1="197" y1="198.9" x2="145.4" y2="184.2"/>
			
				<path fill="none" stroke="#000000" stroke-width="0.4831" stroke-linecap="round" stroke-linejoin="round" stroke-miterlimit="10" d="
				M153.2,186.4c0,0,42-31.8,66.1-50.2s40.9-33.6,51.6-42.6c10.7-9,39.2-28.1,58.2-38.9"/>
			
				<polyline fill="none" stroke="#000000" stroke-width="0.4831" stroke-linecap="round" stroke-linejoin="round" stroke-miterlimit="10" points="
				343.5,59 280.8,103.1 336.3,57 			"/>
			
				<polyline fill="none" stroke="#000000" stroke-width="0.4831" stroke-linecap="round" stroke-linejoin="round" stroke-miterlimit="10" points="
				350.6,61.5 304.3,94.4 358.3,63.9 			"/>
			
				<path fill="none" stroke="#000000" stroke-width="0.4831" stroke-linecap="round" stroke-linejoin="round" stroke-miterlimit="10" d="
				M320.7,59.6c0,0,2.7,1.6,8.3,3.1"/>
			
				<line fill="none" stroke="#000000" stroke-width="0.4831" stroke-linecap="round" stroke-linejoin="round" stroke-miterlimit="10" x1="335.5" y1="64.6" x2="342.7" y2="67.1"/>
			
				<path fill="none" stroke="#000000" stroke-width="0.4831" stroke-linecap="round" stroke-linejoin="round" stroke-miterlimit="10" d="
				M349.3,69c0,0,2.5,2.1,17.8,5.1"/>
			
				<line fill="none" stroke="#000000" stroke-width="0.4831" stroke-linecap="round" stroke-linejoin="round" stroke-miterlimit="10" x1="333" y1="97.5" x2="310.3" y2="91.1"/>
			
				<line fill="none" stroke="#000000" stroke-width="0.4831" stroke-linecap="round" stroke-linejoin="round" stroke-miterlimit="10" x1="309.4" y1="90.8" x2="301.5" y2="88.6"/>
			
				<line fill="none" stroke="#000000" stroke-width="0.4831" stroke-linecap="round" stroke-linejoin="round" stroke-miterlimit="10" x1="299.1" y1="87.9" x2="284" y2="83.6"/>
			
				<line fill="none" stroke="#000000" stroke-width="0.4831" stroke-linecap="round" stroke-linejoin="round" stroke-miterlimit="10" x1="330.1" y1="111" x2="287" y2="98.8"/>
			
				<line fill="none" stroke="#000000" stroke-width="0.4831" stroke-linecap="round" stroke-linejoin="round" stroke-miterlimit="10" x1="286.3" y1="98.6" x2="270.4" y2="94"/>
			
				<line fill="none" stroke="#000000" stroke-width="0.4831" stroke-linecap="round" stroke-linejoin="round" stroke-miterlimit="10" x1="262" y1="149.1" x2="218.9" y2="136.5"/>
			
				<line fill="none" stroke="#000000" stroke-width="0.4831" stroke-linecap="round" stroke-linejoin="round" stroke-miterlimit="10" x1="171.4" y1="191.6" x2="321.8" y2="84.6"/>
			
				<polyline fill="none" stroke="#000000" stroke-width="0.4831" stroke-linecap="round" stroke-linejoin="round" stroke-miterlimit="10" points="
				195.7,178.7 171.4,191.6 186.6,176.1 			"/>
		</g>
		<g>
			<g>
				
					<path fill="none" stroke="#000000" stroke-width="0.4831" stroke-linecap="round" stroke-linejoin="round" stroke-miterlimit="10" d="
					M593.8,128.5c0,0-25.3,13.2-47.2,24.2c-9.8,4.9-25.3,4.8-43.5,2.3c0,0-18.6,22.4-28.2,31.4c-9.6,9-23.9,19.2-36.6,29
					c-12.7,9.8-58.1,42.7-58.1,42.7l63.1,17.9c0,0,57.3-39.4,81.8-55.1c24.6-15.6,68.9-40.4,82.2-49.9s34.3-27.8,34.3-27.8
					s-16.1-2.6-25.2-6.4c0,0-3.1,0.3-12.9-3.1C603.4,133.9,594.5,130.7,593.8,128.5z"/>
				
					<path fill="none" stroke="#000000" stroke-width="0.4831" stroke-linecap="round" stroke-linejoin="round" stroke-miterlimit="10" d="
					M597.2,131.2c0,0-45.8,24.7-50.5,27c-4.9,2.5-21.2,6-38.6,3.3c0,0-18.1,21.6-34.7,35.2c-14.8,12-78.4,58.4-78.4,58.4"/>
				
					<line fill="none" stroke="#000000" stroke-width="0.4831" stroke-linecap="round" stroke-linejoin="round" stroke-miterlimit="10" x1="387.3" y1="252.9" x2="450.6" y2="271"/>
				
					<path fill="none" stroke="#000000" stroke-width="0.4831" stroke-linecap="round" stroke-linejoin="round" stroke-miterlimit="10" d="
					M444,269.1c0,0,45.6-30.7,72.2-48.4c26.5-17.7,49.8-31.1,63.2-39.3s38.8-27.6,52.3-39.9"/>
				
					<polyline fill="none" stroke="#000000" stroke-width="0.4831" stroke-linecap="round" stroke-linejoin="round" stroke-miterlimit="10" points="
					611.3,136.2 577.9,156.9 603,133.7 				"/>
				
					<path fill="none" stroke="#000000" stroke-width="0.4831" stroke-linecap="round" stroke-linejoin="round" stroke-miterlimit="10" d="
					M625.4,147c-2.8-0.4-11.1-2.3-21.5-6.2"/>
				
					<path fill="none" stroke="#000000" stroke-width="0.4831" stroke-linecap="round" stroke-linejoin="round" stroke-miterlimit="10" d="
					M597.1,139.2c0,0-5-1.2-7.5-3.9"/>
				
					<line fill="none" stroke="#000000" stroke-width="0.4831" stroke-linecap="round" stroke-linejoin="round" stroke-miterlimit="10" x1="508.1" y1="161.6" x2="578.8" y2="181.7"/>
				
					<line fill="none" stroke="#000000" stroke-width="0.4831" stroke-linecap="round" stroke-linejoin="round" stroke-miterlimit="10" x1="461.4" y1="206" x2="515.4" y2="221.1"/>
				
					<line fill="none" stroke="#000000" stroke-width="0.4831" stroke-linecap="round" stroke-linejoin="round" stroke-miterlimit="10" x1="421.2" y1="262.6" x2="594.8" y2="138.5"/>
				
					<polyline fill="none" stroke="#000000" stroke-width="0.4831" stroke-linecap="round" stroke-linejoin="round" stroke-miterlimit="10" points="
					438.6,245.7 421.2,262.6 447.7,248.2 				"/>
			</g>
			
				<line fill="none" stroke="#000000" stroke-width="0.4831" stroke-linecap="round" stroke-linejoin="round" stroke-miterlimit="10" x1="593.4" y1="172.1" x2="550.4" y2="156.3"/>
		</g>
		<g>
			<g>
				
					<path fill="none" stroke="#000000" stroke-width="0.4831" stroke-linecap="round" stroke-linejoin="round" stroke-miterlimit="10" d="
					M508.9,104.4c0,0-15.6,16-28.3,29.6c-5.7,6.1,1.3,12.3,14,18.7c0,0-36.9,17.2-50.8,25c-13.9,7.8-28.2,17.9-42.4,27.3
					s-60.5,42-60.5,42l-63.1-17.9c0,0,54.4-40.2,75.2-56.9s51.3-45.4,64.7-54.9s40.9-25.9,40.9-25.9s12.1,5.4,23.7,7.5
					c0,0,0.8,1.4,11.7,3.9C494,102.8,504.2,105,508.9,104.4z"/>
				
					<path fill="none" stroke="#000000" stroke-width="0.4831" stroke-linecap="round" stroke-linejoin="round" stroke-miterlimit="10" d="
					M502,104.1c0,0-29.7,29.2-32.5,32.2c-2.9,3.1-2.9,11.2,9.9,17.1c0,0-35.6,16.7-55.6,29.3c-17.7,11.2-83.3,57-83.3,57"/>
				
					<line fill="none" stroke="#000000" stroke-width="0.4831" stroke-linecap="round" stroke-linejoin="round" stroke-miterlimit="10" x1="348.2" y1="241.8" x2="284.9" y2="223.8"/>
				
					<path fill="none" stroke="#000000" stroke-width="0.4831" stroke-linecap="round" stroke-linejoin="round" stroke-miterlimit="10" d="
					M291.4,225.7c0,0,42-31.8,66.1-50.2s40.9-33.6,51.6-42.6s38.6-27.6,57.5-38.4"/>
				
					<polyline fill="none" stroke="#000000" stroke-width="0.4831" stroke-linecap="round" stroke-linejoin="round" stroke-miterlimit="10" points="
					486,100.6 458.8,123.1 494.5,102.9 				"/>
				
					<path fill="none" stroke="#000000" stroke-width="0.4831" stroke-linecap="round" stroke-linejoin="round" stroke-miterlimit="10" d="
					M458.3,99.5c2.1,0.9,9.4,3.5,21.7,6.1"/>
				
					<path fill="none" stroke="#000000" stroke-width="0.4831" stroke-linecap="round" stroke-linejoin="round" stroke-miterlimit="10" d="
					M486.1,107.6c0,0,4.6,1.5,11,1.4"/>
				
					<line fill="none" stroke="#000000" stroke-width="0.4831" stroke-linecap="round" stroke-linejoin="round" stroke-miterlimit="10" x1="479.4" y1="153.4" x2="408.7" y2="133.3"/>
				
					<line fill="none" stroke="#000000" stroke-width="0.4831" stroke-linecap="round" stroke-linejoin="round" stroke-miterlimit="10" x1="410.4" y1="191.5" x2="356.9" y2="176"/>
				
					<line fill="none" stroke="#000000" stroke-width="0.4831" stroke-linecap="round" stroke-linejoin="round" stroke-miterlimit="10" x1="314.2" y1="232.2" x2="488.3" y2="108.3"/>
				
					<polyline fill="none" stroke="#000000" stroke-width="0.4831" stroke-linecap="round" stroke-linejoin="round" stroke-miterlimit="10" points="
					340.7,217.8 314.3,232.2 331.6,215.3 				"/>
			</g>
			
				<line fill="none" stroke="#000000" stroke-width="0.4831" stroke-linecap="round" stroke-linejoin="round" stroke-miterlimit="10" x1="421.7" y1="123.3" x2="471.8" y2="134"/>
		</g>
		<g>
			
				<polygon fill="none" stroke="#000000" stroke-width="0.4831" stroke-linecap="round" stroke-linejoin="round" stroke-miterlimit="10" points="
				386.3,127 353.3,117.6 397.2,86.2 430.3,95.6 			"/>
			
				<polygon fill="none" stroke="#000000" stroke-width="0.4831" stroke-linecap="round" stroke-linejoin="round" stroke-miterlimit="10" points="
				385.4,121.9 363.5,115.7 397,91.8 418.9,98 			"/>
			
				<line fill="none" stroke="#000000" stroke-width="0.4831" stroke-linecap="round" stroke-linejoin="round" stroke-miterlimit="10" stroke-dasharray="2.0354,2.0354" x1="385.6" y1="99.9" x2="407.5" y2="106.1"/>
			
				<line fill="none" stroke="#000000" stroke-width="0.4831" stroke-linecap="round" stroke-linejoin="round" stroke-miterlimit="10" x1="374.1" y1="118.7" x2="396.2" y2="102.9"/>
			
				<polyline fill="none" stroke="#000000" stroke-width="0.4831" stroke-linecap="round" stroke-linejoin="round" stroke-miterlimit="10" points="
				377.2,113.6 374.1,118.6 382.9,115.2 			"/>
		</g>
		<g>
			
				<polygon fill="none" stroke="#000000" stroke-width="0.4831" stroke-linecap="round" stroke-linejoin="round" stroke-miterlimit="10" points="
				318.1,170.5 296.3,164.3 338.6,131 365.9,138.7 			"/>
			
				<polygon fill="none" stroke="#000000" stroke-width="0.4831" stroke-linecap="round" stroke-linejoin="round" stroke-miterlimit="10" points="
				318,165.6 305.6,162.1 339.3,136.1 355.4,140.7 			"/>
			
				<line fill="none" stroke="#000000" stroke-width="0.4831" stroke-linecap="round" stroke-linejoin="round" stroke-miterlimit="10" x1="311.6" y1="163.8" x2="347.3" y2="138.4"/>
			
				<polyline fill="none" stroke="#000000" stroke-width="0.4831" stroke-linecap="round" stroke-linejoin="round" stroke-miterlimit="10" points="
				316.6,157.7 311.6,163.8 321.7,159.2 			"/>
		</g>
		<g>
			
				<path fill="none" stroke="#000000" stroke-width="0.4831" stroke-linecap="round" stroke-linejoin="round" stroke-miterlimit="10" d="
				M300.6,182.3l-21.3-6.1l-32.1,22.9c0,0-15.4,9.5,7.4,16L300.6,182.3z"/>
			
				<path fill="none" stroke="#000000" stroke-width="0.4831" stroke-linecap="round" stroke-linejoin="round" stroke-miterlimit="10" d="
				M290.6,184.2l-11.1-3.2l-25.2,18c0,0-9.6,7.7,0.7,10.6L290.6,184.2z"/>
			
				<line fill="none" stroke="#000000" stroke-width="0.4831" stroke-linecap="round" stroke-linejoin="round" stroke-miterlimit="10" x1="285.2" y1="182.7" x2="250.9" y2="207.1"/>
			
				<polyline fill="none" stroke="#000000" stroke-width="0.4831" stroke-linecap="round" stroke-linejoin="round" stroke-miterlimit="10" points="
				254.3,202.5 251,207.1 258.7,203.7 			"/>
		</g>
	</g>
</g>
<polygon id="drawingOutSvg-shadow2" opacity="0.3" fill="#CDCDCD" points="220.5,14.5 230.4,7.5 681.4,135.7 671.6,142.7 "/>
</svg>
