<?xml version="1.0" encoding="utf-8"?>
<!-- Generator: Adobe Illustrator 24.0.2, SVG Export Plug-In . SVG Version: 6.00 Build 0)  -->
<svg version="1.1" id="drawingInSvg_1_" xmlns="http://www.w3.org/2000/svg" xmlns:xlink="http://www.w3.org/1999/xlink" x="0px"
	 y="0px" viewBox="0 0 381.9 194.5" enable-background="new 0 0 381.9 194.5" xml:space="preserve">
<polygon fill="#B6B6B6" points="0,152 199.8,12 199.8,0 0,140 "/>
<polygon id="drawingInSvg-shadow1" opacity="0.3" fill="#CDCDCD" points="192.9,61 192.9,10 4.9,143 4.9,192 "/>
<clipPath id="SVGID_2_" overflow="hidden">
	<path id="SVGID_1_" d="M4.9,143l188-133l189,52l-190,133L4.9,143z " clip-rule="evenodd"/>
</clipPath>
<g id="drawingInSvg-paper-wrap" clip-path="url(#SVGID_2_)" >
	<g id="drawingInSvg-paper" >
		<g>
			<path fill="#F6F6F6" d="M4.9,143.1L194.7,9.9l187.2,51.4L192.1,194.5L4.9,143.1z"/>
		</g>
		<g>
			<g>
				<path fill="#F87C64" d="M291.4,76.7c-1-6.4-11.8-5.5-15.4-7c-0.7-0.3-0.4-0.7-0.3-1.3c0.3-3.3-5.7-2.6-6.6-4.4
					c6.9-5.3,9.5-11-2.7-14.4c-6.7-1.8-16.2,0.4-21.8,4.3c-25.8,18.8,11.8,8.6,0.7,24.7c-6.9,3.2,3.8,6.6,9.7,6.1
					c3.7-0.1,6.5-0.6,10.3-1.4C271.4,87.7,289.6,84.5,291.4,76.7z M245,62c-0.1,0.1-0.1,0-0.1-0.2c0.1,0,0.2,0.1,0.2,0.1
					C245.1,61.9,245,61.9,245,62z M266,56.2c-1.4-0.1-2.9,0.2-4.1,0.7c4-2.3,0.2-4.9-4.7-3c-3.4,1.5-6.3,3-9.2,4.9
					c0.7-0.7,1.2-1.4,1.3-2.1c3.8-3.5,14-6.1,17.3-0.6C266.4,56.1,266.2,56.2,266,56.2z"/>
			</g>
			<g>
				<path fill="#442D1D" d="M187.6,148.6c5.6-8.6,11-16.3,18.6-24.3c7.2-10.4,59.7-50.4,28-55.6c0.2-2.7-3.7-3.3-7.6-2.8
					c-32.8,4.8-49.7,20.6-76.6,32.9c-17.8,7.5-39.5,15.3-53.8,27.1c-5.1,6.3,10.6,4.2,13.9,5.5c8.6,1.5,21.4,6.7,32.2,7.5
					c6,1,11.6,2.8,17.2,4.8c7.8,1.9,5.4,9.9,17.2,9.3C181.6,152.5,185.4,150.8,187.6,148.6z"/>
			</g>
			<g>
				<path fill="#F4BB8D" d="M221.4,109.8c0.1-0.1,21.6-13.4,22.8-14.8c4.9-5.5,15.4-19.2,10.6-23.1c-21.9-15-50.2-5.7-76.2,9.1
					c-2.2,2.2-36.1,18.4-27.7,18.5c4.6,0.1,4.4,0.6,7.4-1.2c0.7-0.4,0.6-1.8,2.9-3.1c15-7.7,28.2-12.9,42.2-19.1
					c-0.7,0.5-7.1,8.3-12.3,12.7c-1.4,1.2-12.2,5.3-10.1,5.9c3.1,0.8,5.9-0.5,8.3-2c0.3,0.7,1.6,1.2,3.1,1.4
					c0.6,2.2,4.3,2.3,6.6,1.9c0.5,1.2,2.2,1.5,3.6,1.5c-1.2,1.3-5.2,2.6-4.5,4.6c-5.2,10.2,35.2-16.8,38-17.5
					c1.9,12.8-14.8,18-22.6,24.4c0.8,0.2-0.2,0.1-0.2,0.2c-2.1,1.6-3.9,4.1-4.9,6.2C207.9,116.1,221.5,110,221.4,109.8z"/>
			</g>
			<g>
				<path fill="#F4BB8D" d="M251.9,62.8c-0.2-0.1-0.4-0.1-0.6-0.2c-0.2-0.2-0.7-0.4-1.3-0.3c0,0,0,0-0.1,0c0.4-0.2,0.6-0.6,0.1-0.8
					c0.6-1-2-0.9-2.8-0.3c0,0,0,0,0,0c1-0.7-1.2-1.2-2.3-0.6c-1.3,1.2-15.4,8.1-10.1,8.1c-0.5,0.8,1.1,0.9,2.1,0.6
					c0.4,0.4,1.6,0.3,2.1,0c0.6,0.8,2.9,0.5,3.8-0.2C243.9,69.8,256.1,62.6,251.9,62.8z"/>
			</g>
			<g>
				<path fill="#F4BB8D" d="M258.3,50.7c23.5-0.5-2,17-12.3,13.8C233.8,62.4,252.4,50.4,258.3,50.7z"/>
			</g>
			<g>
				<path fill="#442D1D" d="M106.4,146.3c-1.9-0.3-13.8,3.6-14.9,4.6C93.8,155.9,120.7,146.3,106.4,146.3z"/>
			</g>
			<g>
				<path fill="#F4BB8D" d="M139.4,131.2c2.5-2.3,63.5-35.3,42.1-31.1c-1.1-0.5-3.1-0.6-4.7,0.3c-13.2-1.8-60.1,39.5-71.7,46
					C101.2,154.9,135.1,133.2,139.4,131.2z"/>
			</g>
			<g>
				<path fill="#442D1D" d="M138.7,154.5c-1.9-0.2-12.7,4.5-13.5,5.6C129,164.7,153.2,153.5,138.7,154.5z"/>
			</g>
			<g>
				<path fill="#F4BB8D" d="M166.9,137.4c2.4-2.9,52.3-39.3,31.8-33.1c-1.3-0.4-3.4-0.3-4.7,0.6c-12.7-1.5-47.3,42.5-56.7,49.8
					C136.2,163.3,162.8,140,166.9,137.4z"/>
			</g>
			<g>
				<path fill="#F87C64" d="M269.5,52.3c0.1-0.5-1.2-0.8-2-0.7c-4.8-1.9-13.6-2.7-18,0.6c-1.7,0.2-8,2.4-2.6,2.7
					c7.1-1.2,17.3,2.5,23.2-1.4C270.8,52.9,270.4,52.4,269.5,52.3z"/>
			</g>
			<g>
				<path fill="#442D1D" d="M205.3,122.8c10.5-8,15.7-17.6,23.4-25.3c2.2-1.7-2.6-2.9-4.8-1.2c-0.6,0.7-1.6,0.8-2.3,1.4
					C219,100.6,198,118,204,118.6c-1.1,1-2.3,2-3.4,3C198.6,123.3,203.3,124.6,205.3,122.8z"/>
			</g>
			<g>
				<path fill="#442D1D" d="M244.3,95.1c5-6,16.7-20.2,9.6-23.9c-2.5,0.7-11.7,6.2-11.6,7.7c-0.6,0.7-2.2,1.5-1.8,2.4
					c-1.5,0.4-3,1.9-1.5,2.5c-0.3,0.3-0.3,0.7-0.1,1c-0.9,0.2-1.6,0.5-1.9,1c-0.2,0-0.4,0-0.7,0c-0.8,5.2-3,9.6-8.1,13.2
					c2.3,0.7,4.6,1.7,6.4,2.6C239.4,98.6,243.8,95.7,244.3,95.1z"/>
			</g>
			<g>
				<path fill="#442D1D" d="M203.1,76.2c-0.3,0.2-0.9,1.7-2,3.7c1.1-0.3,1.5-0.9,1.4-1.4c3.1-0.3,3.8-2.3,1.5-2.7
					c1.1-0.4,1.6-1,1.5-1.6c2.1-0.2,4.2-0.3,6.3-0.4c4-0.3,4.1-3,0.7-2.9c1.7-0.1,6.2-0.3,6.3-2c1.4-0.4,1.9-1.3,1.4-1.9
					c1.2-0.5,3-1,2.8-2.2c-12.1,0.2-39.3,12.3-52.4,21c3.5-0.7,6.7-0.1,9.9,0.4C187.6,82.9,196,79.2,203.1,76.2z"/>
			</g>
			<g>
				<path fill="#442D1D" d="M171.7,92.9c-0.4-0.8-2.7-1-4-0.5c0,0,0,0,0,0c-9.7,2.4-17.3,5.6-25.3,10.2c-3.6,3,3.9,2.7,5.2,1
					c4-2.3,16.5-3.7,18.2-7c1-0.4,2.7-0.8,3.2-1.5C170.2,94.7,172.4,93.9,171.7,92.9z"/>
			</g>
			<g>
				<path fill="#5A6687" d="M221.7,92.7c3.8-3.7,7-7.3,11.3-10.3c1.3-0.9,0.4-2.1-1-2.3c20-7.9,26.7-13.6-0.3-7.7
					c0.7-2.2,3.2-4.5,2.9-6.8c-3.8-3.7-9.1,2.1-10.8,5.2c-8.2,3.8-31.4,7.5-31.8,14.9c0.1,0.7,1.5,1.1,2.9,1.1
					c-9.4,4.4,18.8,4.6,21.9,6.6C218.2,93.9,220.9,93.5,221.7,92.7z"/>
			</g>
			<g>
				<path fill="#F8B264" d="M221.1,93.9c-2.5-0.3-25.6-8-31.6-6.1c-23.2,12.3-54.6,31.3-74.4,44.7c-1.8,1.2-4.9,2.7-5.1,4.1
					c-0.2,1.6,19.6,6.4,20.9,5.5c6.3-4,42.7-28.9,55-38.7c-9.7,8.1-38.3,32.4-46.9,39.7c-1,0.9-0.5,1.3,1.3,2c3,1.1,16,4.5,19.2,3.3
					C161,147.8,221.7,94.1,221.1,93.9z"/>
			</g>
			<g>
				<g>
					<path fill="#8B6239" d="M201,91.9c-0.4,0.5-3,0.5-2-0.6C199.4,90.8,202,90.8,201,91.9z"/>
				</g>
				<g>
					<path fill="#8B6239" d="M197.6,94.4c-0.4,0.5-3,0.5-2-0.6C196,93.3,198.6,93.3,197.6,94.4z"/>
				</g>
				<g>
					<path fill="#8B6239" d="M193.9,96.8c-0.4,0.5-3,0.5-2-0.6C192.4,95.8,195,95.8,193.9,96.8z"/>
				</g>
				<g>
					<path fill="#8B6239" d="M190.1,99.6c-0.4,0.5-3,0.5-2-0.6C188.5,98.5,191.1,98.6,190.1,99.6z"/>
				</g>
			</g>
			<g>
				<path fill="#ECA258" d="M210.2,91.1c0,0-10.1,6.8-13.9,13.5"/>
			</g>
			<g>
				<path fill="#ECA258" d="M215.2,92.3c0,0-12,8.7-18.2,18"/>
			</g>
			<g>
				<path fill="#ECA258" d="M196.4,87.9c0,0-8,7.2-19.4,12.1"/>
			</g>
			<g>
				<path fill="#442D1D" d="M217.6,65.4c-12.6,8.5-28.8,15-43.8,25.1c-1.8,1.3-28.6,14.1-26.5,14.9c7.8,3.4,50.5-20.1,66.5-26.1
					c8.9-3.5,17.3-7.3,22.7-14.4C237,64.1,217.4,64.5,217.6,65.4z"/>
			</g>
			<g>
				<path fill="#442D1D" d="M229.2,94.1c7.2-7.3,16.4-15.8,26.2-21.6c0.7-0.1-7-4.6-6.9-4.2c-11.3,4.8-65.6,55.4-63.6,63.2
					c2.7,0.6,21.7-17.3,23.7-18.8C216.6,106.6,222.9,100.3,229.2,94.1z"/>
			</g>
		</g>
		<g>
			<g>
				<g>
					<path fill="#B2B2B2" d="M150.7,109.7c-25.5-5.3-27.1-17.4-27.1-17.9l0.7-0.1c0,0.1,1.6,12.1,26.6,17.3L150.7,109.7z"/>
				</g>
			</g>
			<g>
				<g>
					<path fill="#B2B2B2" d="M147.7,110.5c0.4,0.1-11.5-0.6-11.7-0.6l0-0.7c1.4-0.4,18.7,2.6,13.7-1.8l0.4-0.6
						C153,108.6,150.4,110.9,147.7,110.5z"/>
				</g>
			</g>
			<g>
				<g>
					<path fill="#B2B2B2" d="M117.6,91.3l-5.5-3.1l22.2-5l4.4,3.3L117.6,91.3z M113.9,88.5l3.8,2.1l19.4-4.4l-3-2.2L113.9,88.5z"/>
				</g>
			</g>
			<g>
				<g>
					<path fill="#B2B2B2" d="M119.4,88.6c-1.7-0.1-5.1-0.3-4.4-2.2l0,0C118,82.7,131.2,87.5,119.4,88.6z M119.6,85.8
						c-2.1,0-3.8,0.5-4.1,1v0C116.9,89.7,129.9,86.5,119.6,85.8z"/>
				</g>
			</g>
			<g>
				<g>
					<path fill="#B2B2B2" d="M121.3,101.7c-1.2-0.5-6.5-0.9-6.9-2.3c-0.9-0.3-3.6,0.2-2.7-1.7c-1.6,0.1-3.2,0.4-4.7,0.9
						c0.5-0.6,1-1.2,1.5-1.7c-1.3-0.2-2.9-0.2-4.3,0.2l-0.2-0.6c0.7-0.3,1.4-0.7,1.9-1.2c-2,0.1-4.1,0.4-6.1,0.9
						c0.5-1,1.1-1.6,2.2-2.3l0.3,0.6c-0.4,0.2-0.7,0.4-1,0.7c2-0.4,4.1-0.6,6.1-0.6c-0.5,0.5-0.9,1.1-1.6,1.5c1.5-0.1,2.8,0,4.1,0.5
						c-0.3,0.2-0.8,0.6-1,0.8c1.5-0.3,3-0.4,4.5-0.4c-0.9,0.7-2.2,1.8,0,1.6c1.5-0.3,1.4,1.1,2.7,1.2c0,0,5.2,1.2,5.2,1.2
						L121.3,101.7z"/>
				</g>
			</g>
		</g>
		<g>
			<g>
				
					<rect x="199.2" y="123.6" transform="matrix(3.537607e-02 -0.9994 0.9994 3.537607e-02 80.9401 331.6429)" fill="#B2B2B2" width="26.1" height="0.7"/>
			</g>
			<g>
				<path fill="#B2B2B2" d="M230.4,147.2c-1.2-1.3-7.5-1.5-7.7-2.9c-4.6,0.7-2.6-2.1-8.1-0.3c0.3-0.3,1.6-1.1,1.9-1.4
					c-0.9-0.2-2.2-0.2-3.3-0.1l0.6-0.6c-1.3-0.2-3.4-0.4-3.9-1.3l0.5-0.4c0.6,1.1,3.4,0.5,4.1,1.6c1.1,0,2,0.1,2.9,0.4
					c-0.1,0.2-0.2,0.4-0.3,0.6c1.2-0.1,1.9-0.1,2.3,0.6c0.1,0.7,3.6-0.1,4.1,0.6c0,0.1,0,0.4-0.2,0.5c2.7,0.5,5.4,1.2,7.3,2.2
					L230.4,147.2z"/>
			</g>
			<g>
				<path fill="#B2B2B2" d="M233.2,150.8c-0.7-0.4-6.6-1.5-6.9-2.3c-0.9-0.1-1.6-0.4-2-0.8c-0.9,0.2-5.5,1.1-4.2-0.8
					c-0.6-0.1-1.1-0.3-1.5-0.6c-1.8,0.3-3.8,0.1-4.7-1c-2.2-0.6-4.5-1.9-7.4-2.4l0.1-0.6c2.7,0.6,5,1.4,7,2.4l0-0.5
					c0.3,0.1,0.9,0.3,0.8,0.7c0.8,0.9,2.6,1.1,4.4,0.7c0.5,0.4,1.2,0.6,2.2,0.7l0.8-0.6l0.4,0.5l-1,0.7l0,0c0,0-0.5,0.3-0.5,0.3
					c1.3,0.1,2.7-0.1,4-0.4c0.2,0.6,1.6,0.9,2.7,0.9l-0.3,0.4c-0.1,0.1,6.2,1.8,6.4,1.9L233.2,150.8z"/>
			</g>
			<g>
				<path fill="#B2B2B2" d="M216.8,149.3c-0.6,0-1.1-0.1-1.6-0.3l0.2-0.6c-1.5,0.3-2.1-0.5-3.3-0.8c-0.8,0-1.8,0.4-2.3-0.3
					c-0.7-0.3-2.7-0.1-2.4-1.2c-0.2-0.2-3.4-0.7-3.8-0.8l0.1-0.7c0.8,0.4,4.5,0.2,4.3,1.6c0.5,0.3,1.8,0.1,2.3,0.6
					c0.5,0.4,1.2-0.1,1.8,0c1.5,0.5,2.5,1.4,4.3,0.6l-0.4,1.1c0.4,0.1,1,0.1,1.6,0l0.1,0.7C217.4,149.3,217.1,149.3,216.8,149.3z"/>
			</g>
		</g>
		<g>
			<path fill="#B2B2B2" d="M313.3,74.1c-1.5-0.2-2.6-0.8-3.1-1.6c-1.6,0.1-5.5,0.4-5.4-1.6c-0.8-0.3-2.4,0-3.2-0.3
				c0.4-0.7,0.9-1.3,1.5-1.9c-3,0-6.1,0.6-8.9,1.5l1.8-2l-4.1,0.4l-0.1-0.7l5.8-0.6l-1.4,1.6c2.8-0.7,5.8-1,8.6-0.8
				c-0.7,0.6-1.6,1.4-2.1,2.1c4.5-0.4,0.9,2.6,7.9,1.7c0.3,0.9,1.3,1.4,2.8,1.7L313.3,74.1z"/>
		</g>
	</g>
</g>
<polygon id="drawingInSvg-shadow2" opacity="0.3" clip-path="url(#SVGID_2_)" fill="#CDCDCD" points="4.9,143.1 194.7,9.9 
	201.4,11.7 11.5,144.9 	"/>
</svg>
