<?xml version="1.0" encoding="utf-8"?>
<!-- Generator: Adobe Illustrator 24.0.2, SVG Export Plug-In . SVG Version: 6.00 Build 0)  -->
<svg version="1.1" id="export-up" xmlns="http://www.w3.org/2000/svg" xmlns:xlink="http://www.w3.org/1999/xlink" x="0px" y="0px"
	 viewBox="0 0 100.8 43.3" enable-background="new 0 0 100.8 43.3" xml:space="preserve">
<g>
	<path fill="#D8DADA" d="M85.6,27.7L27.6,11.3c-7.7-2.2-18.6-0.7-24.2,3.3l0,0c-5.7,4-4,9,3.7,11.2L65,42.3
		c7.7,2.2,18.6,0.7,24.2-3.3l0,0C94.9,34.9,93.3,29.9,85.6,27.7z"/>
	<polygon opacity="0.3" fill="#CDCDCD" points="84.5,39.8 100.8,28.3 87.1,24.4 	"/>
	<path fill="#DFAB2B" d="M82.6,16.2L28.9,0.9C21.7-1.1,11.7,0.3,6.4,4l0,0c-5.3,3.7-3.7,8.4,3.4,10.4l53.7,15.2
		c7.1,2,17.2,0.6,22.5-3.1l0,0C91.3,22.8,89.8,18.2,82.6,16.2z"/>
	<g>
		<polygon fill="#FFFFFF" points="26.6,12.6 29.6,10.5 32.9,11.4 34.5,10.3 31.3,9.4 34.2,7.5 37.6,8.4 39.3,7.3 34.3,5.9 34.2,5.9 
			23.3,13.2 28.5,14.7 28.6,14.7 30.3,13.6 		"/>
		<path fill="#FFFFFF" d="M35.7,14.2C35.7,14.2,35.7,14.2,35.7,14.2l-1.2,2l-0.1,0.2l1.8,0.5l1.7-3.2l6.4-2.1L42.3,11l-4.2,1.5
			c0,0,0,0,0,0l1.4-2.2l-1.8-0.5L36,13l-6.4,2l2,0.6l3.7-1.3C35.5,14.3,35.6,14.2,35.7,14.2z"/>
		<path fill="#FFFFFF" d="M49.9,14.2c0.1-0.3,0.1-0.5,0-0.8c-0.2-0.3-0.5-0.5-1-0.7c-0.8-0.2-1.7-0.2-2.7,0l0.7-0.5l-1.6-0.5
			l-11.4,7.6l1.6,0.5l4.1-2.8c0,0.2,0,0.3,0.1,0.4c0.1,0.3,0.4,0.5,0.9,0.6c0.9,0.3,2.1,0.2,3.4-0.2c1.3-0.4,2.6-1,3.9-1.8
			C49,15.5,49.7,14.8,49.9,14.2z M47.7,14.4c-0.1,0.2-0.4,0.7-1.3,1.3c-0.9,0.6-1.8,1.1-2.7,1.3c-0.8,0.2-1.5,0.3-2.1,0.1
			c-0.5-0.2-0.6-0.4-0.5-0.6c0.1-0.3,0.4-0.7,0.9-1l1-0.7c0.7-0.5,1.4-0.8,2.2-1c0.4-0.1,0.8-0.2,1.2-0.2c0.3,0,0.5,0,0.7,0.1
			c0.3,0.1,0.4,0.2,0.5,0.3C47.8,14.2,47.8,14.3,47.7,14.4z"/>
		<path fill="#FFFFFF" d="M57.6,16.4c0.1-0.5,0-1.2-1.4-1.5c-1-0.3-2.3-0.3-3.6,0c-1.3,0.3-2.7,0.9-3.9,1.8c-1.2,0.8-1.9,1.6-2,2.2
			c-0.1,0.5,0,1.2,1.4,1.6c0.5,0.1,1,0.2,1.5,0.2c0.6,0,1.3-0.1,2-0.3c1.3-0.3,2.6-0.9,3.8-1.7C56.7,17.8,57.4,17,57.6,16.4z
			 M53.9,18.1c-0.9,0.6-1.7,1-2.5,1.2c-0.8,0.2-1.5,0.2-2.1,0.1c-0.7-0.2-0.7-0.5-0.6-0.7c0.1-0.3,0.4-0.7,1.4-1.4
			c0.9-0.6,1.7-1,2.5-1.2c0.5-0.1,0.9-0.2,1.3-0.2c0.3,0,0.6,0,0.8,0.1c0.3,0.1,0.5,0.2,0.6,0.4c0,0.1,0.1,0.2,0,0.3
			C55.4,16.9,55,17.4,53.9,18.1z"/>
		<path fill="#FFFFFF" d="M62.3,18.2c0.4,0.1,0.4,0.2,0.4,0.3l0.1,0.3l1.7-1.1l0.1-0.1l-0.1-0.1c-0.1-0.1-0.3-0.2-0.6-0.3
			c-0.6-0.2-1.2-0.1-2.1,0.1l0.6-0.4l-1.6-0.5l-7.9,5.3l1.6,0.5l3.9-2.6c0.8-0.5,1.5-0.9,2.2-1.1C61.4,18.2,61.9,18.1,62.3,18.2z"/>
		<path fill="#FFFFFF" d="M70.7,16.9l-2.2-0.1L66.7,18l-1.1-0.3l-1.6,1l1.1,0.3l-4,2.7c-1,0.7-1.4,1.2-1.3,1.6
			c0,0.3,0.3,0.5,0.9,0.7c0.3,0.1,0.7,0.1,1,0.1c0.1,0,0.2,0,0.3,0l0.1,0l1.9-1.3l-0.8,0.1c-0.3,0.1-0.6,0-0.8,0
			c-0.2-0.1-0.3-0.1-0.3-0.1c0,0,0,0,0,0c0-0.1,0.1-0.3,0.8-0.7l3.9-2.7l1.6,0.5l1.6-1l-1.6-0.5L70.7,16.9z"/>
	</g>
	<path fill="#C89020" d="M89.2,21.9c0,1.5-1,3.2-3.1,4.6c-5.3,3.7-15.3,5.1-22.5,3.1L9.8,14.4c-4.4-1.2-6.6-3.4-6.5-5.8l0,0v12.1
		l0.1,0c-0.4,2.6,1.8,5,6.5,6.3l53.7,15.2c7.1,2,17.2,0.6,22.5-3.1c2.1-1.5,3.1-3.1,3.1-4.7l0,0L89.2,21.9L89.2,21.9z"/>
</g>
</svg>
