<?xml version="1.0" encoding="utf-8"?>
<!-- Generator: Adobe Illustrator 24.0.2, SVG Export Plug-In . SVG Version: 6.00 Build 0)  -->
<svg version="1.1" id="export-down" xmlns="http://www.w3.org/2000/svg" xmlns:xlink="http://www.w3.org/1999/xlink" x="0px" y="0px"
	 viewBox="0 0 92.6 35.3" enable-background="new 0 0 92.6 35.3" xml:space="preserve">
<g>
	<g>
		<path fill="#D8DADA" d="M85.6,19.7L27.6,3.3C19.9,1.1,9.1,2.6,3.4,6.6l0,0c-5.7,4-4,9,3.7,11.2L65,34.3c7.7,2.2,18.6,0.7,24.2-3.3
			l0,0C94.9,27,93.3,21.9,85.6,19.7z"/>
	</g>
	<path fill="#C89020" d="M89.3,22c-0.1,1.5-1.1,3.1-3.1,4.5h0c-5.3,3.7-15.3,5.1-22.5,3.1L10,14.4C5.7,13.2,3.5,11,3.5,8.7l0,0v3.9
		l0.1,0c-0.4,2.6,1.8,5,6.5,6.3l53.7,15.2c7.1,2,17.2,0.6,22.5-3.1h0c2.1-1.5,3.1-3.1,3.1-4.7l0,0L89.3,22L89.3,22z"/>
	<g>
		<path fill="#DFAB2B" d="M82.8,16.2L29.1,0.9C21.9-1.1,11.9,0.3,6.6,4l0,0C1.3,7.7,2.8,12.4,10,14.4l53.7,15.2
			c7.1,2,17.2,0.6,22.5-3.1l0,0C91.5,22.8,90,18.2,82.8,16.2z"/>
	</g>
	<g>
		<polygon fill="#FFFFFF" points="26.8,11.9 29.8,9.8 33.1,10.7 34.7,9.6 31.5,8.7 34.4,6.7 37.8,7.7 39.5,6.6 34.5,5.2 34.4,5.2 
			23.5,12.5 28.7,14 28.8,14 30.5,12.9 		"/>
		<path fill="#FFFFFF" d="M35.9,13.5C35.9,13.5,35.9,13.5,35.9,13.5l-1.2,2l-0.1,0.2l1.8,0.5L38,13l6.4-2.1l-1.9-0.5l-4.2,1.5
			c0,0,0,0,0,0l1.4-2.2L38,9.1l-1.8,3.3l-6.4,2l2,0.6l3.7-1.3C35.7,13.6,35.8,13.5,35.9,13.5z"/>
		<path fill="#FFFFFF" d="M50.1,13.5c0.1-0.3,0.1-0.5,0-0.8c-0.2-0.3-0.5-0.5-1-0.7c-0.8-0.2-1.7-0.2-2.7,0l0.7-0.5l-1.6-0.5
			l-11.4,7.6l1.6,0.5l4.1-2.8c0,0.2,0,0.3,0.1,0.4c0.1,0.3,0.4,0.5,0.9,0.6c0.9,0.3,2.1,0.2,3.4-0.2c1.3-0.4,2.6-1,3.9-1.8
			C49.2,14.8,49.9,14.1,50.1,13.5z M47.9,13.7c-0.1,0.2-0.4,0.7-1.3,1.3c-0.9,0.6-1.8,1.1-2.7,1.3c-0.8,0.2-1.5,0.3-2.1,0.1
			c-0.5-0.2-0.6-0.4-0.5-0.6c0.1-0.3,0.4-0.7,0.9-1l1-0.7c0.7-0.5,1.4-0.8,2.2-1C46,13,46.4,13,46.7,13c0.3,0,0.5,0,0.7,0.1
			c0.3,0.1,0.4,0.2,0.5,0.3C48,13.5,48,13.6,47.9,13.7z"/>
		<path fill="#FFFFFF" d="M57.8,15.7c0.1-0.5,0-1.2-1.4-1.5c-1-0.3-2.3-0.3-3.6,0c-1.3,0.3-2.7,0.9-3.9,1.8c-1.2,0.8-1.9,1.6-2,2.2
			c-0.1,0.5,0,1.2,1.4,1.6c0.5,0.1,1,0.2,1.5,0.2c0.6,0,1.3-0.1,2-0.3c1.3-0.3,2.6-0.9,3.8-1.7C56.9,17.1,57.6,16.3,57.8,15.7z
			 M54.1,17.4c-0.9,0.6-1.7,1-2.5,1.2c-0.8,0.2-1.5,0.2-2.1,0.1c-0.7-0.2-0.7-0.5-0.6-0.7c0.1-0.3,0.4-0.7,1.4-1.4
			c0.9-0.6,1.7-1,2.5-1.2c0.5-0.1,0.9-0.2,1.3-0.2c0.3,0,0.6,0,0.8,0.1c0.3,0.1,0.5,0.2,0.6,0.4c0,0.1,0.1,0.2,0,0.3
			C55.6,16.2,55.2,16.6,54.1,17.4z"/>
		<path fill="#FFFFFF" d="M62.5,17.5c0.4,0.1,0.4,0.2,0.4,0.3l0.1,0.3l1.7-1.1l0.1-0.1l-0.1-0.1c-0.1-0.1-0.3-0.2-0.6-0.3
			c-0.6-0.2-1.2-0.1-2.1,0.1l0.6-0.4L61,15.6L53.1,21l1.6,0.5l3.9-2.6c0.8-0.5,1.5-0.9,2.2-1.1C61.6,17.5,62.1,17.4,62.5,17.5z"/>
		<path fill="#FFFFFF" d="M70.9,16.2l-2.2-0.1l-1.8,1.2L65.8,17l-1.6,1l1.1,0.3l-4,2.7c-1,0.7-1.4,1.2-1.3,1.6
			c0,0.3,0.3,0.5,0.9,0.7c0.3,0.1,0.7,0.1,1,0.1c0.1,0,0.2,0,0.3,0l0.1,0l1.9-1.3l-0.8,0.1c-0.3,0.1-0.6,0-0.8,0
			c-0.2-0.1-0.3-0.1-0.3-0.1c0,0,0,0,0,0c0-0.1,0.1-0.3,0.8-0.7l3.9-2.7l1.6,0.5l1.6-1l-1.6-0.5L70.9,16.2z"/>
	</g>
</g>
</svg>
