<?xml version="1.0" encoding="utf-8"?>
<!-- Generator: Adobe Illustrator 24.0.2, SVG Export Plug-In . SVG Version: 6.00 Build 0)  -->
<svg version="1.1" id="import-down" xmlns="http://www.w3.org/2000/svg" xmlns:xlink="http://www.w3.org/1999/xlink" x="0px" y="0px"
	 viewBox="0 0 92.5 36" enable-background="new 0 0 92.5 36" xml:space="preserve">
<g>
	<path fill="#D8DADA" d="M85.4,20.5L27.6,4.1C19.9,1.9,9.1,3.4,3.4,7.4l0,0c-5.7,4-4,9,3.7,11.2L64.9,35c7.7,2.2,18.5,0.7,24.2-3.3
		l0,0C94.8,27.7,93.1,22.6,85.4,20.5z"/>
	<path fill="#3FDF9D" d="M82.3,16.2L28.5,0.9C21.4-1.1,11.3,0.3,6,4l0,0c-5.3,3.7-3.7,8.4,3.4,10.4l53.7,15.2
		c7.1,2,17.2,0.6,22.5-3.1l0,0C90.9,22.8,89.4,18.2,82.3,16.2z"/>
	<g>
		<polygon fill="#FFFFFF" points="20.7,11.5 22.5,12 33.6,4.7 31.8,4.2 		"/>
		<path fill="#FFFFFF" d="M40.7,9.4c-0.9-0.3-2.1-0.2-3.5,0.2c0.1-0.2,0.2-0.5,0.1-0.7c-0.1-0.3-0.4-0.6-0.9-0.7
			c-0.8-0.2-1.7-0.2-2.7,0l0.7-0.4l-1.8-0.5l-8.1,5.3l1.8,0.5l4.6-3c0.6-0.4,1.2-0.7,1.9-0.9c0.6-0.2,1.1-0.2,1.5-0.1
			c0.5,0.2,1.1,0.5-0.6,1.6l-4.8,3.1l1.8,0.5l4.6-3c0.6-0.4,1.2-0.6,1.9-0.8c0.7-0.2,1.1-0.2,1.5-0.1c0.4,0.1,0.6,0.3,0.5,0.5
			c-0.1,0.3-0.5,0.6-1.3,1.1l-4.6,3l1.8,0.5l4.9-3.2C42.7,10.5,41.9,9.7,40.7,9.4z"/>
		<path fill="#FFFFFF" d="M48.8,11.7c-0.9-0.2-1.9-0.2-3.1,0l0.8-0.5l-1.8-0.5l-11.6,7.6l1.8,0.5l4-2.6c0,0.5,0.3,0.8,1.1,1
			c1,0.3,2.3,0.3,3.8-0.1c1.4-0.4,2.8-1,4.1-1.8c1.2-0.8,1.9-1.5,2.1-2.1C50.2,12.5,49.8,12,48.8,11.7z M43.6,15.9L43.6,15.9
			c-0.8,0.2-1.4,0.2-2,0.1c-0.5-0.1-0.7-0.4-0.6-0.7c0.1-0.3,0.3-0.7,0.9-1l1-0.7c0.7-0.4,1.4-0.7,2.1-0.9c0.7-0.2,1.4-0.2,1.9,0
			c0.5,0.1,0.7,0.4,0.6,0.7c-0.1,0.4-0.5,0.8-1.3,1.3C45.3,15.3,44.4,15.7,43.6,15.9z"/>
		<path fill="#FFFFFF" d="M56.7,13.9c-1.2-0.3-2.5-0.3-4,0c-1.5,0.3-2.9,0.9-4.2,1.8c-1.2,0.8-1.9,1.6-2,2.2
			c-0.1,0.7,0.4,1.2,1.5,1.5c1.1,0.3,2.4,0.3,3.9,0c1.5-0.3,2.8-0.9,4.1-1.7c1.3-0.8,2-1.6,2.1-2.3C58.3,14.8,57.8,14.3,56.7,13.9z
			 M51.8,18.3c-0.7,0.2-1.4,0.2-2,0c-0.6-0.2-0.9-0.4-0.8-0.8c0.1-0.4,0.5-0.8,1.3-1.4c0.8-0.5,1.6-0.9,2.5-1.1
			c0.8-0.2,1.5-0.2,2.1,0c0.6,0.2,0.9,0.4,0.8,0.8c-0.1,0.4-0.6,0.8-1.4,1.4C53.4,17.8,52.6,18.2,51.8,18.3z"/>
		<path fill="#FFFFFF" d="M64.9,16.3c-0.6-0.2-1.4-0.2-2.4,0.1l0.7-0.5l-1.8-0.5l-8.1,5.3l1.8,0.5l4.1-2.7c0.7-0.5,1.5-0.8,2.2-1
			c0.7-0.2,1.2-0.2,1.6-0.1c0.3,0.1,0.5,0.2,0.5,0.3l0.1,0.3l2.1-1.4l-0.1-0.1C65.4,16.5,65.2,16.4,64.9,16.3z"/>
		<path fill="#FFFFFF" d="M69.6,19.4l1.7-1.1l-1.7-0.5l2.3-1.5l-2.4-0.1l-1.7,1.1L66.6,17l-1.7,1.1l1.2,0.3L62.1,21
			c-2.1,1.4-1.4,2-0.4,2.3c0.5,0.1,1,0.2,1.5,0.2l0.2,0l1.9-1.2l-0.8,0.1c-0.3,0-0.5,0-0.7,0c-0.3-0.1-0.4-0.2-0.3-0.3
			c0-0.1,0.2-0.3,0.7-0.6l3.8-2.5L69.6,19.4z"/>
	</g>
	<path fill="#18B676" d="M88.7,22.5c-0.3,1.4-1.2,2.7-3.1,4c-5.3,3.7-15.3,5.1-22.5,3.1L9.4,14.3c-4-1.1-6.2-3-6.5-5.2l0,0V13L3,13
		c-0.4,2.6,1.8,5,6.5,6.3l53.7,15.2c7.1,2,17.2,0.6,22.5-3.1c2.1-1.5,3.1-3.1,3.1-4.7l0,0L88.7,22.5L88.7,22.5z"/>
</g>
</svg>
