<svg width="48" height="44" viewBox="0 0 48 44" fill="none" xmlns="http://www.w3.org/2000/svg">
<path d="M23.5 8.50932L23.5001 8.08081L23.0766 8.01514C20.1463 7.56068 17.7933 5.0966 17.3204 1.92624L17.2429 1.40658L16.7278 1.50973L2.90184 4.27803L2.5 4.35848V4.7683V22.2946V22.7946H3H7.67934V42V42.5H8.17934H23H23.5004L23.5 41.9995C23.4976 39.3344 23.4976 30.9621 23.4982 23.2556C23.4985 19.4024 23.499 15.7159 23.4993 12.9926L23.4998 9.72972L23.4999 8.82687L23.5 8.59026L23.5 8.52975L23.5 8.51445V8.51061V8.50964C23.5 8.50943 23.5 8.50932 23 8.50924L23.5 8.50932Z" fill="#45D6CD" stroke="white"/>
<path d="M46.5 27V26.5H46H24.0231H23.5239L23.5231 26.9992L23.5 41.9992L23.4992 42.5H24H46H46.5V42V27Z" fill="#FEC144" stroke="white"/>
<path d="M23.921 7.96693L23.5 8.03433V8.46065V26V26.5H24H31.4985H31.5625L31.6244 26.4839L42.126 23.7502L43.6365 23.357L42.1786 22.7993C41.7375 22.6306 41.3824 22.388 41.1063 22.0645L41.1055 22.0636C40.4015 21.2426 40.0341 19.773 39.8619 18.3508C39.6934 16.9594 39.7246 15.7387 39.7332 15.521L39.7336 15.5113V15.5015L39.7336 15.4957C39.7335 15.1873 39.7321 10.0623 41.0967 5.8773L41.2486 5.41132L40.7858 5.25011L30.0977 1.52782L29.5242 1.3281L29.4383 1.92924C28.9874 5.08298 26.7211 7.51864 23.921 7.96693Z" fill="#E96474" stroke="white"/>
<path d="M35.8563 25.5211L36 26.5H46H46.5V26V23V22.328L45.8563 22.5211L35.8563 25.5211Z" fill="#A7A3CB" stroke="white"/>
<rect x="36" y="26.5" width="1" height="1.5" rx="0.5" transform="rotate(-180 36 26.5)" fill="white"/>
</svg>
