<svg width="132" height="20" viewBox="0 0 132 20" fill="none" xmlns="http://www.w3.org/2000/svg">
<path d="M3.96509 12.6719V19H0.0979004V0.847656H6.34399C10.8596 0.847656 13.1174 2.76172 13.1174 6.58984C13.1174 8.44922 12.4338 9.94141 11.0667 11.0664C9.70728 12.1836 8.00415 12.7188 5.95728 12.6719H3.96509ZM3.96509 3.84766V9.70703H5.64087C7.91431 9.70703 9.05103 8.71875 9.05103 6.74219C9.05103 4.8125 7.92603 3.84766 5.67603 3.84766H3.96509ZM16.2927 6.82422C16.8787 6.49609 17.6599 6.23047 18.6365 6.02734C19.6209 5.82422 20.4607 5.72266 21.156 5.72266C24.781 5.72266 26.5935 7.53906 26.5935 11.1719V19H22.9959V17.1133H22.949C22.0662 18.582 20.7732 19.3164 19.0701 19.3164C17.8435 19.3164 16.8591 18.9688 16.117 18.2734C15.3826 17.5703 15.0154 16.6172 15.0154 15.4141C15.0154 12.9297 16.4959 11.4844 19.4568 11.0781L23.0193 10.5977C23.0193 9.08984 22.2341 8.33594 20.6638 8.33594C19.117 8.33594 17.6599 8.80469 16.2927 9.74219V6.82422ZM20.5701 13.1289C19.2029 13.3086 18.5193 13.9258 18.5193 14.9805C18.5193 15.4648 18.6834 15.8555 19.0115 16.1523C19.3474 16.4492 19.7966 16.5977 20.3591 16.5977C21.1326 16.5977 21.7693 16.3242 22.2693 15.7773C22.7693 15.2305 23.0193 14.5508 23.0193 13.7383V12.8125L20.5701 13.1289ZM37.9602 18.8477C37.3899 19.1602 36.5266 19.3164 35.3704 19.3164C32.6204 19.3164 31.2454 17.8711 31.2454 14.9805V8.86328H29.1126V6.03906H31.2454V3.19141L35.0071 2.11328V6.03906H37.9602V8.86328H35.0071V14.3242C35.0071 15.707 35.554 16.3984 36.6477 16.3984C37.0696 16.3984 37.5071 16.2734 37.9602 16.0234V18.8477ZM48.3777 18.8477C47.8074 19.1602 46.9441 19.3164 45.7879 19.3164C43.0379 19.3164 41.6629 17.8711 41.6629 14.9805V8.86328H39.5301V6.03906H41.6629V3.19141L45.4246 2.11328V6.03906H48.3777V8.86328H45.4246V14.3242C45.4246 15.707 45.9715 16.3984 47.0652 16.3984C47.4871 16.3984 47.9246 16.2734 48.3777 16.0234V18.8477ZM62.6741 13.5859H54.1429C54.2757 15.5938 55.4866 16.5977 57.7757 16.5977C59.2054 16.5977 60.4671 16.2461 61.5609 15.543V18.3203C60.3812 18.9844 58.8343 19.3164 56.9202 19.3164C54.8577 19.3164 53.2523 18.7344 52.1038 17.5703C50.9632 16.4062 50.3929 14.7852 50.3929 12.707C50.3929 10.6367 51.0023 8.95703 52.221 7.66797C53.4398 6.37109 54.971 5.72266 56.8148 5.72266C58.6507 5.72266 60.0843 6.28125 61.1156 7.39844C62.1546 8.50781 62.6741 10.0352 62.6741 11.9805V13.5859ZM59.1468 11.2188C59.1468 9.28125 58.3616 8.3125 56.7913 8.3125C56.1429 8.3125 55.5687 8.57812 55.0687 9.10938C54.5687 9.64062 54.2562 10.3438 54.1312 11.2188H59.1468ZM73.8768 9.47266C73.4159 9.20703 72.8573 9.07422 72.201 9.07422C71.3417 9.07422 70.6581 9.40234 70.1502 10.0586C69.6502 10.7148 69.4002 11.6172 69.4002 12.7656V19H65.6151V6.03906H69.4002V8.47656H69.4471C70.0721 6.70312 71.2088 5.81641 72.8573 5.81641C73.3026 5.81641 73.6424 5.86719 73.8768 5.96875V9.47266ZM88.5834 19H84.8216V11.7695C84.8216 9.67578 84.0677 8.62891 82.5599 8.62891C81.8412 8.62891 81.2435 8.91016 80.767 9.47266C80.2904 10.0273 80.0521 10.7383 80.0521 11.6055V19H76.267V6.03906H80.0521V8.10156H80.099C81.0443 6.51562 82.4349 5.72266 84.2709 5.72266C87.1459 5.72266 88.5834 7.50391 88.5834 11.0664V19ZM115.067 17.7812C113.293 18.8047 111.114 19.3164 108.528 19.3164C105.637 19.3164 103.356 18.5039 101.684 16.8789C100.012 15.2539 99.1762 13.0312 99.1762 10.2109C99.1762 7.35156 100.094 5.02734 101.93 3.23828C103.774 1.44141 106.2 0.542969 109.207 0.542969C111.145 0.542969 112.836 0.816406 114.282 1.36328V5.03125C112.875 4.21094 111.157 3.80078 109.125 3.80078C107.375 3.80078 105.957 4.37109 104.871 5.51172C103.786 6.65234 103.243 8.15625 103.243 10.0234C103.243 11.9219 103.731 13.4023 104.707 14.4648C105.692 15.5273 107.032 16.0586 108.727 16.0586C109.735 16.0586 110.559 15.9023 111.2 15.5898V11.8633H107.532V8.75781H115.067V17.7812ZM118.019 12.5781C118.019 10.4453 118.656 8.76953 119.93 7.55078C121.211 6.33203 122.93 5.72266 125.086 5.72266C127.172 5.72266 128.828 6.32422 130.055 7.52734C131.281 8.72266 131.894 10.332 131.894 12.3555C131.894 14.4805 131.266 16.1719 130.008 17.4297C128.75 18.6875 127.047 19.3164 124.898 19.3164C122.789 19.3164 121.113 18.7148 119.871 17.5117C118.637 16.3008 118.019 14.6562 118.019 12.5781ZM121.851 12.5312C121.851 15.1172 122.906 16.4102 125.016 16.4102C127.039 16.4102 128.051 15.082 128.051 12.4258C128.051 9.89453 127.031 8.62891 124.992 8.62891C124 8.62891 123.226 8.96875 122.672 9.64844C122.125 10.3281 121.851 11.2891 121.851 12.5312Z" fill="#2B2A35"/>
</svg>
