<?xml version="1.0" encoding="utf-8"?>
<!-- Generator: Adobe Illustrator 24.0.2, SVG Export Plug-In . SVG Version: 6.00 Build 0)  -->
<svg version="1.1" id="people7Svg" xmlns="http://www.w3.org/2000/svg" xmlns:xlink="http://www.w3.org/1999/xlink" x="0px" y="0px"
	 viewBox="0 0 85.8 118.7" enable-background="new 0 0 85.8 118.7" xml:space="preserve">
<g>
	<g>
		<g>
			<path fill="#F8B264" d="M83.9,109.2c1-0.9,1.9-1.9,1.9-3.2c0-1.3-0.2-2.8-1.1-3.8c-1-1.1-2.6-1.3-4-0.8c-0.8,0.3-1.4,0.7-2.1,1.2
				c-2.1,1.5-4.3,2.9-6.4,4.4c-1.9,1.3-4,2.5-5.6,4.2c-1.6,1.7-2,4.9-0.2,6.6c0.6,0.6,1.4,0.7,2.2,0.8c0.9,0,1.8,0.2,2.7-0.2
				c0.8-0.4,1.5-1.1,2.2-1.7c0.9-0.7,1.8-1.3,2.8-2c0.4-0.3,0.8-0.6,1.2-0.8C79.6,112.3,81.9,110.9,83.9,109.2z"/>
		</g>
		<path fill="#F8CB9F" d="M67.2,110.7c-0.8,0.5-1.5,1.4-1.8,2.3c-0.4,0.9-0.5,2-0.2,3c0.3,0.9,0.8,1.5,1.5,2c1,0.7,2.4,0.9,3.6,0.6
			c0.5-0.1,0.9-0.3,1.3-0.5c1.4-1,1.7-3,1.3-4.7c-0.2-1-0.7-1.9-1.4-2.5C70.4,109.8,68.5,109.8,67.2,110.7z"/>
		<path fill="#E99B4E" d="M68.1,112.5c-0.4,0.3-0.7,0.7-0.9,1.2c-0.2,0.5-0.2,1-0.1,1.5c0.1,0.4,0.4,0.8,0.8,1
			c0.5,0.4,1.2,0.4,1.8,0.3c0.2-0.1,0.5-0.1,0.6-0.3c0.7-0.5,0.9-1.5,0.7-2.4c-0.1-0.5-0.3-1-0.7-1.3
			C69.7,112.1,68.8,112.1,68.1,112.5z"/>
	</g>
</g>
<path fill="#723A28" d="M35.4,24.7c0,0.2,0,0.3,0.1,0.5c0.3,2.2,0.6,4.3,0.9,6.5c0.4,3.3,2.2,6.3,4,9.1c0.9,1.4,1.9,2.7,2.8,4.1
	c0.8,1.3,1.9,2.4,2,4c0,0.2,0,0.4,0,0.6c-0.1,0.3-0.4,0.6-0.6,0.8c-0.6,0.4-1.2,0.8-1.9,0.8c-1.1,0.1-2-0.6-2.7-1.3
	c-1.9-1.8-3.4-4.1-4.8-6.3c-1.5-2.4-2.7-4.9-3.1-7.7c-0.3-1.9-0.1-3.9,0-5.8c0.1-2.8-0.2-5.5-0.7-8.2c-0.1-0.7-0.2-1.4,0.1-2
	c0.1-0.1,0.1-0.2,0.3-0.3c0.1,0,0.2,0,0.3,0C34.3,19.7,35.1,22.6,35.4,24.7z"/>
<path fill="#E4BD90" d="M45.1,56.2c-0.1,0.3-0.2,0.5-0.5,0.7c-0.2,0.2-0.4,0.2-0.7,0.2c-0.3,0-0.6,0.2-0.8,0.2c-0.1,0-0.2,0-0.4,0
	c-0.5-0.1-0.9-0.5-1.1-0.9c-0.2-0.4-0.4-0.9-0.4-1.4c0-0.3-0.1-0.6,0-0.9c0-0.1,0.2-0.2,0.2-0.4c0.1-0.2,0-0.4,0.1-0.6
	c0.1-0.8,0.5-1.5,0.8-2.2c0.2-0.3,0.3-0.7,0.5-1c0.3-0.6,1-0.6,1.5-0.3c0.5,0.3,0.8,1.2,0.9,1.7C45.7,53,45.7,54.7,45.1,56.2z"/>
<rect x="0.1" y="60.5" transform="matrix(-0.5338 -0.8456 0.8456 -0.5338 21.1731 134.9653)" fill="#C69E62" width="95.3" height="2.4"/>
<path fill="#E4BD90" d="M43.1,54.2c0,0.1-0.1,0.2-0.2,0.2c-0.2,0.1-0.4,0-0.5-0.2c-0.4-0.6-0.1-1.3-0.2-2c0-0.3-0.2-0.7-0.2-1
	c0-0.4,0.2-0.8,0.4-1.1c0.2-0.3,0.7-0.5,1.1-0.5c0,0,0.1,0,0.1,0c0,0,0,0.1,0,0.2c0,0.3-0.1,0.6-0.1,0.9c0,0.2,0,0.4,0.1,0.7
	C43.6,52.3,43.5,53.3,43.1,54.2z"/>
<path opacity="0.3" fill="#CDCDCD" d="M30.3,101.4c3.2,1.4,6.7,4,10.4,2.6c1.5-0.6,2.8-1.8,3.4-3.3c1.1-3-0.3-5-2.7-6.7
	c-1.8-1.3-3.8-2.3-6-3c-3.9-1.3-8.1-1.6-12.2-2c-2.7-0.2-5.3-0.6-8-1c-2.6-0.4-5-1.3-7.6-1.7c-2.2-0.3-4.6-0.3-6.2,1.1
	c-1.9,1.7-1.8,4.9-0.3,7.1c2.5,3.7,7.8,5.5,12,5.2c2.3-0.1,4.5-0.6,6.8-0.6C23.5,99.2,27,100.1,30.3,101.4z"/>
<g>
	<path fill="#422D1E" d="M12,97.5c-0.2,0.1-0.5,0.2-0.8,0.3c-1.9,0.2-3.9-0.2-5.4-1.3c-1.6-1.1-1.9-3.2-2.1-5.1
		c0-0.5-0.1-0.9,0.1-1.4c0.3-1.3,3-2.2,4.2-1.6c0.8,0.4,1.2,1.4,1.6,2.1c0.5,0.9,0.6,2.1,0.8,3c0.1,0.2,0.1,0.4,0.2,0.6
		c0.1,0.2,0.3,0.3,0.4,0.5c0.5,0.5,1.1,0.9,1.3,1.6C12.6,96.9,12.4,97.3,12,97.5z"/>
	<path fill="#422D1E" d="M39.7,95.8c1.1,1,1.7,2,1,3.1c-0.5,0.7-1.1,0.8-1.9,0.9c-0.4,0-0.7,0.1-1.1,0.1c-0.7,0-1.6-0.3-2.3-0.5
		c-1.5-0.4-2.8-1.1-4.1-1.8c-1.3-0.7-2.6-1.3-3.1-2.8c-0.4-1.3,0.2-2.6,1.6-3c0.7-0.2,1.5-0.2,2.2,0c1.3,0.4,2.5,1.1,3.7,1.6
		C37.1,94,38.5,94.7,39.7,95.8z"/>
	<path fill="#E4BD90" d="M6.9,86.1c-0.4,1-0.7,2-1.1,3c-0.5,1.4,0.8,3,2.2,2.5c0.4-0.1,0.6-0.5,0.9-0.8c1.2-1.5,2.4-3.1,3.4-4.8
		c2.4-3.7,4.8-7.4,6.6-11.4c0.6-1.4,1.4-3.6,0.5-4.9c-0.6-0.9-1.6-2-2.7-2.1c-2.3-0.1-3.9,4.1-4.7,5.9C10.2,77.6,8.5,81.8,6.9,86.1z
		"/>
	<path fill="#E4BD90" d="M29.8,89.7c0.1,1,0.2,2,0.3,2.9c0.2,1.3,1.8,2.1,2.8,1.1c0.2-0.3,0.3-0.6,0.4-1c0.4-1.8,0.7-3.5,0.9-5.3
		c0.5-4,1-8,0.9-12.1c0-1.4-0.2-3.5-1.5-4.3c-0.8-0.5-2-1.1-3-0.6c-1.9,0.9-1.6,5-1.5,6.7C29.3,81.4,29.4,85.5,29.8,89.7z"/>
	<path fill="#21596B" d="M35.2,53.6c1,5.7,1,11.5,1,17.3c0,0.5,0,1-0.2,1.4c-1.1,2.2-4.4,2.4-6.5,1.9c-0.7-0.2-1.4-0.6-1.7-1.2
		c-0.2-0.4-0.2-0.8-0.3-1.3c-0.2-1.8-0.5-3.5-0.4-5.3c0-0.6-0.1-4.2-0.8-4.3c-0.3,0-0.4,0.3-0.5,0.5c-1.4,3.7-2.6,7.3-3.6,11.1
		c-0.1,0.4-0.2,0.8-0.4,1.1c-1,1.4-4.7,0.7-6.2,0.3c-1.2-0.3-4.4-1.2-4.6-2.7c-0.1-0.5,0.1-1,0.2-1.4c0.9-3.1,1.9-6.2,2.5-9.4
		c0.3-1.6,0.5-3.2,0.5-4.8c0-1.3-0.2-2.8,0.6-3.9c0.8-0.9,2.7-0.9,3.8-0.8c3.2,0,6.6,1,9.8,0.1c1.4-0.4,2.8-1.2,4.3-1.3
		c0.5,0,1.1,0,1.6,0.3c0.6,0.4,0.9,1.3,1,2.1C35.1,53.3,35.1,53.4,35.2,53.6z"/>
</g>
<g>
	<path fill="#E4BD90" d="M30.1,22.1c-3,0.7-6,1-8.9,0.8c-0.7,0-1.4-0.1-2-0.5c-0.1-0.1-0.2-0.1-0.2-0.3c0-0.1,0-0.3,0-0.4
		c0.3-0.8,0.9-1.5,1.5-2c1.6-1.3,3.6-2.1,5.4-2.1c2.1-0.1,3.8,1.2,5.5,2.3c0.3,0.2,0.7,0.6,0.6,1.1c-0.1,0.6-0.7,0.8-1.1,1
		C30.6,22,30.4,22.1,30.1,22.1z"/>
	<path fill="#EFCCA3" d="M21.6,5.2C22.2,4.3,23,3.6,24,3.1c8.7-3.9,11.3,7.8,8.1,13.5c-0.9,1.7-2.5,3.2-4.4,3.3
		c-1.7,0.1-3.3-1.1-4.4-2.4C21,14.5,19.5,8.7,21.6,5.2z"/>
	<path fill="#292526" d="M24.9,10.5c-0.1,0.8-0.2,1.6-0.4,2.4c0,0.3-0.1,0.6-0.3,0.7c-0.5,0.3-1-0.3-1.1-0.8
		c-0.1-0.5-0.3-1.2-0.8-1.3c-0.4-0.1-0.7,0.2-0.8,0.6c-0.3,0.7,0.1,1.5,0.3,2.2c0,0.1,0,0.2,0,0.2c0,0.1-0.1,0.1-0.2,0.1
		c-1.6,0-2.7-3.6-3-4.7c-0.4-1.6-0.3-3.2,0.3-4.7c0.5-1.3,1.2-2.9,2.8-3.1c0.1,0,0.3,0,0.4-0.1c0.2-0.1,0.4-0.3,0.6-0.5
		c1.6-1.9,4.6-1.9,6.7-1c3,1.2,5.7,4.9,4.9,8.3C33.4,12.2,24.9,10.2,24.9,10.5z"/>
</g>
<path fill="#723A28" d="M14.2,35.8c-0.5,3.5-1,7-1,10.6c0,2.9-1.3,6.9,2.2,8.3c3.9,1.6,8.7,1.8,12.8,1.3c2.1-0.3,4.2-0.8,6.1-1.6
	c2.1-0.8,2-1.5,2-3.8c0.1-6.7-1.3-13.3-0.9-20c0.1-1.7,0.3-3.5,0.2-5.2c-0.2-2.5-1-5.2-3.6-6c-0.4-0.1-0.9-0.2-1.3,0
	c-0.4,0.2-0.6,0.7-1,1.1c-0.4,0.4-0.9,0.6-1.4,0.8c-1.3,0.4-2.8,0.5-4.1,0c-1-0.3-2.1-1-2.9-1.8c-0.1-0.1-0.1-0.1-0.2-0.2
	c-0.1,0-0.1,0-0.2-0.1c-0.3,0-0.5,0-0.8,0.1c-1.8,0.5-4,2-4.7,3.7c-0.3,0.8-0.4,1.6-0.4,2.5c-0.1,1.6-0.1,3.3-0.1,4.9
	C14.8,32.3,14.2,34.1,14.2,35.8z"/>
<g>
	<path fill="#E4BD90" d="M41.8,49.3c0,0-0.1,0.1-0.2,0.1c-0.3,0-0.4-0.3-0.7-0.4c-0.7-0.1-1.5,0.3-1.4,1.1c0,0.3,0.2,0.5,0.3,0.7
		c0.4,0.7,0.8,1.4,1.2,2.1c0.1,0.1,0.1,0.2,0.1,0.3c0,0.2-0.1,0.4-0.3,0.5c-0.4,0.2-0.9,0.1-1.3-0.1c-1.7-0.7-3.2-2.3-3.7-4
		c-0.2-0.7-0.3-1.4-0.1-2c0.2-0.6,0.8-1.3,1.5-1.2c0.3,0,0.5,0.2,0.8,0.3c0.4,0.1,0.8,0.2,1.2,0.3c0.6,0.1,1.1,0,1.7,0.1
		c0.7,0.2,1.2,1,1.1,1.8C41.9,49.1,41.9,49.2,41.8,49.3z"/>
	<path fill="#723A28" d="M17.2,29.9c0.4,2.1,1.1,4.2,2,6.1c1.3,2.6,2.9,5,5.1,6.9c2.6,2.1,5.2,4.1,7.9,6c1.6,1.1,3,1.6,4.6,0.3
		c0.6-0.5,1.6-1.5,1.6-2.3c0-1.6-1.7-2.8-2.8-3.5c-1.6-1.1-3.3-2.1-4.8-3.3c-2.3-1.7-3.9-3.6-5.4-6C24,32,23.8,29,23.1,26.5
		c-0.6-2.1-1.6-4.4-3.2-5.9c-0.2-0.2-0.5-0.4-0.8-0.5c-0.3-0.1-0.6-0.1-0.9,0.1c-0.3,0.2-0.4,0.5-0.5,0.8c-0.5,1.2-1,2.4-1,3.8
		c0,1.3,0.2,2.7,0.4,4C17.1,29.1,17.2,29.5,17.2,29.9z"/>
</g>
<path fill="#C69E62" d="M67.7,107c-0.4,0.3-1.3,0.6-1.4,1.1c-0.2,0.9,1.3,2.2,1.7,2.9c0.5,0.8,2.6,3.4,1.8,4.2
	c-1.4,1.5-3.9-3.1-4.6-3.9c-0.8-1-2.7-2.6-1.8-4.1c0.3-0.5,0.7-0.8,1.1-1.1c2.7-2,5.5-3.8,8.4-5.5c0.2-0.1,0.5-0.3,0.7-0.2
	c0.1,0.1,0.2,0.2,0.3,0.3c0.3,0.4,0.5,0.9,0.8,1.3c-1,1-2.1,1.6-3.2,2.4C70.2,105.3,69,106.2,67.7,107z"/>
</svg>
