<?xml version="1.0" encoding="utf-8"?>
<!-- Generator: Adobe Illustrator 24.0.2, SVG Export Plug-In . SVG Version: 6.00 Build 0)  -->
<svg version="1.1" id="people2Svg" xmlns="http://www.w3.org/2000/svg" xmlns:xlink="http://www.w3.org/1999/xlink" x="0px" y="0px"
	 viewBox="0 0 90.8 82.3" enable-background="new 0 0 90.8 82.3" xml:space="preserve">
<g>
	<path fill="#F2BA8C" d="M46.9,26.7c-3.8,1-7.4-1.2-12-1.5c-1.8,0.1-2,0.4-3.5,1c-0.4,0.1-1.3,0.3-1.7,0.5c-0.8,0.3-2.4,0.7-3.1,0.1
		c-0.1-0.1-0.2-0.3-0.2-0.4c-0.1,0-0.3,0-0.4,0.1c-0.3,0-0.5,0-0.8-0.3c-0.1-0.1-0.2-0.4-0.1-0.5c0.1-0.4,0.4-0.7,0.7-1.1
		c-0.3,0.2-0.5,0.4-0.8,0.6c-0.5,0.5-1.3-0.4-0.7-0.8c1-0.9,2-1.4,3.2-1.7c1.2-0.5,2.7-0.8,4-0.7c0.8,0.1,1.5,0.4,2.2,0.6
		c0.5,0.1,0.9,0.1,1.4,0.1c0.8-0.1,8.8-2,12.6-1.2C54,22.7,47.7,26.5,46.9,26.7z"/>
	<path opacity="0.3" fill="#CDCDCD" d="M62.7,77.6c1.9-1.7,3.5-3.8,5.6-5.2c4.4-3,10.2-2.7,15.5-3.1c2.4-0.2,5.1-0.7,6.4-2.8
		c1.5-2.4,0.1-5.6-2-7.5c-4.3-3.9-10.6-4-16.3-4c-11.5,0-23.5,0.2-33.9,5.2c-2.9,1.4-5.8,3.4-6.6,6.5c-0.8,3,0.9,6.3,3.3,8.3
		c2.4,2,5.4,3.1,8.4,4.1c3.1,1.1,7.1,3.3,10.4,3.3C56.7,82.3,60.4,79.7,62.7,77.6z"/>
	<path fill="#F2BA8C" d="M74.9,65.9c-1.1,0.6-2.2-3.9-1.9-4c0.9-0.2,9.7-2.6,10.4-2.6c1.1-0.1,1.4,2.1,0.7,2.5
		C82.7,62.7,76.8,65,74.9,65.9z"/>
	<path fill="#21596B" d="M82.4,59.6c-0.6,0.8-0.4,1.5,0,2.1c0.2,0.3,1.3,2.2,2,3.5c0.4,0.8,1.1,1.7,1.8,2.2c0.8,0.5,1.6,0.4,1.8-0.2
		c0.4-1.1,0.1-2.2-0.3-3.3c-0.6-1.6-1.5-3.3-2.6-4.5C84.3,58.8,83,58.7,82.4,59.6z"/>
	<path fill="#21596B" d="M48.5,57.9C48.5,57.9,48.5,58,48.5,57.9c0.1,0.1,0.2,0.1,0.3,0.2c0.3,0.4,0.7,0.7,1.1,1
		c0.1-0.5,0.6-0.9,1.2-0.8c0.2,0,0.4,0.1,0.5,0.1c0.4-0.3,1-0.3,1.3,0.1c0.1,0.1,0.2,0.2,0.3,0.3c2.6,0.7,5.3,1.7,8,2.3
		c-0.7-0.3-1.3-0.6-2-1c-1.1-0.6,0-2.2,1.1-1.6c2.8,1.5,5.8,2.2,9,2.1c1.5,0,3.2-0.3,4.6-0.5c0.3-0.1,1.4-0.4,1.9,0
		c1.2,0.8,1.3,3.5,1.7,4.8c0.1,0.4-0.1,0.9-0.5,1.1c-5.9,2.2-13.2,3.6-19.5,2.3c-3.3-0.7-6.1-2.6-8.2-5.1c-0.6-0.7-1.2-1.5-1.6-2.4
		c-0.4-0.7-0.7-1.4-0.9-2.1c0,0,0,0,0-0.1l0,0c0-0.1-0.1-0.2-0.1-0.2C46.4,57.5,48.1,56.9,48.5,57.9z"/>
	<path fill="#F2BA8C" d="M48,69c-1.2-0.4,1.4-4.3,1.7-4.1c0.8,0.5,8.5,5.3,9,5.8c0.8,0.8-0.5,2.5-1.4,2.3C55.6,72.5,50,69.7,48,69z"
		/>
	<path fill="#21596B" d="M57.7,70.1c-1,0.1-1.4,0.7-1.5,1.4C56,71.9,55.4,74,55,75.4c-0.3,0.9-0.6,2-0.4,2.9c0.2,1,0.7,1.4,1.4,1.2
		C57,79,57.6,78,58.1,77c0.7-1.5,1.4-3.3,1.5-5C59.6,71,58.8,70,57.7,70.1z"/>
	<path fill="#21596B" d="M33.8,57.4c-0.3-1.5,0.2-3.1,1.5-4.3c2.7-2.4,7.5-2,10.8-2.1c4.3-0.1,8.6,0,12.9,0.2c0.1,0,0.2,0,0.3,0
		c0.3,0,0.6,0,0.9,0c1.2,0,1.9,0.9,1.8,1.8c0.1,0,0.2,0.1,0.3,0.2c1.8-0.6,3.5-1.2,5.4-1.6c0.3-0.1,0.5,0,0.8,0
		c0.3-1.1,1.4-1.3,2.3-0.9c0.2-2.1,3.5-2.3,3.5-0.1c0,6.6-4.6,11.7-10.9,13.1c-4.2,1-8.7,0.5-13-0.3c1.4,1.2,2.8,2.3,4.1,3.5
		c0.3,0.3,0.6,0.9,0.3,1.3c-0.7,1.2-1.4,2.4-1.9,3.6c-0.3,0.5-1,0.8-1.5,0.5c-4-1.9-7.7-4.2-11.2-6.9C37.6,63.5,33.7,60.9,33.8,57.4
		z"/>
	<path fill="#F2BA8C" d="M38.2,3.3c3.2-1.4,8,0.2,8.3,4.8c0.4,4.3-0.6,9.6-3.4,11.6c-1.5,1.1-3.5,1.5-5.1,0.3
		c-1.7-1.4-3.3-3.7-3.7-5.8C33.8,9.9,33.7,5.3,38.2,3.3z"/>
	
		<rect x="40.1" y="13.8" transform="matrix(-0.8079 0.5893 -0.5893 -0.8079 88.9314 8.1999)" fill="#F2BA8C" width="6.1" height="9.7"/>
	<path fill="#273658" d="M33.8,8.5c-0.1-0.4-0.1-0.8,0-1.3c0-0.1,0-0.3,0.1-0.4c-0.1-0.1-0.4-0.5-0.4-0.5c-1.2-2,1-4.4,3.1-3.3
		c0.1,0,0.2,0.2,0.2,0.3c0-0.1,0-0.3,0-0.4c0-1.6,1.1-3.2,3-2.8c0.5,0.1,0.8,0.5,1.3,0.6c0.2,0,0.3,0.1,0.3,0.1c0,0,0.1-0.1,0.2-0.1
		c0.2-0.1,0.4-0.2,0.7-0.3c1.2-0.5,2.3,0,3.1,1c0.3,0.4,0.4,0.8,0.7,0.9c0.5,0.1,0.9-0.1,1.5,0.2c0.8,0.4,1.1,1.2,1.2,2.1
		c0.5,1.9,2.5,2.9,2.3,5c-0.1,1.1-0.7,2.1-1.6,2.7c-0.2,0.2-0.3,0.4-0.4,0.6c-0.4,0.7-0.2,1.2-0.2,1.9c0,1.2-0.8,2.2-1.8,2.7
		c-0.5,0.3-0.8,0.3-1.3,0.3c-0.9,0.1-1.5,0.3-2.3,0.5c-1.2,0.3-2.4,0.1-3.4-0.6c-0.9-0.7-1.5-1.8-1.5-3c0-0.7,0.2-1.8-0.3-2.4
		c-0.5-0.5-1.7-0.7-2.3-1.1C34.8,10.6,34.1,9.6,33.8,8.5z"/>
	<path fill="#F2BA8C" d="M22.9,39.2c-3.7,1.4-7.5-0.3-12,0c-1.8,0.3-1.9,0.7-3.4,1.4c-0.4,0.2-1.2,0.5-1.6,0.7
		c-0.8,0.4-2.3,1-3.1,0.5c-0.2-0.1-0.2-0.2-0.3-0.4c-0.1,0-0.3,0.1-0.4,0.1c-0.3,0.1-0.5,0-0.8-0.2c-0.2-0.1-0.2-0.3-0.2-0.5
		c0.1-0.4,0.3-0.8,0.5-1.1C1.4,39.8,1.2,40,1,40.2c-0.5,0.5-1.3-0.2-0.8-0.7c0.9-1,1.9-1.6,3-2.1c1.2-0.6,2.6-1.1,3.9-1.1
		c0.8,0,1.5,0.3,2.3,0.3c0.5,0,0.9,0,1.4,0c0.8-0.2,8.5-3.1,12.4-2.7C29.4,34.4,23.7,38.9,22.9,39.2z"/>
	<path fill="#E76D5D" d="M28.2,27.6c1.8-1.7,3.6-3.2,5.6-4.3c1.8-1,3.9-1.3,5.9-1.5c2-0.2,3.7-0.7,5.5-1.5c1.2-0.5,2.2-0.9,2.8-1.2
		c2.8-1,4.8-0.8,8.8,0.9c8.1,3.6,17.4,16.2,19.9,22.5c0,0.1,0.1,0.1,0.1,0.2c1.8,4.6-1.5,9.8-6.3,11c-5.9,1.5-13.5-2.7-18.8-2.7
		c-1.1,0.3-1.3-0.2-1.3-0.3c-1.4-4.5-3.5-8.8-6.2-12.6c-1-1.4-2.1-2.8-3.4-4.1c-2.1-2.1-4.7-1-6.8,0.4c-3,1.9-6.3,3.6-9.5,5
		c-1.3,0.6-2.9,1.2-4.1,0.4c-0.6-0.4-1-1.1-1.2-1.8c-0.5-2.1-1-4.3,1.3-5C23.5,32.3,26,29.6,28.2,27.6z"/>
</g>
</svg>
