<?xml version="1.0" encoding="utf-8"?>
<!-- Generator: Adobe Illustrator 24.0.2, SVG Export Plug-In . SVG Version: 6.00 Build 0)  -->
<svg version="1.1" id="people6Svg" xmlns="http://www.w3.org/2000/svg" xmlns:xlink="http://www.w3.org/1999/xlink" x="0px" y="0px"
	 viewBox="0 0 114.6 107.8" enable-background="new 0 0 114.6 107.8" xml:space="preserve">
<g>
	<g>
		<path fill="#B47A45" d="M7.4,72.8c12.1-9.1,24.1-18.2,36.2-27.3c3-2.3,6.1-4.6,9.1-6.8c-1.2-0.7-2.3-1.4-3.5-2.2
			c-1.3-0.8-2.6-1.6-3.9-2.5c-3,2.3-6.1,4.6-9.1,6.8C24.1,50,12.1,59.1,0,68.2c1.3,0.8,2.6,1.6,3.9,2.5C5.1,71.4,6.3,72.1,7.4,72.8z
			"/>
		<path fill="#A76733" d="M7.4,72.8c11.1-8.3,22.2-16.7,33.2-25c4-3,8-6,12-9.1c-0.7-0.4-1.4-0.9-2.1-1.3c-0.1-0.1-0.3-0.2-0.4-0.2
			c-4,3-8,6-12,9.1C27.1,54.6,16,63,4.9,71.3c0.1,0.1,0.3,0.2,0.4,0.2C6,72,6.7,72.4,7.4,72.8z"/>
		<polygon fill="#CBCBCB" points="4.4,68.3 3.7,68.9 1.2,67.3 1.9,66.8 		"/>
		<polygon fill="#CBCBCB" points="5.1,66.1 4.4,66.6 3.1,65.9 3.8,65.3 		"/>
		<polygon fill="#CBCBCB" points="8.2,65.4 7.5,66 5,64.4 5.7,63.9 		"/>
		<polygon fill="#CBCBCB" points="8.9,63.2 8.2,63.8 7,63 7.7,62.5 		"/>
		<polygon fill="#CBCBCB" points="12.1,62.5 11.3,63.1 8.9,61.5 9.6,61 		"/>
		<polygon fill="#CBCBCB" points="12.7,60.3 12,60.9 10.8,60.1 11.5,59.6 		"/>
		<polygon fill="#CBCBCB" points="15.9,59.7 15.2,60.2 12.7,58.7 13.4,58.1 		"/>
		<polygon fill="#CBCBCB" points="16.6,57.4 15.9,58 14.6,57.2 15.3,56.7 		"/>
		<polygon fill="#CBCBCB" points="19.7,56.8 19,57.3 16.5,55.8 17.2,55.2 		"/>
		<polygon fill="#CBCBCB" points="20.4,54.6 19.7,55.1 18.5,54.3 19.2,53.8 		"/>
		<polygon fill="#CBCBCB" points="23.5,53.9 22.8,54.4 20.4,52.9 21.1,52.3 		"/>
		<polygon fill="#CBCBCB" points="24.2,51.7 23.5,52.2 22.3,51.4 23,50.9 		"/>
		<polygon fill="#CBCBCB" points="27.4,51 26.7,51.5 24.2,50 24.9,49.5 		"/>
		<polygon fill="#CBCBCB" points="28.1,48.8 27.4,49.3 26.1,48.6 26.8,48 		"/>
		<polygon fill="#CBCBCB" points="31.2,48.1 30.5,48.6 28,47.1 28.7,46.6 		"/>
		<polygon fill="#CBCBCB" points="31.9,45.9 31.2,46.4 29.9,45.7 30.7,45.1 		"/>
		<polygon fill="#CBCBCB" points="35,45.2 34.3,45.8 31.9,44.2 32.6,43.7 		"/>
		<polygon fill="#CBCBCB" points="35.7,43 35,43.5 33.8,42.8 34.5,42.2 		"/>
		<polygon fill="#CBCBCB" points="38.9,42.3 38.2,42.9 35.7,41.3 36.4,40.8 		"/>
		<polygon fill="#CBCBCB" points="39.6,40.1 38.8,40.7 37.6,39.9 38.3,39.4 		"/>
		<polygon fill="#CBCBCB" points="42.7,39.5 42,40 39.5,38.4 40.2,37.9 		"/>
		<polygon fill="#CBCBCB" points="43.4,37.2 42.7,37.8 41.4,37 42.1,36.5 		"/>
		<polygon fill="#CBCBCB" points="46.5,36.6 45.8,37.1 43.4,35.6 44.1,35 		"/>
	</g>
	<g>
		<path fill="#B47A45" d="M52.7,38.7c12.1-9.1,24.1-18.2,36.2-27.3c3-2.3,6.1-4.6,9.1-6.8c-1.2-0.7-2.3-1.4-3.5-2.2
			c-1.3-0.8-2.6-1.6-3.9-2.5c-3,2.3-6.1,4.6-9.1,6.8C69.4,15.9,57.3,25,45.3,34.1c1.3,0.8,2.6,1.6,3.9,2.5
			C50.4,37.3,51.5,38,52.7,38.7z"/>
		<path fill="#A76733" d="M52.7,38.7c11.1-8.3,22.2-16.7,33.2-25c4-3,8-6,12-9.1c-0.7-0.4-1.4-0.9-2.1-1.3c-0.1-0.1-0.3-0.2-0.4-0.2
			c-4,3-8,6-12,9.1c-11.1,8.3-22.2,16.7-33.2,25c0.1,0.1,0.3,0.2,0.4,0.2C51.3,37.9,52,38.3,52.7,38.7z"/>
		<polygon fill="#CBCBCB" points="49.7,34.2 49,34.7 46.5,33.2 47.2,32.7 		"/>
		<polygon fill="#CBCBCB" points="50.3,32 49.6,32.5 48.4,31.8 49.1,31.2 		"/>
		<polygon fill="#CBCBCB" points="46.9,34.6 46.2,35.1 45,34.3 45.7,33.8 		"/>
		<polygon fill="#CBCBCB" points="53.5,31.3 52.8,31.9 50.3,30.3 51,29.8 		"/>
		<polygon fill="#CBCBCB" points="54.2,29.1 53.5,29.6 52.2,28.9 52.9,28.3 		"/>
		<polygon fill="#CBCBCB" points="57.3,28.4 56.6,29 54.2,27.4 54.9,26.9 		"/>
		<polygon fill="#CBCBCB" points="58,26.2 57.3,26.8 56.1,26 56.8,25.5 		"/>
		<polygon fill="#CBCBCB" points="61.2,25.5 60.5,26.1 58,24.5 58.7,24 		"/>
		<polygon fill="#CBCBCB" points="61.8,23.3 61.1,23.9 59.9,23.1 60.6,22.6 		"/>
		<polygon fill="#CBCBCB" points="65,22.7 64.3,23.2 61.8,21.7 62.5,21.1 		"/>
		<polygon fill="#CBCBCB" points="65.7,20.4 65,21 63.7,20.2 64.4,19.7 		"/>
		<polygon fill="#CBCBCB" points="68.8,19.8 68.1,20.3 65.6,18.8 66.3,18.2 		"/>
		<polygon fill="#CBCBCB" points="69.5,17.6 68.8,18.1 67.6,17.3 68.3,16.8 		"/>
		<polygon fill="#CBCBCB" points="72.7,16.9 71.9,17.4 69.5,15.9 70.2,15.3 		"/>
		<polygon fill="#CBCBCB" points="73.3,14.7 72.6,15.2 71.4,14.4 72.1,13.9 		"/>
		<polygon fill="#CBCBCB" points="76.5,14 75.8,14.5 73.3,13 74,12.5 		"/>
		<polygon fill="#CBCBCB" points="77.2,11.8 76.5,12.3 75.2,11.5 75.9,11 		"/>
		<polygon fill="#CBCBCB" points="80.3,11.1 79.6,11.6 77.1,10.1 77.8,9.6 		"/>
		<polygon fill="#CBCBCB" points="81,8.9 80.3,9.4 79.1,8.7 79.8,8.1 		"/>
		<polygon fill="#CBCBCB" points="84.2,8.2 83.4,8.8 81,7.2 81.7,6.7 		"/>
		<polygon fill="#CBCBCB" points="84.8,6 84.1,6.5 82.9,5.8 83.6,5.2 		"/>
		<polygon fill="#CBCBCB" points="88,5.3 87.3,5.9 84.8,4.3 85.5,3.8 		"/>
		<polygon fill="#CBCBCB" points="88.7,3.1 88,3.7 86.7,2.9 87.4,2.4 		"/>
		<polygon fill="#CBCBCB" points="91.8,2.4 91.1,3 88.6,1.4 89.3,0.9 		"/>
	</g>
</g>
<path opacity="0.3" fill="#CDCDCD" d="M65.1,84.4c0.7,0.2,1.4,0.4,2.1,0.6c1.6,0.6,2.8,1.1,4.6,1.2c1.9,0.1,3.8,0,5.6,0.6
	c2.3,0.7,4.2,2.4,6.1,4c3.1,2.7,6.3,5.4,9.2,8.3c2.7,2.6,5.2,5.4,8.5,7.1c3.3,1.7,7.5,2.2,10.6,0.1c3.1-2.1,3.9-7.2,1-9.5
	c-1.1-0.8-2.5-1.2-3.8-1.6c-4.8-1.3-9.5-3.2-13.9-5.6c-3-1.6-5.8-3.5-9-4.6c-3.1-1.1-8.8-0.4-9.9-4.3c-0.6-2.3-0.2-6.1,0.2-8.4
	c0.5-2.7,1.5-6.3,3.3-8.3c1.9-2.1,4.5-4,6.6-5.9c5-4.8,10.1-9.7,15.1-14.5c0.8-0.7,1.5-1.5,2-2.4c1.4-3-1.5-4.5-3.8-2.9
	c-1.5,1-2.9,2-4.4,3.1c-12,8.5-23.3,17.9-35,26.7c-5.5,4.1-11,8.1-16.6,12c-4.1,2.9-8.2,5.7-12.3,8.5C29,90,27,91.4,24.9,92.8
	c-2,1.4-4.1,2.7-6,4.2c-0.8,0.6-2.7,1.6-2.1,2.9c0.4,0.9,2.8,1.5,3.7,1.5c1.2,0,2.4-0.5,3.4-1c5.2-2.5,9.9-5.8,14.8-8.9
	c4.9-3,10-5.8,15.6-7.1C57.8,83.7,61.6,83.6,65.1,84.4z"/>
<g>
	<path fill="#F4DBBD" d="M80.5,17.9c0.1,0.2,0.1,0.3,0.2,0.5c0.2,0.6,0,1.3,0,1.9c-0.1,0.8-0.4,1.7-1,2.2c-0.5,0.5-0.9,0.4-1.5,0.1
		c-0.5-0.4-0.9-0.7-1.6-0.7c-0.4,0-0.8,0-1.2,0.1c-0.1,0-0.2,0-0.2-0.1c0,0,0-0.1,0.1-0.1c0.9-0.9,1.8-1.4,1.8-2.7
		c0-0.5-0.3-0.9-0.7-1.3c-0.4-0.3-0.8-0.7-0.8-1.1c0.1-0.4,0.4-0.6,0.8-0.7c0.5-0.1,1.2-0.3,1.7-0.1c0.3,0.2,0.6,0.3,0.9,0.3
		c0.2,0,0.5,0.1,0.7,0.2c0.1,0.1,0.2,0.3,0.3,0.5C80.1,17.2,80.3,17.6,80.5,17.9z"/>
	<path fill="#952C2A" d="M82.1,22.3c-0.1-0.2-0.3-0.3-0.5-0.5c-0.3-0.3-0.6-0.7-1-0.8c-0.4-0.1-0.9,0.2-1.2,0.3
		c-0.7,0.3-1.5,0.8-1.9,1.5c-1.1,1.9,0.3,4.3,1.5,5.7c0,0,0.1,0.1,0.1,0.2c0,0.1-0.2,0.1-0.3,0.1c-2.6,0-4.8,0.7-7.1,2
		c-0.2,0.1-0.4,0.3-0.4,0.5c0,0.1,0.1,0.2,0.2,0.3c0.6,0.7,1.5,0.7,2.3,1.1c0.9,0.4,1.8,0.9,2.6,1.5c1.7,1.1,3.3,2.4,5.1,3.3
		c0.6,0.3,1.2,0.5,1.9,0.4c2.6-0.4,3.1-4.1,2.9-6.1C86.1,28.4,84.4,24.8,82.1,22.3z"/>
</g>
<g>
	<path fill="#F4DBBD" d="M56.5,20.6c0.8-0.9,1.9-1.6,3.2-2c10.9-2.8,11.7,11.3,6.8,17.4c-1.4,1.8-3.5,3.2-5.8,3
		c-2-0.3-3.6-1.9-4.6-3.7C54,31.4,53.4,24.3,56.5,20.6z"/>
	<path fill="#292526" d="M70.7,29c0,0.4,0,0.9-0.1,1.3c0,0.2-0.1,0.4-0.3,0.4c-0.1,0-0.2-0.2-0.3-0.3c-0.1,0-0.2,0.1-0.3,0.3
		c-0.2,0.5-0.3,1-0.5,1.6c-0.1-0.1-0.2-0.3-0.3-0.5c0.1,0.2-0.3,0.9-0.4,1.1c-0.2,0.2-0.4,0.3-0.6,0.4c-0.6,0.5-1.3,0.9-2,1.2
		c-0.9,0.3-1.8,0.5-2.7,0.6c-0.8,0.1-1.5,0-2.1-0.4c-0.5-0.3-0.7-0.9-0.6-1.5c0.1-0.6,0.2-1-0.1-1.6c-0.2-0.5-0.8-0.7-1.2-0.4
		c-0.2,0.1-0.4,0.4-0.5,0.6c-0.1,0.1-0.1,0.3-0.2,0.3c-0.1,0.1-0.2,0-0.3,0c-0.4-0.1-0.7-0.2-1-0.4c-0.3-0.2-0.5,0-0.8-0.1
		c-0.2,0-0.2-0.3-0.4-0.3c-0.1,0.2-0.2,0.4-0.3,0.6c0,0,0,0.1-0.1,0.1c0,0-0.1,0-0.1,0c-0.3-0.1-0.4-0.3-0.6-0.6
		c-0.5-0.7-0.9-1.4-1.3-2.1c-0.2-0.3-0.2-0.5-0.3-0.8c0-0.1-0.1-0.8-0.2-0.7c-0.1,0.1-0.1,0.1-0.2,0.2c-0.1-0.4-0.2-0.9-0.2-1.4
		c0-0.3,0-0.8,0.3-1c-0.2,0.1-0.3,0.3-0.5,0.4c-0.1,0.1-0.2,0.1-0.3,0c0,0,0-0.1,0-0.1c0.1-0.8,0.5-1.4,0.7-2.1c0,0,0-0.1,0-0.1
		c0,0-0.1,0-0.1,0c-0.2,0.1-0.3,0.1-0.5,0.2c0,0-0.1,0-0.1,0c0,0,0-0.1,0-0.1c0.1-0.6,0.3-1.2,0.7-1.7c0.4-0.4,0.9-0.6,1.3-1
		c0.1,0,0.1-0.1,0.1-0.2c-0.2-0.1-0.4-0.1-0.6-0.2c-0.1,0-0.1,0-0.2-0.1c-0.1-0.1,0-0.2,0-0.3c0.5-1.2,1.8-2,3-2.2
		c0.1,0,0.2,0,0.2-0.1c-0.1,0-0.1-0.1-0.1-0.2c0-0.1,0.1-0.1,0.2-0.1c0.4-0.2,0.9-0.3,1.4-0.4c-0.1-0.2-0.5-0.3-0.5-0.5
		c0-0.1,0.2-0.2,0.3-0.2c0.7-0.2,1.3-0.3,2-0.3c0.1,0,0.3,0,0.4-0.2c-0.1-0.1-0.2-0.2-0.3-0.4c1.1,0,2.2,0.2,3.2,0.7
		c0.5,0.2,1,0.5,1.5,0.8c0.4,0.3,0.7,0.7,1.2,0.6c1-0.1,2,0,3,0.3c-0.3,0.1-0.5,0.2-0.7,0.4c0.4,0.2,0.7,0.4,1.1,0.6
		c0.1,0,0.1,0.1,0.1,0.1c0,0.1-0.1,0.2-0.2,0.2s-0.3,0-0.3,0.1c0.6,0.4,1.2,0.8,1.7,1.2c-0.2,0-0.4,0.1-0.5,0.1c0,0-0.1,0-0.1,0.1
		c0,0,0,0.1,0,0.1c0.3,0.5,0.5,1,0.8,1.4c0.1,0.2,0.2,0.4,0.2,0.6c0,0,0,0.1,0,0.1c0,0-0.1,0-0.1,0c-0.2,0-0.4-0.1-0.6-0.1
		c0.4,0.6,0.7,1.3,0.8,2c-0.1,0-0.2,0-0.3-0.1c0.2,0.9,0.4,1.7,0.5,2.6c0,0,0,0.1,0,0.1c0,0.1-0.1,0-0.2,0c-0.1,0-0.1-0.1-0.2-0.1
		c-0.4-0.2-0.2,1-0.2,1.2C70.7,28.7,70.7,28.8,70.7,29z"/>
</g>
<path fill="#C4B280" d="M69.4,81.6c-0.1,0-0.1-0.1-0.2-0.1c-0.4-0.2-0.9-0.4-1.1-0.8c-0.2-0.4-0.1-0.9,0.1-1.4
	c1.1-3,5.5-0.9,7.9-1.3c0.6-0.1,1.3-0.2,1.9,0c0.4,0.2,0.6,0.5,0.8,0.8c0.4,0.6,0.6,1.4,0.5,2.1c-0.2,1.1-1.1,1.5-2.1,1.8
	C74.7,83.5,71.7,82.5,69.4,81.6z"/>
<path fill="#5A7577" d="M73.3,77.4c-1.4-2.2-2.6-4.6-2.7-7.2c-0.1-2.3,1.7-4.1,3.1-5.7c2-2.2,4.2-4.4,6.7-6.1s5.5-2.8,8.5-2.7
	c2.1,0.1,4.3,0.9,5.7,2.4c2.8,2.9,1.8,7.6,0.3,10.8c-1.5,3.3-4.2,5.3-7.3,6.3c-1.6,0.5-3.3,0.7-5,0.8c-1.3,0-2.6-0.1-3.5,1
	c-0.4,0.5-0.6,1.1-0.9,1.7c-0.3,0.6-0.8,1.1-1.4,1.2c-0.3,0.1-0.7,0-1-0.1C74.7,79.4,74,78.4,73.3,77.4z"/>
<path fill="#788F92" d="M99.7,97.7c2.3,0.7,4.7,1.4,6.1-1.1c0.7-1.3,0.7-3-0.1-4.3c-0.9-1.5-2.6-2.3-4.1-3.1
	c-1.4-0.7-2.8-1.4-4.3-1.8c-1.4-0.4-2.9-0.5-4.4-1c-1.2-0.4-2.5-0.8-3.3-1.8c-0.7-0.8-1-1.8-1-2.8c-0.4-5.8,5.1-10.3,4.8-16.2
	c0-0.7-0.1-1.3-0.4-1.9c-0.5-0.9-1.6-1.2-2.6-1.4c-4.4-0.9-11.7,1-13,6c-1.3,5.1-1.2,10.4-0.6,15.6c0.1,1.1,0.2,2.1,0.6,3.1
	c0.2,0.6,0.5,1.1,0.8,1.5c1.4,2.1,3.4,3.2,5.7,4C89,94.6,94.4,96.1,99.7,97.7z"/>
<g>
	<path fill="#BB3340" d="M78.8,71.2c0.1,0,0.2,0,0.4,0.1c1.9,0.2,3.8-0.5,5.5-1.3c3-1.4,5.8-3.2,8.4-5.2c0-0.2,2-2.1,2.3-2.5
		c0.6-0.9,1-1.9,1.1-3c0.5-3.1-0.4-5.8-2.5-8.2c-1.5-1.8-3.4-3.4-5-5.2c-2.5-2.9-4.3-6.4-6.6-9.5c-1.8-2.4-4.2-4.7-7.1-5.6
		c-2.7-0.8-4.9,0.5-7,2.1c-1.6,1.2-3.1,2.6-4.3,4.2c-1,1.2-1.9,2.6-2.8,3.9c-0.8,1.2-1.7,2.7-1.8,4.2c-0.1,1.9,3,4,4.3,5.6
		c1.8,2.3,3,4.7,4.2,7.4c1.6,3.8,3,7.1,6,10.2C75.4,69.7,77,70.9,78.8,71.2z"/>
	<g>
		<path fill="#F4DBBD" d="M37.2,52.8c-0.2,0-0.5,0-0.7,0.1c-0.3,0.1-3.4,1.5-3.3,0.5c0-0.1,0.1-0.2,0.2-0.3c0.5-0.6,1.4-0.8,2-1.3
			c0.6-0.5,1.1-0.9,1.7-1.4c0.4-0.3,0.8-0.6,1.2-0.9c0.3-0.2,0.8-0.4,1-0.8c0.2-0.6-0.3-1.1-0.7-1.5c-0.4-0.4-0.9-0.7-1-1.3
			c0-0.1,0-0.2,0-0.3c0.1-0.2,0.3-0.2,0.5-0.2c0.2,0,0.4,0,0.7,0c0.4,0,0.8,0,1.2,0.1c0.7,0.2,1.2,0.9,1.6,1.5c0.7,1,1.4,2,2.1,3.1
			c0.7,1.2,1.4,2.3,0.7,3.7c-0.8,1.5-2.8,0.9-4.1,0.4c-0.7-0.3-1.3-0.7-1.9-1C38,53.1,37.6,52.9,37.2,52.8z"/>
		<path fill="#BB3340" d="M58,45.7c-0.3,0.7-0.5,1.4-0.8,2.1c-0.2,0.6-0.4,1.1-0.7,1.6c-0.4,1.1-1.1,2.1-2.2,2.5
			c-2,0.7-4.4-0.2-6.3-1c-1.8-0.7-3.4-1.3-5.4-0.8c-1.3,0.3-1.6,1.2-2,2.3c-0.4,1.2-0.6,2.5,0,3.6c0.4,0.8,1.2,1.2,2,1.6
			c4,2.1,11,5.5,15.4,3.2c2.9-1.5,5.6-3.9,7.4-6.7c1.4-2.2,1.8-4.6,1.2-7.1c-0.4-1.9-1.2-5.5-3.6-5.6c-0.7,0-1.5,0.3-2.1,0.7
			C59.6,43,58.7,44.3,58,45.7z"/>
	</g>
</g>
<path fill="#C4B280" d="M103,97.5c0,0.1,0.1,0.1,0.1,0.2c0.5,1,1.8,2.6,1.7,3.8c-0.1,1.2-1.2,1.2-1.9,2c-0.3,0.4-0.5,0.9-0.4,1.4
	c0,0.2,0.1,0.3,0.2,0.5c0.1,0.1,0.2,0.1,0.3,0.2c2.4,1.2,6-0.1,7.6-2.1c0.2-0.3,0.4-0.5,0.5-0.9c0.1-0.4,0.1-0.8,0-1.2
	c-0.2-1.9-0.8-3.7-1.1-5.5c-0.3-1.3-0.7-3.3-2.2-3.8c-1.1-0.3-2.1-0.5-3.1,0.1C102.6,93.6,102,95.3,103,97.5z"/>
</svg>
