<?xml version="1.0" encoding="utf-8"?>
<!-- Generator: Adobe Illustrator 24.0.2, SVG Export Plug-In . SVG Version: 6.00 Build 0)  -->
<svg version="1.1" id="people3Svg" xmlns="http://www.w3.org/2000/svg" xmlns:xlink="http://www.w3.org/1999/xlink" x="0px" y="0px"
	 viewBox="0 0 62.4 94.1" enable-background="new 0 0 62.4 94.1" xml:space="preserve">
<g>
	<g>
		<path fill="#F4DBBD" d="M-1914.6-98.6c0.3-0.2,0.5-0.5,0.6-0.9c0.1-0.6-0.5-1.1-1-1.2c-0.6-0.1-1.1,0.1-1.7,0.3
			c-1,0.4-1.9,1-2.6,1.8c-0.8,0.9-1.7,3.4,0.2,3.4C-1917.7-95.1-1915.6-97.6-1914.6-98.6z"/>
		<path fill="#E1B744" d="M-1921.9-98c0.4-0.1,0.8-0.2,1.2,0c0.4,0.1,0.8,0.5,1.1,0.8c0.7,0.7,1.3,1.6,1.1,2.5
			c-0.1,0.6-0.6,1.1-1.1,1.4c-1.3,1-2.9,1.7-4.5,2.3c-1.5,0.5-3,0.9-4.6,0.8c-2.8-0.2-6.7-4.6-2.4-5.8c1.1-0.3,2.4,0.1,3.6-0.1
			C-1925.6-96.5-1923.8-97.6-1921.9-98z"/>
	</g>
	<path fill="#C8C8C6" d="M-1900.4-97.4c0-0.5-0.4-1-0.9-1c-0.4-0.1-0.8,0.3-0.7,0.7c0,0,0.2,2.9-1.3,4.3c-0.9,0.8-2.3,1-4.1,0.5
		c-5.5-1.5-5.7-6.6-5.7-7.6c0-1.8,1-6,5.6-4.7c1.1,0.3,2.1,0.8,3,1.5l-0.9,0.7l4.1,2.5l-1-4.9l-1,0.8c-1.2-1.1-2.6-1.9-4.2-2.3
		c-5.2-1.5-7.2,2.9-7.2,6c0,2.9,1.5,8.2,7.3,9.8c2.3,0.6,4.1,0.4,5.3-0.7C-1900.2-93.8-1900.4-97.3-1900.4-97.4z"/>
	<path opacity="0.3" fill="#CDCDCD" d="M-1949-22.8c4.8-2.7,7.2-8.2,10.6-12.6c5.1-6.4,12.8-10.4,16.9-17.4c0.7-1.1,1.2-2.5,0.9-3.7
		c-0.5-1.8-2.6-2.7-4.5-2.7c-3.8,0.1-7,2.8-9.2,5.9c-2.2,3.1-3.7,6.6-6.1,9.5c-2.4,2.9-5.5,5.1-8.6,7.2c0,1.1-8,5.6-9.2,6.3
		c-2.3,1.5-4.1,2.7-3.6,6C-1961-19.4-1951.9-21.2-1949-22.8z"/>
	<g>
		<path fill="#F4DBBD" d="M-1924.4-112.4c-0.9-0.7-2-1.1-3.3-1.1c-10.4-0.4-8.2,12.6-2.6,17c1.6,1.3,3.8,2.2,5.8,1.5
			c1.8-0.6,2.9-2.5,3.4-4.3C-1919.9-103.2-1920.8-109.8-1924.4-112.4z"/>
		<path fill="#292526" d="M-1920.8-111.5c-0.1-0.5-0.4-0.9-0.9-1.2c-0.5-0.4-1.1-0.3-1.6-0.6c-0.3-0.2-0.3-0.6-0.6-0.7
			c-0.5-0.2-1,0-1.5-0.3c-0.4-0.3-0.8-0.7-1.3-0.9c-0.1,0-0.3,0-0.5,0c-1,0-2.2-0.1-3.1,0.2c-0.8,0.3-1.6,1-2.2,1.6
			c-0.5,0.5-1.3,0.5-1.9,0.9c-0.5,0.3-0.7,0.6-0.9,1.1c-0.2,0.5-0.5,0.8-0.8,1.2c-0.4,0.5-0.6,1.1-0.8,1.8c-0.1,0.3-0.2,0.7-0.1,1
			c0,0.2,0.1,0.5,0.1,0.7c0.1,0.9-0.2,1.8,0,2.7c0.2,1.2,1,2,1.7,2.9c0.4,0.5,0.9,0.9,1.3,1.4c0.6,0.6,1.1,0.7,1.8,1
			c0.7,0.3,1.3,0.5,2.1,0.6c0.8,0.1,1.7,0.1,2.5,0c0.7-0.1,1.4-0.3,1.8-0.8c0.3-0.4,0.4-1,0.2-1.5c-0.2-0.5-0.4-0.9-0.3-1.4
			c0.1-0.5,0.5-0.8,1-0.6c0.2,0.1,0.6,0.3,0.8,0.5c0.2,0.3,0.2,0.6,0.5,0.9c0.1,0.1,0.4,0.1,0.5,0c0-0.1,0-0.2,0-0.2
			c0-1,1-1.5,1.8-2c0.4-0.2,0.8-0.4,1-0.8c0.6-1.2,0.8-2.6,0.7-4c0-0.8-0.2-1.6-0.6-2.3C-1920.4-110.8-1920.7-111-1920.8-111.5z"/>
	</g>
	<path fill="#C59B6D" d="M-1923.7-54.8c0.1,0,0.1-0.1,0.2-0.1c0.4-0.2,0.7-0.5,0.8-0.9c0.1-0.4-0.1-0.9-0.3-1.2
		c-1.6-2.5-5.1,0.3-7.4,0.5c-0.6,0-1.2,0.1-1.7,0.4c-0.3,0.2-0.5,0.6-0.6,0.9c-0.2,0.6-0.3,1.4,0,2c0.4,0.9,1.3,1.1,2.3,1.2
		C-1928-52-1925.6-53.5-1923.7-54.8z"/>
	<path fill="#663021" d="M-1928.1-57.8c0.8-2.2,1.4-4.7,1-7.1c-0.3-2.1-2.3-3.4-4-4.5c-2.3-1.6-4.6-3.1-7.2-4.2s-5.5-1.4-8.2-0.7
		c-1.9,0.5-3.7,1.7-4.7,3.3c-1.9,3.2-0.1,7.2,1.9,9.8c2,2.7,4.8,3.9,7.9,4.2c1.5,0.1,3.1,0,4.7-0.3c1.2-0.2,2.4-0.6,3.4,0.2
		c0.5,0.4,0.8,0.9,1.2,1.3c0.4,0.4,0.9,0.8,1.5,0.8c0.3,0,0.6-0.2,0.9-0.3C-1928.9-55.7-1928.4-56.8-1928.1-57.8z"/>
	<path fill="#723A28" d="M-1947.8-34.1c-1.9,1.1-3.9,2.2-5.8,0.2c-0.9-1-1.2-2.6-0.8-3.9c0.5-1.5,1.8-2.6,3.1-3.6
		c1.1-0.9,2.2-1.9,3.5-2.5c1.2-0.6,2.5-1.1,3.7-1.8c1-0.6,2.1-1.2,2.6-2.3c0.4-0.8,0.5-1.8,0.4-2.7c-0.8-5.3-6.6-8.2-7.6-13.7
		c-0.1-0.6-0.2-1.2,0-1.8c0.3-0.9,1.2-1.4,2.1-1.8c3.8-1.7,10.8-1.5,12.9,2.8c2.2,4.4,3.1,9.1,3.7,13.9c0.1,1,0.2,2,0.1,3
		c-0.1,0.5-0.2,1.1-0.4,1.6c-0.8,2.2-2.4,3.6-4.3,4.8C-1938.8-39.1-1943.3-36.6-1947.8-34.1z"/>
	<g>
		<path fill="#EEC850" d="M-1934.3-62.2c-0.1,0-0.2,0.1-0.3,0.1c-1.7,0.6-3.5,0.3-5.3-0.1c-3-0.7-5.9-1.7-8.6-3
			c0-0.2-2.3-1.5-2.6-1.8c-0.7-0.7-1.3-1.6-1.6-2.5c-1.1-2.7-0.8-5.4,0.6-7.9c1-2,2.4-3.7,3.5-5.7c1.7-3.1,2.5-6.7,4-9.9
			c1.1-2.5,2.8-5.1,5.3-6.5c2.2-1.3,4.6-0.5,6.7,0.5c1.7,0.8,3.3,1.8,4.8,2.9c1.2,0.9,2.2,2,3.3,3c1,0.9,2.1,2.1,2.5,3.4
			c0.5,1.7-1.9,4.2-2.8,5.9c-1.2,2.4-1.8,4.8-2.3,7.5c-0.7,3.8-1.3,7.1-3.4,10.4C-1931.5-64.3-1932.7-62.9-1934.3-62.2z"/>
		<g>
			<path fill="#F4DBBD" d="M-1900.5-87.3c0.3-0.2,0.6-0.5,0.8-0.8c0.2-0.3,0.2-0.7,0.2-1c0.1-1.4-0.3-2.8-1-4
				c-0.1-0.2-0.2-0.3-0.4-0.4c-0.4-0.3-0.9-0.1-1.3,0.1c-1,0.5-1.8,1.3-2.5,2.1c-1.3,1.5-3.8,4.6-2.1,6.7
				C-1905-82.9-1901.8-86.3-1900.5-87.3z"/>
			<path fill="#EEC850" d="M-1920.6-89.5c0.4,0.5,0.8,1.2,1.1,1.8c0.3,0.5,0.6,0.9,0.9,1.4c0.6,0.9,1.4,1.7,2.5,1.8
				c2,0.2,4-1.1,5.5-2.2c1.5-1,2.8-1.9,4.7-1.9c1.3,0,1.7,0.7,2.3,1.7c0.6,1,1.1,2.1,0.7,3.2c-0.2,0.8-0.9,1.4-1.5,1.9
				c-3.2,2.7-8.8,7.2-13.2,6c-3-0.8-5.8-2.4-8-4.5c-1.7-1.7-2.5-3.8-2.5-6.2c0-1.8-0.1-5.2,2.1-5.8c0.7-0.2,1.4,0,2,0.2
				C-1922.6-91.6-1921.5-90.6-1920.6-89.5z"/>
		</g>
	</g>
	<path fill="#C59B6D" d="M-1950.8-33.6c0,0.1,0,0.1-0.1,0.2c-0.3,1-1.1,2.7-0.7,3.7c0.3,1,1.3,0.8,2.1,1.4c0.4,0.3,0.6,0.7,0.6,1.2
		c0,0.2,0,0.3-0.1,0.5c-0.1,0.1-0.2,0.2-0.2,0.2c-1.9,1.5-5.4,1.1-7.3-0.3c-0.2-0.2-0.5-0.4-0.6-0.7c-0.2-0.3-0.2-0.7-0.3-1.1
		c-0.2-1.7-0.1-3.5-0.1-5.2c0-1.2-0.1-3.2,1.2-3.8c1-0.5,1.8-0.8,2.8-0.5C-1951.2-37.2-1950.3-35.8-1950.8-33.6z"/>
</g>
<g>
	<g>
		<path fill="#F4DBBD" d="M47.2,16.6c0.3-0.2,0.5-0.5,0.6-0.9c0.1-0.6-0.5-1.1-1-1.2s-1.1,0.1-1.7,0.3c-1,0.4-1.9,1-2.6,1.8
			c-0.8,0.9-1.7,3.4,0.2,3.4C44.1,20,46.3,17.5,47.2,16.6z"/>
		<path fill="#E1B744" d="M40,17.1c0.4-0.1,0.8-0.2,1.2,0c0.4,0.1,0.8,0.5,1.1,0.8c0.7,0.7,1.3,1.6,1.1,2.5
			c-0.1,0.6-0.6,1.1-1.1,1.4c-1.3,1-2.9,1.7-4.5,2.3c-1.5,0.5-3,0.9-4.6,0.8c-2.8-0.2-6.7-4.6-2.4-5.8c1.1-0.3,2.4,0.1,3.6-0.1
			C36.2,18.6,38,17.6,40,17.1z"/>
	</g>
	<path fill="#C8C8C6" d="M61.4,17.8c0-0.5-0.4-1-0.9-1c-0.4-0.1-0.8,0.3-0.7,0.7c0,0,0.2,2.9-1.3,4.3c-0.9,0.8-2.3,1-4.1,0.5
		c-5.5-1.5-5.7-6.6-5.7-7.6c0-1.8,1-6,5.6-4.7c1.1,0.3,2.1,0.8,3,1.5l-0.9,0.7l4.1,2.5l-1-4.9l-1,0.8c-1.2-1.1-2.6-1.9-4.2-2.3
		c-5.2-1.5-7.2,2.9-7.2,6c0,2.9,1.5,8.2,7.3,9.8c2.3,0.6,4.1,0.4,5.3-0.7C61.7,21.4,61.4,17.9,61.4,17.8z"/>
	<path opacity="0.3" fill="#CDCDCD" d="M12.9,92.4c4.8-2.7,7.2-8.2,10.6-12.6c5.1-6.4,12.8-10.4,16.9-17.4c0.7-1.1,1.2-2.5,0.9-3.7
		c-0.5-1.8-2.6-2.7-4.5-2.7c-3.8,0.1-7,2.8-9.2,5.9c-2.2,3.1-3.7,6.6-6.1,9.5c-2.4,2.9-5.5,5.1-8.6,7.2c0,1.1-8,5.6-9.2,6.3
		c-2.3,1.5-4.1,2.7-3.6,6C0.8,95.7,10,94,12.9,92.4z"/>
	<g>
		<path fill="#F4DBBD" d="M37.5,2.8c-0.9-0.7-2-1.1-3.3-1.1c-10.4-0.4-8.2,12.6-2.6,17c1.6,1.3,3.8,2.2,5.8,1.5
			c1.8-0.6,2.9-2.5,3.4-4.3C42,12,41.1,5.4,37.5,2.8z"/>
		<path fill="#292526" d="M41,3.7c-0.1-0.5-0.4-0.9-0.9-1.2c-0.5-0.4-1.1-0.3-1.6-0.6c-0.3-0.2-0.3-0.6-0.6-0.7
			c-0.5-0.2-1,0-1.5-0.3C36,0.6,35.7,0.2,35.2,0c-0.1,0-0.3,0-0.5,0c-1,0-2.2-0.1-3.1,0.2c-0.8,0.3-1.6,1-2.2,1.6
			c-0.5,0.5-1.3,0.5-1.9,0.9C27,3,26.8,3.4,26.5,3.8c-0.2,0.5-0.5,0.8-0.8,1.2c-0.4,0.5-0.6,1.1-0.8,1.8c-0.1,0.3-0.2,0.7-0.1,1
			c0,0.2,0.1,0.5,0.1,0.7c0.1,0.9-0.2,1.8,0,2.7c0.2,1.2,1,2,1.7,2.9c0.4,0.5,0.9,0.9,1.3,1.4c0.6,0.6,1.1,0.7,1.8,1
			c0.7,0.3,1.3,0.5,2.1,0.6c0.8,0.1,1.7,0.1,2.5,0c0.7-0.1,1.4-0.3,1.8-0.8c0.3-0.4,0.4-1,0.2-1.5c-0.2-0.5-0.4-0.9-0.3-1.4
			c0.1-0.5,0.5-0.8,1-0.6c0.2,0.1,0.6,0.3,0.8,0.5c0.2,0.3,0.2,0.6,0.5,0.9c0.1,0.1,0.4,0.1,0.5,0c0-0.1,0-0.2,0-0.2
			c0-1,1-1.5,1.8-2c0.4-0.2,0.8-0.4,1-0.8c0.6-1.2,0.8-2.6,0.7-4c0-0.8-0.2-1.6-0.6-2.3C41.5,4.3,41.2,4.2,41,3.7z"/>
	</g>
	<path fill="#C59B6D" d="M38.2,60.4c0.1,0,0.1-0.1,0.2-0.1c0.4-0.2,0.7-0.5,0.8-0.9c0.1-0.4-0.1-0.9-0.3-1.2
		c-1.6-2.5-5.1,0.3-7.4,0.5c-0.6,0-1.2,0.1-1.7,0.4c-0.3,0.2-0.5,0.6-0.6,0.9c-0.2,0.6-0.3,1.4,0,2c0.4,0.9,1.3,1.1,2.3,1.2
		C33.8,63.2,36.3,61.7,38.2,60.4z"/>
	<path fill="#663021" d="M33.8,57.4c0.8-2.2,1.4-4.7,1-7.1c-0.3-2.1-2.3-3.4-4-4.5c-2.3-1.6-4.6-3.1-7.2-4.2s-5.5-1.4-8.2-0.7
		c-1.9,0.5-3.7,1.7-4.7,3.3c-1.9,3.2-0.1,7.2,1.9,9.8c2,2.7,4.8,3.9,7.9,4.2c1.5,0.1,3.1,0,4.7-0.3c1.2-0.2,2.4-0.6,3.4,0.2
		c0.5,0.4,0.8,0.9,1.2,1.3c0.4,0.4,0.9,0.8,1.5,0.8c0.3,0,0.6-0.2,0.9-0.3C33,59.5,33.4,58.4,33.8,57.4z"/>
	<path fill="#723A28" d="M14.1,81.1c-1.9,1.1-3.9,2.2-5.8,0.2c-0.9-1-1.2-2.6-0.8-3.9c0.5-1.5,1.8-2.6,3.1-3.6
		c1.1-0.9,2.2-1.9,3.5-2.5c1.2-0.6,2.5-1.1,3.7-1.8c1-0.6,2.1-1.2,2.6-2.3c0.4-0.8,0.5-1.8,0.4-2.7c-0.8-5.3-6.6-8.2-7.6-13.7
		c-0.1-0.6-0.2-1.2,0-1.8c0.3-0.9,1.2-1.4,2.1-1.8c3.8-1.7,10.8-1.5,12.9,2.8c2.2,4.4,3.1,9.1,3.7,13.9c0.1,1,0.2,2,0.1,3
		c-0.1,0.5-0.2,1.1-0.4,1.6c-0.8,2.2-2.4,3.6-4.3,4.8C23.1,76.1,18.5,78.6,14.1,81.1z"/>
	<g>
		<path fill="#EEC850" d="M27.6,53c-0.1,0-0.2,0.1-0.3,0.1c-1.7,0.6-3.5,0.3-5.3-0.1c-3-0.7-5.9-1.7-8.6-3c0-0.2-2.3-1.5-2.6-1.8
			c-0.7-0.7-1.3-1.6-1.6-2.5c-1.1-2.7-0.8-5.4,0.6-7.9c1-2,2.4-3.7,3.5-5.7c1.7-3.1,2.5-6.7,4-9.9c1.1-2.5,2.8-5.1,5.3-6.5
			c2.2-1.3,4.6-0.5,6.7,0.5c1.7,0.8,3.3,1.8,4.8,2.9c1.2,0.9,2.2,2,3.3,3c1,0.9,2.1,2.1,2.5,3.4c0.5,1.7-1.9,4.2-2.8,5.9
			c-1.2,2.4-1.8,4.8-2.3,7.5c-0.7,3.8-1.3,7.1-3.4,10.4C30.4,50.8,29.2,52.3,27.6,53z"/>
		<g>
			<path fill="#F4DBBD" d="M61.4,27.9c0.3-0.2,0.6-0.5,0.8-0.8c0.2-0.3,0.2-0.7,0.2-1c0.1-1.4-0.3-2.8-1-4c-0.1-0.2-0.2-0.3-0.4-0.4
				c-0.4-0.3-0.9-0.1-1.3,0.1c-1,0.5-1.8,1.3-2.5,2.1c-1.3,1.5-3.8,4.6-2.1,6.7C56.9,32.2,60.1,28.9,61.4,27.9z"/>
			<path fill="#EEC850" d="M41.3,25.7c0.4,0.5,0.8,1.2,1.1,1.8c0.3,0.5,0.6,0.9,0.9,1.4c0.6,0.9,1.4,1.7,2.5,1.8
				c2,0.2,4-1.1,5.5-2.2c1.5-1,2.8-1.9,4.7-1.9c1.3,0,1.7,0.7,2.3,1.7c0.6,1,1.1,2.1,0.7,3.2c-0.2,0.8-0.9,1.4-1.5,1.9
				c-3.2,2.7-8.8,7.2-13.2,6c-3-0.8-5.8-2.4-8-4.5c-1.7-1.7-2.5-3.8-2.5-6.2c0-1.8-0.1-5.2,2.1-5.8c0.7-0.2,1.4,0,2,0.2
				C39.2,23.5,40.4,24.5,41.3,25.7z"/>
		</g>
	</g>
	<path fill="#C59B6D" d="M11,81.5c0,0.1,0,0.1-0.1,0.2c-0.3,1-1.1,2.7-0.7,3.7c0.3,1,1.3,0.8,2.1,1.4c0.4,0.3,0.6,0.7,0.6,1.2
		c0,0.2,0,0.3-0.1,0.5c-0.1,0.1-0.2,0.2-0.2,0.2c-1.9,1.5-5.4,1.1-7.3-0.3c-0.2-0.2-0.5-0.4-0.6-0.7c-0.2-0.3-0.2-0.7-0.3-1.1
		c-0.2-1.7-0.1-3.5-0.1-5.2c0-1.2-0.1-3.2,1.2-3.8c1-0.5,1.8-0.8,2.8-0.5C10.7,77.9,11.6,79.4,11,81.5z"/>
</g>
</svg>
