<?xml version="1.0" encoding="utf-8"?>
<!-- Generator: Adobe Illustrator 24.0.2, SVG Export Plug-In . SVG Version: 6.00 Build 0)  -->
<svg version="1.1" id="people5Svg" xmlns="http://www.w3.org/2000/svg" xmlns:xlink="http://www.w3.org/1999/xlink" x="0px" y="0px"
	 viewBox="0 0 51.6 110" enable-background="new 0 0 51.6 110" xml:space="preserve">
<path fill="#40210F" d="M44.7,18.7c0.3,2.6,0.7,5.2,0.8,7.9c0,0.3,0,0.5-0.1,0.8c-0.1,0.2-0.3,0.4-0.6,0.5c-1.3,0.7-3,0.8-4.4,0.2
	c-0.5-0.2-1-0.5-1.3-0.9c-0.2-0.4-0.3-0.8-0.3-1.3C38.4,21,38.1,16,38.8,11c0.2-1.3,0.4-2.6,0.2-3.9c-0.1-0.5-0.2-1,0-1.4
	c0.3-0.6,2.1-1.1,2.7-0.7c0.8,0.6,1.3,3.4,1.5,4.4C43.9,12.4,44.3,15.6,44.7,18.7z"/>
<g>
	<path opacity="0.3" fill="#CDCDCD" d="M33.8,108.7c-4.4-1.2-8.4-2.7-12.3-5.2c-1.7-1.1-3.5-2.4-4.1-4.1c-2.4-6,7.4-8.6,12.6-8.4
		c4.4,0.1,8.8,1.4,13,2.9c3.3,1.2,7,2.9,8.1,5.8c1.2,3.1-0.3,6-2.7,7.8C44.3,110.8,39.5,110.3,33.8,108.7z"/>
	<path fill="#CBBBB5" d="M35.9,103.4c0,0.1,0,0.1-0.1,0.2c-0.6,1.8,0.8,3.1,2.4,3c1.2-0.1,2.3-0.7,3.4-1.3c1-0.6,2-1.3,2.8-2.3
		c0.3-0.3,0.6-0.7,0.8-1.1c0.3-0.6,0.4-1.4,0.4-2.1c0-0.9-0.4-1.7-1.1-2.2c-0.4-0.3-0.8-0.7-1.4-0.7c-1.2-0.1-2.2,0.9-3.1,1.7
		c-1.3,1.2-2.6,2.3-3.6,3.8C36.3,102.7,36.1,103.1,35.9,103.4z"/>
	<path fill="#CBBBB5" d="M25.6,100.4c0.7-0.1,1.4-0.3,2.1-0.5c2.2-0.7,5.3-2.2,4.9-4.9c-0.1-0.4-0.2-0.7-0.4-1
		c-0.3-0.3-0.7-0.6-1.1-0.7c-0.6-0.1-1.2-0.2-1.8-0.1c-2.6,0.3-5.2,1.7-7.3,3.3c-0.4,0.3-0.8,0.6-1,1c-0.3,0.4-0.5,0.9-0.4,1.3
		c0,0.4,0.3,0.8,0.6,1.1c0.5,0.4,1,0.4,1.6,0.5C23.6,100.6,24.6,100.6,25.6,100.4z"/>
	<path fill="#F4DBBD" d="M45.4,95c-0.1,1-0.3,1.9-0.4,2.9c-0.2,1.3-1.9,1.8-2.8,0.7c-0.2-0.3-0.3-0.7-0.4-1.1
		c-0.3-1.8-0.6-3.7-0.7-5.5c-0.3-4.1-0.7-8.2-0.4-12.3c0.1-1.4,0.4-3.5,1.6-4c0.8-0.3,2.1-0.7,3-0.1c1.8,1.2,1.4,5.3,1.2,7
		C46.2,86.8,45.9,91,45.4,95z"/>
	<path fill="#F4DBBD" d="M31.8,90.9c-0.1,0.9-0.2,1.8-0.4,2.7c-0.2,1.2-1.7,1.7-2.5,0.6c-0.2-0.3-0.3-0.6-0.3-1
		c-0.3-1.7-0.5-3.4-0.7-5c-0.3-3.8-0.6-7.6-0.4-11.3c0.1-1.3,0.3-3.2,1.5-3.7c0.7-0.3,1.8-0.6,2.7-0.1c1.6,1.1,1.2,4.8,1.1,6.5
		C32.6,83.4,32.3,87.2,31.8,90.9z"/>
	<path fill="#C5874F" d="M34.5,83.2c0.1-4,0-8,0.1-12c0-1.2-0.1-9.4,1.1-9.9c2.8-1.1,2.7,11.6,2.8,12.8c0.3,4.2,0.4,8.3,0.4,12.5
		c0,2.9,2,4.4,4.7,4.6c1.5,0.1,2.9-0.4,4-1.3c1.4-1.1,0.6-3.7,0.4-5.4c-0.2-2.4-0.4-4.7-0.6-7.1C47.2,72.8,47,64,46.6,59.5
		c-0.1-1.5,0-3.5-0.9-4.9c-0.7-1-2.4-1.2-3.3-1.3c-2.9-0.4-5.8,0-8.6-1.3c-1.3-0.6-2.5-1.5-3.8-1.8c-0.5-0.1-1-0.1-1.4,0.1
		c-0.6,0.3-0.8,1.1-0.9,1.8c0,0.1,0,0.2-0.1,0.3C26,61.2,24.8,75,25.3,84.2c0,0.4,0,0.7,0.2,1.1c0.1,0.2,0.2,0.4,0.4,0.6
		c1.6,2,4,2.4,6,1.7c0.7-0.2,1.3-0.6,1.7-1.1C34.3,85.7,34.4,84.4,34.5,83.2z"/>
</g>
<path fill="#D7411E" d="M25,52.4c0.1-1.1,0.6-2.4,0.8-3.3c0.9-3.6,1.2-7.3,1.1-11c-0.2-3.5-0.7-7-0.3-10.6c0.4-3.2,1-8.4,4.8-9.3
	c0.5-0.1,1-0.2,1.4,0.1c0.4,0.3,0.6,0.8,0.9,1.2c0.4,0.4,0.9,0.7,1.4,1c1.1,0.5,3.6,1.2,4.5,0.1c0.3-0.4,0.5-0.9,0.9-1.2
	c0.4-0.3,0.9-0.4,1.4-0.4c2.9,0.1,4.8,2.1,5.7,4.7c1.2,3.6,0.3,6.9-0.4,10.5c-0.5,2.8-0.7,5.6-0.5,8.4c0.2,2.9,0.8,5.5,1.6,8.2
	c0.5,1.7,1.5,4.7-0.5,5.7c-1.5,0.7-3.4,1-5,1.2c-4.1,0.4-8.2-0.3-12.2-1.1c-1.9-0.4-3.6-1-5-2.3c-0.1-0.1-0.3-0.2-0.4-0.4
	C25,53.5,25,53,25,52.4z"/>
<path fill="#F4DBBD" d="M22.5,33.9c-1.1,1.2-2.4,2.3-3.7,3.3c-0.5,0.3-1.1,0.7-1.6,0.7c-0.7,0-1.4-0.3-2-0.6c-0.8-0.4-1.4-1.1-2-1.7
	c-2.9-2.8-5.9-5.5-8.5-8.6c-0.2-0.2-0.4-0.4-0.5-0.7c-0.1-0.3-0.1-0.6,0-0.8c0.2-0.3,0.6-0.4,1-0.3c0.7,0.2,1.4,0.9,2,1.3
	c0.7,0.5,1.5,1,2.2,1.5c1.5,1,3,2,4.5,3c0.7,0.4,1.4,1.2,2.2,1c0.4-0.1,0.8-0.4,1.1-0.7c0.9-0.8,1.6-1.7,2.4-2.6
	c0.6-0.8,1.3-1.6,2.2-2c1.7-0.7,4.8,0.8,3.7,2.9C24.8,31.1,23.8,32.6,22.5,33.9z"/>
<path fill="#D7411E" d="M24.4,33.5c-0.1,0-0.1,0.1-0.2,0.1c0,0-0.1,0.1-0.1,0.1c0,0-0.1,0-0.1,0c-1.2-0.6-2.1-1.4-3-2.4
	c-0.8-1-1.7-1.8-2.3-3c2.4-1.9,4.7-4,6.7-6.3c0.6-0.7,1.7-2.8,2.7-2.6c0.8,0.1,1.3,1.3,1.5,2c0.8,3.1,0.1,6.9-1.9,9.3
	C26.6,31.7,25.5,32.7,24.4,33.5z"/>
<g>
	<path fill="#EFCCA3" d="M32.5,21.2c1.5,0.5,3.4,1.3,4.8,0.4c0.7-0.4,1.3-1,1.8-1.6c0.5-0.6,1-1.4,0.7-2.1c-0.5-1.3-2.9-1-3.9-0.9
		c-1.7,0.2-3.1,1.1-4.6,1.9c-0.4,0.2-0.7,0.5-0.7,1c0,0.6,0.6,0.9,1.1,1C31.9,21.1,32.2,21.2,32.5,21.2z"/>
	<g>
		<path fill="#40210F" d="M32.2,15.4c-0.1-0.2-0.3-0.4-0.4-0.6c-0.9-1.5-0.8-3.2-1.8-4.6c-1-1.4-1.1,0.6-1.1,1.3
			c0,1.3-0.2,2.5-0.7,3.8c-0.4,0.9-0.8,1.9-0.9,2.9c-0.1,1,0.2,1.8,0.4,2.8c0.3,1.4-0.1,2.9-0.5,4.3c0.4,0.1,0.9-0.1,1.2-0.5
			c0.3-0.3,0.5-0.7,0.7-1.1c0.2-0.4,0.4-1,0.7-1.3c0.3-0.3,0.7-0.5,1-0.8c0.5-0.6,0.4-1.4,0.6-2.1c0.3-1.1,1.3-2,1.1-3.1
			C32.4,15.9,32.3,15.6,32.2,15.4z"/>
		<path fill="#F4DBBD" d="M39,6.1c-0.2-0.8-0.5-1.6-0.9-2.4c-0.5-1-1.2-2-2.2-2.4C35,0.9,34,0.7,33.1,1c-1.8,0.6-3.8,1.9-4.7,3.6
			c-0.6,1-0.7,2.5-0.8,3.7c-0.1,1.3-0.1,2.5,0.1,3.8c0.3,1.8,0.9,3.6,2.1,5c1.6,1.7,4,2.3,6.1,1.3c1.9-0.9,2.8-3.6,3.3-5.4
			C39.6,10.7,39.6,8.3,39,6.1z"/>
		<path fill="#40210F" d="M27.1,5.9c-0.3,0.8-0.6,1.7-0.6,2.6c0,0.4,0,1,0.2,1.3c0.4,0.4,1,0.3,1.5,0.2c1.2-0.1,2.3-0.1,3.5,0
			c0.6,0,1.1,0.2,1.7,0.3c0.5,0.1,1.2,0.6,1.7,0.6c0.4,0,0.6-0.5,0.9-0.7c0.4-0.4,1-0.7,1.5-0.6c0.6,0.2,0.8,1.2,0.8,1.8
			c-0.2,1.5-2.1,2.4-1.9,4.1c0.2,1.8,0.6,3.8,0.4,5.6c-0.2,1.4-1.3,2.3-1,3.9c0.1,0.6,0.5,1.1,0.6,1.7c0.4-0.4,0.5-1.1,1-1.5
			c0.4-0.4,0.9-0.5,1.3-0.8c0.3-0.3,0.5-0.8,0.6-1.2c0.4-1.2,0.6-2.8,1.6-3.6c0.8-0.6,1.6-0.6,1.7-1.9c0-0.6-0.1-1.1-0.2-1.7
			C42,14,42,11.8,42.2,9.6c0.2-1.8,0.2-3.8-0.8-5.4c-0.8-1.2-2-2.3-3.3-3.1c-1.1-0.6-2.3-1.1-3.5-1.1c-2.1-0.1-4.3,1.1-5.7,2.6
			C28.2,3.5,27.5,4.7,27.1,5.9z"/>
	</g>
</g>
<path fill="#F4DBBD" d="M4,20.6c-0.3-0.2-0.6-0.3-0.9-0.3c-1.3-0.1-3.5,1.5-3.1,3c0.2,0.5,0.5,0.9,0.9,1.3c1,1,2.3,2.2,3.7,2.7
	c1.2,0.4,2.1-0.6,1.5-1.7c-0.4-0.9-1-1.9-1.2-2.8c-0.1-0.5-0.1-1-0.3-1.4C4.5,21,4.3,20.8,4,20.6z"/>
<g>
	
		<ellipse transform="matrix(0.8982 -0.4396 0.4396 0.8982 -12.1735 10.4342)" fill="#C08E1F" cx="16.4" cy="31.5" rx="13.2" ry="17.6"/>
	<ellipse transform="matrix(0.8982 -0.4396 0.4396 0.8982 -13.0087 9.913)" fill="#DFAB2B" cx="14.9" cy="33" rx="13.2" ry="17.6"/>
	<ellipse transform="matrix(0.8982 -0.4396 0.4396 0.8982 -13.0087 9.913)" fill="#DFAB2B" cx="14.9" cy="33" rx="13.2" ry="17.6"/>
	<ellipse transform="matrix(0.8982 -0.4396 0.4396 0.8982 -13.0087 9.913)" fill="#F7F7F7" cx="14.9" cy="33" rx="10.2" ry="13.6"/>
	<polyline fill="none" stroke="#2B2A35" stroke-width="0.9663" stroke-miterlimit="10" points="9.3,30.8 13.9,34.7 20.6,25.9 	"/>
</g>
<g>
	<path fill="#F4DBBD" d="M35.2,43.1c-0.6-0.1-1.2-0.3-1.8-0.5c-0.5-0.2-1.2-0.2-1.7-0.6c-0.2-0.1-0.5-0.4-0.5-0.7
		c-0.1-0.2,0-0.5,0-0.7c0-0.2,0.1-0.3,0.2-0.4c0.2-0.3,0.6-0.3,0.9-0.3c0.4,0,0.8,0,1.1,0c1.6,0,3.2,0.2,4.8,0.3c0.5,0,0.9,0,1.4,0
		c1,0,1.9,0,2.8-0.3c0.1,0,0.2-0.1,0.3-0.2c0.1-0.1,0.1-0.2,0.2-0.4c0.2-0.9,0.2-1.7,0.3-2.5c0.1-0.8,0.1-1.5,0.2-2.3
		c0.1-1,0.1-2,0.5-2.8c0.8-1.6,3.7-2.2,4,0.1c0.2,1.7,0.2,3.5,0,5.3c-0.2,1.5-0.4,2.9-0.8,4.3c-0.1,0.5-0.3,1.1-0.5,1.5
		c-0.8,1.4-2.2,1.1-3.4,1.1c-1.6,0-3.2-0.2-4.9-0.4C37.2,43.5,36.2,43.3,35.2,43.1z"/>
	<path fill="#D7411E" d="M48.8,28.4c0.2,1.9,0.3,3.7,0.3,5.7c0,0.2,0,0.4-0.1,0.6c-0.1,0.3-0.3,0.4-0.5,0.6
		c-1.6,1.2-3.9,0.6-5.5-0.2c-0.2-0.1-0.3-0.1-0.4-0.3c-0.1-0.2-0.1-0.4-0.2-0.6c-0.2-2.6-0.2-5.3,0-7.9c0.1-1.3,0.3-2.6,0.7-3.9
		c0.2-0.6,0.3-1.2,0.5-1.8c0.2-0.5,0.4-0.7,0.9-0.6c1.1,0.3,1.9,1,2.6,2c0.7,1.1,1,2.6,1.2,4C48.6,26.7,48.7,27.6,48.8,28.4z"/>
	<path fill="#F4DBBD" d="M28.6,41.8c-0.4,0.1-0.8,0.1-1.2-0.1c-0.6-0.2-1.8-1.1-1.9-1.9c0-0.3,0.1-0.6,0.2-0.8
		c0.8-1.3,2.5-1.6,3.7-1.4c1.1,0.2,2.1,0.8,2.9,1.7c0.7,0.7,1.6,2,0.4,2.8c-0.4,0.2-0.9,0.1-1.3-0.1C30.5,41.5,29.7,41.7,28.6,41.8z
		"/>
</g>
</svg>
