<?xml version="1.0" encoding="utf-8"?>
<!-- Generator: Adobe Illustrator 24.0.2, SVG Export Plug-In . SVG Version: 6.00 Build 0)  -->
<svg version="1.1" id="people8Svg" xmlns="http://www.w3.org/2000/svg" xmlns:xlink="http://www.w3.org/1999/xlink" x="0px" y="0px"
	 viewBox="0 0 81.2 128.1" enable-background="new 0 0 81.2 128.1" xml:space="preserve">
<ellipse transform="matrix(0.8982 -0.4396 0.4396 0.8982 -14.5023 12.993)" fill="#C89020" cx="20.8" cy="37.8" rx="4" ry="5.4"/>
<ellipse transform="matrix(0.8982 -0.4396 0.4396 0.8982 -13.6172 6.6761)" fill="#18B676" cx="7.6" cy="32.7" rx="4" ry="5.4"/>
<ellipse transform="matrix(0.8982 -0.4396 0.4396 0.8982 -14.7392 12.804)" fill="#DFAB2B" cx="20.3" cy="38.2" rx="4" ry="5.4"/>
<ellipse transform="matrix(0.8982 -0.4396 0.4396 0.8982 -14.1408 6.1981)" fill="#3FDF9D" cx="6.3" cy="33.6" rx="4" ry="5.4"/>
<path fill="#F4BB8D" d="M39.8,113.6c-0.6-0.7-1.9-0.4-2,0.5c0,0,0,0,0,0.1c-0.2,0.2-0.4,0.5-0.4,0.9c0,1-0.2,2-0.3,3
	c-0.1,0.8-0.2,1.9,0.1,2.7c0.2,0.5,0.7,0.9,1.2,0.9c0.6,0,1.2-0.4,1.4-1.6C40.3,117.2,40.3,114.2,39.8,113.6z"/>
<path fill="#F4BB8D" d="M46.2,65.2c-0.1-1.2-7.3-0.1-7.9,0c-0.6,4.3-1.3,37.8-1.3,53.5c0,1.9,2.3,2.5,2.7,1.2
	c4.6-16.5,3.9-23.9,3.6-25.3c0-0.2,0-0.4,0-0.6C43.9,88.1,46.9,68.7,46.2,65.2z"/>
<path fill="#F4BB8D" d="M66.4,109.8c-0.8-0.4-1.8,0.5-1.5,1.4c0,0,0,0,0,0.1c-0.1,0.3-0.1,0.6,0,1c0.4,0.9,0.8,1.9,1.1,2.8
	c0.3,0.8,0.7,1.8,1.3,2.4c0.4,0.4,1,0.5,1.5,0.3c0.5-0.3,0.9-0.9,0.5-2.1C68.6,112.9,67.2,110.1,66.4,109.8z"/>
<path fill="#F4BB8D" d="M55.4,62.5c-0.5-1.1-8.6,2.3-9.2,2.7c0.6,2.7,1.3,13.5,6.6,27.5c3.1,8.3,11.2,18.2,13.5,22.8
	c0.9,1.7,3.1,0.2,2.7-1.1c-3.5-12.6-8.4-20.4-9.9-22.5c-0.3-0.4-0.4-0.8-0.4-1.2C58.4,86.2,57.1,65.4,55.4,62.5z"/>
<path fill="#422D1E" d="M69.2,114.7c-0.8-2.9-2.3-6.9-3.3-9.6c-0.6-1.5-1.8-1.2-3.1-0.5l-0.5,0.3c-1.2,0.7-2.1,1.3-1.3,2.5
	c1.7,2.6,4.5,6.8,5.3,8.4C67.3,117.7,69.6,116.1,69.2,114.7z"/>
<path fill="#422D1E" d="M39.2,108.8c-1.4-0.2-2.2-0.3-2.2,1c0,2.7-0.1,6.9-0.1,8.9c0,1.9,2.5,2.4,2.8,1.1c0.8-2.9,1.7-6.6,2.3-9.1
	c0.3-1.4-1.1-1.7-2.5-1.8L39.2,108.8z"/>
<path fill="#402D1E" d="M39.9,118.9c-0.6-0.2-1.6-0.3-2.3-0.3c-0.4,0-0.9,0.1-1.3,0.3c-1,0.6-3.2,1.7-4.1,2.4
	c-0.4,0.3-0.9,0.7-0.8,1.3c0,0.5,0.5,1,1,1.2c0.6,0.2,1.2,0.1,1.8,0.1c0.4,0,1.6-0.1,2.9-0.3c1.6-0.2,2.9-1.5,2.9-3.1
	C40.2,119.6,40.1,118.9,39.9,118.9z"/>
<path fill="#402D1E" d="M69,114.5c-0.6,0.1-1.5,0.5-2.1,0.7c-0.4,0.2-0.7,0.5-1,0.8c-0.6,1-2,3.1-2.4,4.1c-0.2,0.5-0.4,1.1-0.1,1.6
	c0.3,0.5,0.9,0.7,1.4,0.6c0.6-0.1,1.1-0.5,1.6-0.7c0.5-0.3,2.7-1.8,3.8-2.6c0.4-0.3,0.6-0.8,0.4-1.3C70.2,116.5,69.4,114.5,69,114.5
	z"/>
<path fill="#F4BB8D" d="M68.9,76.7c0-1.8-2.3-23-7.9-28.6c-0.2-0.2-0.3-0.3-0.5-0.3c0-0.1-0.1-0.1-0.1-0.2c-0.6-1.1-2.6-0.5-2.1,0.7
	c-0.4,0.3-0.7,0.8-0.4,1.5c0,0,0,0.1,0,0.1c-0.6,0.2-1,0.9-0.7,1.6c1.4,3.1,2.8,6.2,4.2,9.4c0.9,2.4,3.7,13.5,4.3,15.3
	c-0.8,1.3-0.1,6,0.3,6.8c0.4,0.8,1.6,0.8,2,0.1C69.1,81.4,68.9,77,68.9,76.7z"/>
<path fill="#F4BB8D" d="M37.1,49.8c-0.2-1-1.2-1.3-2.1-1.3c-0.2,0-0.4,0-0.6,0c-0.4-0.2-0.9-0.3-1.2,0c-0.5-0.5-1.2-0.6-1.7,0
	c-1.3,1.9-2.5,3.8-3.6,5.8c-0.1-0.2-0.2-0.3-0.3-0.5c-1.6-3-3.9-7.2-4-7.3c-0.1-0.6-0.4-1.2-0.3-1.8c0-0.9,0.1-1.6,0.4-2.5
	c0.2-0.8,0.4-1.7,0.3-2.6c0-0.1,0-0.3-0.1-0.4c-0.5-0.6-0.7,0.5-0.7,0.8c0,0.1-0.2,0.8-0.3,0.8c0,0,0,0,0,0
	c-0.1-0.1-0.1-0.2-0.2-0.4c-0.1-0.5-0.3-1-0.4-1.5c-0.1-0.7-0.2-1.4-0.3-2.1c-0.1-0.3-0.1-0.6-0.2-0.9c-0.1-0.2-0.3-0.3-0.5,0
	c-0.1,0.3-0.1,0.6,0,0.9c0,0.9,0.3,1.8,0.2,2.8c0,0.1,0,0.1-0.1,0.1c0,0-0.1,0-0.1-0.1c-0.3-0.6-0.4-1.3-0.6-2
	c-0.1-0.3-0.1-0.6-0.2-0.9c0-0.2,0-0.6-0.4-0.6c-0.8,0-0.1,2.4,0,2.7c0.1,0.3,0.2,0.5,0.2,0.8c0,0.1,0.1,0.5,0,0.6
	c0,0-0.1,0-0.1-0.1c-0.4-0.7-0.6-1.4-0.9-2.2c-0.1-0.2-0.1-0.3-0.2-0.5c-0.1-0.1-0.2-0.2-0.3-0.2c-0.1,0-0.1,0.1-0.2,0.2
	c-0.2,0.5,0,1,0.1,1.5c0.1,0.4,0.2,0.9,0.4,1.3c0.1,0.2,0.2,0.4,0.2,0.7c-0.1,0-0.4-0.6-0.4-0.7c-0.2-0.3-0.3-0.6-0.4-1
	c0-0.1-0.1-0.3-0.2-0.4c-0.1-0.1-0.2-0.2-0.4-0.1c-0.1,0.1-0.2,0.2-0.2,0.4c0,0.6,0.2,1.2,0.3,1.7c0.3,0.9,0.7,1.8,0.9,2.8
	c0.2,1,0.6,2,1.3,2.7c0.2,0.2,0.4,0.4,0.6,0.5c0,0.1,0.6,4.5,1.8,7.5c0.6,1.5,1.2,2.9,1.9,4.4c0.2,0.4,1.3,2.6,3.1,3
	c1.5,0.3,2.9-1.4,3.2-1.6c1.5-1.4,2.9-3.1,4-4.9c0.5-0.8,1-1.7,1.4-2.6C36.6,52,37.3,50.8,37.1,49.8z"/>
<path fill="#422D1E" d="M47.6,73.4c-0.1-1.4-2.2-2.4-3.7-2.4c-0.4,0-0.8,0.1-1.1,0.2c-0.7-0.6-1.6-1-2.5-1.1
	c-2.1-0.2-3.4,1.6-3.6,3.6c-0.1,1.4-1.1-0.1-1.1,1.3c0,0.7-1.2,24.6-1.3,25.6c-0.1,1.4,1.3,1.4,2.7,1.4c0.4,0,4.4,0,5.8,0.1
	c1.5,0.1,2.5,0.3,2.6-1.1C46.1,85.4,48.1,81.1,47.6,73.4z"/>
<path fill="#422D1E" d="M56.8,68.9c-0.4-1.3-2.9,0.3-4.3,0.7c-0.4,0.1-0.8,0.3-1,0.5c-0.8-0.4-1.8-0.6-2.7-0.4
	c-2.1,0.4-2.8,2.5-2.5,4.4c0.3,1.4-1.9-0.5-1.5,0.8c0.2,0.7,6.6,21.9,6.8,23c0.3,1.4,1.9,2.4,3.2,2c0.4-0.1,4.2-1.1,5.5-1.4
	c1.4-0.3,2.2-1.7,1.9-3.1C60.5,87.9,59.2,76.3,56.8,68.9z"/>
<path fill="#C5874F" d="M63,48.4c-1.1-1.5-3.1-6.4-9.3-9.8c-2.2-1.2-8.3-2.4-11.8-0.9c-1.7,0.7-2.9,1.3-3.8,2
	c-4.3,2.8-6.3,6.2-7.4,7.6c-0.6,0.8-1,1.8-1,2.8c0,1.3,0.9,2.1,1.8,2.9c1,0.8,1.9,1.5,2.9,2.3c0,2.8,0,3.2,0,6.1c0,0.1,0,0.2,0,0.3
	c0.1,3.9-0.4,7.6,0,11.4c0.1,1.7,1.3,3,2.3,4.3c1.1,1.4,1.9,3.4,3.3,4.6c1,0.9,2.4,1.3,3.8,1.5c3.1,0.5,6.2,0.6,9.2-0.2
	c2.2-0.6,6-2,7.2-4.2c0.7-1.4,0.5-3.8,0.5-5.4c0-6-0.5-12-1.1-17.9c0.9-0.6,1.7-1.1,2.6-1.7c0.9-0.7,1.8-1.4,1.8-2.7
	C64,50.3,63.6,49.2,63,48.4z"/>
<path fill="#F4BB8D" d="M45.6,28c1.5-0.1,3.4,1,3.5,2.6c0.1,2.1,0.5,7.5,0.2,8.1c0,0.1-0.1,0.1-0.1,0.2c-0.6,1.3-2,0.8-3.5,0.3
	c-1.5-0.4-2.3-0.5-2.3-2c0-2.2-0.1-4.1-0.2-6C43.1,29.8,43.9,28.1,45.6,28z"/>
<path fill="#F4BB8D" d="M38.5,20.9c1.6-0.9,3.1-2.2,5-1.5c0.3,0.1,0.7,0.2,1,0.4c2.8,2.2,5.1,5.4,4.8,8.6c-0.1,1.5-2.9,4.7-3.9,5.8
	c-0.5,0.5-1,0.8-1.6,0.9c-0.7,0.2-1.4,0-2-0.4c-0.3-0.2-0.6-0.4-0.9-0.7c-0.7-0.6-1.3-1.3-1.8-1.9C37.9,30.6,36.2,22.3,38.5,20.9z"
	/>
<path fill="#1E2335" d="M52.1,21.8c-0.3-2-1.4-3.6-3.4-4.3c-0.9-0.3-1.9-0.4-2.8-0.4c-0.5,0-2.9,0.2-3.6,0.3
	c-0.2-0.2-0.4-0.4-0.6-0.5c-0.9-0.6-2-0.7-2.8,0c-0.3,0.3-0.5,0.7-0.6,1.1c0,0,0,0.1,0,0.1c-0.2-0.1-0.4-0.3-0.7-0.3
	c-2-0.6-2.8,1.7-2.1,3.3c0.4,0.9,1.2,1.6,2,2c0.7,0.3,1.4,0.7,2.1,0.9c0.7,0.3,0.9,1.1,1.6,1.3c0.3,0.1,0.6,0.1,0.8,0.3
	c0.5,0.5,1.1,2.4,2.2,1.5c0.2-0.2,0.3-0.4,0.5-0.6c0.3-0.3,0.8-0.4,1.2-0.3c0.4,0.1,0.7,0.5,0.8,0.9c0.1,0.7-0.4,1.4-0.6,2
	c-0.3,0.9-0.3,1.9-0.3,2.8c0,0.3,0,0.5,0.2,0.7c0.2,0.1,0.4,0.2,0.6,0.2c0.8,0,1.7-0.1,2.4-0.6c1.5-0.9,1.7-2.9,2.1-4.4
	C51.7,26,52.4,23.7,52.1,21.8z"/>
<path fill="#DAA275" d="M52.1,37.8c-0.8-0.3-1.7-0.5-2.7-0.7c-0.9,0.5-2.1,0.8-2.9,0.8c-1,0-1.9-0.3-2.6-0.8
	c-0.7,0.1-1.4,0.3-1.9,0.5c-0.2,0.1-0.4,0.2-0.6,0.2c1.4,1.5,3.4,2.4,5.4,2.3C48.6,40.1,51.1,39.4,52.1,37.8z"/>
<path opacity="0.3" fill="#CDCDCD" d="M77.5,122.6c1.9-0.7,3.9-2,3.8-4.1c-0.1-2.6-3.4-3.8-5.9-4.2c-3.8-0.6-7.6-1.1-11.3-0.5
	c-3.8,0.6-7.2,2.3-11,3c-4.4,0.8-32.7-4.8-27.2,5.5c6.2,11.9,22,1.5,30.6,1.3C63.4,123.6,70.8,125,77.5,122.6z"/>
<g>
	<g>
		<path fill="#DFDFDF" d="M25.2,27.6L2.1,20.8C0.9,20.5,0,19.3,0,17.9V3c0-2,1.8-3.4,3.7-2.9l23.1,6.8c1.2,0.4,2.1,1.5,2.1,2.9v14.9
			C28.8,26.7,27,28.2,25.2,27.6z"/>
	</g>
	<g>
		<g>
			<path fill="#9B9EA3" d="M24.8,26.7L5.3,21c-1.1-0.3-1.8-1.3-1.8-2.4V5.9c0-1.7,1.5-2.9,3.1-2.4l19.5,5.8c1.1,0.3,1.8,1.3,1.8,2.4
				v12.6C27.9,26,26.4,27.2,24.8,26.7z"/>
		</g>
	</g>
	<g>
		<g>
			<path fill="#F7F7F7" d="M23.6,24.9L6.7,20.1c-0.9-0.3-1.5-1.1-1.5-2V7.3c0-1.4,1.3-2.4,2.6-2l16.8,4.8c0.9,0.3,1.5,1.1,1.5,2
				v10.8C26.2,24.3,24.9,25.3,23.6,24.9z"/>
		</g>
	</g>
	<path fill="#F7F7F7" stroke="#334ABF" stroke-width="0.9663" stroke-miterlimit="10" d="M6.2,12.8c0,0,1.1,0.3,2.4,0.6
		c1.7,0.4,1.5-1.4,2.7-1.2c1.5,0.3,0.2,7.1,1.7,7.5c1.9,0.6,1.5-10,3.9-9.1c2.4,0.8,1,8.3,2.7,9c1.7,0.6,1.2-2.6,2.2-2.3
		c1,0.3,2.6,0.7,2.6,0.7"/>
</g>
</svg>
