<?xml version="1.0" encoding="utf-8"?>
<!-- Generator: Adobe Illustrator 24.0.2, SVG Export Plug-In . SVG Version: 6.00 Build 0)  -->
<svg version="1.1" id="people1Svg" xmlns="http://www.w3.org/2000/svg" xmlns:xlink="http://www.w3.org/1999/xlink" x="0px" y="0px"
	 viewBox="0 0 66.1 145.9" enable-background="new 0 0 66.1 145.9" xml:space="preserve">
<g>
	<path opacity="0.3" fill="#CDCDCD" d="M30.9,139.3c3-1.2,6-5,7.4-7.9c1.6-3.3-0.5-6.5-3.3-8.5c-2.6-1.9-5.8-2.7-8.9-3.3
		c-4.4-0.8-9-1.1-13.3-0.2c-5.9,1.3-17.2,8.3-10.8,15.3c1.6,1.7,4,2.3,6.2,2.8c2.2,0.5,4.3,1,6.5,1.4c4.5,1,9.1,2,13.6,1.1
		C29.2,139.9,30,139.6,30.9,139.3z"/>
	
		<linearGradient id="People1Gra1" gradientUnits="userSpaceOnUse" x1="317.6934" y1="11.1088" x2="316.9087" y2="39.3574" gradientTransform="matrix(1 0 0 1 -259.2221 0)">
		<stop  offset="0" style="stop-color:#EEEEEE"/>
		<stop  offset="0.1273" style="stop-color:#F3F3F3"/>
		<stop  offset="0.4746" style="stop-color:#FCFCFC"/>
		<stop  offset="1" style="stop-color:#FFFFFF"/>
	</linearGradient>
	<polygon fill="url(#People1Gra1)" points="64.7,1.2 51.9,0 51.9,33.3 64.7,34.5 	"/>
	<g>
		<path fill="#FFFCE2" d="M31.9,128.3c0.4-0.1,0.8-0.2,1.2,0c0.4,0.2,0.6,0.5,0.9,0.9c0.4,0.6,0.8,1.5,0.5,2.2
			c-0.1,0.2-0.3,0.4-0.5,0.6c-2.8,2.5-6.7,4.1-10.4,3.8c-0.4,0-0.8-0.1-1.2-0.3c-1.1-0.5-1.5-3.1-0.7-4.1c0.5-0.6,1.5-0.9,2.2-1.1
			c0.6-0.2,1.2-0.2,1.8-0.4C27.8,129.3,29.8,128.8,31.9,128.3z"/>
		<path fill="#FFFCE2" d="M15.8,124.3c0.5-0.2,1-0.3,1.4-0.3c0.6,0,1.2,0.3,1.5,0.9c0.4,0.7,0.2,1.2-0.1,1.9
			c-0.1,0.3-0.3,0.6-0.4,0.9c-0.4,0.6-0.9,1.1-1.4,1.6c-1,1-2.1,1.8-3.3,2.5c-0.9,0.6-1.9,1.4-3.1,1.3c-0.6,0-1.2-0.4-1.6-0.9
			c-0.4-0.6-0.4-1.1-0.3-1.8c0.1-0.5,0.1-1,0.3-1.4c0.5-0.9,1.5-1.4,2.3-1.9c0.9-0.6,1.8-1.3,2.8-1.8
			C14.5,125,15.1,124.6,15.8,124.3z"/>
		<path fill="#EFCCA3" d="M26.9,127.6c-0.1,1-0.3,2-0.4,3c-0.2,1.3-1.9,2.1-2.9,1.1c-0.2-0.3-0.3-0.6-0.4-1
			c-0.3-1.8-0.6-3.6-0.8-5.4c-0.4-4-0.8-8.1-0.6-12.2c0.1-1.4,0.3-3.6,1.7-4.3c0.9-0.5,2.1-1,3.1-0.6c1.9,0.9,1.5,5.1,1.4,6.8
			C27.7,119.3,27.4,123.5,26.9,127.6z"/>
		<path fill="#EFCCA3" d="M12.7,125.6c-0.1,0.9-0.2,1.8-0.4,2.7c-0.2,1.2-1.7,1.9-2.6,1c-0.2-0.2-0.3-0.6-0.4-0.9
			c-0.3-1.6-0.6-3.3-0.7-4.9c-0.4-3.7-0.7-7.5-0.6-11.2c0.1-1.3,0.3-3.3,1.5-3.9c0.8-0.4,1.9-0.9,2.8-0.5c1.7,0.8,1.3,4.6,1.3,6.3
			C13.4,118,13.1,121.8,12.7,125.6z"/>
		<path fill="#534741" d="M15.4,117.5c0.1-6.2-0.1-12.4,0.8-18.6c0.1-0.5,0.2-1,0.4-1.5c0.2-0.4,0.7-1.1,1.1-0.8
			c0.4,0.3,0.6,2,0.7,2.4c0.7,2.9,0.9,5.7,1.2,8.7c0.3,4.1,0.5,8.3,0.5,12.4c0,2.9,2.2,4.1,5,3.8c1.5-0.1,3-0.8,4.2-1.9
			c1.4-1.3,0.5-3.7,0.3-5.5c-0.3-2.3-0.5-4.6-0.7-7c-0.3-4.5-0.5-13.2-1-17.7c-0.2-1.5,0-3.5-1-4.7c-0.7-0.9-2.5-0.8-3.5-0.8
			c-3,0-6.1,0.9-9.1,0.1c-1.3-0.4-2.6-1.1-4-1.2c-0.5,0-1,0-1.4,0.3C8.2,86,8,86.8,7.9,87.5c0,0.1,0,0.2-0.1,0.4
			c-1.6,9-2.7,23-2,32.1c0,0.4,0.1,0.7,0.2,1c0.1,0.2,0.3,0.4,0.4,0.6c1.7,1.7,4.2,1.8,6.3,0.8c0.7-0.3,1.3-0.8,1.8-1.4
			C15.2,120,15.3,118.7,15.4,117.5z"/>
	</g>
	<g>
		<path fill="#EFCCA3" d="M12.8,55.5c2.6,0.3,5.3,0.3,8-0.1c0.6-0.1,1.3-0.2,1.8-0.5c0.1-0.1,0.2-0.1,0.2-0.2c0-0.1,0-0.2,0-0.3
			c-0.2-0.6-0.8-1.1-1.3-1.4c-1.4-0.9-3.1-1.3-4.8-1.2c-1.9,0.1-3.5,1.2-5,2.1c-0.3,0.2-0.7,0.5-0.6,0.8c0.1,0.4,0.6,0.6,1,0.6
			C12.3,55.4,12.5,55.5,12.8,55.5z"/>
		<g>
			<path fill="#EFCCA3" d="M48.8,43.1c-0.4-0.8-1.2-1.4-2.1-1.4c-0.4,0-0.8,0.2-1.2,0.5c-1.7,1.3-2.4,3.7-3.6,5.4
				c-0.3,0.5-0.6,1-0.4,1.6c0.5,2,4.1,0.9,5.1,0c0.7-0.6,1.2-1.5,1.7-2.3c0.5-1,0.9-2.1,0.7-3.1C48.9,43.5,48.9,43.3,48.8,43.1z"/>
			<path fill="#EFCCA3" d="M40.1,49c0.5-0.3,1.1-0.6,1.6-0.9c0.2-0.1,0.5-0.3,0.8-0.3s0.6,0.1,0.7,0.4c0.1,0.2,0,0.5-0.2,0.7
				c-0.6,1-1.6,1.8-2.5,2.5c-2.2,1.6-4.5,3.2-6.7,4.8c-1.2,0.8-2.3,1.6-3.5,2.4c-0.9,0.6-2,1.6-3.1,1.7c-1,0.1-1.7-1.1-1.7-2
				c0-1.3,1.5-1.8,2.5-2.4c1.3-0.8,2.7-1.6,4-2.4C34.6,51.9,37.4,50.4,40.1,49z"/>
			<path fill="#DAB855" d="M15.7,63.4c2.5,0.4,5.1,0.4,7.6,0.1c1.8-0.2,4.7-0.1,5.2-2.3c0.2-0.7-0.1-1.5-0.4-2.2
				c-0.3-0.6-0.6-1.1-0.9-1.7c-0.3-0.4-0.6-0.9-1-1.2c-0.8-0.6-1.8-0.3-2.7-0.2c-1,0.1-2.1,0.1-3.1,0c-2-0.1-4.1-0.4-6.1-0.5
				c-0.7,0-1.7-0.2-2.2,0.2c-0.3,0.2-0.5,0.6-0.6,1c-0.3,0.9-0.5,1.8-0.5,2.7c-0.1,0.8,0,1.7,0.4,2.5c0.7,1.3,1.9,1,3.1,1.2
				C14.8,63.2,15.2,63.3,15.7,63.4z"/>
		</g>
		<path fill="#22B473" d="M6.7,63.9c0.2-1.8,0.5-3.6,1.2-5.4c0.7-2,1.8-6.5,4.8-5.6c0.2,0.1,0.4,0.2,0.6,0.3
			c2.2,1.5,5.4,1.9,7.7,0.5c0.4-0.2,0.7-0.6,1.1-0.6c0.8,0,1.7,0.1,2.4,0.5c2.2,1.1,2.1,4.1,2.3,6.2c0.3,2.8,0.2,5.6,0.2,8.4
			c-0.1,4.1-0.3,8.2,0.2,12.2c0.2,1.9,0.8,3.6,1.2,5.4c0.3,1.4,0.4,2.8-1.2,3.4c-3.5,1.4-7,1.7-10.7,1.2c-3.4-0.5-7.1-1.3-10.2-2.7
			C6.2,87.6,6,87.6,6,87.4c-0.1-0.1,0-0.2,0-0.4C6.5,79.4,5.9,71.6,6.7,63.9z"/>
		<g>
			<g>
				<g>
					<path fill="#AE8B74" d="M54.7,39.2c-0.2-0.3-0.5-0.6-0.8-0.6c-0.4,0-0.6,0.2-0.9,0.5c-4.1,3.8-8.2,7.7-12.3,11.5
						C39.3,52,29.1,61.4,27.6,62.8c-0.7,0.7-1.4,1.3-2.1,2c-0.3,0.3-0.7,0.6-1,0.9c-0.4,0.4-0.9,0.8-1.3,1.3
						c-0.3,0.3-0.4,1.4,0.2,1.6c0.3,0.1,0.5-0.1,0.7-0.2c1.9-1.3,3.5-3.1,5.2-4.6c1.7-1.6,21.4-19.9,25.2-23.5
						c0.2-0.2,0.4-0.5,0.4-0.8C54.8,39.4,54.8,39.3,54.7,39.2z"/>
				</g>
				<g>
					<g>
						<g>
							<path fill="#DADADA" d="M54.7,31.5c-0.5-0.1-1.1-0.1-1.6-0.2c-0.6-0.1-1.3-0.1-1.9-0.1c-0.5,0-1,0.1-1.4,0.5
								c-0.7,0.8-1,2.1-0.5,3.4c0.5,1.7,2.5,1.8,3.6,2.1c0.6,0.2,1.1,0.3,1.7,0.4c1.6,0.4,3.2,0.7,4.8,1c0.8,0.1,1.6,0.3,2.4,0.4
								c0.7,0.1,1.5,0.3,2.2,0.3c1.3,0,2.5-1.5,2.1-3.3c-0.3-1.4-1.6-2.4-2.6-2.7c-1.4-0.4-2.7-0.8-4.1-1c-0.8-0.2-1.5-0.3-2.3-0.4
								C56.2,31.8,55.5,31.6,54.7,31.5z"/>
						</g>
						<path fill="#E4E4E4" d="M63.4,39.3c0.6,0.2,1.1,0,1.6-0.2c0.5-0.3,0.8-0.8,1-1.4c0.1-0.6,0.1-1.2-0.2-1.8
							c-0.3-0.9-0.9-1.7-1.6-2.2c-0.3-0.2-0.5-0.3-0.8-0.4c-1-0.3-1.8,0.6-2.1,1.7c-0.2,0.6-0.2,1.3-0.1,2
							C61.6,38.1,62.5,39,63.4,39.3z"/>
						<path fill="#B2B2B2" d="M63.4,38.1c0.3,0.1,0.6,0,0.8-0.1c0.2-0.1,0.4-0.4,0.5-0.7c0.1-0.3,0-0.6-0.1-0.9
							c-0.2-0.5-0.5-0.8-0.8-1.1c-0.1-0.1-0.3-0.2-0.4-0.2c-0.5-0.1-0.9,0.3-1,0.9c-0.1,0.3-0.1,0.7,0,1
							C62.5,37.5,63,37.9,63.4,38.1z"/>
					</g>
					<path fill="#AE8B74" d="M52.7,39.4c0.7-0.9,1.7-1,2.8-0.7c0.5,0.1,1,0.2,1.5,0.3c1,0.3,2.2,0.8,3.1,0.5c0.5-0.2,0.9-0.6,1.2-1
						c0.4-0.5,0.7-1,1.1-1.5c0.3-0.3,0.5-0.8,1-0.8c0.2,0,0.4,0.1,0.6,0.3c0.1,0.1,0.1,0.2,0.1,0.3c0,0.7-0.4,1.3-0.8,1.7
						c-0.4,0.5-0.8,1-1.3,1.5c-0.6,0.6-1.1,1-2,1c-0.6,0-1.3-0.2-2-0.3c-1.3-0.3-2.6-0.5-3.9-0.9C53.6,39.6,53.1,39.5,52.7,39.4z"/>
				</g>
			</g>
			<g>
				<path fill="#EFCCA3" d="M44,50.4c-0.2,0.3-0.5,0.5-0.8,0.7c-0.6,0.3-1.4,0.4-1.9-0.1c0.2-0.5,0.3-1.1,0.2-1.6
					c0-0.1,0-0.2-0.1-0.2c-0.1-0.1-0.1-0.1-0.2,0c-1.1,0.1-1.6,0.2-2,1.3c-0.5,1.1-0.6,3,0.4,4.1c1.4,1.5,3.8,0.1,4.9-0.8
					c0.5-0.4,2.3-4,1.3-4.5c-0.5-0.2-0.9,0.1-1.2,0.5C44.4,49.9,44.2,50.2,44,50.4z"/>
				<path fill="#EFCCA3" d="M41.5,51.4c1.4,0.6,0.2,5.9,0,6.7c-0.6,2.3-1.3,4.6-2.3,6.7c-1.5,3-3.4,5.8-7.3,3.4
					c-0.8-0.5-1.7-1.4-1.7-2.3c0-0.7,1-2.4,1.8-2.5c0.1,0,0.3,0,0.4,0.1c0.4,0.1,0.7,0.4,1.1,0.5c0.7,0.3,1.2,0.1,1.6-0.4
					c1.2-1.7,2.2-3.5,3-5.4c0.4-0.9,0.8-1.9,1.1-2.8c0.4-1.2,0.2-3.2,1.5-3.8C41,51.3,41.3,51.3,41.5,51.4z"/>
				<path fill="#22B473" d="M25.2,63.9c0.7,1.1,1.5,2.2,2.4,3.2c0.6,0.7,1.4,1.4,2.3,1.4c0.8,0,1.3-0.6,1.8-1.1
					c1.1-1.2,2.1-2.6,2.5-4.3c0.2-0.9-1.3-1.8-1.9-2.4c-0.9-0.9-1.7-1.9-2.6-2.9c-1.5-1.6-4.3-4.8-6.7-4.4c-2.1,0.4-1.1,3.9-0.4,5.3
					C23.3,60.4,24.2,62.2,25.2,63.9z"/>
			</g>
		</g>
	</g>
	<g>
		<path fill="#EFCCA3" d="M17.9,35.3c-0.7-0.1-1.4-0.2-2.1-0.1C14.1,35.4,12.4,36,11,37c-1.3,1-2.2,2.3-2.6,3.8
			c-0.3,1.3,0.2,2.9,0.7,4.2c1.1,2.7,3,5.3,5.6,6.7c1.8,1,4.1,1.5,6,0.5c1.6-0.9,2.4-2.9,2.6-4.8c0.1-0.8,0.1-1.7,0-2.5
			c-0.3-3-1.4-6.1-3.4-8.3c-0.5-0.5-0.9-1-1.6-1.1C18.2,35.4,18,35.4,17.9,35.3z"/>
		<path fill="#292526" d="M7,48c-0.1,2.9-0.4,5.9-0.8,8.8c-0.2,1.5-0.5,3-0.7,4.5c-0.2,1.3-0.4,2.7-1.4,3.9
			c-0.3,0.4,1.3,1.7,1.6,1.8c0.6,0.2,2.8,0.4,2.9-0.5c0,1.1,0.6,2,1.7,2.4c0.5,0.2,1.2,0.4,1.8,0.3c0.9-0.1,0.9-0.4,1.7,0.1
			c1.2,0.7,2.6,0.9,4,0.6c0.1,0-0.3-2-0.4-2.1c-0.1-0.9-0.4-1.8-0.6-2.8c0.5,2,1.3,3.7,3.5,4.5c0.9,0.3,1.8,0.3,2.6-0.1
			c0.3-0.1,2.2-1.5,1.5-1.8c-0.8-0.4-1.4-1.1-1.9-1.9c-1.8-2.8-2.2-5.6-2.9-8.6c-0.8-3.2-1.1-6.5-0.4-9.7c0.2-0.7,0.2-1.6,1.1-1.6
			c0.3,0,0.7,0,0.9-0.2c0.2-0.1,0.3-0.4,0.3-0.6c0.2-0.6,0.2-1.1,0.6-1.7c0.5-0.6,1.5-0.3,1.5-1.2c-0.1-1.9-0.4-3.3-1.6-4.8
			c-0.9-1.2-2.5-1.7-4.1-2c-2.1-0.3-4.7,0-6.5,1.1c-3.8,2.2-4.4,6.3-4.5,10C7,46.9,7,47.5,7,48z"/>
	</g>
	<g>
		<path opacity="0.3" fill="#9E9F9F" d="M43.5,145.5c-1-0.2-2-0.5-2.9-1c-0.7-0.4-1.5-0.8-1.4-1.7c0-0.3,0.1-0.6,0.3-0.9
			c0.4-0.5,1.2-0.7,1.7-0.8c1.4-0.4,2.8-0.4,4.1-0.6c2.1-0.3,4.3-0.2,6.3-0.6c1-0.2,2.1-0.3,3.1-0.2c0.8,0.1,2.1,0.1,2.8,0.6
			c0.8,0.4,1,1.5,0.6,2.3s-1.1,1.4-1.8,1.8c-1.4,0.8-3.3,1.3-4.9,1.4c-1.6,0.1-3.2,0.2-4.8,0.2C45.6,145.8,44.5,145.7,43.5,145.5z"
			/>
		<g>
			<path fill="#789295" d="M40.2,137.9c0.3,1.7,0.5,3.2,1.9,4.4c2.6,2.3,7.2,2.2,10.3,1.4c0.9-0.2,1.9-0.6,2.6-1.2
				c1.6-1.3,1.5-4,1.6-5.9c0.2-4.2,0.3-8.4,0.4-12.7c0-0.2,0-0.5-0.1-0.7c-0.2-0.2-0.5-0.3-0.8-0.3c-2.8-0.1-5.4-0.3-8.2,0
				c-2.9,0.4-5.8,0.9-8.8,0.5c-0.1,0-0.1,0-0.2,0c0,0,0,0.1,0,0.1c0.2,2.4,0.3,4.9,0.5,7.3C39.5,133.3,39.8,135.6,40.2,137.9z"/>
			<g>
				<path fill="#FFFFFF" d="M52.2,140.7c0,0.3,0.1,0.6,0.4,0.7c0.1,0.1,0.3,0.1,0.4,0.1c0.2-0.1,0.3-0.3,0.3-0.4
					c0-1.1,0-2.1-0.1-3.2c0-0.3-0.1-1.3-0.6-1.4c-0.5-0.1-0.5,0.4-0.5,0.6C51.9,138.3,52.1,139.5,52.2,140.7z"/>
				<path fill="#FFFFFF" d="M53.1,139.3c0,0.2,0,0.4,0,0.6c0,0.1,0,0.2,0.1,0.2c0.1,0.1,0.3,0,0.4,0c0.1-0.1,0.1-0.2,0.1-0.2
					c0-0.2,0.1-0.4,0-0.6c0-0.1,0-0.1-0.1-0.1c-0.1-0.1-0.3-0.1-0.4,0C53.2,139.2,53.2,139.3,53.1,139.3"/>
			</g>
		</g>
		<path fill="#EDEDEE" d="M53.9,126.8c-0.2,0.1-0.3,0.1-0.5,0.2c-2.8,0.9-6,0.8-8.9,0.6c-1.8-0.2-4.4-0.7-5.4-2.4
			c-0.7-1.2-0.4-2.4,0.7-3.3c1.9-1.5,4.1-2,6.4-2.2c2.5-0.2,4.9-0.2,7.3,0.6c1,0.3,2,0.8,2.7,1.6c1.1,1.3,0.9,2.8-0.4,3.9
			C55.2,126.2,54.6,126.5,53.9,126.8z"/>
		<g>
			<path fill="#A6BFC5" d="M54.4,127.6c-0.2,0.1-0.4,0.1-0.6,0.2c-3,1.1-6.5,1-9.7,0.7c-2-0.2-4.8-0.9-5.9-3
				c-0.8-1.5-0.4-3.1,0.8-4.2c2.1-1.9,4.4-2.5,7-2.8c2.7-0.2,5.3-0.2,7.9,0.8c1.1,0.4,2.2,1,2.9,2c1.2,1.6,1,3.5-0.4,4.9
				C55.8,126.9,55.1,127.3,54.4,127.6z"/>
			<path fill="#789295" d="M53.9,126.8c-0.2,0.1-0.3,0.1-0.5,0.2c-2.8,0.9-6,0.8-8.9,0.6c-1.8-0.2-4.4-0.7-5.4-2.4
				c-0.7-1.2-0.4-2.4,0.7-3.3c1.9-1.5,4.1-2,6.4-2.2c2.5-0.2,4.9-0.2,7.3,0.6c1,0.3,2,0.8,2.7,1.6c1.1,1.3,0.9,2.8-0.4,3.9
				C55.2,126.2,54.6,126.5,53.9,126.8z"/>
			<path fill="#FFFFFF" d="M44.4,127.5c2.9,0.2,6.1,0.3,8.9-0.6c0.2-0.1,0.3-0.1,0.5-0.2c0.7-0.2,1.3-0.6,1.9-1
				c0.2-0.2,0.4-0.4,0.5-0.6c0-0.1-0.1-0.1-0.1-0.2c-0.7-0.8-1.7-1.3-2.7-1.6c-2.4-0.8-4.8-0.8-7.3-0.6c-2.4,0.2-4.5,0.7-6.4,2.2
				c-0.2,0.1-0.3,0.3-0.5,0.5C40.4,126.9,42.7,127.4,44.4,127.5z"/>
			<path fill="#FFFFFF" d="M41.6,120.2c0,0,0.1,0.1,0.1,0.1c0.1,0.2,0.1,0.5,0.2,0.7c0,0.2,0,0.5,0.1,0.7c0,0.2,0,0.3,0.2,0.5
				c0.1,0.1,0.2,0.1,0.2,0.1c0.1,0,0.2-0.1,0.2-0.1c0.1-0.1,0.1-0.3,0.2-0.4c0.1-0.1,0.2-0.1,0.3-0.1c0,0,0.1,0,0.1,0
				c0,0,0.1,0.1,0.1,0.1c0.1,0.1,0.2,0.3,0.2,0.5c0,0.2,0,0.5,0.1,0.7c0.1,0.3,0.3,0.6,0.6,0.6c0.1,0,0.2,0,0.3-0.1
				c0.1-0.1,0.2-0.2,0.3-0.3c0.1-0.3,0-0.7,0.3-0.8c0.1-0.1,0.3-0.1,0.4,0c0.3,0.1,0.6,0.2,0.7-0.1c0-0.1,0.1-0.2,0.1-0.3
				c0.1-0.3,0.1-0.5,0.2-0.7c0.1-0.2,0.4-0.3,0.6-0.1c0.1,0.1,0.1,0.2,0.1,0.3c0,0.1,0.1,0.2,0.2,0.3c0.2,0.1,0.5-0.1,0.5-0.3
				c0.1-0.1,0.1-0.3,0.1-0.5c0-0.4,0-0.8-0.1-1.2c-0.1-0.3-0.2-0.7-0.4-0.9c-0.3-0.3-0.8-0.3-1.2-0.3c-1.1,0-2.3,0.2-3.4,0.5
				c-0.7,0.2-1.3,0.4-1.9,0.8c-0.1,0.1-0.1,0.1-0.1,0.3c0,0,0.3,0.1,0.3,0.1C41.5,120.1,41.5,120.1,41.6,120.2z"/>
		</g>
		<g>
			<path fill="#45544D" d="M59.9,124.9c-0.5-1.1-1.1-2.2-1.7-3.3c-0.3-0.5-0.7-1.1-1-1.6c-0.2-0.3-0.6-0.9-1.1-0.9
				c-0.4,0.1-0.9,0.2-1.2,0.5c0,0,0,0,0,0.1c0,0,0,0.1,0.1,0.1c0.3,0.1,0.6,0.2,0.9,0.2c0.3,0,0.4,0.2,0.7,0.3
				c0.4,0.4,0.7,0.8,0.9,1.3c0.4,0.7,0.8,1.3,1.1,2c0.4,0.7,0.9,1.5,0.9,2.4c0.1,1-0.2,2.2-0.8,3c-0.3,0.4-0.7,0.8-1,1.3
				c0.1,0.1,0.3,0.3,0.5,0.4c0.6-0.7,1.2-1.4,1.6-2.3C60.3,127.2,60.4,126.1,59.9,124.9z"/>
			<path fill="#B6B03E" d="M54.1,134c0.7-0.5,1.5-0.9,2.2-1.5c0.7-0.5,1.3-1,1.9-1.6c0.2-0.2,0.3-0.3,0.3-0.6c0-0.1-0.1-0.2-0.2-0.3
				c-0.1-0.2-0.3-0.3-0.5-0.4c-0.3-0.1-0.6,0.2-0.9,0.4c-0.7,0.6-1.5,1.1-2.3,1.6c-0.4,0.3-0.8,0.5-1.2,0.8
				c-0.3,0.2-0.8,0.4-0.8,0.8c0,0.1,0,0.2,0.1,0.4c0.1,0.2,0.2,0.4,0.4,0.5C53.5,134.4,53.8,134.2,54.1,134z"/>
			<path fill="#45544D" d="M53.3,133.3c-0.1,0-0.2,0-0.3,0.1c-0.3,0.2-0.5,0.3-0.8,0.5c-0.3,0.1-0.5,0.2-0.8,0.3
				c-0.5,0.2-1.1,0.3-1.7,0.4c-0.8,0.1-1.8,0.1-2.6,0c-0.6-0.1-1.4-0.2-2-0.6c-0.7-0.5-1.3-1.1-2-1.5c-0.7-0.5-1.2-1.2-1.7-1.7
				c-0.3-0.3-0.7-0.6-1.1-1c-0.3-0.3-0.7-0.7-1-1c-0.2-0.3-0.6-0.6-0.7-0.9c-0.1-0.3,0.4-0.6,0.6-0.7c0.1-0.1,0.7-0.5,0.4-0.6
				c-0.1-0.1-0.2,0-0.3,0c0,0-0.1,0-0.1,0c-0.5,0.2-1,0.4-1.4,0.8c0,0-0.1,0.1-0.1,0.1c0,0,0,0.1,0,0.1c0.2,0.3,0.4,0.5,0.6,0.8
				c0.4,0.5,0.9,1,1.3,1.4c0.9,0.9,1.7,1.8,2.6,2.7c0.7,0.7,1.4,1.4,2.3,1.9c2.1,1.1,4.6,1.2,6.8,0.5c0.8-0.2,1.5-0.5,2.1-1.1
				c0.1-0.1,0-0.3-0.1-0.4C53.5,133.4,53.4,133.4,53.3,133.3z"/>
		</g>
	</g>
</g>
</svg>
