<?xml version="1.0" encoding="utf-8"?>
<!-- Generator: Adobe Illustrator 24.0.2, SVG Export Plug-In . SVG Version: 6.00 Build 0)  -->
<svg version="1.1" id="smoke" xmlns="http://www.w3.org/2000/svg" xmlns:xlink="http://www.w3.org/1999/xlink" x="0px" y="0px"
	 viewBox="0 0 884.3 295.4" enable-background="new 0 0 884.3 295.4" xml:space="preserve">
<path id="smoke2" fill="#2B2A35" d="M881.6,36.5c-6.3-11.9-22.7-9.1-34-9.7c-16.3-0.9-32.6-1.9-48.9,0.1
	c-34.5,4.2-71.2,13.2-105.7,11.4c-39-2-78.8-0.7-117.5,4.2c-15.1,1.5-30.1,3.3-45.1,5.1c-14.1,1.7-24.5-0.7-38.5-2.7
	c-30.5-4.4-61-8-91.7-10.9c-6.1-0.6-12.3-1.1-18.4-1.6c-28.1-2.3-56.2-4-84.4-5c-23.4-0.8-47.2-7.2-67.2,9.1
	c-5.9,4.9-10.8,11-16.9,15.6c-10.5,7.7-23.7,10.1-35.9,14.6c-12.2,4.4-24.7,12.4-27.7,25.1c-2.2,9.2,1.2,18.8,0,28.2
	c-2.3,17.1-19,28.4-35.1,34.7c-9.8,3.9-20.6,7.4-26.4,16.2c-5.1,7.8-4.9,17.9-8.2,26.6c-3.5,9.2-10.6,16.4-16.2,24.5
	s-9.7,18.4-6.3,27.6l0,0c0.9,3.1,5.6,5.5,11.2,5.5c6.3,0,11.4-3,11.4-6.6c0-0.1,0-0.3,0-0.4c0-0.2,0-0.4,0-0.6
	c-0.2-2.1,0-4.3,0.6-6.3s1.8-3.8,3.1-5.3c1.4-1.5,2.9-3,4.4-4.4c3.3-2.8,6.8-5.3,10.6-7.5c3.7-2.2,7.7-4.1,11.7-5.6
	c4.1-1.5,8.3-2.7,12.5-3.4c4-0.7,8.1-1.1,12.2-1.1c11.5,0,23,2.7,34.4,1.6c19.8-1.9,36.2-14.3,54.3-21.2c20.9-7.9,42.1-2.8,61.4,7.7
	c12.4,6.7,23.3,15.8,35.9,22c32.6,16.1,72.2,10.4,105.4-4.5c18-8.1,34.8-18.7,53.5-24.7c40.7-13.2,83.3-10.7,124.9-3.5
	c50.6,8.7,98.3,16.2,146.8-5.2c41.2-18.2,78.1-46.2,106.4-81.2c11.5-14.2,21.8-30,25.1-47.9C884.7,50.1,884.9,42.7,881.6,36.5z"/>
<path id="smoke1" fill="#32323A" d="M615.5,33.5c-1.3-3-4.7-4.5-7.7-5.7c-19.1-7.2-39.7-10.5-60-9.7c-26.7,1-52,3-78.8,0.7
	c-26.4-2.3-52.5-6.6-78.5-11.2C349.2,0.3,307.2,0.2,265.3,0c-17.6-0.1-35.2-0.1-52.8,0.5c-14.2,0.5-31.6,2.6-44.8,8.3
	c-7.5,3.2-14.1,8-20.6,12.9c-6.1,4.6-12.2,9.4-17,15.4c-4.9,6.2-8.1,13.5-12.1,20.4c-9,15.8-14,28.3-33.5,43.1
	c-13.7,10.4-16.6,27.7-15,45.2c0.9,9.9,2.9,19.9,0.5,29.5c-2.5,10.3-9.7,18.7-17.5,25.8c-7.9,7.1-16.6,13.1-23.8,20.9
	c-13.6,14.8-25.8,37.8-28.4,57.9c-0.2,1.2-0.3,2.4-0.3,3.6c-0.1,3.3-0.1,5.6,0.8,7.2l0,0l0.1,0.1c1.5,2.6,5.8,4.5,10.8,4.5
	c6.3,0,11.4-3,11.4-6.6c0-0.2,0-0.4,0-0.5c0-2.5,0-5.1-0.2-7.6c-0.1-0.7-0.2-1.5-0.2-2.2c-0.5-18.2,11.5-37,25.8-47.4
	c14.5-10.6,33.4-14.6,48.3-25.5c9.9-7.3,18.4-16.1,28.3-23.4c11.8-8.7,21.9-11.3,36.4-11.4c20.5-0.1,41.4,1.8,61.2-3.6
	c20.1-5.5,38.3-17.8,57.1-26.2c19.9-9,41.4-9.9,63-9.9c8.4,0,16.8,0,25.1,1c8.6,1,17,3,25.6,4.4c24.1,3.9,48.9,2.8,72.7-2.9
	c22.6-5.4,38.9-13.4,57.2-27.6c15.7-12.1,33.1-22,51.6-29.1c8.8-3.4,18-6.3,25.5-11.9c7.9-6,13.5-15,15.4-24.7
	C616.2,38,616.5,35.6,615.5,33.5z"/>
<g>
	<defs>
		<path id="smoke1_1_" d="M615.5,33.5c-1.3-3-4.7-4.5-7.7-5.7c-19.1-7.2-39.7-10.5-60-9.7c-26.7,1-52,3-78.8,0.7
			c-26.4-2.3-52.5-6.6-78.5-11.2C349.2,0.3,307.2,0.2,265.3,0c-17.6-0.1-35.2-0.1-52.8,0.5c-14.2,0.5-31.6,2.6-44.8,8.3
			c-7.5,3.2-14.1,8-20.6,12.9c-6.1,4.6-12.2,9.4-17,15.4c-4.9,6.2-8.1,13.5-12.1,20.4c-9,15.8-14,28.3-33.5,43.1
			c-13.7,10.4-16.6,27.7-15,45.2c0.9,9.9,2.9,19.9,0.5,29.5c-2.5,10.3-9.7,18.7-17.5,25.8c-7.9,7.1-16.6,13.1-23.8,20.9
			c-13.6,14.8-25.8,37.8-28.4,57.9c-0.2,1.2-0.3,2.4-0.3,3.6c-0.1,3.3-0.1,5.6,0.8,7.2l0,0l0.1,0.1c1.5,2.6,5.8,4.5,10.8,4.5
			c6.3,0,11.4-3,11.4-6.6c0-0.2,0-0.4,0-0.5c0-2.5,0-5.1-0.2-7.6c-0.1-0.7-0.2-1.5-0.2-2.2c-0.5-18.2,11.5-37,25.8-47.4
			c14.5-10.6,33.4-14.6,48.3-25.5c9.9-7.3,18.4-16.1,28.3-23.4c11.8-8.7,21.9-11.3,36.4-11.4c20.5-0.1,41.4,1.8,61.2-3.6
			c20.1-5.5,38.3-17.8,57.1-26.2c19.9-9,41.4-9.9,63-9.9c8.4,0,16.8,0,25.1,1c8.6,1,17,3,25.6,4.4c24.1,3.9,48.9,2.8,72.7-2.9
			c22.6-5.4,38.9-13.4,57.2-27.6c15.7-12.1,33.1-22,51.6-29.1c8.8-3.4,18-6.3,25.5-11.9c7.9-6,13.5-15,15.4-24.7
			C616.2,38,616.5,35.6,615.5,33.5z"/>
	</defs>
	<clipPath id="smoke1_2_">
		<use xlink:href="#smoke1_1_"  overflow="visible"/>
	</clipPath>
	<g clip-path="url(#smoke1_2_)">
		<path fill-rule="evenodd" clip-rule="evenodd" fill="#FCFDFD" d="M607.5-17.9L607.5-17.9"/>
		<path fill-rule="evenodd" clip-rule="evenodd" fill="#D5D5D3" d="M239.9,130.4c-0.1,2.1-1.1,3.3-3,3.4c-2,0.1-3.3-1-3.4-3.1
			c-0.1-1.9,1.1-3.1,3-3.2C238.5,127.4,239.6,128.6,239.9,130.4L239.9,130.4z"/>
		<path fill-rule="evenodd" clip-rule="evenodd" fill="#B6B5B1" d="M277.6,166.3c0-2.3,1.8-3.9,4.1-3.9c2.2,0.1,4.1,2,3.9,4.2
			c-0.2,2.3-1.5,3.7-4,3.7C279.3,170.3,277.6,168.6,277.6,166.3L277.6,166.3z"/>
		<path fill-rule="evenodd" clip-rule="evenodd" fill="#D0CFCD" d="M432.7,9c1.6,0.2,2.5,1,2.5,2.7c-0.1,1.6-1.1,2.5-2.7,2.4
			c-1.5-0.1-2.3-1-2.3-2.5C430.1,10,431.1,9.2,432.7,9L432.7,9z"/>
		<path fill-rule="evenodd" clip-rule="evenodd" fill="#F3F4F4" d="M315.4,9.8c-0.2,1.5-1,2.5-2.6,2.5c-1.5,0-2.4-0.9-2.4-2.3
			c-0.1-1.6,0.8-2.6,2.4-2.6C314.4,7.2,315.2,8.2,315.4,9.8L315.4,9.8z"/>
		<path fill-rule="evenodd" clip-rule="evenodd" fill="#F0F0F0" d="M122.2,208.9c0.3-1.4,1.1-2.3,2.6-2.1c1.5,0.1,2.2,1.1,2.1,2.6
			c-0.1,1.4-1.1,2.1-2.4,2C123,211.3,122.3,210.4,122.2,208.9L122.2,208.9z"/>
		<path fill-rule="evenodd" clip-rule="evenodd" fill="#E2E1E0" d="M198.9,251.8c0.2-1.4,0.9-2.2,2.3-2.1c1.4,0.1,2.1,0.9,2,2.3
			c-0.1,1.2-0.9,1.9-2.1,2C199.7,254,199,253.1,198.9,251.8L198.9,251.8z"/>
		<path fill-rule="evenodd" clip-rule="evenodd" fill="#979591" d="M468,210.4c0.2-1.8,1.2-2.9,3-2.9s2.9,1.2,2.9,2.9
			c0,1.8-1.1,2.9-2.9,2.9C469.2,213.3,468.2,212.2,468,210.4L468,210.4z"/>
		<path fill-rule="evenodd" clip-rule="evenodd" fill="#E6E6E5" d="M-8.7,248c0.2-1.5,0.9-2.3,2.3-2.3c1.4,0.1,2.1,1,2,2.3
			c-0.1,1.2-0.8,2-2.1,2C-7.9,250.1-8.5,249.2-8.7,248L-8.7,248z"/>
		<path fill-rule="evenodd" clip-rule="evenodd" fill="#E5E4E3" d="M428.9,159.5c0.2-1.3,0.9-2.2,2.3-2.1c1.4,0.1,2.1,1,2,2.3
			c-0.1,1.2-0.9,1.9-2.1,1.9C429.8,161.7,429.1,160.8,428.9,159.5L428.9,159.5z"/>
		<path fill-rule="evenodd" clip-rule="evenodd" fill="#DDDDDB" d="M89.7,193.5c0.1-1.2,0.8-1.9,2-1.9s2,0.7,2,1.9
			c0,1.4-0.8,2.2-2.2,2.1C90.3,195.6,89.8,194.7,89.7,193.5L89.7,193.5z"/>
		<path fill-rule="evenodd" clip-rule="evenodd" fill="#D5D5D3" d="M687.1,107.9c-1.4-0.3-2-1.4-2-2.7c0-1,0.6-1.7,1.6-1.6
			c1.4,0.2,2.2,1.2,2.3,2.6C689,107.3,688.3,107.9,687.1,107.9L687.1,107.9z"/>
		<path fill-rule="evenodd" clip-rule="evenodd" fill="#797875" d="M501.1,210.4c0.2-1.8,1.1-2.9,2.7-3c1.6,0,2.7,0.9,2.7,2.7
			c0,1.7-0.9,2.8-2.6,2.8C502.2,213,501.4,211.9,501.1,210.4L501.1,210.4z"/>
		<path fill-rule="evenodd" clip-rule="evenodd" fill="#B9B8B5" d="M606.3,179.8c-1.3-0.1-2.1-0.6-2.2-1.9c-0.1-1.2,0.6-2,1.8-2.1
			s2,0.6,2.1,1.8C608.2,178.9,607.5,179.6,606.3,179.8L606.3,179.8z"/>
		<path fill-rule="evenodd" clip-rule="evenodd" fill="#D1D0CE" d="M655.1,133.4c1.1,1.4,0.9,2.6-0.6,3.6c-1.5,0.7-2.4-0.1-3-1.3
			c-0.5-0.8-0.1-1.6,0.6-2.3C653.1,132.2,654.1,132.9,655.1,133.4L655.1,133.4z"/>
		<path fill-rule="evenodd" clip-rule="evenodd" fill="#B9B8B5" d="M478.6-16.7c0.1-1.4,0.6-2.2,1.9-2.3c1.3-0.1,2,0.7,2.1,1.8
			c0.1,1.2-0.6,2-1.8,2.1C479.6-15,478.9-15.8,478.6-16.7L478.6-16.7z"/>
		<path fill-rule="evenodd" clip-rule="evenodd" fill="#D2D1CF" d="M343,64.3c0.2-1.4,0.9-2.1,2.1-2.1s1.9,0.8,1.9,2.1
			c0,1.2-0.8,1.9-2.1,1.9C343.7,66.2,343.2,65.3,343,64.3L343,64.3z"/>
		<path fill-rule="evenodd" clip-rule="evenodd" fill="#898884" d="M889.8-15.7c1.6,0.2,2.7,0.9,2.7,2.6c0,1.6-1,2.5-2.6,2.5
			c-1.4,0-2.4-0.9-2.4-2.3C887.4-14.6,888.4-15.4,889.8-15.7L889.8-15.7z"/>
		<path fill-rule="evenodd" clip-rule="evenodd" fill="#E6E5E4" d="M19.3,3.9c-1.2-0.1-2-0.7-2-1.9c0-1.1,0.6-1.9,1.7-2
			c1.2-0.1,2,0.5,2.2,1.8C21.2,3,20.5,3.7,19.3,3.9L19.3,3.9z"/>
		<path fill-rule="evenodd" clip-rule="evenodd" fill="#A9A7A3" d="M65.9,138.7c1.1,0.2,1.8,0.8,1.8,1.9c0,1.2-0.8,2-2,1.9
			c-1.3-0.1-1.9-1-1.7-2.2C64.1,139.3,64.8,138.7,65.9,138.7L65.9,138.7z"/>
		<path fill-rule="evenodd" clip-rule="evenodd" fill="#B2B1AD" d="M189.4,294.9c-1.1-0.2-1.8-0.8-1.8-1.9c0-1.2,0.8-2,2-1.9
			c1.3,0.1,1.9,0.9,1.8,2.2C191.3,294.3,190.6,294.8,189.4,294.9L189.4,294.9z"/>
		<path fill-rule="evenodd" clip-rule="evenodd" fill="#EEEEEE" d="M876.4,102.4c0.3-1.3,1-2,2.2-1.8c1.1,0.1,1.7,0.9,1.6,2
			c-0.1,1.3-0.9,1.9-2.2,1.8C876.9,104.2,876.5,103.4,876.4,102.4L876.4,102.4z"/>
		<path fill-rule="evenodd" clip-rule="evenodd" fill="#716F6C" d="M452.6,207.7c-1.5-0.3-2.6-1-2.6-2.6c0.1-1.7,1.1-2.7,2.8-2.6
			c1.6,0.1,2.5,1.1,2.4,2.7C455.1,206.6,454,207.5,452.6,207.7L452.6,207.7z"/>
		<path fill-rule="evenodd" clip-rule="evenodd" fill="#979591" d="M110.4,2.2c-1.4-0.2-2.3-1-2.4-2.4c0-1.5,0.9-2.4,2.3-2.4
			c1.6,0,2.6,0.9,2.5,2.5C112.7,1.4,111.8,2.1,110.4,2.2L110.4,2.2z"/>
		<path fill-rule="evenodd" clip-rule="evenodd" fill="#BEBDBA" d="M390,191.8c1,0.2,1.7,0.7,1.7,1.9c0,1.1-0.7,1.8-1.8,1.8
			c-1.2,0-2-0.7-1.9-2C388,192.4,388.8,191.8,390,191.8L390,191.8z"/>
		<path fill-rule="evenodd" clip-rule="evenodd" fill="#E6E6E5" d="M752.8,284c0.1-1.1,0.7-1.7,1.8-1.8c1.1,0,1.9,0.6,1.9,1.7
			c0.1,1.2-0.6,2-1.9,2C753.5,285.8,752.9,285.1,752.8,284L752.8,284z"/>
		<path fill-rule="evenodd" clip-rule="evenodd" fill="#6A6966" d="M541.3,255.7c0.4-1.8,1.2-2.9,3-2.7c1.7,0.1,2.4,1.1,2.3,2.7
			c-0.1,1.7-1.2,2.5-2.7,2.5C542.4,258.1,541.6,256.9,541.3,255.7L541.3,255.7z"/>
		<path fill-rule="evenodd" clip-rule="evenodd" fill="#AAA8A4" d="M701.7,238c0.1-1.1,0.7-1.8,1.8-1.8c1.2,0,2,0.7,1.9,2
			c-0.1,1.1-0.8,1.7-1.9,1.7C702.4,239.7,701.8,239,701.7,238L701.7,238z"/>
		<path fill-rule="evenodd" clip-rule="evenodd" fill="#EAEAE9" d="M69,244.4c0.2-1.2,0.8-1.9,1.9-1.9c1.3,0,1.9,0.8,1.8,2.1
			c-0.1,1.1-0.9,1.7-2,1.6C69.6,246,69.1,245.3,69,244.4L69,244.4z"/>
		<path fill-rule="evenodd" clip-rule="evenodd" fill="#D3D2D0" d="M610,304.4c0.1-1.1,0.7-1.8,1.8-1.7c1.1,0,1.8,0.7,1.8,1.8
			c0,1.1-0.7,1.8-1.8,1.8C610.7,306.2,610.1,305.5,610,304.4L610,304.4z"/>
		<path fill-rule="evenodd" clip-rule="evenodd" fill="#ACAAA6" d="M860.6,263.2c0.1-1.1,0.7-1.8,1.8-1.8c1.2,0,1.9,0.8,1.8,2
			c-0.1,1.1-0.9,1.7-1.9,1.7C861.2,265,860.6,264.3,860.6,263.2L860.6,263.2z"/>
		<path fill-rule="evenodd" clip-rule="evenodd" fill="#BEBDBA" d="M385.4,196.8c-1.1-0.1-1.9-0.6-1.9-1.7c-0.1-1.2,0.6-2,1.9-2
			c1.1,0,1.8,0.7,1.8,1.8C387.2,196,386.5,196.6,385.4,196.8L385.4,196.8z"/>
		<path fill-rule="evenodd" clip-rule="evenodd" fill="#BFBEBB" d="M897.3,29c-1.1-0.2-1.8-0.7-1.7-1.9c0.1-1.1,0.8-1.7,1.9-1.7
			c1,0.1,1.6,0.7,1.6,1.7C899.1,28.3,898.4,28.9,897.3,29L897.3,29z"/>
		<path fill-rule="evenodd" clip-rule="evenodd" fill="#C3C2BF" d="M668.5,85.6c0.1-1.2,0.6-1.8,1.6-1.9c1.1-0.1,1.8,0.5,1.9,1.7
			c0,1-0.6,1.6-1.6,1.7C669.3,87.3,668.8,86.5,668.5,85.6L668.5,85.6z"/>
		<path fill-rule="evenodd" clip-rule="evenodd" fill="#B7B6B2" d="M294.8,4.5c1.1,0,1.9,0.6,2,1.7c0.1,1.3-0.6,2-1.9,2
			c-1.1,0-1.8-0.7-1.8-1.8S293.7,4.6,294.8,4.5L294.8,4.5z"/>
		<path fill-rule="evenodd" clip-rule="evenodd" fill="#ECEDEC" d="M153.9,144.9c-1.2-0.2-2-0.7-1.9-1.9c0-1.1,0.7-1.8,1.8-1.8
			s1.8,0.7,1.8,1.8C155.6,144.2,154.9,144.7,153.9,144.9L153.9,144.9z"/>
		<path fill-rule="evenodd" clip-rule="evenodd" fill="#BEBDBA" d="M12,256.8c1.1,0.1,1.8,0.7,1.7,1.9c0,1.1-0.8,1.7-1.9,1.7
			c-1-0.1-1.6-0.7-1.6-1.7C10.2,257.5,10.9,256.9,12,256.8L12,256.8z"/>
		<path fill-rule="evenodd" clip-rule="evenodd" fill="#E6E6E5" d="M628.7,42.5c-1.1-0.2-1.8-0.8-1.7-1.9c0.1-1.1,0.9-1.7,2-1.6
			c1,0.1,1.5,0.8,1.5,1.8C630.5,41.9,629.8,42.5,628.7,42.5L628.7,42.5z"/>
		<path fill-rule="evenodd" clip-rule="evenodd" fill="#BFBEBB" d="M185.9,133.2c0.1-1.2,0.7-2,1.8-1.9c1.1,0,1.8,0.7,1.7,1.8
			c0,1-0.7,1.6-1.6,1.7C186.6,134.9,186.1,134.2,185.9,133.2L185.9,133.2z"/>
		<path fill-rule="evenodd" clip-rule="evenodd" fill="#BEBDBA" d="M260.7,55.8c0.2-1.1,0.7-1.7,1.7-1.7c1.1,0,1.8,0.7,1.8,1.8
			s-0.8,1.7-1.9,1.6C261.2,57.4,260.8,56.6,260.7,55.8L260.7,55.8z"/>
		<path fill-rule="evenodd" clip-rule="evenodd" fill="#C2C1BE" d="M146.2,57.3c1.1,0.1,1.8,0.6,1.8,1.7c0,1.1-0.7,1.8-1.8,1.8
			c-1,0-1.6-0.6-1.7-1.6C144.4,58.1,145.1,57.5,146.2,57.3L146.2,57.3z"/>
		<path fill-rule="evenodd" clip-rule="evenodd" fill="#C0BFBC" d="M742.8,130.2c-1.1-0.1-1.8-0.7-1.8-1.8c0-1.1,0.7-1.8,1.9-1.7
			c1,0,1.6,0.7,1.7,1.6C744.6,129.4,744,130,742.8,130.2L742.8,130.2z"/>
		<path fill-rule="evenodd" clip-rule="evenodd" fill="#C1C0BE" d="M63.4,209.5c0.1-1.1,0.6-1.8,1.8-1.9c1.2,0,1.8,0.7,1.8,1.8
			c0,1-0.6,1.6-1.6,1.7C64.3,211.3,63.6,210.7,63.4,209.5L63.4,209.5z"/>
		<path fill-rule="evenodd" clip-rule="evenodd" fill="#A8A6A2" d="M280.4,118.8c0.2-1,0.7-1.6,1.7-1.6c1.2,0,1.7,0.8,1.6,1.9
			c-0.1,1-0.9,1.5-1.8,1.4C280.9,120.4,280.4,119.8,280.4,118.8L280.4,118.8z"/>
		<path fill-rule="evenodd" clip-rule="evenodd" fill="#ABA9A5" d="M654.1,118.5c0.1-1,0.6-1.6,1.6-1.7c1.1-0.1,1.8,0.6,1.8,1.7
			c0,1-0.5,1.6-1.6,1.7C654.8,120.3,654.3,119.6,654.1,118.5L654.1,118.5z"/>
		<path fill-rule="evenodd" clip-rule="evenodd" fill="#B1AFAC" d="M397.6,179.5c1.1,0.1,1.8,0.7,1.7,1.8c0,1-0.7,1.6-1.7,1.6
			c-1.2,0-1.8-0.7-1.8-1.8C395.9,180.1,396.5,179.5,397.6,179.5L397.6,179.5z"/>
		<path fill-rule="evenodd" clip-rule="evenodd" fill="#B1AFAC" d="M136.4,235.1c0.1-1.2,0.6-1.8,1.6-1.9c1-0.1,1.7,0.5,1.8,1.5
			c0.1,1.1-0.5,1.9-1.7,1.9C137,236.5,136.5,235.9,136.4,235.1L136.4,235.1z"/>
		<path fill-rule="evenodd" clip-rule="evenodd" fill="#D2D1CF" d="M173.9,22.9c0.2-1.1,0.8-1.7,2-1.6c1,0.1,1.5,0.8,1.4,1.8
			c-0.1,1.1-0.8,1.7-1.9,1.6C174.4,24.6,173.9,23.9,173.9,22.9L173.9,22.9z"/>
		<path fill-rule="evenodd" clip-rule="evenodd" fill="#BCBBB8" d="M278.1,250.2c0.1-1.1,0.7-1.8,1.8-1.7c1,0,1.6,0.7,1.6,1.6
			c0,1.1-0.6,1.8-1.8,1.7C278.7,251.8,278.2,251.2,278.1,250.2L278.1,250.2z"/>
		<path fill-rule="evenodd" clip-rule="evenodd" fill="#EBEBEA" d="M205.5,95.8c0.1-1,0.8-1.5,1.7-1.5c1.2,0.1,1.7,0.8,1.6,1.9
			c-0.1,1-0.8,1.5-1.8,1.4C206.1,97.5,205.5,96.8,205.5,95.8L205.5,95.8z"/>
		<path fill-rule="evenodd" clip-rule="evenodd" fill="#BCBBB8" d="M875.1,273.9c-1,0-1.7-0.5-1.8-1.5c-0.1-1.1,0.5-1.9,1.7-1.9
			c1,0,1.6,0.6,1.7,1.6C876.7,273.2,876.1,273.7,875.1,273.9L875.1,273.9z"/>
		<path fill-rule="evenodd" clip-rule="evenodd" fill="#F0F0F0" d="M525.8,132.4c-1.1,0-1.8-0.6-1.8-1.8c0-1,0.6-1.6,1.6-1.7
			c1.1,0,1.8,0.6,1.8,1.7C527.4,131.7,526.9,132.3,525.8,132.4L525.8,132.4z"/>
		<path fill-rule="evenodd" clip-rule="evenodd" fill="#ADABA8" d="M353.6,78.4c-1-0.1-1.7-0.6-1.7-1.6c0-1.1,0.7-1.8,1.8-1.7
			c1,0.1,1.6,0.7,1.5,1.7C355.2,77.7,354.6,78.2,353.6,78.4L353.6,78.4z"/>
		<path fill-rule="evenodd" clip-rule="evenodd" fill="#C4C3C0" d="M853.4,56.8c1.2,0.2,1.8,0.8,1.8,1.9c-0.1,1-0.8,1.5-1.7,1.5
			c-1,0-1.6-0.6-1.6-1.6C851.7,57.5,852.4,56.9,853.4,56.8L853.4,56.8z"/>
		<path fill-rule="evenodd" clip-rule="evenodd" fill="#A4A29E" d="M17,284.7c0.1-1.1,0.6-1.8,1.6-1.8c1.2-0.1,1.8,0.7,1.7,1.8
			c0,1-0.7,1.6-1.7,1.5C17.7,286.1,17.1,285.5,17,284.7L17,284.7z"/>
		<path fill-rule="evenodd" clip-rule="evenodd" fill="#A4A29E" d="M579.1,204c0.2-1.1,0.7-1.8,1.7-1.7c1,0,1.6,0.5,1.7,1.6
			c0,1.1-0.7,1.8-1.8,1.7C579.7,205.5,579.3,204.7,579.1,204L579.1,204z"/>
		<path fill-rule="evenodd" clip-rule="evenodd" fill="#B6B5B1" d="M148.5,8.1c1.1,0.1,1.8,0.6,1.8,1.7c0,1-0.6,1.6-1.6,1.7
			c-1.1,0.1-1.8-0.6-1.8-1.7C146.9,8.8,147.4,8.2,148.5,8.1L148.5,8.1z"/>
		<path fill-rule="evenodd" clip-rule="evenodd" fill="#A8A6A2" d="M789.1,171c0.2-1,0.7-1.6,1.7-1.5c1.2,0.1,1.7,0.8,1.6,1.9
			c-0.1,1-0.9,1.5-1.8,1.4C789.6,172.7,789.1,172,789.1,171L789.1,171z"/>
		<path fill-rule="evenodd" clip-rule="evenodd" fill="#BDBCB9" d="M42.4,220.7c1,0.1,1.7,0.5,1.8,1.5c0.1,1.2-0.6,1.8-1.7,1.8
			c-1,0-1.6-0.6-1.6-1.6C40.9,221.5,41.4,220.9,42.4,220.7L42.4,220.7z"/>
		<path fill-rule="evenodd" clip-rule="evenodd" fill="#ACAAA6" d="M376,127.9c0-1,0.5-1.7,1.5-1.7c1.1-0.1,1.8,0.5,1.9,1.7
			c0,1-0.5,1.6-1.5,1.7C376.8,129.7,376.2,129,376,127.9L376,127.9z"/>
		<path fill-rule="evenodd" clip-rule="evenodd" fill="#ABA9A5" d="M560.5,64.2c0.1-1,0.7-1.6,1.7-1.6s1.6,0.7,1.6,1.7
			c-0.1,1-0.7,1.6-1.7,1.6C561.1,65.9,560.5,65.2,560.5,64.2L560.5,64.2z"/>
		<path fill-rule="evenodd" clip-rule="evenodd" fill="#A6A4A0" d="M836.3,66.9c1,0.2,1.6,0.7,1.6,1.7s-0.6,1.6-1.6,1.7
			c-1.2,0-1.8-0.7-1.7-1.8C834.6,67.5,835.3,67,836.3,66.9L836.3,66.9z"/>
		<path fill-rule="evenodd" clip-rule="evenodd" fill="#F0F0F0" d="M156.4,169c0.1-1,0.7-1.6,1.7-1.5c1,0,1.6,0.7,1.6,1.7
			s-0.7,1.6-1.7,1.5C156.9,170.6,156.4,170,156.4,169L156.4,169z"/>
		<path fill-rule="evenodd" clip-rule="evenodd" fill="#A4A29E" d="M813.5,287.6c1,0.1,1.6,0.6,1.6,1.6s-0.6,1.7-1.6,1.7
			s-1.6-0.6-1.7-1.6C811.8,288.2,812.5,287.7,813.5,287.6L813.5,287.6z"/>
		<path fill-rule="evenodd" clip-rule="evenodd" fill="#AFAEAA" d="M62,276.8c0-1,0.5-1.7,1.5-1.7c1.2-0.1,1.8,0.6,1.8,1.7
			c0,1-0.7,1.6-1.7,1.6S62,277.8,62,276.8L62,276.8z"/>
		<path fill-rule="evenodd" clip-rule="evenodd" fill="#ACAAA6" d="M25.9,241c0.1-1.1,0.7-1.8,1.7-1.7c1,0,1.6,0.7,1.5,1.7
			c0,0.9-0.6,1.4-1.5,1.4C26.6,242.5,26,241.9,25.9,241L25.9,241z"/>
		<path fill-rule="evenodd" clip-rule="evenodd" fill="#A19F9B" d="M898.3,127.8c1,0.2,1.6,0.8,1.5,1.8s-0.7,1.6-1.7,1.5
			s-1.5-0.8-1.5-1.7C896.6,128.3,897.4,127.9,898.3,127.8L898.3,127.8z"/>
		<path fill-rule="evenodd" clip-rule="evenodd" fill="#ADABA8" d="M713.8,182.1c-1-0.1-1.6-0.6-1.6-1.6s0.6-1.6,1.5-1.7
			c1,0,1.6,0.5,1.7,1.5C715.4,181.4,714.8,181.9,713.8,182.1L713.8,182.1z"/>
		<path fill-rule="evenodd" clip-rule="evenodd" fill="#BDBCB9" d="M548.9-2.3c0.1-1,0.6-1.6,1.6-1.7s1.6,0.5,1.7,1.5
			c0.1,1-0.6,1.6-1.5,1.7C549.6-0.7,549-1.3,548.9-2.3L548.9-2.3z"/>
		<path fill-rule="evenodd" clip-rule="evenodd" fill="#C2C1BE" d="M896.1-6.6c0.2-1,0.7-1.6,1.7-1.5c0.9,0.1,1.4,0.7,1.4,1.6
			S898.7-5,897.8-5C896.8-5,896.2-5.5,896.1-6.6L896.1-6.6z"/>
		<path fill-rule="evenodd" clip-rule="evenodd" fill="#ABA9A5" d="M274,147.7c1.1,0.2,1.6,0.8,1.5,1.8s-0.7,1.6-1.7,1.5
			s-1.6-0.7-1.5-1.8C272.4,148.2,273.1,147.8,274,147.7L274,147.7z"/>
		<path fill-rule="evenodd" clip-rule="evenodd" fill="#ADABA8" d="M603.7,264.6c0-1,0.5-1.7,1.5-1.8c1-0.1,1.7,0.5,1.8,1.5
			s-0.5,1.7-1.5,1.8C604.5,266.2,603.8,265.7,603.7,264.6L603.7,264.6z"/>
		<path fill-rule="evenodd" clip-rule="evenodd" fill="#B5B4B0" d="M623.6,251.8c-1,0-1.7-0.5-1.7-1.5c-0.1-1,0.5-1.7,1.5-1.7
			c1-0.1,1.6,0.5,1.7,1.5C625.2,251,624.6,251.6,623.6,251.8L623.6,251.8z"/>
		<path fill-rule="evenodd" clip-rule="evenodd" fill="#BDBCB9" d="M738.3,160.8c1,0,1.6,0.6,1.7,1.6c0.1,1-0.5,1.7-1.5,1.7
			c-1,0.1-1.7-0.5-1.7-1.5C736.7,161.5,737.3,160.9,738.3,160.8L738.3,160.8z"/>
		<path fill-rule="evenodd" clip-rule="evenodd" fill="#AEADA9" d="M302.8,187.9c-0.1,1-0.7,1.6-1.6,1.6c-1,0-1.6-0.5-1.7-1.6
			c0-1.1,0.6-1.8,1.8-1.7C302.3,186.2,302.8,186.9,302.8,187.9L302.8,187.9z"/>
		<path fill-rule="evenodd" clip-rule="evenodd" fill="#B3B2AE" d="M482.4,151.7c0-1,0.6-1.6,1.6-1.7c0.9,0,1.5,0.5,1.6,1.4
			c0.1,1-0.4,1.7-1.4,1.8C483.1,153.3,482.6,152.7,482.4,151.7L482.4,151.7z"/>
		<path fill-rule="evenodd" clip-rule="evenodd" fill="#C3C2BF" d="M598.3,107.2c1,0.1,1.6,0.6,1.7,1.6c0,1-0.6,1.6-1.5,1.6
			c-1,0-1.6-0.6-1.6-1.5C596.8,107.9,597.3,107.3,598.3,107.2L598.3,107.2z"/>
		<path fill-rule="evenodd" clip-rule="evenodd" fill="#C5C4C1" d="M836.4,232.5c-0.1,1-0.6,1.6-1.6,1.6s-1.6-0.6-1.6-1.6
			s0.6-1.6,1.6-1.6C835.8,230.9,836.3,231.5,836.4,232.5L836.4,232.5z"/>
		<path fill-rule="evenodd" clip-rule="evenodd" fill="#D2D1CF" d="M607.8,106.4c0.1-1.1,0.7-1.7,1.7-1.6c1,0,1.6,0.6,1.6,1.6
			s-0.6,1.6-1.6,1.6C608.4,108,607.9,107.4,607.8,106.4L607.8,106.4z"/>
		<path fill-rule="evenodd" clip-rule="evenodd" fill="#C3C2BF" d="M13.7,271.2c-0.9-0.1-1.5-0.5-1.6-1.4c-0.1-1,0.4-1.7,1.5-1.7
			c0.9-0.1,1.5,0.5,1.6,1.4C15.4,270.4,14.7,271,13.7,271.2L13.7,271.2z"/>
		<path fill-rule="evenodd" clip-rule="evenodd" fill="#BCBBB8" d="M249.8,50.6c0.2-1,0.7-1.6,1.8-1.5c0.9,0.1,1.4,0.7,1.4,1.6
			c0,0.9-0.5,1.5-1.5,1.5C250.5,52.2,249.9,51.6,249.8,50.6L249.8,50.6z"/>
		<path fill-rule="evenodd" clip-rule="evenodd" fill="#C0BFBC" d="M81.4,229.2c-1-0.1-1.6-0.7-1.5-1.7c0.1-0.9,0.6-1.4,1.5-1.4
			s1.5,0.5,1.5,1.4C83,228.5,82.4,229,81.4,229.2L81.4,229.2z"/>
		<path fill-rule="evenodd" clip-rule="evenodd" fill="#ECEDEC" d="M571.5,31.8c-0.2-1-0.3-2,0.6-2.7c1.2-0.8,2-0.2,2.5,0.9
			c0.4,0.9,0.2,1.7-0.6,2.4C573,33.2,572.3,32.4,571.5,31.8L571.5,31.8z"/>
		<path fill-rule="evenodd" clip-rule="evenodd" fill="#AFAEAA" d="M767.2,183c-1.1-0.1-1.6-0.7-1.6-1.7c0.1-1,0.7-1.6,1.7-1.5
			s1.6,0.6,1.6,1.7C768.9,182.5,768.2,183,767.2,183L767.2,183z"/>
		<path fill-rule="evenodd" clip-rule="evenodd" fill="#B5B4B0" d="M327.5,210.4c0.2-1,0.7-1.6,1.7-1.5c0.9,0.1,1.4,0.6,1.5,1.5
			c0.1,1.1-0.6,1.6-1.6,1.7C328.1,212.1,327.7,211.4,327.5,210.4L327.5,210.4z"/>
		<path fill-rule="evenodd" clip-rule="evenodd" fill="#B5B4B0" d="M463.2-19.1L463.2-19.1"/>
		<path fill-rule="evenodd" clip-rule="evenodd" fill="#AFAEAA" d="M722.3,82.4c-1-0.2-1.6-0.8-1.5-1.8s0.8-1.5,1.8-1.4
			c0.9,0.1,1.3,0.7,1.3,1.6C723.8,81.9,723.2,82.4,722.3,82.4L722.3,82.4z"/>
		<path fill-rule="evenodd" clip-rule="evenodd" fill="#C1C0BE" d="M669.9,159.3c-1,0-1.6-0.4-1.7-1.3c-0.1-1,0.4-1.7,1.4-1.8
			c0.9-0.1,1.5,0.4,1.6,1.3C671.3,158.6,670.7,159.1,669.9,159.3L669.9,159.3z"/>
		<path fill-rule="evenodd" clip-rule="evenodd" fill="#C1C0BE" d="M490.4,59.5c0-0.9,0.4-1.5,1.3-1.6c1-0.1,1.7,0.5,1.7,1.5
			c0,0.9-0.5,1.4-1.4,1.5C491.1,60.9,490.6,60.4,490.4,59.5L490.4,59.5z"/>
		<path fill-rule="evenodd" clip-rule="evenodd" fill="#E3E2E1" d="M446.7,131.8c0.1-0.9,0.6-1.4,1.5-1.4s1.4,0.5,1.4,1.4
			c0,1-0.6,1.6-1.6,1.5C447.2,133.3,446.7,132.7,446.7,131.8L446.7,131.8z"/>
		<path fill-rule="evenodd" clip-rule="evenodd" fill="#B4B3AF" d="M47.4,214c0.2-1,0.7-1.6,1.7-1.6c1,0.1,1.6,0.7,1.5,1.7
			c-0.1,0.9-0.7,1.4-1.5,1.4C48,215.6,47.5,214.9,47.4,214L47.4,214z"/>
		<path fill-rule="evenodd" clip-rule="evenodd" fill="#B4B3AF" d="M671.8,62.3c0.1-1,0.7-1.5,1.7-1.5s1.6,0.7,1.5,1.7
			s-0.7,1.6-1.7,1.5C672.4,63.9,671.9,63.3,671.8,62.3L671.8,62.3z"/>
		<path fill-rule="evenodd" clip-rule="evenodd" fill="#A8A6A2" d="M76.7,201.3c-1-0.1-1.5-0.7-1.5-1.7c0-0.9,0.7-1.4,1.5-1.4
			s1.4,0.5,1.5,1.4C78.3,200.7,77.7,201.2,76.7,201.3L76.7,201.3z"/>
		<path fill-rule="evenodd" clip-rule="evenodd" fill="#C6C5C2" d="M795.8,129.7c-0.8-0.2-1.4-0.7-1.4-1.6c0.1-0.9,0.6-1.5,1.5-1.4
			c1,0,1.6,0.7,1.5,1.7C797.3,129.3,796.7,129.7,795.8,129.7L795.8,129.7z"/>
		<path fill-rule="evenodd" clip-rule="evenodd" fill="#AFAEAA" d="M430.6,207.6c0.2-1.1,0.7-1.7,1.7-1.5c1,0.1,1.5,0.8,1.4,1.8
			c-0.1,0.9-0.7,1.3-1.6,1.3C431.1,209.1,430.7,208.4,430.6,207.6L430.6,207.6z"/>
		<path fill-rule="evenodd" clip-rule="evenodd" fill="#BAB9B6" d="M657.7,234c-1.1-0.2-1.6-0.8-1.6-1.8c0.1-1,0.7-1.5,1.7-1.5
			c1,0.1,1.6,0.7,1.5,1.7C659.2,233.5,658.6,234,657.7,234L657.7,234z"/>
		<path fill-rule="evenodd" clip-rule="evenodd" fill="#C2C1BE" d="M600.5,230.5c1,0.1,1.6,0.6,1.6,1.7c0,0.9-0.6,1.4-1.5,1.4
			c-0.9,0.1-1.5-0.5-1.6-1.3C599,231.3,599.5,230.7,600.5,230.5L600.5,230.5z"/>
		<path fill-rule="evenodd" clip-rule="evenodd" fill="#B4B3AF" d="M246.6,196.4c0.1-1,0.6-1.6,1.6-1.6c0.9,0,1.5,0.5,1.5,1.4
			c0.1,1-0.5,1.7-1.5,1.8C247.2,198,246.7,197.4,246.6,196.4L246.6,196.4z"/>
		<path fill-rule="evenodd" clip-rule="evenodd" fill="#ABA9A5" d="M560.8,132.3c-1.1-0.1-1.6-0.8-1.6-1.8c0.1-0.9,0.7-1.4,1.6-1.4
			c0.9,0,1.5,0.5,1.5,1.4C562.3,131.6,561.7,132.1,560.8,132.3L560.8,132.3z"/>
		<path fill-rule="evenodd" clip-rule="evenodd" fill="#ADABA8" d="M584.2,190.5c-0.9,0-1.5-0.5-1.5-1.4c-0.1-1,0.5-1.6,1.6-1.6
			c0.9,0,1.4,0.6,1.4,1.5C585.6,189.8,585.1,190.4,584.2,190.5L584.2,190.5z"/>
		<path fill-rule="evenodd" clip-rule="evenodd" fill="#B1AFAC" d="M155.9,180.1c0.1-0.8,0.5-1.4,1.4-1.5c1,0,1.6,0.6,1.6,1.6
			s-0.7,1.5-1.7,1.5C156.4,181.6,156,181,155.9,180.1L155.9,180.1z"/>
		<path fill-rule="evenodd" clip-rule="evenodd" fill="#BBBAB7" d="M811.5-5.9c0.1-1.1,0.5-1.8,1.5-1.8s1.6,0.5,1.6,1.6
			c0,0.9-0.5,1.4-1.4,1.5C812.3-4.4,811.8-5,811.5-5.9L811.5-5.9z"/>
		<path fill-rule="evenodd" clip-rule="evenodd" fill="#B2B1AD" d="M430-6.6c0.1-1.1,0.6-1.8,1.6-1.7c1,0,1.6,0.6,1.6,1.7
			c0,0.9-0.6,1.4-1.5,1.5C430.7-5,430.2-5.7,430-6.6L430-6.6z"/>
		<path fill-rule="evenodd" clip-rule="evenodd" fill="#BAB9B6" d="M94.5,30.6c0.2-1.1,0.7-1.7,1.7-1.6c1,0,1.6,0.7,1.5,1.7
			c0,1-0.7,1.6-1.7,1.5C95.1,32.1,94.6,31.5,94.5,30.6L94.5,30.6z"/>
		<path fill-rule="evenodd" clip-rule="evenodd" fill="#BAB9B6" d="M559.3,28.4c1,0.2,1.6,0.7,1.5,1.7c-0.1,0.9-0.7,1.3-1.6,1.3
			c-0.9,0-1.4-0.6-1.5-1.4C557.7,29,558.3,28.5,559.3,28.4L559.3,28.4z"/>
		<path fill-rule="evenodd" clip-rule="evenodd" fill="#B8B7B4" d="M715.3,91.6c1,0.1,1.5,0.8,1.5,1.7c0,1-0.7,1.6-1.7,1.5
			s-1.6-0.7-1.5-1.7C713.6,92.2,714.2,91.6,715.3,91.6L715.3,91.6z"/>
		<path fill-rule="evenodd" clip-rule="evenodd" fill="#BFBEBB" d="M118.6,23.4c0.2-1.1,0.7-1.6,1.7-1.6c0.9,0.1,1.4,0.7,1.3,1.5
			c0,0.8-0.5,1.4-1.4,1.5C119.2,24.9,118.8,24.2,118.6,23.4L118.6,23.4z"/>
		<path fill-rule="evenodd" clip-rule="evenodd" fill="#B4B3AF" d="M305.7,294.4c1,0.1,1.6,0.6,1.6,1.6c0,0.9-0.5,1.5-1.4,1.6
			c-1,0.1-1.7-0.4-1.8-1.4C304.1,295.1,304.7,294.5,305.7,294.4L305.7,294.4z"/>
		<path fill-rule="evenodd" clip-rule="evenodd" fill="#AFAEAA" d="M814.5,101.1c0.9,0.1,1.4,0.6,1.5,1.5s-0.4,1.5-1.3,1.6
			c-1,0.1-1.7-0.5-1.6-1.5C813.1,101.7,813.7,101.2,814.5,101.1L814.5,101.1z"/>
		<path fill-rule="evenodd" clip-rule="evenodd" fill="#A8A6A2" d="M361.5,210.6c0-0.9,0.4-1.5,1.3-1.6c1-0.1,1.7,0.5,1.7,1.5
			c0,0.8-0.5,1.4-1.4,1.5C362.2,212,361.7,211.5,361.5,210.6L361.5,210.6z"/>
		<path fill-rule="evenodd" clip-rule="evenodd" fill="#BEBDBA" d="M262.7,167.9c-0.8-0.1-1.5-0.5-1.5-1.4c0-1,0.5-1.7,1.6-1.7
			c1,0,1.6,0.7,1.5,1.7S263.6,167.8,262.7,167.9L262.7,167.9z"/>
		<path fill-rule="evenodd" clip-rule="evenodd" fill="#A7A5A1" d="M364.2,228c-0.9-0.1-1.4-0.7-1.3-1.5c0.1-0.9,0.6-1.4,1.5-1.3
			c0.9,0.1,1.4,0.6,1.4,1.5C365.7,227.5,365.1,228,364.2,228L364.2,228z"/>
		<path fill-rule="evenodd" clip-rule="evenodd" fill="#BDBCB9" d="M755.2,173.3c0.1-0.8,0.5-1.5,1.5-1.5s1.6,0.6,1.5,1.6
			c-0.1,0.9-0.7,1.4-1.6,1.3C755.7,174.8,755.3,174.2,755.2,173.3L755.2,173.3z"/>
		<path fill-rule="evenodd" clip-rule="evenodd" fill="#9B9995" d="M531.2,37.7c0.1-0.8,0.6-1.4,1.5-1.3c0.9,0.1,1.4,0.6,1.4,1.5
			c-0.1,0.9-0.7,1.4-1.6,1.4C531.6,39.2,531.2,38.6,531.2,37.7L531.2,37.7z"/>
		<path fill-rule="evenodd" clip-rule="evenodd" fill="#BCBBB8" d="M174.6,0.8c-0.1,0.8-0.5,1.4-1.4,1.5c-0.9,0-1.5-0.5-1.5-1.3
			c-0.1-1,0.5-1.6,1.5-1.6C174-0.6,174.5,0,174.6,0.8L174.6,0.8z"/>
		<path fill-rule="evenodd" clip-rule="evenodd" fill="#CBCAC7" d="M179.9,288.3c-1,0-1.6-0.4-1.7-1.3c-0.1-0.9,0.3-1.5,1.2-1.6
			c1-0.2,1.7,0.4,1.7,1.4C181.1,287.6,180.5,288.1,179.9,288.3L179.9,288.3z"/>
		<path fill-rule="evenodd" clip-rule="evenodd" fill="#BAB9B6" d="M462.3,86.7c0.1-0.9,0.7-1.4,1.5-1.4c1,0,1.5,0.7,1.4,1.7
			c-0.1,0.8-0.7,1.3-1.6,1.2C462.8,88.1,462.3,87.6,462.3,86.7L462.3,86.7z"/>
		<path fill-rule="evenodd" clip-rule="evenodd" fill="#BCBBB8" d="M175.2,186.8c0.1-0.9,0.6-1.5,1.5-1.5c1,0,1.6,0.7,1.5,1.7
			c-0.1,0.9-0.7,1.4-1.6,1.3C175.6,188.3,175.2,187.7,175.2,186.8L175.2,186.8z"/>
		<path fill-rule="evenodd" clip-rule="evenodd" fill="#A6A4A0" d="M595.8,289.2c0.1-1,0.6-1.4,1.5-1.4s1.4,0.5,1.4,1.5
			c0,0.9-0.6,1.4-1.5,1.4C596.4,290.7,596,290,595.8,289.2L595.8,289.2z"/>
		<path fill-rule="evenodd" clip-rule="evenodd" fill="#BDBCB9" d="M236.6,101.4c0.9,0.1,1.6,0.6,1.6,1.5c0,1-0.6,1.6-1.6,1.6
			s-1.5-0.7-1.5-1.7C235.3,101.9,235.9,101.5,236.6,101.4L236.6,101.4z"/>
		<path fill-rule="evenodd" clip-rule="evenodd" fill="#888783" d="M0.6,223.3c-0.9-0.2-1.4-0.6-1.4-1.6c0.1-0.9,0.6-1.4,1.5-1.4
			c0.9,0.1,1.4,0.6,1.4,1.5C2.1,222.9,1.5,223.3,0.6,223.3L0.6,223.3z"/>
		<path fill-rule="evenodd" clip-rule="evenodd" fill="#A4A29E" d="M709.4,126.4c0-1,0.4-1.6,1.3-1.7c0.9-0.1,1.5,0.4,1.6,1.3
			s-0.5,1.5-1.3,1.6C710.1,127.8,709.6,127.1,709.4,126.4L709.4,126.4z"/>
		<path fill-rule="evenodd" clip-rule="evenodd" fill="#BAB9B6" d="M113.1,174.8c-1.2-0.1-1.8-0.6-1.8-1.6c0-0.9,0.6-1.4,1.4-1.5
			c0.9-0.1,1.5,0.4,1.6,1.3C114.5,174,113.9,174.6,113.1,174.8L113.1,174.8z"/>
		<path fill-rule="evenodd" clip-rule="evenodd" fill="#BEBDBA" d="M490,202.8c-0.9-0.1-1.6-0.4-1.6-1.4s0.5-1.7,1.6-1.6
			c0.9,0,1.4,0.6,1.4,1.5C491.3,202.2,490.7,202.6,490,202.8L490,202.8z"/>
		<path fill-rule="evenodd" clip-rule="evenodd" fill="#DCDCDA" d="M70.9,190.3c0.2-0.9,0.7-1.4,1.6-1.3c0.9,0.1,1.4,0.6,1.3,1.5
			s-0.7,1.4-1.5,1.3C71.3,191.8,70.9,191.1,70.9,190.3L70.9,190.3z"/>
		<path fill-rule="evenodd" clip-rule="evenodd" fill="#B2B1AD" d="M769.1,204.9c-0.9,0-1.5-0.5-1.5-1.4s0.4-1.5,1.3-1.5
			c0.9,0,1.5,0.5,1.6,1.4C770.5,204.2,770,204.7,769.1,204.9L769.1,204.9z"/>
		<path fill-rule="evenodd" clip-rule="evenodd" fill="#B2B1AD" d="M47,134.5c0.2-0.9,0.7-1.4,1.6-1.3c0.9,0.1,1.4,0.7,1.3,1.6
			c-0.1,0.9-0.7,1.4-1.6,1.3C47.4,135.9,47,135.4,47,134.5L47,134.5z"/>
		<path fill-rule="evenodd" clip-rule="evenodd" fill="#B1AFAC" d="M440.3,32.5c0.9,0.1,1.5,0.6,1.5,1.5s-0.6,1.4-1.5,1.4
			s-1.4-0.6-1.4-1.4C438.9,33.1,439.5,32.6,440.3,32.5L440.3,32.5z"/>
		<path fill-rule="evenodd" clip-rule="evenodd" fill="#B5B4B0" d="M92.3,176.3c0.1-0.9,0.6-1.4,1.4-1.4c1,0,1.6,0.6,1.5,1.6
			c-0.1,0.9-0.7,1.3-1.5,1.3C92.8,177.7,92.3,177.2,92.3,176.3L92.3,176.3z"/>
		<path fill-rule="evenodd" clip-rule="evenodd" fill="#9F9D99" d="M463.4,137.5c0.1-0.9,0.5-1.5,1.4-1.5s1.5,0.5,1.5,1.4
			s-0.5,1.5-1.4,1.5C464.1,139,463.6,138.4,463.4,137.5L463.4,137.5z"/>
		<path fill-rule="evenodd" clip-rule="evenodd" fill="#AAA8A4" d="M817.7,260c0.3-0.9,0.9-1.3,1.8-1.1c0.7,0.2,1.2,0.7,1.1,1.5
			c-0.1,0.9-0.7,1.4-1.6,1.3C818,261.6,817.7,260.9,817.7,260L817.7,260z"/>
		<path fill-rule="evenodd" clip-rule="evenodd" fill="#9E9C98" d="M339,190.8c1,0,1.6,0.5,1.6,1.4c0.1,0.9-0.4,1.4-1.3,1.5
			s-1.4-0.4-1.5-1.3C337.8,191.4,338.4,191,339,190.8L339,190.8z"/>
		<path fill-rule="evenodd" clip-rule="evenodd" fill="#969490" d="M486.2,207c0.1-0.9,0.6-1.4,1.6-1.4c0.8,0.1,1.2,0.6,1.2,1.4
			c0,0.9-0.6,1.4-1.5,1.3C486.6,208.2,486.3,207.7,486.2,207L486.2,207z"/>
		<path fill-rule="evenodd" clip-rule="evenodd" fill="#A19F9B" d="M230.6,202.3c0.1-0.9,0.6-1.4,1.5-1.4s1.4,0.6,1.4,1.4
			c0,0.9-0.5,1.4-1.4,1.4C231.2,203.7,230.7,203.1,230.6,202.3L230.6,202.3z"/>
		<path fill-rule="evenodd" clip-rule="evenodd" fill="#AAA8A4" d="M219.6,184.8c0.1-0.9,0.6-1.4,1.5-1.4s1.4,0.6,1.4,1.5
			s-0.6,1.5-1.5,1.4C220.2,186.3,219.7,185.7,219.6,184.8L219.6,184.8z"/>
		<path fill-rule="evenodd" clip-rule="evenodd" fill="#706E6B" d="M31.4,157c0.1-0.7,0.4-1.3,1.2-1.3c0.9,0,1.5,0.4,1.5,1.3
			c0,0.9-0.6,1.4-1.5,1.3C31.8,158.3,31.5,157.7,31.4,157L31.4,157z"/>
		<path fill-rule="evenodd" clip-rule="evenodd" fill="#868581" d="M550.9,142.2c-0.8-0.2-1.4-0.6-1.4-1.5c0.1-0.9,0.7-1.3,1.5-1.3
			c0.8,0.1,1.2,0.6,1.2,1.3C552.3,141.6,551.8,142.1,550.9,142.2L550.9,142.2z"/>
		<path fill-rule="evenodd" clip-rule="evenodd" fill="#333130" d="M655.1,133.4c-1.4-0.3-3.1-0.9-3.4,1.3c-0.4,2.1,1.4,2.1,2.8,2.3
			c-1.5,1.3-2.5,0.4-3.3-0.8c-0.7-1.2-0.5-2.5,0.7-3.3C653.1,132,654.2,132,655.1,133.4L655.1,133.4z"/>
		<path fill-rule="evenodd" clip-rule="evenodd" fill="#93918D" d="M127.8,123.1c0.1-0.9,0.7-1.4,1.6-1.3c0.7,0.1,1.3,0.5,1.2,1.3
			c0,0.9-0.5,1.5-1.4,1.5C128.3,124.6,127.9,124,127.8,123.1L127.8,123.1z"/>
		<path fill-rule="evenodd" clip-rule="evenodd" fill="#787774" d="M861,94.1c0.8,0.1,1.3,0.4,1.3,1.2c0.1,0.9-0.4,1.5-1.3,1.5
			c-0.7,0-1.3-0.4-1.4-1.2C859.5,94.7,860.1,94.3,861,94.1L861,94.1z"/>
		<path fill-rule="evenodd" clip-rule="evenodd" fill="#73716F" d="M750.8,71.4c0,0.9-0.5,1.5-1.3,1.5c-0.7,0-1.2-0.5-1.3-1.2
			c-0.1-0.9,0.5-1.4,1.3-1.5C750.1,70.2,750.6,70.6,750.8,71.4L750.8,71.4z"/>
		<path fill-rule="evenodd" clip-rule="evenodd" fill="#A09E9A" d="M142.3,47.6c0.1-0.8,0.7-1.3,1.6-1.3c0.7,0.1,1.2,0.5,1.2,1.3
			c0,0.9-0.5,1.5-1.4,1.5C142.8,49.1,142.4,48.5,142.3,47.6L142.3,47.6z"/>
		<path fill-rule="evenodd" clip-rule="evenodd" fill="#95938F" d="M363.7,36.1c0.9,0.1,1.5,0.6,1.4,1.4c0,0.9-0.6,1.4-1.5,1.3
			c-0.8,0-1.2-0.5-1.3-1.3C362.3,36.7,362.8,36.2,363.7,36.1L363.7,36.1z"/>
		<path fill-rule="evenodd" clip-rule="evenodd" fill="#B5B4B0" d="M732.8-1.6c0.1-0.9,0.6-1.5,1.4-1.5c0.8,0,1.5,0.4,1.5,1.3
			c0.1,1-0.5,1.6-1.5,1.6C733.4-0.2,733-0.8,732.8-1.6L732.8-1.6z"/>
		<path fill-rule="evenodd" clip-rule="evenodd" fill="#898884" d="M75.9,193.5c0.1-0.7,0.6-1.3,1.3-1.2c0.9,0,1.4,0.6,1.4,1.5
			c-0.1,0.9-0.7,1.3-1.6,1.2C76.2,194.8,75.9,194.3,75.9,193.5L75.9,193.5z"/>
		<path fill-rule="evenodd" clip-rule="evenodd" fill="#BBBAB7" d="M506.2,152.2c0.2-0.9,0.8-1.4,1.7-1.3c1,0.1,1.5,0.8,1.4,1.8
			c-0.1,0.9-0.7,1.3-1.6,1.2C506.5,153.8,506.1,153.2,506.2,152.2L506.2,152.2z"/>
		<path fill-rule="evenodd" clip-rule="evenodd" fill="#A7A5A1" d="M521.7,116.6c0.8,0.1,1.5,0.6,1.4,1.5c0,0.9-0.6,1.4-1.5,1.4
			s-1.4-0.6-1.4-1.5C520.2,117.2,520.8,116.7,521.7,116.6L521.7,116.6z"/>
		<path fill-rule="evenodd" clip-rule="evenodd" fill="#797875" d="M382.2,280.7c0.2-0.9,0.6-1.4,1.4-1.3c0.9,0,1.4,0.5,1.3,1.5
			c-0.1,0.9-0.7,1.3-1.6,1.2C382.5,281.9,382.2,281.3,382.2,280.7L382.2,280.7z"/>
		<path fill-rule="evenodd" clip-rule="evenodd" fill="#A5A39F" d="M491.2,279.2c-0.9-0.2-1.4-0.6-1.4-1.5c0-1,0.7-1.5,1.7-1.4
			c0.9,0.1,1.3,0.7,1.2,1.6C492.6,278.7,492,279.1,491.2,279.2L491.2,279.2z"/>
		<path fill-rule="evenodd" clip-rule="evenodd" fill="#A8A6A2" d="M164.5,269.5c0.1-0.9,0.7-1.4,1.5-1.3c0.9,0,1.4,0.6,1.3,1.5
			c0,0.9-0.6,1.4-1.5,1.4C165,271,164.5,270.4,164.5,269.5L164.5,269.5z"/>
		<path fill-rule="evenodd" clip-rule="evenodd" fill="#DCDCDA" d="M140.2,86.6c0-0.9,0.5-1.5,1.4-1.5c0.8,0,1.3,0.4,1.4,1.2
			c0.1,0.9-0.3,1.5-1.2,1.7C140.9,88,140.4,87.5,140.2,86.6L140.2,86.6z"/>
		<path fill-rule="evenodd" clip-rule="evenodd" fill="#787774" d="M571.5,31.8c1.1,0.3,2.4,1,2.8-0.7c0.5-1.8-0.9-2-2.2-2.1
			c1.3-1.5,2.2-0.5,2.9,0.6c0.7,1,0.4,2.1-0.6,2.8C573.3,33.2,572.1,33.7,571.5,31.8L571.5,31.8z"/>
		<path fill-rule="evenodd" clip-rule="evenodd" fill="#72706D" d="M97.9,208.2c0.1-0.9,0.6-1.5,1.5-1.4s1.4,0.6,1.4,1.5
			c-0.1,0.8-0.6,1.2-1.3,1.3C98.5,209.6,98,209.1,97.9,208.2L97.9,208.2z"/>
		<path fill-rule="evenodd" clip-rule="evenodd" fill="#ACAAA6" d="M542.7,25.8c0.1-0.9,0.6-1.4,1.5-1.4s1.4,0.6,1.3,1.5
			c0,0.7-0.5,1.2-1.3,1.3C543.2,27.2,542.8,26.7,542.7,25.8L542.7,25.8z"/>
		<path fill-rule="evenodd" clip-rule="evenodd" fill="#DBDBD9" d="M23.5,169.8c1.1,0,1.7,0.5,1.7,1.4s-0.5,1.4-1.4,1.4
			c-0.8,0-1.3-0.4-1.4-1.2C22.3,170.4,22.9,170,23.5,169.8L23.5,169.8z"/>
		<path fill-rule="evenodd" clip-rule="evenodd" fill="#E3E2E1" d="M136.5,196.2c0.9,0.1,1.5,0.5,1.4,1.4c0,0.9-0.6,1.4-1.5,1.3
			c-0.8,0-1.2-0.6-1.2-1.3C135.1,196.8,135.6,196.3,136.5,196.2L136.5,196.2z"/>
		<path fill-rule="evenodd" clip-rule="evenodd" fill="#9B9995" d="M91.4,126.9c0-0.9,0.5-1.4,1.3-1.5s1.3,0.4,1.4,1.1
			c0.2,0.9-0.3,1.5-1.1,1.6C92.1,128.3,91.6,127.7,91.4,126.9L91.4,126.9z"/>
		<path fill-rule="evenodd" clip-rule="evenodd" fill="#BEBDBA" d="M522.8,159.4c1.1,0,1.7,0.5,1.7,1.4c0,0.8-0.5,1.2-1.2,1.3
			c-0.9,0.1-1.5-0.4-1.5-1.4C521.8,160,522.3,159.6,522.8,159.4L522.8,159.4z"/>
		<path fill-rule="evenodd" clip-rule="evenodd" fill="#D2D1CF" d="M851.7,153.2c0.1-0.9,0.6-1.4,1.5-1.3c0.8,0,1.3,0.5,1.3,1.3
			c0,0.9-0.5,1.5-1.4,1.5C852.3,154.7,851.8,154.1,851.7,153.2L851.7,153.2z"/>
		<path fill-rule="evenodd" clip-rule="evenodd" fill="#989692" d="M451.4,5.3c-0.9,0-1.4-0.5-1.5-1.3c0-0.9,0.4-1.5,1.3-1.5
			s1.4,0.5,1.5,1.3C452.8,4.7,452.2,5.1,451.4,5.3L451.4,5.3z"/>
		<path fill-rule="evenodd" clip-rule="evenodd" fill="#A3A19D" d="M736.8,271.9c0.9,0.1,1.4,0.6,1.4,1.5c0,0.8-0.4,1.3-1.2,1.3
			c-0.9,0.1-1.5-0.3-1.6-1.2C735.4,272.5,735.9,272,736.8,271.9L736.8,271.9z"/>
		<path fill-rule="evenodd" clip-rule="evenodd" fill="#858480" d="M404.9,146.3c0.2-1,0.7-1.5,1.6-1.5c0.8,0.1,1.2,0.6,1.2,1.4
			c0,0.9-0.6,1.4-1.5,1.3C405.4,147.4,405.1,146.9,404.9,146.3L404.9,146.3z"/>
		<path fill-rule="evenodd" clip-rule="evenodd" fill="#A4A29E" d="M69.8,230.7c-0.1,0.9-0.6,1.4-1.5,1.4c-0.7-0.1-1.3-0.5-1.3-1.3
			c-0.1-0.9,0.5-1.5,1.4-1.5C69.3,229.2,69.7,229.8,69.8,230.7L69.8,230.7z"/>
		<path fill-rule="evenodd" clip-rule="evenodd" fill="#A6A4A0" d="M830,296.9c0.1-0.9,0.6-1.4,1.5-1.4c0.8,0,1.3,0.5,1.3,1.2
			c0.1,0.9-0.3,1.5-1.3,1.6C830.7,298.3,830.2,297.7,830,296.9L830,296.9z"/>
		<path fill-rule="evenodd" clip-rule="evenodd" fill="#E2E1E0" d="M114.8,203.9c0-0.9,0.4-1.5,1.3-1.6s1.5,0.4,1.6,1.3
			c0.1,0.9-0.4,1.4-1.3,1.5S115,204.7,114.8,203.9L114.8,203.9z"/>
		<path fill-rule="evenodd" clip-rule="evenodd" fill="#C1C0BE" d="M850.4,65.9c0.1-0.9,0.5-1.5,1.4-1.5c0.9-0.1,1.4,0.5,1.5,1.4
			s-0.5,1.5-1.3,1.5C851.1,67.3,850.6,66.7,850.4,65.9L850.4,65.9z"/>
		<path fill-rule="evenodd" clip-rule="evenodd" fill="#E0DFDE" d="M769.1,84.1c0.1-0.9,0.6-1.4,1.5-1.4s1.3,0.7,1.3,1.5
			c-0.1,0.8-0.5,1.2-1.3,1.2C769.7,85.5,769.2,85,769.1,84.1L769.1,84.1z"/>
		<path fill-rule="evenodd" clip-rule="evenodd" fill="#9A9894" d="M838.5,114.4c-0.9-0.1-1.5-0.5-1.4-1.4c0-0.9,0.6-1.4,1.5-1.3
			c0.8,0,1.2,0.6,1.2,1.3C839.9,113.8,839.4,114.3,838.5,114.4L838.5,114.4z"/>
		<path fill-rule="evenodd" clip-rule="evenodd" fill="#D3D2D0" d="M498.7,69c0.1-0.9,0.6-1.3,1.5-1.3c0.8,0.1,1.2,0.5,1.3,1.3
			c0,0.9-0.5,1.5-1.4,1.5S498.7,69.9,498.7,69L498.7,69z"/>
		<path fill-rule="evenodd" clip-rule="evenodd" fill="#989692" d="M328.6,39.3c0.9,0.2,1.4,0.6,1.3,1.6c-0.1,0.7-0.5,1.2-1.3,1.2
			c-0.9,0-1.4-0.5-1.4-1.4C327.2,39.7,327.8,39.3,328.6,39.3L328.6,39.3z"/>
		<path fill-rule="evenodd" clip-rule="evenodd" fill="#898884" d="M376.9,228c-0.8-0.1-1.2-0.5-1.3-1.3c-0.1-0.9,0.4-1.5,1.3-1.5
			c0.7,0,1.3,0.5,1.3,1.2C378.4,227.4,377.8,227.8,376.9,228L376.9,228z"/>
		<path fill-rule="evenodd" clip-rule="evenodd" fill="#908F8B" d="M25.4,115.5c-0.7-0.1-1.3-0.5-1.2-1.3c0-0.9,0.6-1.4,1.5-1.3
			c0.8,0.1,1.1,0.7,1.1,1.4C26.7,115.1,26.1,115.5,25.4,115.5L25.4,115.5z"/>
		<path fill-rule="evenodd" clip-rule="evenodd" fill="#5B5A58" d="M326.6,232.6c0.2-0.7,0.6-1.2,1.4-1.2s1.2,0.6,1.1,1.3
			c0,0.8-0.5,1.2-1.3,1.2C327.1,233.8,326.6,233.4,326.6,232.6L326.6,232.6z"/>
		<path fill-rule="evenodd" clip-rule="evenodd" fill="#80807D" d="M802.7,233.4c0.8,0.1,1.4,0.5,1.4,1.3c-0.1,0.9-0.6,1.4-1.6,1.3
			c-0.8-0.1-1.1-0.7-1.1-1.4C801.5,233.8,802,233.5,802.7,233.4L802.7,233.4z"/>
		<path fill-rule="evenodd" clip-rule="evenodd" fill="#80807D" d="M10.5,277.9c0.2-0.7,0.6-1.2,1.4-1.2c0.9,0,1.3,0.7,1.2,1.5
			c-0.1,0.7-0.6,1.2-1.4,1C10.9,279.1,10.4,278.7,10.5,277.9L10.5,277.9z"/>
		<path fill-rule="evenodd" clip-rule="evenodd" fill="#989692" d="M184.7,283.5c0-1,0.3-1.6,1.1-1.7c0.9-0.2,1.5,0.3,1.6,1.2
			c0.1,0.8-0.3,1.3-1.1,1.4C185.3,284.6,184.9,284,184.7,283.5L184.7,283.5z"/>
		<path fill-rule="evenodd" clip-rule="evenodd" fill="#72706D" d="M192.9,76.2c0.9,0.2,1.5,0.7,1.4,1.6c-0.1,0.8-0.6,1.2-1.4,1.1
			c-0.9-0.1-1.4-0.6-1.3-1.5C191.8,76.7,192.3,76.3,192.9,76.2L192.9,76.2z"/>
		<path fill-rule="evenodd" clip-rule="evenodd" fill="#6B6A67" d="M91.7,168.1c0.1-0.7,0.3-1.3,1.1-1.4c0.9,0,1.4,0.5,1.5,1.4
			c0,0.8-0.6,1.2-1.3,1.2C92.3,169.3,91.8,168.8,91.7,168.1L91.7,168.1z"/>
		<path fill-rule="evenodd" clip-rule="evenodd" fill="#838280" d="M711.1,150.2c0.8,0.1,1.4,0.5,1.4,1.5c-0.1,0.7-0.5,1.3-1.3,1.2
			c-0.9,0-1.4-0.6-1.4-1.5C709.8,150.7,710.4,150.3,711.1,150.2L711.1,150.2z"/>
		<path fill-rule="evenodd" clip-rule="evenodd" fill="#656461" d="M818-4.6c0.7,0.1,1.2,0.6,1.2,1.3s-0.4,1.3-1.3,1.2
			c-0.7-0.1-1.2-0.6-1.2-1.3C816.7-4.2,817.3-4.5,818-4.6L818-4.6z"/>
		<path fill-rule="evenodd" clip-rule="evenodd" fill="#535250" d="M339.3,169.8c0-0.8,0.4-1.3,1.2-1.4c0.7-0.1,1.4,0.3,1.4,1.1
			s-0.5,1.3-1.2,1.4C339.7,171.1,339.4,170.5,339.3,169.8L339.3,169.8z"/>
		<path fill-rule="evenodd" clip-rule="evenodd" fill="#94928E" d="M644.9,75.7c0.1-0.7,0.5-1.3,1.3-1.2c0.9,0,1.4,0.6,1.4,1.5
			c0,0.8-0.6,1.2-1.3,1.2C645.4,77.2,644.9,76.7,644.9,75.7L644.9,75.7z"/>
		<path fill-rule="evenodd" clip-rule="evenodd" fill="#5B5A58" d="M724.3,36.6c0.8,0,1.4,0.3,1.4,1.2c0,0.8-0.5,1.3-1.2,1.4
			c-0.8,0.1-1.3-0.4-1.3-1.2C723,37.2,723.5,36.8,724.3,36.6L724.3,36.6z"/>
		<path fill-rule="evenodd" clip-rule="evenodd" fill="#F1F2F2" d="M809,181.6c0.1,2.1-0.4,2.3-2.9,1.2
			C806.2,180.6,806.8,180.4,809,181.6L809,181.6z"/>
		<path fill-rule="evenodd" clip-rule="evenodd" fill="#B6B5B1" d="M561.6,183.3c0.1-0.9,0.7-1.3,1.6-1.2c0.7,0.1,1.2,0.5,1.2,1.3
			c0,0.9-0.6,1.5-1.4,1.5C562.2,184.9,561.7,184.3,561.6,183.3L561.6,183.3z"/>
		<path fill-rule="evenodd" clip-rule="evenodd" fill="#676663" d="M427.5,121.5c0.9,0.1,1.5,0.6,1.5,1.4s-0.6,1.2-1.3,1.2
			c-0.8,0-1.2-0.5-1.3-1.2C426.3,122.1,426.7,121.6,427.5,121.5L427.5,121.5z"/>
		<path fill-rule="evenodd" clip-rule="evenodd" fill="#8F8D8A" d="M221.7,31.1c0.1-0.8,0.4-1.3,1.2-1.4c0.9-0.1,1.5,0.4,1.5,1.3
			c0,0.7-0.4,1.3-1.2,1.4C222.3,32.5,221.9,31.9,221.7,31.1L221.7,31.1z"/>
		<path fill-rule="evenodd" clip-rule="evenodd" fill="#CDCCCA" d="M174.5,196.1c0.2-0.9,0.7-1.3,1.6-1.3c0.8,0.1,1.2,0.6,1.2,1.3
			c0,0.9-0.5,1.4-1.4,1.4C175,197.6,174.5,197,174.5,196.1L174.5,196.1z"/>
		<path fill-rule="evenodd" clip-rule="evenodd" fill="#C0BFBC" d="M528.8-12.3c0.1-0.8,0.5-1.2,1.3-1.3c0.9,0,1.4,0.5,1.4,1.4
			c0,0.8-0.5,1.2-1.2,1.3C529.3-10.8,528.9-11.4,528.8-12.3L528.8-12.3z"/>
		<path fill-rule="evenodd" clip-rule="evenodd" fill="#777673" d="M615.3,299.4c0-0.8,0.3-1.3,1.1-1.4c1-0.1,1.5,0.4,1.5,1.3
			c0,0.8-0.4,1.3-1.2,1.3C616,300.6,615.5,300.1,615.3,299.4L615.3,299.4z"/>
		<path fill-rule="evenodd" clip-rule="evenodd" fill="#DFDFDD" d="M159.5,89.5c0.1-0.8,0.4-1.3,1.2-1.4c0.9-0.1,1.5,0.4,1.5,1.3
			c0,0.8-0.4,1.3-1.2,1.4C160.1,90.9,159.6,90.3,159.5,89.5L159.5,89.5z"/>
		<path fill-rule="evenodd" clip-rule="evenodd" fill="#757471" d="M894.9,60.4c-0.6,1.7-1.8,1.5-2.9,0.6c-1-0.8-0.9-2,0-2.7
			c1.1-0.9,2.3-1,2.9,0.7c-0.2,0.5-1.2,0.1-1.2,0.8C893.8,60.1,894.6,60,894.9,60.4L894.9,60.4z"/>
		<path fill-rule="evenodd" clip-rule="evenodd" fill="#8B8A86" d="M388.2,179.6c0.1-0.9,0.6-1.4,1.5-1.3c0.8,0.1,1.2,0.6,1.2,1.4
			c0,0.9-0.6,1.4-1.5,1.3C388.7,180.8,388.3,180.3,388.2,179.6L388.2,179.6z"/>
		<path fill-rule="evenodd" clip-rule="evenodd" fill="#757471" d="M490,133.1c0-0.7,0.4-1.2,1.2-1.3c0.8-0.1,1.4,0.3,1.5,1.1
			c0.1,0.9-0.4,1.5-1.3,1.5C490.6,134.3,490.1,133.9,490,133.1L490,133.1z"/>
		<path fill-rule="evenodd" clip-rule="evenodd" fill="#A5A39F" d="M34.7,82.3c0.1-0.8,0.5-1.3,1.2-1.3c0.9,0,1.4,0.6,1.3,1.5
			c-0.1,0.8-0.6,1.2-1.4,1.2C35.2,83.6,34.8,83.1,34.7,82.3L34.7,82.3z"/>
		<path fill-rule="evenodd" clip-rule="evenodd" fill="#EEEEEE" d="M894.9,60.4c-0.8,0.1-1.7,1.1-2.5,0.1c-0.4-0.5-0.4-1,0-1.5
			c0.9-1,1.7,0,2.5,0.1C895.5,59.5,895.6,60,894.9,60.4L894.9,60.4z"/>
		<path fill-rule="evenodd" clip-rule="evenodd" fill="#595856" d="M805.1,85.8c0.1-0.8,0.6-1.2,1.3-1.2s1.3,0.4,1.3,1.2
			c0,0.9-0.7,1.3-1.5,1.3C805.5,87.1,805.1,86.6,805.1,85.8L805.1,85.8z"/>
		<path fill-rule="evenodd" clip-rule="evenodd" fill="#878682" d="M540.1,208.3c0-0.9,0.4-1.4,1.1-1.5c0.9-0.1,1.4,0.5,1.4,1.3
			s-0.6,1.2-1.3,1.2C540.5,209.4,540.2,208.8,540.1,208.3L540.1,208.3z"/>
		<path fill-rule="evenodd" clip-rule="evenodd" fill="#73716F" d="M267.6,89.4c0.9,0,1.4,0.5,1.4,1.3s-0.4,1.3-1.1,1.4
			c-0.9,0.1-1.4-0.5-1.4-1.4C266.5,89.9,267,89.6,267.6,89.4L267.6,89.4z"/>
		<path fill-rule="evenodd" clip-rule="evenodd" fill="#777673" d="M56.3,24c0.8,0,1.2,0.4,1.3,1.2c0.1,0.8-0.3,1.3-1.1,1.4
			s-1.3-0.4-1.3-1.1C55.1,24.6,55.5,24.2,56.3,24L56.3,24z"/>
		<path fill-rule="evenodd" clip-rule="evenodd" fill="#838280" d="M574,175.2c0.8,0.1,1.4,0.5,1.4,1.3c0,0.9-0.5,1.5-1.5,1.4
			c-0.8-0.1-1.2-0.6-1.2-1.4C572.7,175.6,573.3,175.3,574,175.2L574,175.2z"/>
		<path fill-rule="evenodd" clip-rule="evenodd" fill="#52514F" d="M311.3,202.8c0.8,0.1,1.2,0.6,1.2,1.3c0,0.6-0.2,1.2-0.9,1.2
			c-0.8,0.1-1.3-0.4-1.4-1.1C310.1,203.5,310.5,203,311.3,202.8L311.3,202.8z"/>
		<path fill-rule="evenodd" clip-rule="evenodd" fill="#575654" d="M630.9,309.6L630.9,309.6c0-0.8,0.5-1.3,1.2-1.4
			c0.8-0.1,1.3,0.2,1.4,1"/>
		<path fill-rule="evenodd" clip-rule="evenodd" fill="#706E6B" d="M133.2,147.4c0.7,0,1.3,0.3,1.4,1.1c0.1,0.9-0.4,1.5-1.3,1.5
			c-0.7,0-1.2-0.6-1.3-1.3C131.9,147.9,132.5,147.6,133.2,147.4L133.2,147.4z"/>
		<path fill-rule="evenodd" clip-rule="evenodd" fill="#605E5C" d="M251.1,271.6c0.8,0.1,1.3,0.5,1.3,1.3c-0.1,0.8-0.6,1.2-1.4,1.1
			c-0.6-0.1-1.1-0.5-1.1-1.1C249.9,272.1,250.4,271.7,251.1,271.6L251.1,271.6z"/>
		<path fill-rule="evenodd" clip-rule="evenodd" fill="#7E7C79" d="M406.9,290.8c0.1-0.8,0.6-1.2,1.4-1.1s1.2,0.7,1,1.5
			c-0.1,0.6-0.6,1-1.2,1C407.3,292,407,291.5,406.9,290.8L406.9,290.8z"/>
		<path fill-rule="evenodd" clip-rule="evenodd" fill="#676663" d="M746.2,219c0-0.9,0.4-1.3,1.2-1.3s1.2,0.5,1.2,1.3
			c0,0.6-0.4,1-1.1,1.1C746.7,220.1,746.3,219.7,746.2,219L746.2,219z"/>
		<path fill-rule="evenodd" clip-rule="evenodd" fill="#646260" d="M197.9,177.6c-0.8,0-1.3-0.3-1.4-1.1c0-0.8,0.5-1.2,1.2-1.3
			c0.7,0,1.1,0.4,1.2,1C199.1,177,198.6,177.4,197.9,177.6L197.9,177.6z"/>
		<path fill-rule="evenodd" clip-rule="evenodd" fill="#9D9B97" d="M397.1,155.5c0.2-0.8,0.6-1.2,1.4-1.2c0.8,0.1,1.2,0.6,1.1,1.4
			c-0.1,0.8-0.6,1.2-1.4,1.2C397.5,156.8,397.1,156.3,397.1,155.5L397.1,155.5z"/>
		<path fill-rule="evenodd" clip-rule="evenodd" fill="#888783" d="M196.8,270c0.1-1,0.5-1.4,1.3-1.4s1.2,0.5,1.2,1.3
			s-0.5,1.2-1.3,1.2S196.9,270.5,196.8,270L196.8,270z"/>
		<path fill-rule="evenodd" clip-rule="evenodd" fill="#A19F9B" d="M368.2,137.7c-0.8-0.1-1.3-0.5-1.2-1.3c0-0.8,0.5-1.3,1.3-1.2
			c0.8,0,1.3,0.5,1.2,1.3C369.4,137.3,368.9,137.7,368.2,137.7L368.2,137.7z"/>
		<path fill-rule="evenodd" clip-rule="evenodd" fill="#898884" d="M901.9,295.4c0.8,0.1,1.2,0.5,1.2,1.3s-0.5,1.2-1.3,1.2
			s-1.2-0.5-1.2-1.3C900.7,295.9,901.2,295.5,901.9,295.4L901.9,295.4z"/>
		<path fill-rule="evenodd" clip-rule="evenodd" fill="#676663" d="M402.8,191.6c-0.8-0.1-1.2-0.5-1.2-1.3s0.5-1.3,1.3-1.2
			c0.6,0,1,0.5,1.1,1.1C404,191,403.6,191.5,402.8,191.6L402.8,191.6z"/>
		<path fill-rule="evenodd" clip-rule="evenodd" fill="#6C6B68" d="M558.9,200.8c-0.7-0.1-1.3-0.5-1.2-1.3s0.6-1.2,1.4-1.1
			c0.7,0.1,1.1,0.5,1.1,1.1C560.2,200.4,559.6,200.7,558.9,200.8L558.9,200.8z"/>
		<path fill-rule="evenodd" clip-rule="evenodd" fill="#585755" d="M331.2,94.1c0-0.7,0.3-1.1,1-1.2c0.8-0.1,1.3,0.2,1.5,1
			c0.1,0.7-0.3,1.1-1,1.2C331.9,95.2,331.4,94.8,331.2,94.1L331.2,94.1z"/>
		<path fill-rule="evenodd" clip-rule="evenodd" fill="#5A5957" d="M348,231.4c-0.9-0.1-1.4-0.5-1.3-1.3c0-0.7,0.5-1.3,1.3-1.2
			c0.7,0,1,0.5,1.1,1.1C349.1,230.8,348.6,231.2,348,231.4L348,231.4z"/>
		<path fill-rule="evenodd" clip-rule="evenodd" fill="#A9A7A3" d="M548.1,50.9c0.1-0.8,0.5-1.2,1.3-1.2c0.9,0,1.4,0.6,1.3,1.5
			c-0.1,0.7-0.7,1.2-1.4,1.1C548.4,52.2,548.1,51.7,548.1,50.9L548.1,50.9z"/>
		<path fill-rule="evenodd" clip-rule="evenodd" fill="#A4A29E" d="M420.9-10.9c-0.8-0.1-1.2-0.5-1.2-1.3c0-0.9,0.6-1.4,1.5-1.3
			c0.7,0.1,1.1,0.6,1.1,1.4C422.2-11.4,421.7-11,420.9-10.9L420.9-10.9z"/>
		<path fill-rule="evenodd" clip-rule="evenodd" fill="#8C8B87" d="M734.1,82.4c-0.1,0.8-0.5,1.3-1.3,1.2c-0.8,0-1.3-0.5-1.2-1.3
			c0-0.8,0.5-1.2,1.3-1.2C733.7,81.2,734.1,81.7,734.1,82.4L734.1,82.4z"/>
		<path fill-rule="evenodd" clip-rule="evenodd" fill="#696865" d="M486,68.4c0.1-0.8,0.6-1.2,1.4-1.1s1.1,0.7,1,1.4
			c-0.1,0.6-0.5,1-1.2,0.9C486.4,69.6,486.1,69.1,486,68.4L486,68.4z"/>
		<path fill-rule="evenodd" clip-rule="evenodd" fill="#62605E" d="M115.1,139.9c-0.7,0-1.1-0.3-1.2-1c-0.1-0.8,0.3-1.3,1.1-1.4
			c0.7-0.1,1.1,0.3,1.2,1C116.3,139.3,115.9,139.8,115.1,139.9L115.1,139.9z"/>
		<path fill-rule="evenodd" clip-rule="evenodd" fill="#838280" d="M634.2,83c0-0.7,0.3-1.1,1-1.1c0.8,0,1.2,0.4,1.2,1.2
			c0,0.6-0.5,1-1.1,1C634.7,84.1,634.3,83.7,634.2,83L634.2,83z"/>
		<path fill-rule="evenodd" clip-rule="evenodd" fill="#80807D" d="M809,181.6c-1.4-0.6-2.7-1-2.9,1.2c-1.2-0.9-0.4-1.7,0.3-2.1
			C807.5,180.1,808.6,180,809,181.6L809,181.6z"/>
		<path fill-rule="evenodd" clip-rule="evenodd" fill="#EBEBEA" d="M-12.6,41.4"/>
		<path fill-rule="evenodd" clip-rule="evenodd" fill="#F9FAFA" d="M278.9,166.4c0.2-1.4,1.1-2.5,2.6-2.6c1.6-0.2,2.5,0.8,2.6,2.4
			c0.1,1.6-0.8,2.5-2.4,2.7C279.9,169,279.2,167.9,278.9,166.4L278.9,166.4z"/>
		<path fill-rule="evenodd" clip-rule="evenodd" fill="#F7F8F8" d="M469.2,210.2c0.1-1.1,0.7-1.8,1.9-1.7c1.2,0.1,1.7,0.8,1.7,1.9
			c0,1.2-0.7,1.8-1.8,1.8C469.8,212.1,469.3,211.3,469.2,210.2L469.2,210.2z"/>
		<path fill-rule="evenodd" clip-rule="evenodd" fill="#ECECEB" d="M502.2,210.1c0.2-1.1,0.7-1.8,1.9-1.7c1.2,0.1,1.7,0.8,1.6,2
			c-0.1,1-0.8,1.5-1.8,1.5C502.8,212,502.2,211.3,502.2,210.1L502.2,210.1z"/>
		<path fill-rule="evenodd" clip-rule="evenodd" fill="#F3F4F4" d="M890-14.7c1,0,1.6,0.6,1.5,1.6c0,0.9-0.5,1.4-1.4,1.4
			c-1,0-1.6-0.6-1.5-1.6C888.5-14.2,889.1-14.6,890-14.7L890-14.7z"/>
		<path fill-rule="evenodd" clip-rule="evenodd" fill="#E6E6E5" d="M450.8,205c0.1-1.1,0.7-1.8,1.8-1.8c1,0,1.6,0.7,1.6,1.6
			c0,1.1-0.6,1.8-1.8,1.8C451.5,206.6,450.9,206.1,450.8,205L450.8,205z"/>
		<path fill-rule="evenodd" clip-rule="evenodd" fill="#F2F3F3" d="M108.8-0.2c0.2-0.9,0.8-1.6,1.8-1.5c0.9,0.1,1.4,0.7,1.3,1.6
			s-0.7,1.3-1.6,1.3C109.4,1.1,108.9,0.7,108.8-0.2L108.8-0.2z"/>
		<path fill-rule="evenodd" clip-rule="evenodd" fill="#E6E6E5" d="M542.3,255.6c0.1-1.1,0.5-1.8,1.5-1.9c1.1-0.1,1.9,0.5,1.9,1.7
			s-0.7,1.8-1.8,1.8C542.9,257.2,542.4,256.5,542.3,255.6L542.3,255.6z"/>
	</g>
</g>
<g>
	<defs>
		<path id="smoke2_1_" d="M881.6,36.5c-6.3-11.9-22.7-9.1-34-9.7c-16.3-0.9-32.6-1.9-48.9,0.1c-34.5,4.2-71.2,13.2-105.7,11.4
			c-39-2-78.8-0.7-117.5,4.2c-15.1,1.5-30.1,3.3-45.1,5.1c-14.1,1.7-24.5-0.7-38.5-2.7c-30.5-4.4-61-8-91.7-10.9
			c-6.1-0.6-12.3-1.1-18.4-1.6c-28.1-2.3-56.2-4-84.4-5c-23.4-0.8-47.2-7.2-67.2,9.1c-5.9,4.9-10.8,11-16.9,15.6
			c-10.5,7.7-23.7,10.1-35.9,14.6c-12.2,4.4-24.7,12.4-27.7,25.1c-2.2,9.2,1.2,18.8,0,28.2c-2.3,17.1-19,28.4-35.1,34.7
			c-9.8,3.9-20.6,7.4-26.4,16.2c-5.1,7.8-4.9,17.9-8.2,26.6c-3.5,9.2-10.6,16.4-16.2,24.5s-9.7,18.4-6.3,27.6l0,0
			c0.9,3.1,5.6,5.5,11.2,5.5c6.3,0,11.4-3,11.4-6.6c0-0.1,0-0.3,0-0.4c0-0.2,0-0.4,0-0.6c-0.2-2.1,0-4.3,0.6-6.3s1.8-3.8,3.1-5.3
			c1.4-1.5,2.9-3,4.4-4.4c3.3-2.8,6.8-5.3,10.6-7.5c3.7-2.2,7.7-4.1,11.7-5.6c4.1-1.5,8.3-2.7,12.5-3.4c4-0.7,8.1-1.1,12.2-1.1
			c11.5,0,23,2.7,34.4,1.6c19.8-1.9,36.2-14.3,54.3-21.2c20.9-7.9,42.1-2.8,61.4,7.7c12.4,6.7,23.3,15.8,35.9,22
			c32.6,16.1,72.2,10.4,105.4-4.5c18-8.1,34.8-18.7,53.5-24.7c40.7-13.2,83.3-10.7,124.9-3.5c50.6,8.7,98.3,16.2,146.8-5.2
			c41.2-18.2,78.1-46.2,106.4-81.2c11.5-14.2,21.8-30,25.1-47.9C884.7,50.1,884.9,42.7,881.6,36.5z"/>
	</defs>
	<clipPath id="smoke2_2_">
		<use xlink:href="#smoke2_1_"  overflow="visible"/>
	</clipPath>
	<g clip-path="url(#smoke2_2_)">
		<path fill-rule="evenodd" clip-rule="evenodd" fill="#FCFDFD" d="M607.5-17.9L607.5-17.9"/>
		<path fill-rule="evenodd" clip-rule="evenodd" fill="#D5D5D3" d="M239.9,130.4c-0.1,2.1-1.1,3.3-3,3.4c-2,0.1-3.3-1-3.4-3.1
			c-0.1-1.9,1.1-3.1,3-3.2C238.5,127.4,239.6,128.6,239.9,130.4L239.9,130.4z"/>
		<path fill-rule="evenodd" clip-rule="evenodd" fill="#B6B5B1" d="M277.6,166.3c0-2.3,1.8-3.9,4.1-3.9c2.2,0.1,4.1,2,3.9,4.2
			c-0.2,2.3-1.5,3.7-4,3.7C279.3,170.3,277.6,168.6,277.6,166.3L277.6,166.3z"/>
		<path fill-rule="evenodd" clip-rule="evenodd" fill="#D0CFCD" d="M432.7,9c1.6,0.2,2.5,1,2.5,2.7c-0.1,1.6-1.1,2.5-2.7,2.4
			c-1.5-0.1-2.3-1-2.3-2.5C430.1,10,431.1,9.2,432.7,9L432.7,9z"/>
		<path fill-rule="evenodd" clip-rule="evenodd" fill="#F3F4F4" d="M315.4,9.8c-0.2,1.5-1,2.5-2.6,2.5c-1.5,0-2.4-0.9-2.4-2.3
			c-0.1-1.6,0.8-2.6,2.4-2.6C314.4,7.2,315.2,8.2,315.4,9.8L315.4,9.8z"/>
		<path fill-rule="evenodd" clip-rule="evenodd" fill="#F0F0F0" d="M122.2,208.9c0.3-1.4,1.1-2.3,2.6-2.1c1.5,0.1,2.2,1.1,2.1,2.6
			c-0.1,1.4-1.1,2.1-2.4,2C123,211.3,122.3,210.4,122.2,208.9L122.2,208.9z"/>
		<path fill-rule="evenodd" clip-rule="evenodd" fill="#E2E1E0" d="M198.9,251.8c0.2-1.4,0.9-2.2,2.3-2.1c1.4,0.1,2.1,0.9,2,2.3
			c-0.1,1.2-0.9,1.9-2.1,2C199.7,254,199,253.1,198.9,251.8L198.9,251.8z"/>
		<path fill-rule="evenodd" clip-rule="evenodd" fill="#979591" d="M468,210.4c0.2-1.8,1.2-2.9,3-2.9s2.9,1.2,2.9,2.9
			c0,1.8-1.1,2.9-2.9,2.9C469.2,213.3,468.2,212.2,468,210.4L468,210.4z"/>
		<path fill-rule="evenodd" clip-rule="evenodd" fill="#E6E6E5" d="M-8.7,248c0.2-1.5,0.9-2.3,2.3-2.3c1.4,0.1,2.1,1,2,2.3
			c-0.1,1.2-0.8,2-2.1,2C-7.9,250.1-8.5,249.2-8.7,248L-8.7,248z"/>
		<path fill-rule="evenodd" clip-rule="evenodd" fill="#E5E4E3" d="M428.9,159.5c0.2-1.3,0.9-2.2,2.3-2.1c1.4,0.1,2.1,1,2,2.3
			c-0.1,1.2-0.9,1.9-2.1,1.9C429.8,161.7,429.1,160.8,428.9,159.5L428.9,159.5z"/>
		<path fill-rule="evenodd" clip-rule="evenodd" fill="#DDDDDB" d="M89.7,193.5c0.1-1.2,0.8-1.9,2-1.9s2,0.7,2,1.9
			c0,1.4-0.8,2.2-2.2,2.1C90.3,195.6,89.8,194.7,89.7,193.5L89.7,193.5z"/>
		<path fill-rule="evenodd" clip-rule="evenodd" fill="#D5D5D3" d="M687.1,107.9c-1.4-0.3-2-1.4-2-2.7c0-1,0.6-1.7,1.6-1.6
			c1.4,0.2,2.2,1.2,2.3,2.6C689,107.3,688.3,107.9,687.1,107.9L687.1,107.9z"/>
		<path fill-rule="evenodd" clip-rule="evenodd" fill="#797875" d="M501.1,210.4c0.2-1.8,1.1-2.9,2.7-3c1.6,0,2.7,0.9,2.7,2.7
			c0,1.7-0.9,2.8-2.6,2.8C502.2,213,501.4,211.9,501.1,210.4L501.1,210.4z"/>
		<path fill-rule="evenodd" clip-rule="evenodd" fill="#B9B8B5" d="M606.3,179.8c-1.3-0.1-2.1-0.6-2.2-1.9c-0.1-1.2,0.6-2,1.8-2.1
			s2,0.6,2.1,1.8C608.2,178.9,607.5,179.6,606.3,179.8L606.3,179.8z"/>
		<path fill-rule="evenodd" clip-rule="evenodd" fill="#D1D0CE" d="M655.1,133.4c1.1,1.4,0.9,2.6-0.6,3.6c-1.5,0.7-2.4-0.1-3-1.3
			c-0.5-0.8-0.1-1.6,0.6-2.3C653.1,132.2,654.1,132.9,655.1,133.4L655.1,133.4z"/>
		<path fill-rule="evenodd" clip-rule="evenodd" fill="#B9B8B5" d="M478.6-16.7c0.1-1.4,0.6-2.2,1.9-2.3c1.3-0.1,2,0.7,2.1,1.8
			c0.1,1.2-0.6,2-1.8,2.1C479.6-15,478.9-15.8,478.6-16.7L478.6-16.7z"/>
		<path fill-rule="evenodd" clip-rule="evenodd" fill="#D2D1CF" d="M343,64.3c0.2-1.4,0.9-2.1,2.1-2.1s1.9,0.8,1.9,2.1
			c0,1.2-0.8,1.9-2.1,1.9C343.7,66.2,343.2,65.3,343,64.3L343,64.3z"/>
		<path fill-rule="evenodd" clip-rule="evenodd" fill="#898884" d="M889.8-15.7c1.6,0.2,2.7,0.9,2.7,2.6c0,1.6-1,2.5-2.6,2.5
			c-1.4,0-2.4-0.9-2.4-2.3C887.4-14.6,888.4-15.4,889.8-15.7L889.8-15.7z"/>
		<path fill-rule="evenodd" clip-rule="evenodd" fill="#E6E5E4" d="M19.3,3.9c-1.2-0.1-2-0.7-2-1.9c0-1.1,0.6-1.9,1.7-2
			c1.2-0.1,2,0.5,2.2,1.8C21.2,3,20.5,3.7,19.3,3.9L19.3,3.9z"/>
		<path fill-rule="evenodd" clip-rule="evenodd" fill="#A9A7A3" d="M65.9,138.7c1.1,0.2,1.8,0.8,1.8,1.9c0,1.2-0.8,2-2,1.9
			c-1.3-0.1-1.9-1-1.7-2.2C64.1,139.3,64.8,138.7,65.9,138.7L65.9,138.7z"/>
		<path fill-rule="evenodd" clip-rule="evenodd" fill="#B2B1AD" d="M189.4,294.9c-1.1-0.2-1.8-0.8-1.8-1.9c0-1.2,0.8-2,2-1.9
			c1.3,0.1,1.9,0.9,1.8,2.2C191.3,294.3,190.6,294.8,189.4,294.9L189.4,294.9z"/>
		<path fill-rule="evenodd" clip-rule="evenodd" fill="#EEEEEE" d="M876.4,102.4c0.3-1.3,1-2,2.2-1.8c1.1,0.1,1.7,0.9,1.6,2
			c-0.1,1.3-0.9,1.9-2.2,1.8C876.9,104.2,876.5,103.4,876.4,102.4L876.4,102.4z"/>
		<path fill-rule="evenodd" clip-rule="evenodd" fill="#716F6C" d="M452.6,207.7c-1.5-0.3-2.6-1-2.6-2.6c0.1-1.7,1.1-2.7,2.8-2.6
			c1.6,0.1,2.5,1.1,2.4,2.7C455.1,206.6,454,207.5,452.6,207.7L452.6,207.7z"/>
		<path fill-rule="evenodd" clip-rule="evenodd" fill="#979591" d="M110.4,2.2c-1.4-0.2-2.3-1-2.4-2.4c0-1.5,0.9-2.4,2.3-2.4
			c1.6,0,2.6,0.9,2.5,2.5C112.7,1.4,111.8,2.1,110.4,2.2L110.4,2.2z"/>
		<path fill-rule="evenodd" clip-rule="evenodd" fill="#BEBDBA" d="M390,191.8c1,0.2,1.7,0.7,1.7,1.9c0,1.1-0.7,1.8-1.8,1.8
			c-1.2,0-2-0.7-1.9-2C388,192.4,388.8,191.8,390,191.8L390,191.8z"/>
		<path fill-rule="evenodd" clip-rule="evenodd" fill="#E6E6E5" d="M752.8,284c0.1-1.1,0.7-1.7,1.8-1.8c1.1,0,1.9,0.6,1.9,1.7
			c0.1,1.2-0.6,2-1.9,2C753.5,285.8,752.9,285.1,752.8,284L752.8,284z"/>
		<path fill-rule="evenodd" clip-rule="evenodd" fill="#6A6966" d="M541.3,255.7c0.4-1.8,1.2-2.9,3-2.7c1.7,0.1,2.4,1.1,2.3,2.7
			c-0.1,1.7-1.2,2.5-2.7,2.5C542.4,258.1,541.6,256.9,541.3,255.7L541.3,255.7z"/>
		<path fill-rule="evenodd" clip-rule="evenodd" fill="#AAA8A4" d="M701.7,238c0.1-1.1,0.7-1.8,1.8-1.8c1.2,0,2,0.7,1.9,2
			c-0.1,1.1-0.8,1.7-1.9,1.7C702.4,239.7,701.8,239,701.7,238L701.7,238z"/>
		<path fill-rule="evenodd" clip-rule="evenodd" fill="#EAEAE9" d="M69,244.4c0.2-1.2,0.8-1.9,1.9-1.9c1.3,0,1.9,0.8,1.8,2.1
			c-0.1,1.1-0.9,1.7-2,1.6C69.6,246,69.1,245.3,69,244.4L69,244.4z"/>
		<path fill-rule="evenodd" clip-rule="evenodd" fill="#D3D2D0" d="M610,304.4c0.1-1.1,0.7-1.8,1.8-1.7c1.1,0,1.8,0.7,1.8,1.8
			c0,1.1-0.7,1.8-1.8,1.8C610.7,306.2,610.1,305.5,610,304.4L610,304.4z"/>
		<path fill-rule="evenodd" clip-rule="evenodd" fill="#ACAAA6" d="M860.6,263.2c0.1-1.1,0.7-1.8,1.8-1.8c1.2,0,1.9,0.8,1.8,2
			c-0.1,1.1-0.9,1.7-1.9,1.7C861.2,265,860.6,264.3,860.6,263.2L860.6,263.2z"/>
		<path fill-rule="evenodd" clip-rule="evenodd" fill="#BEBDBA" d="M385.4,196.8c-1.1-0.1-1.9-0.6-1.9-1.7c-0.1-1.2,0.6-2,1.9-2
			c1.1,0,1.8,0.7,1.8,1.8C387.2,196,386.5,196.6,385.4,196.8L385.4,196.8z"/>
		<path fill-rule="evenodd" clip-rule="evenodd" fill="#BFBEBB" d="M897.3,29c-1.1-0.2-1.8-0.7-1.7-1.9c0.1-1.1,0.8-1.7,1.9-1.7
			c1,0.1,1.6,0.7,1.6,1.7C899.1,28.3,898.4,28.9,897.3,29L897.3,29z"/>
		<path fill-rule="evenodd" clip-rule="evenodd" fill="#C3C2BF" d="M668.5,85.6c0.1-1.2,0.6-1.8,1.6-1.9c1.1-0.1,1.8,0.5,1.9,1.7
			c0,1-0.6,1.6-1.6,1.7C669.3,87.3,668.8,86.5,668.5,85.6L668.5,85.6z"/>
		<path fill-rule="evenodd" clip-rule="evenodd" fill="#B7B6B2" d="M294.8,4.5c1.1,0,1.9,0.6,2,1.7c0.1,1.3-0.6,2-1.9,2
			c-1.1,0-1.8-0.7-1.8-1.8S293.7,4.6,294.8,4.5L294.8,4.5z"/>
		<path fill-rule="evenodd" clip-rule="evenodd" fill="#ECEDEC" d="M153.9,144.9c-1.2-0.2-2-0.7-1.9-1.9c0-1.1,0.7-1.8,1.8-1.8
			s1.8,0.7,1.8,1.8C155.6,144.2,154.9,144.7,153.9,144.9L153.9,144.9z"/>
		<path fill-rule="evenodd" clip-rule="evenodd" fill="#BEBDBA" d="M12,256.8c1.1,0.1,1.8,0.7,1.7,1.9c0,1.1-0.8,1.7-1.9,1.7
			c-1-0.1-1.6-0.7-1.6-1.7C10.2,257.5,10.9,256.9,12,256.8L12,256.8z"/>
		<path fill-rule="evenodd" clip-rule="evenodd" fill="#E6E6E5" d="M628.7,42.5c-1.1-0.2-1.8-0.8-1.7-1.9c0.1-1.1,0.9-1.7,2-1.6
			c1,0.1,1.5,0.8,1.5,1.8C630.5,41.9,629.8,42.5,628.7,42.5L628.7,42.5z"/>
		<path fill-rule="evenodd" clip-rule="evenodd" fill="#BFBEBB" d="M185.9,133.2c0.1-1.2,0.7-2,1.8-1.9c1.1,0,1.8,0.7,1.7,1.8
			c0,1-0.7,1.6-1.6,1.7C186.6,134.9,186.1,134.2,185.9,133.2L185.9,133.2z"/>
		<path fill-rule="evenodd" clip-rule="evenodd" fill="#BEBDBA" d="M260.7,55.8c0.2-1.1,0.7-1.7,1.7-1.7c1.1,0,1.8,0.7,1.8,1.8
			s-0.8,1.7-1.9,1.6C261.2,57.4,260.8,56.6,260.7,55.8L260.7,55.8z"/>
		<path fill-rule="evenodd" clip-rule="evenodd" fill="#C2C1BE" d="M146.2,57.3c1.1,0.1,1.8,0.6,1.8,1.7c0,1.1-0.7,1.8-1.8,1.8
			c-1,0-1.6-0.6-1.7-1.6C144.4,58.1,145.1,57.5,146.2,57.3L146.2,57.3z"/>
		<path fill-rule="evenodd" clip-rule="evenodd" fill="#C0BFBC" d="M742.8,130.2c-1.1-0.1-1.8-0.7-1.8-1.8c0-1.1,0.7-1.8,1.9-1.7
			c1,0,1.6,0.7,1.7,1.6C744.6,129.4,744,130,742.8,130.2L742.8,130.2z"/>
		<path fill-rule="evenodd" clip-rule="evenodd" fill="#C1C0BE" d="M63.4,209.5c0.1-1.1,0.6-1.8,1.8-1.9c1.2,0,1.8,0.7,1.8,1.8
			c0,1-0.6,1.6-1.6,1.7C64.3,211.3,63.6,210.7,63.4,209.5L63.4,209.5z"/>
		<path fill-rule="evenodd" clip-rule="evenodd" fill="#A8A6A2" d="M280.4,118.8c0.2-1,0.7-1.6,1.7-1.6c1.2,0,1.7,0.8,1.6,1.9
			c-0.1,1-0.9,1.5-1.8,1.4C280.9,120.4,280.4,119.8,280.4,118.8L280.4,118.8z"/>
		<path fill-rule="evenodd" clip-rule="evenodd" fill="#ABA9A5" d="M654.1,118.5c0.1-1,0.6-1.6,1.6-1.7c1.1-0.1,1.8,0.6,1.8,1.7
			c0,1-0.5,1.6-1.6,1.7C654.8,120.3,654.3,119.6,654.1,118.5L654.1,118.5z"/>
		<path fill-rule="evenodd" clip-rule="evenodd" fill="#B1AFAC" d="M397.6,179.5c1.1,0.1,1.8,0.7,1.7,1.8c0,1-0.7,1.6-1.7,1.6
			c-1.2,0-1.8-0.7-1.8-1.8C395.9,180.1,396.5,179.5,397.6,179.5L397.6,179.5z"/>
		<path fill-rule="evenodd" clip-rule="evenodd" fill="#B1AFAC" d="M136.4,235.1c0.1-1.2,0.6-1.8,1.6-1.9c1-0.1,1.7,0.5,1.8,1.5
			c0.1,1.1-0.5,1.9-1.7,1.9C137,236.5,136.5,235.9,136.4,235.1L136.4,235.1z"/>
		<path fill-rule="evenodd" clip-rule="evenodd" fill="#D2D1CF" d="M173.9,22.9c0.2-1.1,0.8-1.7,2-1.6c1,0.1,1.5,0.8,1.4,1.8
			c-0.1,1.1-0.8,1.7-1.9,1.6C174.4,24.6,173.9,23.9,173.9,22.9L173.9,22.9z"/>
		<path fill-rule="evenodd" clip-rule="evenodd" fill="#BCBBB8" d="M278.1,250.2c0.1-1.1,0.7-1.8,1.8-1.7c1,0,1.6,0.7,1.6,1.6
			c0,1.1-0.6,1.8-1.8,1.7C278.7,251.8,278.2,251.2,278.1,250.2L278.1,250.2z"/>
		<path fill-rule="evenodd" clip-rule="evenodd" fill="#EBEBEA" d="M205.5,95.8c0.1-1,0.8-1.5,1.7-1.5c1.2,0.1,1.7,0.8,1.6,1.9
			c-0.1,1-0.8,1.5-1.8,1.4C206.1,97.5,205.5,96.8,205.5,95.8L205.5,95.8z"/>
		<path fill-rule="evenodd" clip-rule="evenodd" fill="#BCBBB8" d="M875.1,273.9c-1,0-1.7-0.5-1.8-1.5c-0.1-1.1,0.5-1.9,1.7-1.9
			c1,0,1.6,0.6,1.7,1.6C876.7,273.2,876.1,273.7,875.1,273.9L875.1,273.9z"/>
		<path fill-rule="evenodd" clip-rule="evenodd" fill="#F0F0F0" d="M525.8,132.4c-1.1,0-1.8-0.6-1.8-1.8c0-1,0.6-1.6,1.6-1.7
			c1.1,0,1.8,0.6,1.8,1.7C527.4,131.7,526.9,132.3,525.8,132.4L525.8,132.4z"/>
		<path fill-rule="evenodd" clip-rule="evenodd" fill="#ADABA8" d="M353.6,78.4c-1-0.1-1.7-0.6-1.7-1.6c0-1.1,0.7-1.8,1.8-1.7
			c1,0.1,1.6,0.7,1.5,1.7C355.2,77.7,354.6,78.2,353.6,78.4L353.6,78.4z"/>
		<path fill-rule="evenodd" clip-rule="evenodd" fill="#C4C3C0" d="M853.4,56.8c1.2,0.2,1.8,0.8,1.8,1.9c-0.1,1-0.8,1.5-1.7,1.5
			c-1,0-1.6-0.6-1.6-1.6C851.7,57.5,852.4,56.9,853.4,56.8L853.4,56.8z"/>
		<path fill-rule="evenodd" clip-rule="evenodd" fill="#A4A29E" d="M17,284.7c0.1-1.1,0.6-1.8,1.6-1.8c1.2-0.1,1.8,0.7,1.7,1.8
			c0,1-0.7,1.6-1.7,1.5C17.7,286.1,17.1,285.5,17,284.7L17,284.7z"/>
		<path fill-rule="evenodd" clip-rule="evenodd" fill="#A4A29E" d="M579.1,204c0.2-1.1,0.7-1.8,1.7-1.7c1,0,1.6,0.5,1.7,1.6
			c0,1.1-0.7,1.8-1.8,1.7C579.7,205.5,579.3,204.7,579.1,204L579.1,204z"/>
		<path fill-rule="evenodd" clip-rule="evenodd" fill="#B6B5B1" d="M148.5,8.1c1.1,0.1,1.8,0.6,1.8,1.7c0,1-0.6,1.6-1.6,1.7
			c-1.1,0.1-1.8-0.6-1.8-1.7C146.9,8.8,147.4,8.2,148.5,8.1L148.5,8.1z"/>
		<path fill-rule="evenodd" clip-rule="evenodd" fill="#A8A6A2" d="M789.1,171c0.2-1,0.7-1.6,1.7-1.5c1.2,0.1,1.7,0.8,1.6,1.9
			c-0.1,1-0.9,1.5-1.8,1.4C789.6,172.7,789.1,172,789.1,171L789.1,171z"/>
		<path fill-rule="evenodd" clip-rule="evenodd" fill="#BDBCB9" d="M42.4,220.7c1,0.1,1.7,0.5,1.8,1.5c0.1,1.2-0.6,1.8-1.7,1.8
			c-1,0-1.6-0.6-1.6-1.6C40.9,221.5,41.4,220.9,42.4,220.7L42.4,220.7z"/>
		<path fill-rule="evenodd" clip-rule="evenodd" fill="#ACAAA6" d="M376,127.9c0-1,0.5-1.7,1.5-1.7c1.1-0.1,1.8,0.5,1.9,1.7
			c0,1-0.5,1.6-1.5,1.7C376.8,129.7,376.2,129,376,127.9L376,127.9z"/>
		<path fill-rule="evenodd" clip-rule="evenodd" fill="#ABA9A5" d="M560.5,64.2c0.1-1,0.7-1.6,1.7-1.6s1.6,0.7,1.6,1.7
			c-0.1,1-0.7,1.6-1.7,1.6C561.1,65.9,560.5,65.2,560.5,64.2L560.5,64.2z"/>
		<path fill-rule="evenodd" clip-rule="evenodd" fill="#A6A4A0" d="M836.3,66.9c1,0.2,1.6,0.7,1.6,1.7s-0.6,1.6-1.6,1.7
			c-1.2,0-1.8-0.7-1.7-1.8C834.6,67.5,835.3,67,836.3,66.9L836.3,66.9z"/>
		<path fill-rule="evenodd" clip-rule="evenodd" fill="#F0F0F0" d="M156.4,169c0.1-1,0.7-1.6,1.7-1.5c1,0,1.6,0.7,1.6,1.7
			s-0.7,1.6-1.7,1.5C156.9,170.6,156.4,170,156.4,169L156.4,169z"/>
		<path fill-rule="evenodd" clip-rule="evenodd" fill="#A4A29E" d="M813.5,287.6c1,0.1,1.6,0.6,1.6,1.6s-0.6,1.7-1.6,1.7
			s-1.6-0.6-1.7-1.6C811.8,288.2,812.5,287.7,813.5,287.6L813.5,287.6z"/>
		<path fill-rule="evenodd" clip-rule="evenodd" fill="#AFAEAA" d="M62,276.8c0-1,0.5-1.7,1.5-1.7c1.2-0.1,1.8,0.6,1.8,1.7
			c0,1-0.7,1.6-1.7,1.6S62,277.8,62,276.8L62,276.8z"/>
		<path fill-rule="evenodd" clip-rule="evenodd" fill="#ACAAA6" d="M25.9,241c0.1-1.1,0.7-1.8,1.7-1.7c1,0,1.6,0.7,1.5,1.7
			c0,0.9-0.6,1.4-1.5,1.4C26.6,242.5,26,241.9,25.9,241L25.9,241z"/>
		<path fill-rule="evenodd" clip-rule="evenodd" fill="#A19F9B" d="M898.3,127.8c1,0.2,1.6,0.8,1.5,1.8s-0.7,1.6-1.7,1.5
			s-1.5-0.8-1.5-1.7C896.6,128.3,897.4,127.9,898.3,127.8L898.3,127.8z"/>
		<path fill-rule="evenodd" clip-rule="evenodd" fill="#ADABA8" d="M713.8,182.1c-1-0.1-1.6-0.6-1.6-1.6s0.6-1.6,1.5-1.7
			c1,0,1.6,0.5,1.7,1.5C715.4,181.4,714.8,181.9,713.8,182.1L713.8,182.1z"/>
		<path fill-rule="evenodd" clip-rule="evenodd" fill="#BDBCB9" d="M548.9-2.3c0.1-1,0.6-1.6,1.6-1.7s1.6,0.5,1.7,1.5
			c0.1,1-0.6,1.6-1.5,1.7C549.6-0.7,549-1.3,548.9-2.3L548.9-2.3z"/>
		<path fill-rule="evenodd" clip-rule="evenodd" fill="#C2C1BE" d="M896.1-6.6c0.2-1,0.7-1.6,1.7-1.5c0.9,0.1,1.4,0.7,1.4,1.6
			S898.7-5,897.8-5C896.8-5,896.2-5.5,896.1-6.6L896.1-6.6z"/>
		<path fill-rule="evenodd" clip-rule="evenodd" fill="#ABA9A5" d="M274,147.7c1.1,0.2,1.6,0.8,1.5,1.8s-0.7,1.6-1.7,1.5
			s-1.6-0.7-1.5-1.8C272.4,148.2,273.1,147.8,274,147.7L274,147.7z"/>
		<path fill-rule="evenodd" clip-rule="evenodd" fill="#ADABA8" d="M603.7,264.6c0-1,0.5-1.7,1.5-1.8c1-0.1,1.7,0.5,1.8,1.5
			s-0.5,1.7-1.5,1.8C604.5,266.2,603.8,265.7,603.7,264.6L603.7,264.6z"/>
		<path fill-rule="evenodd" clip-rule="evenodd" fill="#B5B4B0" d="M623.6,251.8c-1,0-1.7-0.5-1.7-1.5c-0.1-1,0.5-1.7,1.5-1.7
			c1-0.1,1.6,0.5,1.7,1.5C625.2,251,624.6,251.6,623.6,251.8L623.6,251.8z"/>
		<path fill-rule="evenodd" clip-rule="evenodd" fill="#BDBCB9" d="M738.3,160.8c1,0,1.6,0.6,1.7,1.6c0.1,1-0.5,1.7-1.5,1.7
			c-1,0.1-1.7-0.5-1.7-1.5C736.7,161.5,737.3,160.9,738.3,160.8L738.3,160.8z"/>
		<path fill-rule="evenodd" clip-rule="evenodd" fill="#AEADA9" d="M302.8,187.9c-0.1,1-0.7,1.6-1.6,1.6c-1,0-1.6-0.5-1.7-1.6
			c0-1.1,0.6-1.8,1.8-1.7C302.3,186.2,302.8,186.9,302.8,187.9L302.8,187.9z"/>
		<path fill-rule="evenodd" clip-rule="evenodd" fill="#B3B2AE" d="M482.4,151.7c0-1,0.6-1.6,1.6-1.7c0.9,0,1.5,0.5,1.6,1.4
			c0.1,1-0.4,1.7-1.4,1.8C483.1,153.3,482.6,152.7,482.4,151.7L482.4,151.7z"/>
		<path fill-rule="evenodd" clip-rule="evenodd" fill="#C3C2BF" d="M598.3,107.2c1,0.1,1.6,0.6,1.7,1.6c0,1-0.6,1.6-1.5,1.6
			c-1,0-1.6-0.6-1.6-1.5C596.8,107.9,597.3,107.3,598.3,107.2L598.3,107.2z"/>
		<path fill-rule="evenodd" clip-rule="evenodd" fill="#C5C4C1" d="M836.4,232.5c-0.1,1-0.6,1.6-1.6,1.6s-1.6-0.6-1.6-1.6
			s0.6-1.6,1.6-1.6C835.8,230.9,836.3,231.5,836.4,232.5L836.4,232.5z"/>
		<path fill-rule="evenodd" clip-rule="evenodd" fill="#D2D1CF" d="M607.8,106.4c0.1-1.1,0.7-1.7,1.7-1.6c1,0,1.6,0.6,1.6,1.6
			s-0.6,1.6-1.6,1.6C608.4,108,607.9,107.4,607.8,106.4L607.8,106.4z"/>
		<path fill-rule="evenodd" clip-rule="evenodd" fill="#C3C2BF" d="M13.7,271.2c-0.9-0.1-1.5-0.5-1.6-1.4c-0.1-1,0.4-1.7,1.5-1.7
			c0.9-0.1,1.5,0.5,1.6,1.4C15.4,270.4,14.7,271,13.7,271.2L13.7,271.2z"/>
		<path fill-rule="evenodd" clip-rule="evenodd" fill="#BCBBB8" d="M249.8,50.6c0.2-1,0.7-1.6,1.8-1.5c0.9,0.1,1.4,0.7,1.4,1.6
			c0,0.9-0.5,1.5-1.5,1.5C250.5,52.2,249.9,51.6,249.8,50.6L249.8,50.6z"/>
		<path fill-rule="evenodd" clip-rule="evenodd" fill="#C0BFBC" d="M81.4,229.2c-1-0.1-1.6-0.7-1.5-1.7c0.1-0.9,0.6-1.4,1.5-1.4
			s1.5,0.5,1.5,1.4C83,228.5,82.4,229,81.4,229.2L81.4,229.2z"/>
		<path fill-rule="evenodd" clip-rule="evenodd" fill="#ECEDEC" d="M571.5,31.8c-0.2-1-0.3-2,0.6-2.7c1.2-0.8,2-0.2,2.5,0.9
			c0.4,0.9,0.2,1.7-0.6,2.4C573,33.2,572.3,32.4,571.5,31.8L571.5,31.8z"/>
		<path fill-rule="evenodd" clip-rule="evenodd" fill="#AFAEAA" d="M767.2,183c-1.1-0.1-1.6-0.7-1.6-1.7c0.1-1,0.7-1.6,1.7-1.5
			s1.6,0.6,1.6,1.7C768.9,182.5,768.2,183,767.2,183L767.2,183z"/>
		<path fill-rule="evenodd" clip-rule="evenodd" fill="#B5B4B0" d="M327.5,210.4c0.2-1,0.7-1.6,1.7-1.5c0.9,0.1,1.4,0.6,1.5,1.5
			c0.1,1.1-0.6,1.6-1.6,1.7C328.1,212.1,327.7,211.4,327.5,210.4L327.5,210.4z"/>
		<path fill-rule="evenodd" clip-rule="evenodd" fill="#B5B4B0" d="M463.2-19.1L463.2-19.1"/>
		<path fill-rule="evenodd" clip-rule="evenodd" fill="#AFAEAA" d="M722.3,82.4c-1-0.2-1.6-0.8-1.5-1.8s0.8-1.5,1.8-1.4
			c0.9,0.1,1.3,0.7,1.3,1.6C723.8,81.9,723.2,82.4,722.3,82.4L722.3,82.4z"/>
		<path fill-rule="evenodd" clip-rule="evenodd" fill="#C1C0BE" d="M669.9,159.3c-1,0-1.6-0.4-1.7-1.3c-0.1-1,0.4-1.7,1.4-1.8
			c0.9-0.1,1.5,0.4,1.6,1.3C671.3,158.6,670.7,159.1,669.9,159.3L669.9,159.3z"/>
		<path fill-rule="evenodd" clip-rule="evenodd" fill="#C1C0BE" d="M490.4,59.5c0-0.9,0.4-1.5,1.3-1.6c1-0.1,1.7,0.5,1.7,1.5
			c0,0.9-0.5,1.4-1.4,1.5C491.1,60.9,490.6,60.4,490.4,59.5L490.4,59.5z"/>
		<path fill-rule="evenodd" clip-rule="evenodd" fill="#E3E2E1" d="M446.7,131.8c0.1-0.9,0.6-1.4,1.5-1.4s1.4,0.5,1.4,1.4
			c0,1-0.6,1.6-1.6,1.5C447.2,133.3,446.7,132.7,446.7,131.8L446.7,131.8z"/>
		<path fill-rule="evenodd" clip-rule="evenodd" fill="#B4B3AF" d="M47.4,214c0.2-1,0.7-1.6,1.7-1.6c1,0.1,1.6,0.7,1.5,1.7
			c-0.1,0.9-0.7,1.4-1.5,1.4C48,215.6,47.5,214.9,47.4,214L47.4,214z"/>
		<path fill-rule="evenodd" clip-rule="evenodd" fill="#B4B3AF" d="M671.8,62.3c0.1-1,0.7-1.5,1.7-1.5s1.6,0.7,1.5,1.7
			s-0.7,1.6-1.7,1.5C672.4,63.9,671.9,63.3,671.8,62.3L671.8,62.3z"/>
		<path fill-rule="evenodd" clip-rule="evenodd" fill="#A8A6A2" d="M76.7,201.3c-1-0.1-1.5-0.7-1.5-1.7c0-0.9,0.7-1.4,1.5-1.4
			s1.4,0.5,1.5,1.4C78.3,200.7,77.7,201.2,76.7,201.3L76.7,201.3z"/>
		<path fill-rule="evenodd" clip-rule="evenodd" fill="#C6C5C2" d="M795.8,129.7c-0.8-0.2-1.4-0.7-1.4-1.6c0.1-0.9,0.6-1.5,1.5-1.4
			c1,0,1.6,0.7,1.5,1.7C797.3,129.3,796.7,129.7,795.8,129.7L795.8,129.7z"/>
		<path fill-rule="evenodd" clip-rule="evenodd" fill="#AFAEAA" d="M430.6,207.6c0.2-1.1,0.7-1.7,1.7-1.5c1,0.1,1.5,0.8,1.4,1.8
			c-0.1,0.9-0.7,1.3-1.6,1.3C431.1,209.1,430.7,208.4,430.6,207.6L430.6,207.6z"/>
		<path fill-rule="evenodd" clip-rule="evenodd" fill="#BAB9B6" d="M657.7,234c-1.1-0.2-1.6-0.8-1.6-1.8c0.1-1,0.7-1.5,1.7-1.5
			c1,0.1,1.6,0.7,1.5,1.7C659.2,233.5,658.6,234,657.7,234L657.7,234z"/>
		<path fill-rule="evenodd" clip-rule="evenodd" fill="#C2C1BE" d="M600.5,230.5c1,0.1,1.6,0.6,1.6,1.7c0,0.9-0.6,1.4-1.5,1.4
			c-0.9,0.1-1.5-0.5-1.6-1.3C599,231.3,599.5,230.7,600.5,230.5L600.5,230.5z"/>
		<path fill-rule="evenodd" clip-rule="evenodd" fill="#B4B3AF" d="M246.6,196.4c0.1-1,0.6-1.6,1.6-1.6c0.9,0,1.5,0.5,1.5,1.4
			c0.1,1-0.5,1.7-1.5,1.8C247.2,198,246.7,197.4,246.6,196.4L246.6,196.4z"/>
		<path fill-rule="evenodd" clip-rule="evenodd" fill="#ABA9A5" d="M560.8,132.3c-1.1-0.1-1.6-0.8-1.6-1.8c0.1-0.9,0.7-1.4,1.6-1.4
			c0.9,0,1.5,0.5,1.5,1.4C562.3,131.6,561.7,132.1,560.8,132.3L560.8,132.3z"/>
		<path fill-rule="evenodd" clip-rule="evenodd" fill="#ADABA8" d="M584.2,190.5c-0.9,0-1.5-0.5-1.5-1.4c-0.1-1,0.5-1.6,1.6-1.6
			c0.9,0,1.4,0.6,1.4,1.5C585.6,189.8,585.1,190.4,584.2,190.5L584.2,190.5z"/>
		<path fill-rule="evenodd" clip-rule="evenodd" fill="#B1AFAC" d="M155.9,180.1c0.1-0.8,0.5-1.4,1.4-1.5c1,0,1.6,0.6,1.6,1.6
			s-0.7,1.5-1.7,1.5C156.4,181.6,156,181,155.9,180.1L155.9,180.1z"/>
		<path fill-rule="evenodd" clip-rule="evenodd" fill="#BBBAB7" d="M811.5-5.9c0.1-1.1,0.5-1.8,1.5-1.8s1.6,0.5,1.6,1.6
			c0,0.9-0.5,1.4-1.4,1.5C812.3-4.4,811.8-5,811.5-5.9L811.5-5.9z"/>
		<path fill-rule="evenodd" clip-rule="evenodd" fill="#B2B1AD" d="M430-6.6c0.1-1.1,0.6-1.8,1.6-1.7c1,0,1.6,0.6,1.6,1.7
			c0,0.9-0.6,1.4-1.5,1.5C430.7-5,430.2-5.7,430-6.6L430-6.6z"/>
		<path fill-rule="evenodd" clip-rule="evenodd" fill="#BAB9B6" d="M94.5,30.6c0.2-1.1,0.7-1.7,1.7-1.6c1,0,1.6,0.7,1.5,1.7
			c0,1-0.7,1.6-1.7,1.5C95.1,32.1,94.6,31.5,94.5,30.6L94.5,30.6z"/>
		<path fill-rule="evenodd" clip-rule="evenodd" fill="#BAB9B6" d="M559.3,28.4c1,0.2,1.6,0.7,1.5,1.7c-0.1,0.9-0.7,1.3-1.6,1.3
			c-0.9,0-1.4-0.6-1.5-1.4C557.7,29,558.3,28.5,559.3,28.4L559.3,28.4z"/>
		<path fill-rule="evenodd" clip-rule="evenodd" fill="#B8B7B4" d="M715.3,91.6c1,0.1,1.5,0.8,1.5,1.7c0,1-0.7,1.6-1.7,1.5
			s-1.6-0.7-1.5-1.7C713.6,92.2,714.2,91.6,715.3,91.6L715.3,91.6z"/>
		<path fill-rule="evenodd" clip-rule="evenodd" fill="#BFBEBB" d="M118.6,23.4c0.2-1.1,0.7-1.6,1.7-1.6c0.9,0.1,1.4,0.7,1.3,1.5
			c0,0.8-0.5,1.4-1.4,1.5C119.2,24.9,118.8,24.2,118.6,23.4L118.6,23.4z"/>
		<path fill-rule="evenodd" clip-rule="evenodd" fill="#B4B3AF" d="M305.7,294.4c1,0.1,1.6,0.6,1.6,1.6c0,0.9-0.5,1.5-1.4,1.6
			c-1,0.1-1.7-0.4-1.8-1.4C304.1,295.1,304.7,294.5,305.7,294.4L305.7,294.4z"/>
		<path fill-rule="evenodd" clip-rule="evenodd" fill="#AFAEAA" d="M814.5,101.1c0.9,0.1,1.4,0.6,1.5,1.5s-0.4,1.5-1.3,1.6
			c-1,0.1-1.7-0.5-1.6-1.5C813.1,101.7,813.7,101.2,814.5,101.1L814.5,101.1z"/>
		<path fill-rule="evenodd" clip-rule="evenodd" fill="#A8A6A2" d="M361.5,210.6c0-0.9,0.4-1.5,1.3-1.6c1-0.1,1.7,0.5,1.7,1.5
			c0,0.8-0.5,1.4-1.4,1.5C362.2,212,361.7,211.5,361.5,210.6L361.5,210.6z"/>
		<path fill-rule="evenodd" clip-rule="evenodd" fill="#BEBDBA" d="M262.7,167.9c-0.8-0.1-1.5-0.5-1.5-1.4c0-1,0.5-1.7,1.6-1.7
			c1,0,1.6,0.7,1.5,1.7S263.6,167.8,262.7,167.9L262.7,167.9z"/>
		<path fill-rule="evenodd" clip-rule="evenodd" fill="#A7A5A1" d="M364.2,228c-0.9-0.1-1.4-0.7-1.3-1.5c0.1-0.9,0.6-1.4,1.5-1.3
			c0.9,0.1,1.4,0.6,1.4,1.5C365.7,227.5,365.1,228,364.2,228L364.2,228z"/>
		<path fill-rule="evenodd" clip-rule="evenodd" fill="#BDBCB9" d="M755.2,173.3c0.1-0.8,0.5-1.5,1.5-1.5s1.6,0.6,1.5,1.6
			c-0.1,0.9-0.7,1.4-1.6,1.3C755.7,174.8,755.3,174.2,755.2,173.3L755.2,173.3z"/>
		<path fill-rule="evenodd" clip-rule="evenodd" fill="#9B9995" d="M531.2,37.7c0.1-0.8,0.6-1.4,1.5-1.3c0.9,0.1,1.4,0.6,1.4,1.5
			c-0.1,0.9-0.7,1.4-1.6,1.4C531.6,39.2,531.2,38.6,531.2,37.7L531.2,37.7z"/>
		<path fill-rule="evenodd" clip-rule="evenodd" fill="#BCBBB8" d="M174.6,0.8c-0.1,0.8-0.5,1.4-1.4,1.5c-0.9,0-1.5-0.5-1.5-1.3
			c-0.1-1,0.5-1.6,1.5-1.6C174-0.6,174.5,0,174.6,0.8L174.6,0.8z"/>
		<path fill-rule="evenodd" clip-rule="evenodd" fill="#CBCAC7" d="M179.9,288.3c-1,0-1.6-0.4-1.7-1.3c-0.1-0.9,0.3-1.5,1.2-1.6
			c1-0.2,1.7,0.4,1.7,1.4C181.1,287.6,180.5,288.1,179.9,288.3L179.9,288.3z"/>
		<path fill-rule="evenodd" clip-rule="evenodd" fill="#BAB9B6" d="M462.3,86.7c0.1-0.9,0.7-1.4,1.5-1.4c1,0,1.5,0.7,1.4,1.7
			c-0.1,0.8-0.7,1.3-1.6,1.2C462.8,88.1,462.3,87.6,462.3,86.7L462.3,86.7z"/>
		<path fill-rule="evenodd" clip-rule="evenodd" fill="#BCBBB8" d="M175.2,186.8c0.1-0.9,0.6-1.5,1.5-1.5c1,0,1.6,0.7,1.5,1.7
			c-0.1,0.9-0.7,1.4-1.6,1.3C175.6,188.3,175.2,187.7,175.2,186.8L175.2,186.8z"/>
		<path fill-rule="evenodd" clip-rule="evenodd" fill="#A6A4A0" d="M595.8,289.2c0.1-1,0.6-1.4,1.5-1.4s1.4,0.5,1.4,1.5
			c0,0.9-0.6,1.4-1.5,1.4C596.4,290.7,596,290,595.8,289.2L595.8,289.2z"/>
		<path fill-rule="evenodd" clip-rule="evenodd" fill="#BDBCB9" d="M236.6,101.4c0.9,0.1,1.6,0.6,1.6,1.5c0,1-0.6,1.6-1.6,1.6
			s-1.5-0.7-1.5-1.7C235.3,101.9,235.9,101.5,236.6,101.4L236.6,101.4z"/>
		<path fill-rule="evenodd" clip-rule="evenodd" fill="#888783" d="M0.6,223.3c-0.9-0.2-1.4-0.6-1.4-1.6c0.1-0.9,0.6-1.4,1.5-1.4
			c0.9,0.1,1.4,0.6,1.4,1.5C2.1,222.9,1.5,223.3,0.6,223.3L0.6,223.3z"/>
		<path fill-rule="evenodd" clip-rule="evenodd" fill="#A4A29E" d="M709.4,126.4c0-1,0.4-1.6,1.3-1.7c0.9-0.1,1.5,0.4,1.6,1.3
			s-0.5,1.5-1.3,1.6C710.1,127.8,709.6,127.1,709.4,126.4L709.4,126.4z"/>
		<path fill-rule="evenodd" clip-rule="evenodd" fill="#BAB9B6" d="M113.1,174.8c-1.2-0.1-1.8-0.6-1.8-1.6c0-0.9,0.6-1.4,1.4-1.5
			c0.9-0.1,1.5,0.4,1.6,1.3C114.5,174,113.9,174.6,113.1,174.8L113.1,174.8z"/>
		<path fill-rule="evenodd" clip-rule="evenodd" fill="#BEBDBA" d="M490,202.8c-0.9-0.1-1.6-0.4-1.6-1.4s0.5-1.7,1.6-1.6
			c0.9,0,1.4,0.6,1.4,1.5C491.3,202.2,490.7,202.6,490,202.8L490,202.8z"/>
		<path fill-rule="evenodd" clip-rule="evenodd" fill="#DCDCDA" d="M70.9,190.3c0.2-0.9,0.7-1.4,1.6-1.3c0.9,0.1,1.4,0.6,1.3,1.5
			s-0.7,1.4-1.5,1.3C71.3,191.8,70.9,191.1,70.9,190.3L70.9,190.3z"/>
		<path fill-rule="evenodd" clip-rule="evenodd" fill="#B2B1AD" d="M769.1,204.9c-0.9,0-1.5-0.5-1.5-1.4s0.4-1.5,1.3-1.5
			c0.9,0,1.5,0.5,1.6,1.4C770.5,204.2,770,204.7,769.1,204.9L769.1,204.9z"/>
		<path fill-rule="evenodd" clip-rule="evenodd" fill="#B2B1AD" d="M47,134.5c0.2-0.9,0.7-1.4,1.6-1.3c0.9,0.1,1.4,0.7,1.3,1.6
			c-0.1,0.9-0.7,1.4-1.6,1.3C47.4,135.9,47,135.4,47,134.5L47,134.5z"/>
		<path fill-rule="evenodd" clip-rule="evenodd" fill="#B1AFAC" d="M440.3,32.5c0.9,0.1,1.5,0.6,1.5,1.5s-0.6,1.4-1.5,1.4
			s-1.4-0.6-1.4-1.4C438.9,33.1,439.5,32.6,440.3,32.5L440.3,32.5z"/>
		<path fill-rule="evenodd" clip-rule="evenodd" fill="#B5B4B0" d="M92.3,176.3c0.1-0.9,0.6-1.4,1.4-1.4c1,0,1.6,0.6,1.5,1.6
			c-0.1,0.9-0.7,1.3-1.5,1.3C92.8,177.7,92.3,177.2,92.3,176.3L92.3,176.3z"/>
		<path fill-rule="evenodd" clip-rule="evenodd" fill="#9F9D99" d="M463.4,137.5c0.1-0.9,0.5-1.5,1.4-1.5s1.5,0.5,1.5,1.4
			s-0.5,1.5-1.4,1.5C464.1,139,463.6,138.4,463.4,137.5L463.4,137.5z"/>
		<path fill-rule="evenodd" clip-rule="evenodd" fill="#AAA8A4" d="M817.7,260c0.3-0.9,0.9-1.3,1.8-1.1c0.7,0.2,1.2,0.7,1.1,1.5
			c-0.1,0.9-0.7,1.4-1.6,1.3C818,261.6,817.7,260.9,817.7,260L817.7,260z"/>
		<path fill-rule="evenodd" clip-rule="evenodd" fill="#9E9C98" d="M339,190.8c1,0,1.6,0.5,1.6,1.4c0.1,0.9-0.4,1.4-1.3,1.5
			s-1.4-0.4-1.5-1.3C337.8,191.4,338.4,191,339,190.8L339,190.8z"/>
		<path fill-rule="evenodd" clip-rule="evenodd" fill="#969490" d="M486.2,207c0.1-0.9,0.6-1.4,1.6-1.4c0.8,0.1,1.2,0.6,1.2,1.4
			c0,0.9-0.6,1.4-1.5,1.3C486.6,208.2,486.3,207.7,486.2,207L486.2,207z"/>
		<path fill-rule="evenodd" clip-rule="evenodd" fill="#A19F9B" d="M230.6,202.3c0.1-0.9,0.6-1.4,1.5-1.4s1.4,0.6,1.4,1.4
			c0,0.9-0.5,1.4-1.4,1.4C231.2,203.7,230.7,203.1,230.6,202.3L230.6,202.3z"/>
		<path fill-rule="evenodd" clip-rule="evenodd" fill="#AAA8A4" d="M219.6,184.8c0.1-0.9,0.6-1.4,1.5-1.4s1.4,0.6,1.4,1.5
			s-0.6,1.5-1.5,1.4C220.2,186.3,219.7,185.7,219.6,184.8L219.6,184.8z"/>
		<path fill-rule="evenodd" clip-rule="evenodd" fill="#706E6B" d="M31.4,157c0.1-0.7,0.4-1.3,1.2-1.3c0.9,0,1.5,0.4,1.5,1.3
			c0,0.9-0.6,1.4-1.5,1.3C31.8,158.3,31.5,157.7,31.4,157L31.4,157z"/>
		<path fill-rule="evenodd" clip-rule="evenodd" fill="#868581" d="M550.9,142.2c-0.8-0.2-1.4-0.6-1.4-1.5c0.1-0.9,0.7-1.3,1.5-1.3
			c0.8,0.1,1.2,0.6,1.2,1.3C552.3,141.6,551.8,142.1,550.9,142.2L550.9,142.2z"/>
		<path fill-rule="evenodd" clip-rule="evenodd" fill="#333130" d="M655.1,133.4c-1.4-0.3-3.1-0.9-3.4,1.3c-0.4,2.1,1.4,2.1,2.8,2.3
			c-1.5,1.3-2.5,0.4-3.3-0.8c-0.7-1.2-0.5-2.5,0.7-3.3C653.1,132,654.2,132,655.1,133.4L655.1,133.4z"/>
		<path fill-rule="evenodd" clip-rule="evenodd" fill="#93918D" d="M127.8,123.1c0.1-0.9,0.7-1.4,1.6-1.3c0.7,0.1,1.3,0.5,1.2,1.3
			c0,0.9-0.5,1.5-1.4,1.5C128.3,124.6,127.9,124,127.8,123.1L127.8,123.1z"/>
		<path fill-rule="evenodd" clip-rule="evenodd" fill="#787774" d="M861,94.1c0.8,0.1,1.3,0.4,1.3,1.2c0.1,0.9-0.4,1.5-1.3,1.5
			c-0.7,0-1.3-0.4-1.4-1.2C859.5,94.7,860.1,94.3,861,94.1L861,94.1z"/>
		<path fill-rule="evenodd" clip-rule="evenodd" fill="#73716F" d="M750.8,71.4c0,0.9-0.5,1.5-1.3,1.5c-0.7,0-1.2-0.5-1.3-1.2
			c-0.1-0.9,0.5-1.4,1.3-1.5C750.1,70.2,750.6,70.6,750.8,71.4L750.8,71.4z"/>
		<path fill-rule="evenodd" clip-rule="evenodd" fill="#A09E9A" d="M142.3,47.6c0.1-0.8,0.7-1.3,1.6-1.3c0.7,0.1,1.2,0.5,1.2,1.3
			c0,0.9-0.5,1.5-1.4,1.5C142.8,49.1,142.4,48.5,142.3,47.6L142.3,47.6z"/>
		<path fill-rule="evenodd" clip-rule="evenodd" fill="#95938F" d="M363.7,36.1c0.9,0.1,1.5,0.6,1.4,1.4c0,0.9-0.6,1.4-1.5,1.3
			c-0.8,0-1.2-0.5-1.3-1.3C362.3,36.7,362.8,36.2,363.7,36.1L363.7,36.1z"/>
		<path fill-rule="evenodd" clip-rule="evenodd" fill="#B5B4B0" d="M732.8-1.6c0.1-0.9,0.6-1.5,1.4-1.5c0.8,0,1.5,0.4,1.5,1.3
			c0.1,1-0.5,1.6-1.5,1.6C733.4-0.2,733-0.8,732.8-1.6L732.8-1.6z"/>
		<path fill-rule="evenodd" clip-rule="evenodd" fill="#898884" d="M75.9,193.5c0.1-0.7,0.6-1.3,1.3-1.2c0.9,0,1.4,0.6,1.4,1.5
			c-0.1,0.9-0.7,1.3-1.6,1.2C76.2,194.8,75.9,194.3,75.9,193.5L75.9,193.5z"/>
		<path fill-rule="evenodd" clip-rule="evenodd" fill="#BBBAB7" d="M506.2,152.2c0.2-0.9,0.8-1.4,1.7-1.3c1,0.1,1.5,0.8,1.4,1.8
			c-0.1,0.9-0.7,1.3-1.6,1.2C506.5,153.8,506.1,153.2,506.2,152.2L506.2,152.2z"/>
		<path fill-rule="evenodd" clip-rule="evenodd" fill="#A7A5A1" d="M521.7,116.6c0.8,0.1,1.5,0.6,1.4,1.5c0,0.9-0.6,1.4-1.5,1.4
			s-1.4-0.6-1.4-1.5C520.2,117.2,520.8,116.7,521.7,116.6L521.7,116.6z"/>
		<path fill-rule="evenodd" clip-rule="evenodd" fill="#797875" d="M382.2,280.7c0.2-0.9,0.6-1.4,1.4-1.3c0.9,0,1.4,0.5,1.3,1.5
			c-0.1,0.9-0.7,1.3-1.6,1.2C382.5,281.9,382.2,281.3,382.2,280.7L382.2,280.7z"/>
		<path fill-rule="evenodd" clip-rule="evenodd" fill="#A5A39F" d="M491.2,279.2c-0.9-0.2-1.4-0.6-1.4-1.5c0-1,0.7-1.5,1.7-1.4
			c0.9,0.1,1.3,0.7,1.2,1.6C492.6,278.7,492,279.1,491.2,279.2L491.2,279.2z"/>
		<path fill-rule="evenodd" clip-rule="evenodd" fill="#A8A6A2" d="M164.5,269.5c0.1-0.9,0.7-1.4,1.5-1.3c0.9,0,1.4,0.6,1.3,1.5
			c0,0.9-0.6,1.4-1.5,1.4C165,271,164.5,270.4,164.5,269.5L164.5,269.5z"/>
		<path fill-rule="evenodd" clip-rule="evenodd" fill="#DCDCDA" d="M140.2,86.6c0-0.9,0.5-1.5,1.4-1.5c0.8,0,1.3,0.4,1.4,1.2
			c0.1,0.9-0.3,1.5-1.2,1.7C140.9,88,140.4,87.5,140.2,86.6L140.2,86.6z"/>
		<path fill-rule="evenodd" clip-rule="evenodd" fill="#787774" d="M571.5,31.8c1.1,0.3,2.4,1,2.8-0.7c0.5-1.8-0.9-2-2.2-2.1
			c1.3-1.5,2.2-0.5,2.9,0.6c0.7,1,0.4,2.1-0.6,2.8C573.3,33.2,572.1,33.7,571.5,31.8L571.5,31.8z"/>
		<path fill-rule="evenodd" clip-rule="evenodd" fill="#72706D" d="M97.9,208.2c0.1-0.9,0.6-1.5,1.5-1.4s1.4,0.6,1.4,1.5
			c-0.1,0.8-0.6,1.2-1.3,1.3C98.5,209.6,98,209.1,97.9,208.2L97.9,208.2z"/>
		<path fill-rule="evenodd" clip-rule="evenodd" fill="#ACAAA6" d="M542.7,25.8c0.1-0.9,0.6-1.4,1.5-1.4s1.4,0.6,1.3,1.5
			c0,0.7-0.5,1.2-1.3,1.3C543.2,27.2,542.8,26.7,542.7,25.8L542.7,25.8z"/>
		<path fill-rule="evenodd" clip-rule="evenodd" fill="#DBDBD9" d="M23.5,169.8c1.1,0,1.7,0.5,1.7,1.4s-0.5,1.4-1.4,1.4
			c-0.8,0-1.3-0.4-1.4-1.2C22.3,170.4,22.9,170,23.5,169.8L23.5,169.8z"/>
		<path fill-rule="evenodd" clip-rule="evenodd" fill="#E3E2E1" d="M136.5,196.2c0.9,0.1,1.5,0.5,1.4,1.4c0,0.9-0.6,1.4-1.5,1.3
			c-0.8,0-1.2-0.6-1.2-1.3C135.1,196.8,135.6,196.3,136.5,196.2L136.5,196.2z"/>
		<path fill-rule="evenodd" clip-rule="evenodd" fill="#9B9995" d="M91.4,126.9c0-0.9,0.5-1.4,1.3-1.5s1.3,0.4,1.4,1.1
			c0.2,0.9-0.3,1.5-1.1,1.6C92.1,128.3,91.6,127.7,91.4,126.9L91.4,126.9z"/>
		<path fill-rule="evenodd" clip-rule="evenodd" fill="#BEBDBA" d="M522.8,159.4c1.1,0,1.7,0.5,1.7,1.4c0,0.8-0.5,1.2-1.2,1.3
			c-0.9,0.1-1.5-0.4-1.5-1.4C521.8,160,522.3,159.6,522.8,159.4L522.8,159.4z"/>
		<path fill-rule="evenodd" clip-rule="evenodd" fill="#D2D1CF" d="M851.7,153.2c0.1-0.9,0.6-1.4,1.5-1.3c0.8,0,1.3,0.5,1.3,1.3
			c0,0.9-0.5,1.5-1.4,1.5C852.3,154.7,851.8,154.1,851.7,153.2L851.7,153.2z"/>
		<path fill-rule="evenodd" clip-rule="evenodd" fill="#989692" d="M451.4,5.3c-0.9,0-1.4-0.5-1.5-1.3c0-0.9,0.4-1.5,1.3-1.5
			s1.4,0.5,1.5,1.3C452.8,4.7,452.2,5.1,451.4,5.3L451.4,5.3z"/>
		<path fill-rule="evenodd" clip-rule="evenodd" fill="#A3A19D" d="M736.8,271.9c0.9,0.1,1.4,0.6,1.4,1.5c0,0.8-0.4,1.3-1.2,1.3
			c-0.9,0.1-1.5-0.3-1.6-1.2C735.4,272.5,735.9,272,736.8,271.9L736.8,271.9z"/>
		<path fill-rule="evenodd" clip-rule="evenodd" fill="#858480" d="M404.9,146.3c0.2-1,0.7-1.5,1.6-1.5c0.8,0.1,1.2,0.6,1.2,1.4
			c0,0.9-0.6,1.4-1.5,1.3C405.4,147.4,405.1,146.9,404.9,146.3L404.9,146.3z"/>
		<path fill-rule="evenodd" clip-rule="evenodd" fill="#A4A29E" d="M69.8,230.7c-0.1,0.9-0.6,1.4-1.5,1.4c-0.7-0.1-1.3-0.5-1.3-1.3
			c-0.1-0.9,0.5-1.5,1.4-1.5C69.3,229.2,69.7,229.8,69.8,230.7L69.8,230.7z"/>
		<path fill-rule="evenodd" clip-rule="evenodd" fill="#A6A4A0" d="M830,296.9c0.1-0.9,0.6-1.4,1.5-1.4c0.8,0,1.3,0.5,1.3,1.2
			c0.1,0.9-0.3,1.5-1.3,1.6C830.7,298.3,830.2,297.7,830,296.9L830,296.9z"/>
		<path fill-rule="evenodd" clip-rule="evenodd" fill="#E2E1E0" d="M114.8,203.9c0-0.9,0.4-1.5,1.3-1.6s1.5,0.4,1.6,1.3
			c0.1,0.9-0.4,1.4-1.3,1.5S115,204.7,114.8,203.9L114.8,203.9z"/>
		<path fill-rule="evenodd" clip-rule="evenodd" fill="#C1C0BE" d="M850.4,65.9c0.1-0.9,0.5-1.5,1.4-1.5c0.9-0.1,1.4,0.5,1.5,1.4
			s-0.5,1.5-1.3,1.5C851.1,67.3,850.6,66.7,850.4,65.9L850.4,65.9z"/>
		<path fill-rule="evenodd" clip-rule="evenodd" fill="#E0DFDE" d="M769.1,84.1c0.1-0.9,0.6-1.4,1.5-1.4s1.3,0.7,1.3,1.5
			c-0.1,0.8-0.5,1.2-1.3,1.2C769.7,85.5,769.2,85,769.1,84.1L769.1,84.1z"/>
		<path fill-rule="evenodd" clip-rule="evenodd" fill="#9A9894" d="M838.5,114.4c-0.9-0.1-1.5-0.5-1.4-1.4c0-0.9,0.6-1.4,1.5-1.3
			c0.8,0,1.2,0.6,1.2,1.3C839.9,113.8,839.4,114.3,838.5,114.4L838.5,114.4z"/>
		<path fill-rule="evenodd" clip-rule="evenodd" fill="#D3D2D0" d="M498.7,69c0.1-0.9,0.6-1.3,1.5-1.3c0.8,0.1,1.2,0.5,1.3,1.3
			c0,0.9-0.5,1.5-1.4,1.5S498.7,69.9,498.7,69L498.7,69z"/>
		<path fill-rule="evenodd" clip-rule="evenodd" fill="#989692" d="M328.6,39.3c0.9,0.2,1.4,0.6,1.3,1.6c-0.1,0.7-0.5,1.2-1.3,1.2
			c-0.9,0-1.4-0.5-1.4-1.4C327.2,39.7,327.8,39.3,328.6,39.3L328.6,39.3z"/>
		<path fill-rule="evenodd" clip-rule="evenodd" fill="#898884" d="M376.9,228c-0.8-0.1-1.2-0.5-1.3-1.3c-0.1-0.9,0.4-1.5,1.3-1.5
			c0.7,0,1.3,0.5,1.3,1.2C378.4,227.4,377.8,227.8,376.9,228L376.9,228z"/>
		<path fill-rule="evenodd" clip-rule="evenodd" fill="#908F8B" d="M25.4,115.5c-0.7-0.1-1.3-0.5-1.2-1.3c0-0.9,0.6-1.4,1.5-1.3
			c0.8,0.1,1.1,0.7,1.1,1.4C26.7,115.1,26.1,115.5,25.4,115.5L25.4,115.5z"/>
		<path fill-rule="evenodd" clip-rule="evenodd" fill="#5B5A58" d="M326.6,232.6c0.2-0.7,0.6-1.2,1.4-1.2s1.2,0.6,1.1,1.3
			c0,0.8-0.5,1.2-1.3,1.2C327.1,233.8,326.6,233.4,326.6,232.6L326.6,232.6z"/>
		<path fill-rule="evenodd" clip-rule="evenodd" fill="#80807D" d="M802.7,233.4c0.8,0.1,1.4,0.5,1.4,1.3c-0.1,0.9-0.6,1.4-1.6,1.3
			c-0.8-0.1-1.1-0.7-1.1-1.4C801.5,233.8,802,233.5,802.7,233.4L802.7,233.4z"/>
		<path fill-rule="evenodd" clip-rule="evenodd" fill="#80807D" d="M10.5,277.9c0.2-0.7,0.6-1.2,1.4-1.2c0.9,0,1.3,0.7,1.2,1.5
			c-0.1,0.7-0.6,1.2-1.4,1C10.9,279.1,10.4,278.7,10.5,277.9L10.5,277.9z"/>
		<path fill-rule="evenodd" clip-rule="evenodd" fill="#989692" d="M184.7,283.5c0-1,0.3-1.6,1.1-1.7c0.9-0.2,1.5,0.3,1.6,1.2
			c0.1,0.8-0.3,1.3-1.1,1.4C185.3,284.6,184.9,284,184.7,283.5L184.7,283.5z"/>
		<path fill-rule="evenodd" clip-rule="evenodd" fill="#72706D" d="M192.9,76.2c0.9,0.2,1.5,0.7,1.4,1.6c-0.1,0.8-0.6,1.2-1.4,1.1
			c-0.9-0.1-1.4-0.6-1.3-1.5C191.8,76.7,192.3,76.3,192.9,76.2L192.9,76.2z"/>
		<path fill-rule="evenodd" clip-rule="evenodd" fill="#6B6A67" d="M91.7,168.1c0.1-0.7,0.3-1.3,1.1-1.4c0.9,0,1.4,0.5,1.5,1.4
			c0,0.8-0.6,1.2-1.3,1.2C92.3,169.3,91.8,168.8,91.7,168.1L91.7,168.1z"/>
		<path fill-rule="evenodd" clip-rule="evenodd" fill="#838280" d="M711.1,150.2c0.8,0.1,1.4,0.5,1.4,1.5c-0.1,0.7-0.5,1.3-1.3,1.2
			c-0.9,0-1.4-0.6-1.4-1.5C709.8,150.7,710.4,150.3,711.1,150.2L711.1,150.2z"/>
		<path fill-rule="evenodd" clip-rule="evenodd" fill="#656461" d="M818-4.6c0.7,0.1,1.2,0.6,1.2,1.3s-0.4,1.3-1.3,1.2
			c-0.7-0.1-1.2-0.6-1.2-1.3C816.7-4.2,817.3-4.5,818-4.6L818-4.6z"/>
		<path fill-rule="evenodd" clip-rule="evenodd" fill="#535250" d="M339.3,169.8c0-0.8,0.4-1.3,1.2-1.4c0.7-0.1,1.4,0.3,1.4,1.1
			s-0.5,1.3-1.2,1.4C339.7,171.1,339.4,170.5,339.3,169.8L339.3,169.8z"/>
		<path fill-rule="evenodd" clip-rule="evenodd" fill="#94928E" d="M644.9,75.7c0.1-0.7,0.5-1.3,1.3-1.2c0.9,0,1.4,0.6,1.4,1.5
			c0,0.8-0.6,1.2-1.3,1.2C645.4,77.2,644.9,76.7,644.9,75.7L644.9,75.7z"/>
		<path fill-rule="evenodd" clip-rule="evenodd" fill="#5B5A58" d="M724.3,36.6c0.8,0,1.4,0.3,1.4,1.2c0,0.8-0.5,1.3-1.2,1.4
			c-0.8,0.1-1.3-0.4-1.3-1.2C723,37.2,723.5,36.8,724.3,36.6L724.3,36.6z"/>
		<path fill-rule="evenodd" clip-rule="evenodd" fill="#F1F2F2" d="M809,181.6c0.1,2.1-0.4,2.3-2.9,1.2
			C806.2,180.6,806.8,180.4,809,181.6L809,181.6z"/>
		<path fill-rule="evenodd" clip-rule="evenodd" fill="#B6B5B1" d="M561.6,183.3c0.1-0.9,0.7-1.3,1.6-1.2c0.7,0.1,1.2,0.5,1.2,1.3
			c0,0.9-0.6,1.5-1.4,1.5C562.2,184.9,561.7,184.3,561.6,183.3L561.6,183.3z"/>
		<path fill-rule="evenodd" clip-rule="evenodd" fill="#676663" d="M427.5,121.5c0.9,0.1,1.5,0.6,1.5,1.4s-0.6,1.2-1.3,1.2
			c-0.8,0-1.2-0.5-1.3-1.2C426.3,122.1,426.7,121.6,427.5,121.5L427.5,121.5z"/>
		<path fill-rule="evenodd" clip-rule="evenodd" fill="#8F8D8A" d="M221.7,31.1c0.1-0.8,0.4-1.3,1.2-1.4c0.9-0.1,1.5,0.4,1.5,1.3
			c0,0.7-0.4,1.3-1.2,1.4C222.3,32.5,221.9,31.9,221.7,31.1L221.7,31.1z"/>
		<path fill-rule="evenodd" clip-rule="evenodd" fill="#CDCCCA" d="M174.5,196.1c0.2-0.9,0.7-1.3,1.6-1.3c0.8,0.1,1.2,0.6,1.2,1.3
			c0,0.9-0.5,1.4-1.4,1.4C175,197.6,174.5,197,174.5,196.1L174.5,196.1z"/>
		<path fill-rule="evenodd" clip-rule="evenodd" fill="#C0BFBC" d="M528.8-12.3c0.1-0.8,0.5-1.2,1.3-1.3c0.9,0,1.4,0.5,1.4,1.4
			c0,0.8-0.5,1.2-1.2,1.3C529.3-10.8,528.9-11.4,528.8-12.3L528.8-12.3z"/>
		<path fill-rule="evenodd" clip-rule="evenodd" fill="#777673" d="M615.3,299.4c0-0.8,0.3-1.3,1.1-1.4c1-0.1,1.5,0.4,1.5,1.3
			c0,0.8-0.4,1.3-1.2,1.3C616,300.6,615.5,300.1,615.3,299.4L615.3,299.4z"/>
		<path fill-rule="evenodd" clip-rule="evenodd" fill="#DFDFDD" d="M159.5,89.5c0.1-0.8,0.4-1.3,1.2-1.4c0.9-0.1,1.5,0.4,1.5,1.3
			c0,0.8-0.4,1.3-1.2,1.4C160.1,90.9,159.6,90.3,159.5,89.5L159.5,89.5z"/>
		<path fill-rule="evenodd" clip-rule="evenodd" fill="#757471" d="M894.9,60.4c-0.6,1.7-1.8,1.5-2.9,0.6c-1-0.8-0.9-2,0-2.7
			c1.1-0.9,2.3-1,2.9,0.7c-0.2,0.5-1.2,0.1-1.2,0.8C893.8,60.1,894.6,60,894.9,60.4L894.9,60.4z"/>
		<path fill-rule="evenodd" clip-rule="evenodd" fill="#8B8A86" d="M388.2,179.6c0.1-0.9,0.6-1.4,1.5-1.3c0.8,0.1,1.2,0.6,1.2,1.4
			c0,0.9-0.6,1.4-1.5,1.3C388.7,180.8,388.3,180.3,388.2,179.6L388.2,179.6z"/>
		<path fill-rule="evenodd" clip-rule="evenodd" fill="#757471" d="M490,133.1c0-0.7,0.4-1.2,1.2-1.3c0.8-0.1,1.4,0.3,1.5,1.1
			c0.1,0.9-0.4,1.5-1.3,1.5C490.6,134.3,490.1,133.9,490,133.1L490,133.1z"/>
		<path fill-rule="evenodd" clip-rule="evenodd" fill="#A5A39F" d="M34.7,82.3c0.1-0.8,0.5-1.3,1.2-1.3c0.9,0,1.4,0.6,1.3,1.5
			c-0.1,0.8-0.6,1.2-1.4,1.2C35.2,83.6,34.8,83.1,34.7,82.3L34.7,82.3z"/>
		<path fill-rule="evenodd" clip-rule="evenodd" fill="#EEEEEE" d="M894.9,60.4c-0.8,0.1-1.7,1.1-2.5,0.1c-0.4-0.5-0.4-1,0-1.5
			c0.9-1,1.7,0,2.5,0.1C895.5,59.5,895.6,60,894.9,60.4L894.9,60.4z"/>
		<path fill-rule="evenodd" clip-rule="evenodd" fill="#595856" d="M805.1,85.8c0.1-0.8,0.6-1.2,1.3-1.2s1.3,0.4,1.3,1.2
			c0,0.9-0.7,1.3-1.5,1.3C805.5,87.1,805.1,86.6,805.1,85.8L805.1,85.8z"/>
		<path fill-rule="evenodd" clip-rule="evenodd" fill="#878682" d="M540.1,208.3c0-0.9,0.4-1.4,1.1-1.5c0.9-0.1,1.4,0.5,1.4,1.3
			s-0.6,1.2-1.3,1.2C540.5,209.4,540.2,208.8,540.1,208.3L540.1,208.3z"/>
		<path fill-rule="evenodd" clip-rule="evenodd" fill="#73716F" d="M267.6,89.4c0.9,0,1.4,0.5,1.4,1.3s-0.4,1.3-1.1,1.4
			c-0.9,0.1-1.4-0.5-1.4-1.4C266.5,89.9,267,89.6,267.6,89.4L267.6,89.4z"/>
		<path fill-rule="evenodd" clip-rule="evenodd" fill="#777673" d="M56.3,24c0.8,0,1.2,0.4,1.3,1.2c0.1,0.8-0.3,1.3-1.1,1.4
			s-1.3-0.4-1.3-1.1C55.1,24.6,55.5,24.2,56.3,24L56.3,24z"/>
		<path fill-rule="evenodd" clip-rule="evenodd" fill="#838280" d="M574,175.2c0.8,0.1,1.4,0.5,1.4,1.3c0,0.9-0.5,1.5-1.5,1.4
			c-0.8-0.1-1.2-0.6-1.2-1.4C572.7,175.6,573.3,175.3,574,175.2L574,175.2z"/>
		<path fill-rule="evenodd" clip-rule="evenodd" fill="#52514F" d="M311.3,202.8c0.8,0.1,1.2,0.6,1.2,1.3c0,0.6-0.2,1.2-0.9,1.2
			c-0.8,0.1-1.3-0.4-1.4-1.1C310.1,203.5,310.5,203,311.3,202.8L311.3,202.8z"/>
		<path fill-rule="evenodd" clip-rule="evenodd" fill="#575654" d="M630.9,309.6L630.9,309.6c0-0.8,0.5-1.3,1.2-1.4
			c0.8-0.1,1.3,0.2,1.4,1"/>
		<path fill-rule="evenodd" clip-rule="evenodd" fill="#706E6B" d="M133.2,147.4c0.7,0,1.3,0.3,1.4,1.1c0.1,0.9-0.4,1.5-1.3,1.5
			c-0.7,0-1.2-0.6-1.3-1.3C131.9,147.9,132.5,147.6,133.2,147.4L133.2,147.4z"/>
		<path fill-rule="evenodd" clip-rule="evenodd" fill="#605E5C" d="M251.1,271.6c0.8,0.1,1.3,0.5,1.3,1.3c-0.1,0.8-0.6,1.2-1.4,1.1
			c-0.6-0.1-1.1-0.5-1.1-1.1C249.9,272.1,250.4,271.7,251.1,271.6L251.1,271.6z"/>
		<path fill-rule="evenodd" clip-rule="evenodd" fill="#7E7C79" d="M406.9,290.8c0.1-0.8,0.6-1.2,1.4-1.1s1.2,0.7,1,1.5
			c-0.1,0.6-0.6,1-1.2,1C407.3,292,407,291.5,406.9,290.8L406.9,290.8z"/>
		<path fill-rule="evenodd" clip-rule="evenodd" fill="#676663" d="M746.2,219c0-0.9,0.4-1.3,1.2-1.3s1.2,0.5,1.2,1.3
			c0,0.6-0.4,1-1.1,1.1C746.7,220.1,746.3,219.7,746.2,219L746.2,219z"/>
		<path fill-rule="evenodd" clip-rule="evenodd" fill="#646260" d="M197.9,177.6c-0.8,0-1.3-0.3-1.4-1.1c0-0.8,0.5-1.2,1.2-1.3
			c0.7,0,1.1,0.4,1.2,1C199.1,177,198.6,177.4,197.9,177.6L197.9,177.6z"/>
		<path fill-rule="evenodd" clip-rule="evenodd" fill="#9D9B97" d="M397.1,155.5c0.2-0.8,0.6-1.2,1.4-1.2c0.8,0.1,1.2,0.6,1.1,1.4
			c-0.1,0.8-0.6,1.2-1.4,1.2C397.5,156.8,397.1,156.3,397.1,155.5L397.1,155.5z"/>
		<path fill-rule="evenodd" clip-rule="evenodd" fill="#888783" d="M196.8,270c0.1-1,0.5-1.4,1.3-1.4s1.2,0.5,1.2,1.3
			s-0.5,1.2-1.3,1.2S196.9,270.5,196.8,270L196.8,270z"/>
		<path fill-rule="evenodd" clip-rule="evenodd" fill="#A19F9B" d="M368.2,137.7c-0.8-0.1-1.3-0.5-1.2-1.3c0-0.8,0.5-1.3,1.3-1.2
			c0.8,0,1.3,0.5,1.2,1.3C369.4,137.3,368.9,137.7,368.2,137.7L368.2,137.7z"/>
		<path fill-rule="evenodd" clip-rule="evenodd" fill="#898884" d="M901.9,295.4c0.8,0.1,1.2,0.5,1.2,1.3s-0.5,1.2-1.3,1.2
			s-1.2-0.5-1.2-1.3C900.7,295.9,901.2,295.5,901.9,295.4L901.9,295.4z"/>
		<path fill-rule="evenodd" clip-rule="evenodd" fill="#676663" d="M402.8,191.6c-0.8-0.1-1.2-0.5-1.2-1.3s0.5-1.3,1.3-1.2
			c0.6,0,1,0.5,1.1,1.1C404,191,403.6,191.5,402.8,191.6L402.8,191.6z"/>
		<path fill-rule="evenodd" clip-rule="evenodd" fill="#6C6B68" d="M558.9,200.8c-0.7-0.1-1.3-0.5-1.2-1.3s0.6-1.2,1.4-1.1
			c0.7,0.1,1.1,0.5,1.1,1.1C560.2,200.4,559.6,200.7,558.9,200.8L558.9,200.8z"/>
		<path fill-rule="evenodd" clip-rule="evenodd" fill="#585755" d="M331.2,94.1c0-0.7,0.3-1.1,1-1.2c0.8-0.1,1.3,0.2,1.5,1
			c0.1,0.7-0.3,1.1-1,1.2C331.9,95.2,331.4,94.8,331.2,94.1L331.2,94.1z"/>
		<path fill-rule="evenodd" clip-rule="evenodd" fill="#5A5957" d="M348,231.4c-0.9-0.1-1.4-0.5-1.3-1.3c0-0.7,0.5-1.3,1.3-1.2
			c0.7,0,1,0.5,1.1,1.1C349.1,230.8,348.6,231.2,348,231.4L348,231.4z"/>
		<path fill-rule="evenodd" clip-rule="evenodd" fill="#A9A7A3" d="M548.1,50.9c0.1-0.8,0.5-1.2,1.3-1.2c0.9,0,1.4,0.6,1.3,1.5
			c-0.1,0.7-0.7,1.2-1.4,1.1C548.4,52.2,548.1,51.7,548.1,50.9L548.1,50.9z"/>
		<path fill-rule="evenodd" clip-rule="evenodd" fill="#A4A29E" d="M420.9-10.9c-0.8-0.1-1.2-0.5-1.2-1.3c0-0.9,0.6-1.4,1.5-1.3
			c0.7,0.1,1.1,0.6,1.1,1.4C422.2-11.4,421.7-11,420.9-10.9L420.9-10.9z"/>
		<path fill-rule="evenodd" clip-rule="evenodd" fill="#8C8B87" d="M734.1,82.4c-0.1,0.8-0.5,1.3-1.3,1.2c-0.8,0-1.3-0.5-1.2-1.3
			c0-0.8,0.5-1.2,1.3-1.2C733.7,81.2,734.1,81.7,734.1,82.4L734.1,82.4z"/>
		<path fill-rule="evenodd" clip-rule="evenodd" fill="#696865" d="M486,68.4c0.1-0.8,0.6-1.2,1.4-1.1s1.1,0.7,1,1.4
			c-0.1,0.6-0.5,1-1.2,0.9C486.4,69.6,486.1,69.1,486,68.4L486,68.4z"/>
		<path fill-rule="evenodd" clip-rule="evenodd" fill="#62605E" d="M115.1,139.9c-0.7,0-1.1-0.3-1.2-1c-0.1-0.8,0.3-1.3,1.1-1.4
			c0.7-0.1,1.1,0.3,1.2,1C116.3,139.3,115.9,139.8,115.1,139.9L115.1,139.9z"/>
		<path fill-rule="evenodd" clip-rule="evenodd" fill="#838280" d="M634.2,83c0-0.7,0.3-1.1,1-1.1c0.8,0,1.2,0.4,1.2,1.2
			c0,0.6-0.5,1-1.1,1C634.7,84.1,634.3,83.7,634.2,83L634.2,83z"/>
		<path fill-rule="evenodd" clip-rule="evenodd" fill="#80807D" d="M809,181.6c-1.4-0.6-2.7-1-2.9,1.2c-1.2-0.9-0.4-1.7,0.3-2.1
			C807.5,180.1,808.6,180,809,181.6L809,181.6z"/>
		<path fill-rule="evenodd" clip-rule="evenodd" fill="#EBEBEA" d="M-12.6,41.4"/>
		<path fill-rule="evenodd" clip-rule="evenodd" fill="#F9FAFA" d="M278.9,166.4c0.2-1.4,1.1-2.5,2.6-2.6c1.6-0.2,2.5,0.8,2.6,2.4
			c0.1,1.6-0.8,2.5-2.4,2.7C279.9,169,279.2,167.9,278.9,166.4L278.9,166.4z"/>
		<path fill-rule="evenodd" clip-rule="evenodd" fill="#F7F8F8" d="M469.2,210.2c0.1-1.1,0.7-1.8,1.9-1.7c1.2,0.1,1.7,0.8,1.7,1.9
			c0,1.2-0.7,1.8-1.8,1.8C469.8,212.1,469.3,211.3,469.2,210.2L469.2,210.2z"/>
		<path fill-rule="evenodd" clip-rule="evenodd" fill="#ECECEB" d="M502.2,210.1c0.2-1.1,0.7-1.8,1.9-1.7c1.2,0.1,1.7,0.8,1.6,2
			c-0.1,1-0.8,1.5-1.8,1.5C502.8,212,502.2,211.3,502.2,210.1L502.2,210.1z"/>
		<path fill-rule="evenodd" clip-rule="evenodd" fill="#F3F4F4" d="M890-14.7c1,0,1.6,0.6,1.5,1.6c0,0.9-0.5,1.4-1.4,1.4
			c-1,0-1.6-0.6-1.5-1.6C888.5-14.2,889.1-14.6,890-14.7L890-14.7z"/>
		<path fill-rule="evenodd" clip-rule="evenodd" fill="#E6E6E5" d="M450.8,205c0.1-1.1,0.7-1.8,1.8-1.8c1,0,1.6,0.7,1.6,1.6
			c0,1.1-0.6,1.8-1.8,1.8C451.5,206.6,450.9,206.1,450.8,205L450.8,205z"/>
		<path fill-rule="evenodd" clip-rule="evenodd" fill="#F2F3F3" d="M108.8-0.2c0.2-0.9,0.8-1.6,1.8-1.5c0.9,0.1,1.4,0.7,1.3,1.6
			s-0.7,1.3-1.6,1.3C109.4,1.1,108.9,0.7,108.8-0.2L108.8-0.2z"/>
		<path fill-rule="evenodd" clip-rule="evenodd" fill="#E6E6E5" d="M542.3,255.6c0.1-1.1,0.5-1.8,1.5-1.9c1.1-0.1,1.9,0.5,1.9,1.7
			s-0.7,1.8-1.8,1.8C542.9,257.2,542.4,256.5,542.3,255.6L542.3,255.6z"/>
	</g>
</g>
</svg>
