<?xml version="1.0" encoding="utf-8"?>
<!-- Generator: Adobe Illustrator 24.0.2, SVG Export Plug-In . SVG Version: 6.00 Build 0)  -->
<svg version="1.1" id="圖層_1" xmlns="http://www.w3.org/2000/svg" xmlns:xlink="http://www.w3.org/1999/xlink" x="0px" y="0px"
	 viewBox="0 0 1042.6 650.2" enable-background="new 0 0 1042.6 650.2" xml:space="preserve">

	 <path fill="#D8DADA" d="M1042.8,441.9v-67.5v-116l-734-208l-31.3,22.1l-0.1,0v20.7L14.2,279.1v27.8l0,0l0,0v0.1v67.5v53.3v0
	 	c-9.3,6.6-13.8,16.4-14,26.1h0v17.3h0.1c0.8,13.2,9.2,25.9,24.1,30.1l40.2,11.3c27.7,7.8,57.4,2.7,80.9-13.7v0l0.4-0.3
	 	c0,0,0.1,0,0.1-0.1l19.4-13.7l0,0L748.3,650L1042.8,441.9z M422.6,235.5L422.6,235.5L311,314.3l0,0L422.6,235.5z M428.4,207.3
	 	C428.4,207.3,428.4,207.3,428.4,207.3l0-43.3v-0.1l0,0V207.3z M406.6,179.3l-6.9,4.9l5-3.5L406.6,179.3z M138.6,320.9l-4.8,3.4
	 	L138.6,320.9L138.6,320.9z M361.8,145l-74.2-21v0L361.8,145L361.8,145z M105,332.7L105,332.7l-80.5-22.8l0,0L105,332.7z M129.1,353
	 	l-4-1.1L129.1,353v13.5l9.5,2.7v0l-9.5-2.7V353z M141.1,377.2L141.1,377.2l0,6.3l12.1,3.4l-12.1-3.4V377.2z M198.9,393.5V380v-54
	 	l-28.5-8.1l28.4,8.1l197.9-139.8l0.1,0L198.9,326.1V393.5l-20.6,14.6v0L198.9,393.5z M1011.4,280.7l-0.5-0.2L1011.4,280.7
	 	L1011.4,280.7z M49.5,493.8l-25.1-7.1c-0.8-0.2-1.5-0.5-2.2-0.7c0.7,0.3,1.5,0.5,2.2,0.7L49.5,493.8z M15.2,482.6
	 	c-0.6-0.4-1.1-0.8-1.7-1.2C14.1,481.9,14.6,482.2,15.2,482.6z M21.8,485.9c-0.7-0.3-1.4-0.5-2-0.8C20.4,485.4,21.1,485.6,21.8,485.9
	 	z M19.4,484.9c-0.7-0.3-1.3-0.6-2-1C18,484.3,18.7,484.6,19.4,484.9z M17.3,483.8c-0.6-0.3-1.2-0.7-1.8-1
	 	C16.1,483.2,16.7,483.5,17.3,483.8z M0.2,454c0,0.6,0,1.1,0,1.7C0.2,455.1,0.2,454.5,0.2,454z M0.3,456.3c0,0.6,0.1,1.1,0.1,1.7
	 	C0.3,457.4,0.3,456.9,0.3,456.3z M8.4,476.8c0.4,0.5,0.9,1,1.3,1.4C9.3,477.7,8.9,477.3,8.4,476.8z M0.4,458.7
	 	c0.1,0.5,0.1,0.9,0.2,1.4C0.6,459.6,0.5,459.1,0.4,458.7z M0.8,460.8c0.1,0.5,0.2,1,0.3,1.5C1,461.8,0.8,461.3,0.8,460.8z
	 	 M1.2,462.9c0.1,0.6,0.3,1.1,0.5,1.6C1.5,464,1.4,463.5,1.2,462.9z M1.9,465.2c0.2,0.5,0.3,1,0.5,1.5C2.2,466.2,2,465.7,1.9,465.2z
	 	 M2.6,467.2c0.2,0.5,0.4,1,0.6,1.5C3,468.2,2.8,467.7,2.6,467.2z M3.5,469.2c0.3,0.5,0.5,1.1,0.8,1.6C4,470.3,3.7,469.7,3.5,469.2z
	 	 M4.5,471.3c0.3,0.5,0.6,1.1,0.9,1.6C5.2,472.4,4.8,471.8,4.5,471.3z M5.7,473.2c0.3,0.5,0.6,0.9,1,1.4C6.3,474.1,6,473.6,5.7,473.2
	 	z M6.9,474.9c0.4,0.5,0.8,1,1.2,1.5C7.7,475.9,7.3,475.4,6.9,474.9z M10,478.4c0.4,0.4,0.9,0.9,1.4,1.3
	 	C10.9,479.3,10.4,478.9,10,478.4z M13.2,481.2c-0.5-0.4-1.1-0.8-1.6-1.3C12.1,480.4,12.6,480.8,13.2,481.2z M85.6,501.5
	 	c0.9,0,1.9,0.1,2.8,0.1C87.5,501.6,86.5,501.5,85.6,501.5z M146,484l4.7-3.3l0,0L146,484z M165.3,417.3L165.3,417.3v-13.5l-12.1-3.4
	 	l12.1,3.4L165.3,417.3l11.1-7.8v0L165.3,417.3l583,165.2L165.3,417.3z"/>
<g>
	<g>
		<g>
			<g>
				<path fill-rule="evenodd" clip-rule="evenodd" fill="#E8ECF7" d="M274.1,174.1c1-0.4,1.9-0.7,2.8-1.1c-0.2,3.9-2.6,7.2-7.4,9.9
					c-5,2.9-11,4.3-18,4.3c-7,0-13-1.4-17.9-4.3c-4.2-2.4-6.7-5.3-7.3-8.5c-0.1-0.5-0.2-1-0.2-1.5c0.9,0.4,1.9,0.8,2.9,1.2
					c1.2,1.3,2.7,2.4,4.6,3.5c5,2.9,11,4.3,17.9,4.3c7,0,13-1.4,18-4.3C271.4,176.5,272.9,175.3,274.1,174.1z"/>
				<path fill-rule="evenodd" clip-rule="evenodd" fill="#D3D4D5" d="M228.9,174.1c6.6,2.5,14.2,3.7,22.6,3.7c8.4,0,16-1.2,22.6-3.7
					c-1.2,1.3-2.7,2.4-4.6,3.5c-5,2.9-11,4.3-18,4.3c-7,0-13-1.4-17.9-4.3C231.6,176.5,230.1,175.3,228.9,174.1z"/>
			</g>
			<path fill-rule="evenodd" clip-rule="evenodd" fill="#3FDF9D" d="M284.1,25.6c0,0.1,0,0.3,0,0.4c0,5.1-3,9.4-9.2,13
				c-6.1,3.5-13.5,5.3-22.2,5.3c-8.7,0-16.1-1.8-22.2-5.4c-6.1-3.5-9.2-7.8-9.3-12.8c0-0.2,0-0.4,0-0.5c0.2-4.9,3.3-9.1,9.2-12.5
				c0.9-0.5,1.8-1,2.8-1.4v13.7c0,0.3,0,0.6,0,0.9c0,3,1.8,5.5,5.4,7.5c3.5,2.1,7.9,3.1,12.9,3.1c5,0,9.4-1,13-3.1
				c3.6-2.1,5.4-4.6,5.4-7.4c0-0.2,0-0.4,0-0.6h0V10.8c1.7,0.6,3.4,1.4,5,2.3C280.9,16.7,284,20.8,284.1,25.6z"/>
			<path fill-rule="evenodd" clip-rule="evenodd" fill="#2AC589" d="M284.1,25.6c0,0.1,0,0.3,0,0.4c0,5.1-3,9.4-9.2,13
				c-6.1,3.5-13.5,5.3-22.2,5.3c-8.7,0-16.1-1.8-22.2-5.4c-6.1-3.5-9.2-7.8-9.3-12.8c0-0.2,0-0.4,0-0.5c0,0-12.2,125.9-12.2,127.4
				c0,1.5,0.2,2.9,0.5,4.3c0.4,1.3,0.9,2.5,1.5,3.7c1.6,2.8,4.2,5.4,7.8,7.8c0.8,0.6,1.7,1.1,2.6,1.6c1.6,0.9,3.3,1.8,5,2.6
				c7.2,3.2,15.6,4.8,25,4.8c9.4,0,17.8-1.6,25.1-4.7c1.8-0.8,3.5-1.7,5.2-2.6c1.3-0.8,2.5-1.5,3.6-2.3c0.7-0.5,1.4-1.1,2.1-1.6
				c0,0,0.1,0,0.1-0.1c1.6-1.4,2.8-2.8,3.8-4.3c1-1.5,1.7-3.1,2.2-4.7c0-0.1,0-0.1,0-0.1c0.4-1.4,0.6-2.9,0.6-4.3
				C294.1,151.5,284.1,25.6,284.1,25.6z"/>
			<g>
				<path fill="#18B676" d="M209.7,145c-0.5,4.9-0.7,7.9-0.7,8.1c0,1.5,0.2,2.9,0.5,4.3c0.4,1.3,0.9,2.5,1.5,3.7
					c1.6,2.8,4.2,5.4,7.8,7.8c0.8,0.6,1.7,1.1,2.6,1.6c1.6,0.9,3.3,1.8,5,2.6c7.2,3.2,15.6,4.8,25,4.8c9.4,0,17.8-1.6,25.1-4.7
					c1.8-0.8,3.5-1.7,5.2-2.6c1.3-0.8,2.5-1.5,3.6-2.3c0.7-0.5,1.4-1.1,2.1-1.6c0,0,0.1,0,0.1-0.1c1.6-1.4,2.8-2.8,3.8-4.3
					c1-1.5,1.7-3.1,2.2-4.7c0-0.1,0-0.1,0-0.1c0.4-1.4,0.6-2.9,0.6-4.3c0-0.2-0.1-2.1-0.4-5.4C252.5,164,223.4,153,209.7,145z"/>
				<path fill="#2AC589" d="M286.6,56.5c-1.4-17.8-2.4-30.9-2.4-30.9c0,0.1,0,0.3,0,0.4c0,5.1-3,9.4-9.2,13
					c-6.1,3.5-13.5,5.3-22.2,5.3c-8.7,0-16.1-1.8-22.2-5.4c-6.1-3.5-9.2-7.8-9.3-12.8c0-0.2,0-0.4,0-0.5c0,0-0.9,9-2.1,22.3
					c-0.2,1.9-0.4,3.8-0.6,5.9c12.5,4.5,34,8.5,68.3,5.2C286.7,58.1,286.6,57.3,286.6,56.5z"/>
				<path fill="#18B676" d="M287.3,66.3c-0.2-2.5-0.4-5-0.6-7.3c-34.3,3.4-55.8-0.7-68.3-5.2c-0.5,5.3-1.1,11-1.6,17
					c-0.1,1.4-0.3,2.8-0.4,4.2c14,2.3,38.2,3.9,71.4-2.4C287.6,70.4,287.5,68.3,287.3,66.3z"/>
				<g>
					<path fill="#3ACD90" d="M216.4,75c-0.4,4.2-0.8,8.5-1.2,12.8c-0.1,1.4-0.3,2.8-0.4,4.2c17.1,3.5,34.5,4.1,49.7,3.5
						c-12.5-6.9-21.5-13.8-27.2-18.6C228.8,76.7,221.8,75.9,216.4,75z"/>
					<path fill="#2AC589" d="M289.1,88.7c-0.4-5.4-0.9-10.9-1.3-16.1c-20.3,3.9-37.2,4.8-50.5,4.4c5.6,4.8,14.7,11.6,27.2,18.6
						c9.3-0.4,17.8-1.2,25-2.2C289.3,91.8,289.2,90.2,289.1,88.7z"/>
				</g>
				<g>
					<path fill="#2AC589" d="M291.4,118.4c-13.6,3.7-39.7,8.3-79.6,4.5c-0.6,6.1-1.1,11.6-1.5,16.2c-0.2,2.2-0.4,4.2-0.6,5.9
						c3.9,2.3,9.1,4.8,15.5,6.9c11.5-1.5,38.7-6.8,67-23.5C291.9,125.2,291.7,121.9,291.4,118.4z"/>
					<path fill="#3ACD90" d="M292.2,128.4c-28.2,16.8-55.4,22-67,23.5c15.9,5.1,39.1,7.4,68.5-4.3c-0.1-1.3-0.2-2.8-0.3-4.4
						C293,139.2,292.6,134.1,292.2,128.4z"/>
				</g>
				<g>
					<path fill="#16A468" d="M212,120.9c-0.1,0.7-0.1,1.3-0.2,2c20.8,1.9,37.8,1.6,51.3,0.4c-25.1-2-41.1-12.5-49.4-19.9
						C213.1,109.5,212.5,115.4,212,120.9z"/>
					<path fill="#18B676" d="M291.2,115.3c-0.5-7-1.1-14.4-1.7-22c-19.1,2.5-47.1,4.3-74.7-1.4c-0.4,3.8-0.7,7.7-1.1,11.4
						c8.4,7.4,24.3,17.9,49.4,19.9c12.4-1.2,21.8-3.1,28.3-4.9C291.3,117.3,291.2,116.3,291.2,115.3z"/>
				</g>
			</g>
			<g>
				<path fill="#CED7E4" d="M264.4,17.2c-3.6,2.1-7.9,3.1-13,3.1c-5.1,0-9.4-1.1-12.9-3.1c-2.8-1.6-4.5-3.4-5.2-5.5
					c-0.1-0.4-0.2-0.7-0.2-1v1.1v13.7c0,0.3,0,0.6,0,0.9c0,3,1.8,5.5,5.4,7.5c3.5,2.1,7.9,3.1,12.9,3.1c5,0,9.4-1,13-3.1
					c3.6-2.1,5.4-4.6,5.4-7.4c0-0.2,0-0.4,0-0.6h0V10.8h-0.2C269.3,13.2,267.6,15.3,264.4,17.2z"/>
			</g>
			<path fill-rule="evenodd" clip-rule="evenodd" fill="#E8ECF7" d="M233.2,11.6c0-0.4,0-0.7,0-1c0-0.4,0-0.8,0.1-1.2
				c0.1-0.6,0.3-1.2,0.6-1.8c0.3-0.6,0.7-1.1,1.1-1.6c0.5-0.6,1-1,1.6-1.5c0.7-0.5,1.4-1,2.1-1.4c3.5-2.1,7.8-3.2,12.9-3.2
				c5.1,0,9.4,1,13,3.1c2.9,1.7,4.7,3.8,5.2,6.1c0.1,0.5,0.1,1,0.1,1.5c0,0.3,0,0.6-0.1,1c-0.3,2.5-2.1,4.6-5.3,6.5
				c-3.6,2.1-7.9,3.1-13,3.1c-5.1,0-9.4-1.1-12.9-3.1c-2.8-1.6-4.5-3.4-5.2-5.5C233.3,12.2,233.2,11.9,233.2,11.6z"/>
			<path fill-rule="evenodd" clip-rule="evenodd" fill="#8F8F92" d="M240.1,10.2c0.2-1.6,1.3-3,3.3-4.1c2.2-1.3,4.9-1.9,8-1.9
				c3.2,0,5.9,0.6,8.1,1.9c1.8,1,2.9,2.2,3.2,3.6c0.1,0.3,0.1,0.7,0.1,1.1c0,1.8-1.1,3.4-3.3,4.6c-2.3,1.3-4.9,1.9-8.1,1.9
				c-3.1,0-5.8-0.7-8.1-2c-2.2-1.3-3.3-2.8-3.3-4.6C240.1,10.6,240.1,10.4,240.1,10.2z"/>
		</g>
		<g>
			<g>
				<path fill-rule="evenodd" clip-rule="evenodd" fill="#E8ECF7" d="M217.1,214.3c1-0.4,1.9-0.7,2.8-1.1c-0.2,3.9-2.6,7.2-7.4,9.9
					c-5,2.9-11,4.3-18,4.3c-7,0-13-1.4-17.9-4.3c-4.2-2.4-6.7-5.3-7.3-8.5c-0.1-0.5-0.2-1-0.2-1.5c0.9,0.4,1.9,0.8,2.9,1.2
					c1.2,1.3,2.7,2.4,4.6,3.5c5,2.9,11,4.3,17.9,4.3c7,0,13-1.4,18-4.3C214.4,216.8,215.9,215.6,217.1,214.3z"/>
				<path fill-rule="evenodd" clip-rule="evenodd" fill="#D3D4D5" d="M171.9,214.3c6.6,2.5,14.2,3.7,22.6,3.7c8.4,0,16-1.2,22.6-3.7
					c-1.2,1.3-2.7,2.4-4.6,3.5c-5,2.9-11,4.3-18,4.3c-7,0-13-1.4-17.9-4.3C174.6,216.8,173.1,215.6,171.9,214.3z"/>
			</g>
			<path fill-rule="evenodd" clip-rule="evenodd" fill="#FBD86B" d="M227.1,65.9c0,0.1,0,0.3,0,0.4c0,5.1-3,9.4-9.2,13
				c-6.1,3.5-13.5,5.3-22.2,5.3c-8.7,0-16.1-1.8-22.2-5.4c-6.1-3.5-9.2-7.8-9.3-12.8c0-0.2,0-0.4,0-0.5c0.2-4.9,3.3-9.1,9.2-12.5
				c0.9-0.5,1.8-1,2.8-1.4v13.7c0,0.3,0,0.6,0,0.9c0,3,1.8,5.5,5.4,7.5c3.5,2.1,7.9,3.1,12.9,3.1c5,0,9.4-1,13-3.1
				c3.6-2.1,5.4-4.6,5.4-7.4c0-0.2,0-0.4,0-0.6h0V51.1c1.7,0.6,3.4,1.4,5,2.3C223.9,56.9,227,61.1,227.1,65.9z"/>
			<path fill-rule="evenodd" clip-rule="evenodd" fill="#EEC850" d="M227.1,65.9c0,0.1,0,0.3,0,0.4c0,5.1-3,9.4-9.2,13
				c-6.1,3.5-13.5,5.3-22.2,5.3c-8.7,0-16.1-1.8-22.2-5.4c-6.1-3.5-9.2-7.8-9.3-12.8c0-0.2,0-0.4,0-0.5c0,0-12.2,125.9-12.2,127.4
				c0,1.5,0.2,2.9,0.5,4.3c0.4,1.3,0.9,2.5,1.5,3.7c1.6,2.8,4.2,5.4,7.8,7.8c0.8,0.6,1.7,1.1,2.6,1.6c1.6,0.9,3.3,1.8,5,2.6
				c7.2,3.2,15.6,4.8,25,4.8c9.4,0,17.8-1.6,25.1-4.7c1.8-0.8,3.5-1.7,5.2-2.6c1.3-0.8,2.5-1.5,3.6-2.3c0.7-0.5,1.4-1.1,2.1-1.6
				c0,0,0.1,0,0.1-0.1c1.6-1.4,2.8-2.8,3.8-4.3c1-1.5,1.7-3.1,2.2-4.7c0-0.1,0-0.1,0-0.1c0.4-1.4,0.6-2.9,0.6-4.3
				C237.1,191.8,227.1,65.9,227.1,65.9z"/>
			<g>
				<path fill="#E1B744" d="M152.7,185.3c-0.5,4.9-0.7,7.9-0.7,8.1c0,1.5,0.2,2.9,0.5,4.3c0.4,1.3,0.9,2.5,1.5,3.7
					c1.6,2.8,4.2,5.4,7.8,7.8c0.8,0.6,1.7,1.1,2.6,1.6c1.6,0.9,3.3,1.8,5,2.6c7.2,3.2,15.6,4.8,25,4.8c9.4,0,17.8-1.6,25.1-4.7
					c1.8-0.8,3.5-1.7,5.2-2.6c1.3-0.8,2.5-1.5,3.6-2.3c0.7-0.5,1.4-1.1,2.1-1.6c0,0,0.1,0,0.1-0.1c1.6-1.4,2.8-2.8,3.8-4.3
					c1-1.5,1.7-3.1,2.2-4.7c0-0.1,0-0.1,0-0.1c0.4-1.4,0.6-2.9,0.6-4.3c0-0.2-0.1-2.1-0.4-5.4C195.5,204.2,166.4,193.3,152.7,185.3z
					"/>
				<path fill="#EEC850" d="M229.6,96.8c-1.4-17.8-2.4-30.9-2.4-30.9c0,0.1,0,0.3,0,0.4c0,5.1-3,9.4-9.2,13
					c-6.1,3.5-13.5,5.3-22.2,5.3c-8.7,0-16.1-1.8-22.2-5.4c-6.1-3.5-9.2-7.8-9.3-12.8c0-0.2,0-0.4,0-0.5c0,0-0.9,9-2.1,22.3
					c-0.2,1.9-0.4,3.8-0.6,5.9c12.5,4.5,34,8.5,68.3,5.2C229.7,98.4,229.6,97.6,229.6,96.8z"/>
				<path fill="#E1B744" d="M230.3,106.5c-0.2-2.5-0.4-5-0.6-7.3c-34.3,3.4-55.8-0.7-68.3-5.2c-0.5,5.3-1.1,11-1.6,17
					c-0.1,1.4-0.3,2.8-0.4,4.2c14,2.3,38.2,3.9,71.4-2.4C230.6,110.7,230.5,108.6,230.3,106.5z"/>
				<g>
					<path fill="#F8D46E" d="M159.4,115.2c-0.4,4.2-0.8,8.5-1.2,12.8c-0.1,1.4-0.3,2.8-0.4,4.2c17.1,3.5,34.5,4.1,49.7,3.5
						c-12.5-6.9-21.5-13.8-27.2-18.6C171.8,116.9,164.8,116.1,159.4,115.2z"/>
					<path fill="#EEC850" d="M232.1,129c-0.4-5.4-0.9-10.9-1.3-16.1c-20.3,3.9-37.2,4.8-50.5,4.4c5.6,4.8,14.7,11.6,27.2,18.6
						c9.3-0.4,17.8-1.2,25-2.2C232.3,132,232.2,130.5,232.1,129z"/>
				</g>
				<g>
					<path fill="#EEC850" d="M234.4,158.6c-13.6,3.7-39.7,8.3-79.6,4.5c-0.6,6.1-1.1,11.6-1.5,16.2c-0.2,2.2-0.4,4.2-0.6,5.9
						c3.9,2.3,9.1,4.8,15.5,6.9c11.5-1.5,38.7-6.8,67-23.5C234.9,165.5,234.7,162.1,234.4,158.6z"/>
					<path fill="#F8D46E" d="M235.2,168.7c-28.2,16.8-55.4,22-67,23.5c15.9,5.1,39.1,7.4,68.5-4.3c-0.1-1.3-0.2-2.8-0.3-4.4
						C236,179.4,235.6,174.4,235.2,168.7z"/>
				</g>
				<g>
					<path fill="#D5A93C" d="M155,161.2c-0.1,0.7-0.1,1.3-0.2,2c20.8,1.9,37.8,1.6,51.3,0.4c-25.1-2-41.1-12.5-49.4-19.9
						C156.1,149.7,155.5,155.7,155,161.2z"/>
					<path fill="#E1B744" d="M234.2,155.5c-0.5-7-1.1-14.4-1.7-22c-19.1,2.5-47.1,4.3-74.7-1.4c-0.4,3.8-0.7,7.7-1.1,11.4
						c8.4,7.4,24.3,17.9,49.4,19.9c12.4-1.2,21.8-3.1,28.3-4.9C234.3,157.6,234.2,156.6,234.2,155.5z"/>
				</g>
			</g>
			<g>
				<g>
					<path fill="#CED7E4" d="M207.4,57.5c-3.6,2.1-7.9,3.1-13,3.1c-5.1,0-9.4-1.1-12.9-3.1c-2.8-1.6-4.5-3.4-5.2-5.5
						c-0.1-0.4-0.2-0.7-0.2-1V52v13.7c0,0.3,0,0.6,0,0.9c0,3,1.8,5.5,5.4,7.5c3.5,2.1,7.9,3.1,12.9,3.1c5,0,9.4-1,13-3.1
						c3.6-2.1,5.4-4.6,5.4-7.4c0-0.2,0-0.4,0-0.6h0V51.1h-0.2C212.3,53.5,210.6,55.6,207.4,57.5z"/>
				</g>
				<path fill-rule="evenodd" clip-rule="evenodd" fill="#E8ECF7" d="M176.2,51.9c0-0.4,0-0.7,0-1c0-0.4,0-0.8,0.1-1.2
					c0.1-0.6,0.3-1.2,0.6-1.8c0.3-0.6,0.7-1.1,1.1-1.6c0.5-0.6,1-1,1.6-1.5c0.7-0.5,1.4-1,2.1-1.4c3.5-2.1,7.8-3.2,12.9-3.2
					c5.1,0,9.4,1,13,3.1c2.9,1.7,4.7,3.8,5.2,6.1c0.1,0.5,0.1,1,0.1,1.5c0,0.3,0,0.6-0.1,1c-0.3,2.5-2.1,4.6-5.3,6.5
					c-3.6,2.1-7.9,3.1-13,3.1c-5.1,0-9.4-1.1-12.9-3.1c-2.8-1.6-4.5-3.4-5.2-5.5C176.3,52.5,176.2,52.2,176.2,51.9z"/>
				<path fill-rule="evenodd" clip-rule="evenodd" fill="#8F8F92" d="M183.1,50.5c0.2-1.6,1.3-3,3.3-4.1c2.2-1.3,4.9-1.9,8-1.9
					c3.2,0,5.9,0.6,8.1,1.9c1.8,1,2.9,2.2,3.2,3.6c0.1,0.3,0.1,0.7,0.1,1.1c0,1.8-1.1,3.4-3.3,4.6c-2.3,1.3-4.9,1.9-8.1,1.9
					c-3.1,0-5.8-0.7-8.1-2c-2.2-1.3-3.3-2.8-3.3-4.6C183.1,50.8,183.1,50.7,183.1,50.5z"/>
			</g>
		</g>
	</g>
	<polygon fill="#FFFFFF" points="1011.2,280.9 277.1,72.9 308.6,50.7 1042.6,258.7 	"/>
	<polygon fill="#EEEEEE" points="277.1,72.8 277.1,121.3 428.2,164.1 428.2,231.7 1011.2,396.9 1011.2,329.4 1011.2,280.9 	"/>
	
		<text transform="matrix(0.9323 0.2568 0 1 300.6697 97.2609)" fill="#DCDCDC" font-family="'MicrosoftYaHeiUI-Bold'" font-size="12.833px">Pattern Go</text>
	<polygon fill="#D8DADA" points="1042.6,374.7 1011.2,396.9 1011.2,280.9 1042.6,258.7 	"/>
	<g>
		<g>
			<polygon fill="#C6B198" points="341.2,39.1 310.1,30.1 303.1,75.1 305.5,75.7 306.6,69.4 332.4,76.8 331.3,83.8 334,84.5 			"/>
		</g>
		<g>
			<polygon fill="#988575" points="347.7,68.3 350.6,69 341.2,39.1 337.6,62.2 346.5,64.7 			"/>
		</g>
		<polygon fill="#EEEDE7" points="332.9,73.2 307.3,65.9 312.2,34.5 337.9,41.8 		"/>
		<g>
			<path fill="#70C2CD" d="M322.7,46.8c-1.4-0.6-2.2-2.2-2.2-3.8l-6.3-0.5l-1.5,8.2l2.3,0.7l-1.6,9.2l6.5,1.9
				C320.3,59.9,322.7,46.8,322.7,46.8z"/>
			<polygon fill="#A6A2CA" points="327.7,57.1 332.2,58.4 332.4,57.2 			"/>
			<polygon fill="#FFCB66" points="332.1,59.1 330.9,65.7 320.9,62.7 322.1,56.1 			"/>
			<g>
				<path fill="#F17B88" d="M323.7,47.1c1.5,0.2,2.8-0.7,3.3-2.2l4.7,3.2c-1,1.8-1.4,4.3-1.5,4.4c0,0.2-0.5,2.3,0.1,3.4
					c0.1,0.2,0.3,0.4,0.5,0.6l-5.1-0.1l-3.5-1L323.7,47.1z"/>
			</g>
		</g>
	</g>
	<g>
		<g>
			<path fill="#FFFFFF" d="M461.5,193.1l0.3-12.1l-6-1.7c0-1.9-2.4-2.4-2.4-2.4s-1.3-0.4-3.3-0.9s-2.1,1.1-2.1,1.1v12.2L461.5,193.1
				z"/>
			<path fill="#C8C8C6" d="M461.5,194.1C461.5,194.1,461.5,194.1,461.5,194.1c-0.5-0.1-0.8-0.6-0.8-1.1l0.2-11.3l-5.2-1.5
				c-0.4-0.1-0.8-0.6-0.8-1.1c0-0.3-0.1-0.4-0.2-0.5c-0.3-0.4-1.1-0.7-1.4-0.8l-3.3-0.9c-1.1-0.3-1.3,0.4-1.3,0.6l0,12.1
				c0,0.5-0.4,0.8-0.8,0.7c-0.4-0.1-0.8-0.6-0.8-1.1V177c0.1-0.9,0.8-2.4,2.9-1.8l3.3,0.9c0.1,0,1.6,0.4,2.6,1.6
				c0.2,0.3,0.4,0.6,0.5,1l5.3,1.5c0.2,0.1,0.4,0.2,0.6,0.4c0.2,0.2,0.2,0.5,0.2,0.7l-0.3,12.1C462.3,194,462,194.2,461.5,194.1z"/>
			<polygon fill="#FFFFFF" points="452.2,180.8 448,189.4 461.5,193.2 466.5,184.8 			"/>
			<path fill="#C8C8C6" d="M461.5,194.1l-13.5-3.8c-0.3-0.1-0.5-0.3-0.7-0.6c-0.1-0.3-0.2-0.6,0-0.9l4.2-8.6
				c0.1-0.3,0.4-0.4,0.7-0.3l14.4,4c0.3,0.1,0.5,0.3,0.7,0.6c0.1,0.3,0.1,0.6,0,0.9l-5,8.4C462.1,194.1,461.8,194.2,461.5,194.1z
				 M449.2,188.9l11.8,3.3l4.1-6.9l-12.5-3.5L449.2,188.9z"/>
		</g>
		<g>
			<path fill="#FFFFFF" d="M513.7,198.6v-3.8l-7.6,4l7.6,8.3v-4.3c0,0,4.8,0.6,7.3,6.3C521,209.2,520.4,200.5,513.7,198.6z"/>
			<path fill="#C8C8C6" d="M521,210.1c-0.3-0.1-0.6-0.3-0.7-0.6c-1.7-3.8-4.5-5.1-5.8-5.5v3.4c0,0.3-0.2,0.6-0.4,0.7
				c-0.3,0.1-0.6,0-0.8-0.3l-7.6-8.3c-0.2-0.2-0.3-0.5-0.3-0.8s0.1-0.5,0.3-0.6l7.6-4c0.2-0.1,0.6-0.1,0.8,0.2
				c0.3,0.2,0.4,0.6,0.4,0.9v3c5.3,2,7.1,8.2,7.3,11.4c0,0.4-0.2,0.7-0.6,0.7C521.1,210.1,521,210.1,521,210.1z M507.4,199.2l5.5,6
				v-2.5c0-0.4,0.3-0.7,0.7-0.7c0.2,0,3.2,0.5,5.8,3.4c-0.8-2.3-2.5-5-5.7-5.9c-0.4-0.1-0.8-0.6-0.8-1.1v-2.1L507.4,199.2z"/>
		</g>
		<g>
			<path fill="#FFFFFF" d="M536.1,204.9v-3.8l7.6,8.3l-7.6,4v-4.3c0,0-4.8-2.1-7.3,2.2C528.8,211.4,529.3,203,536.1,204.9z"/>
			<path fill="#C8C8C6" d="M528.8,212.3c-0.1,0-0.2-0.1-0.2-0.1c-0.4-0.2-0.6-0.7-0.6-1.1c0.2-3,2-8.2,7.3-7.3v-3
				c0-0.3,0.2-0.6,0.4-0.7c0.3-0.1,0.6,0,0.8,0.3l7.6,8.3c0.2,0.2,0.3,0.5,0.3,0.8c0,0.3-0.1,0.5-0.3,0.6l-7.6,4
				c-0.2,0.1-0.6,0.1-0.8-0.2c-0.3-0.2-0.4-0.6-0.4-0.9v-3.4c-1.3-0.3-4.1-0.7-5.8,2.2C529.3,212.3,529.1,212.3,528.8,212.3z
				 M535.4,208.1c0.4,0.1,0.7,0.2,0.8,0.3c0.4,0.2,0.7,0.6,0.7,1.1v2.5l5.5-2.9l-5.5-6v2.1c0,0.5-0.4,0.8-0.8,0.7
				c-3.3-0.9-4.9,0.9-5.7,2.7C532.3,207.4,534.3,207.8,535.4,208.1z"/>
		</g>
	</g>
	<path fill="#C8C8C6" d="M994.3,332.2v-1.5l-2-0.6v-2l-1.6-0.4v2l-3.9-1.1v-2l-1.6-0.4v2l-3.9-1.1v-2l-1.6-0.4v2l-2-0.6v1.5l2,0.6
		v3.8l-2-0.6v1.5l2,0.6v3.8l-2-0.6v1.5l2,0.6v2l1.6,0.4v-2l3.9,1.1v2l1.6,0.4v-2l3.9,1.1v2l1.6,0.4v-2l2,0.6v-1.5l-2-0.6v-3.8l2,0.6
		V336l-2-0.6v-3.8L994.3,332.2z M981.3,328.5l3.9,1.1v3.8l-3.9-1.1V328.5z M981.3,337.6v-3.8l3.9,1.1v3.8L981.3,337.6z M990.7,340.2
		l-3.9-1.1v-3.8l3.9,1.1V340.2z M990.7,334.9l-3.9-1.1v-3.8l3.9,1.1V334.9z"/>
	<polygon fill="#E7E7E7" points="811.9,340.4 621.3,286.4 621.3,170.4 811.9,224.3 	"/>
	<g>
		<g>
			<polygon fill="#FFFFFF" points="683.6,268.6 642.1,257 642.1,211.8 683.6,223.5 			"/>
			<g>
				<polygon fill="#CDCDCD" points="657.4,223.1 645.7,219.8 645.7,217.5 657.4,220.8 				"/>
			</g>
			<g>
				<polygon fill="#CDCDCD" points="679.5,263 673.7,261.4 673.7,259 679.5,260.7 				"/>
			</g>
			<g>
				<polygon fill="#CDCDCD" points="679.5,235 645.7,225.5 645.7,223.1 679.5,232.6 				"/>
			</g>
			<g>
				<polygon fill="#CDCDCD" points="679.5,239.3 645.7,229.8 645.7,227.5 679.5,236.9 				"/>
			</g>
			<g>
				<polygon fill="#CDCDCD" points="679.5,243.6 645.7,234.1 645.7,231.8 679.5,241.3 				"/>
			</g>
			<g>
				<polygon fill="#CDCDCD" points="679.5,247.9 645.7,238.4 645.7,236.1 679.5,245.6 				"/>
			</g>
			<g>
				<polygon fill="#CDCDCD" points="672,250.1 645.7,242.7 645.7,240.4 672,247.8 				"/>
			</g>
		</g>
		<g>
			<g>
				<polygon fill="#FFFFFF" points="733.8,282.7 692.4,271.1 692.4,225.9 733.8,237.6 				"/>
			</g>
			<g>
				<path fill="#CDCDCD" d="M706.8,262.8c-6.3-1.8-11.5-8.8-11.5-15.7c0-6.9,5.2-11.1,11.5-9.3c6.3,1.8,11.5,8.8,11.5,15.7
					C718.3,260.4,713.2,264.5,706.8,262.8z M706.8,240.1c-5.2-1.4-9.3,1.9-9.3,7.6s4.2,11.4,9.3,12.8s9.3-1.9,9.3-7.6
					S712,241.5,706.8,240.1z"/>
			</g>
			<g>
				<polygon fill="#CDCDCD" points="711.5,248.7 710.3,246.4 727.9,239.1 729.1,241.4 				"/>
			</g>
			<g>
				<path fill="#CDCDCD" d="M718.3,275.4l-11.9-25.9l23.9,6.7L718.3,275.4z M710,252.9l8.2,17.8l8.2-13.2L710,252.9z"/>
			</g>
		</g>
		<g>
			<g>
				<polygon fill="#FFFFFF" points="784.5,297 743.1,285.3 743.1,240.2 784.5,251.8 				"/>
			</g>
			<g>
				<g>
					<polygon fill="#CDCDCD" points="777.9,258.3 758.6,252.8 758.6,250.5 777.9,255.9 					"/>
				</g>
			</g>
			<g>
				<g>
					<polygon fill="#CDCDCD" points="777.9,262.6 758.6,257.1 758.6,254.8 777.9,260.2 					"/>
				</g>
			</g>
			<g>
				<g>
					<polygon fill="#CDCDCD" points="771.1,265 758.6,261.5 758.6,259.1 771.1,262.7 					"/>
				</g>
			</g>
			<g>
				<path fill="#CDCDCD" d="M771.3,286.6c-4.5-1.3-10.4-3.8-15.1-8.8c-10.3-10.8-7.5-28.1-7.3-28.8l2.1,1c0,0.2-2.7,16.6,6.5,26.2
					c8.2,8.7,20.7,9.2,20.8,9.2l0.5,2.4C778.4,287.8,775.4,287.7,771.3,286.6z"/>
			</g>
			<g>
				<polygon fill="#CDCDCD" points="758.5,279 752.9,277.4 752.9,271.2 758.5,272.8 				"/>
			</g>
		</g>
	</g>
	<g>
		<g>
			<polygon fill="#E49245" points="630,224.5 614.3,220.1 614.3,212.9 630,217.3 			"/>
		</g>
		<g>
			<polygon fill="#E49245" points="611.3,219.2 595.7,214.8 595.7,207.6 611.3,212 			"/>
		</g>
	</g>
	<g>
		<g>
			<polygon fill="#D8DADA" points="883.9,360.8 835,347 835,245.4 883.9,259.3 			"/>
		</g>
		<g>
			<polygon fill="#E7E7E7" points="878.6,352.9 840.3,342.1 840.3,254.7 878.6,265.5 			"/>
		</g>
		<g>
			<polygon fill="#B1BABA" points="840.3,268.7 835,267.2 835,262.2 840.3,263.7 			"/>
		</g>
		<g>
			<polygon fill="#B1BABA" points="840.3,278.5 835,277 835,272.1 840.3,273.6 			"/>
		</g>
		<g>
			<polygon fill="#D1D0C5" points="840.3,273.6 835,272.1 835,267.2 840.3,268.7 			"/>
		</g>
		<g>
			<g>
				<polygon fill="#B1BABA" points="840.3,326.6 835,325.1 835,320.2 840.3,321.7 				"/>
			</g>
			<g>
				<polygon fill="#B1BABA" points="840.3,336.5 835,335 835,330 840.3,331.5 				"/>
			</g>
			<g>
				<polygon fill="#D1D0C5" points="840.3,331.5 835,330 835,325.1 840.3,326.6 				"/>
			</g>
		</g>
		
			<ellipse transform="matrix(0.8982 -0.4396 0.4396 0.8982 -36.6108 406.5136)" fill="#D1D0C5" cx="859.4" cy="282.3" rx="12.6" ry="16.8"/>
		
			<ellipse transform="matrix(0.8982 -0.4396 0.4396 0.8982 -36.6108 406.5136)" fill="#7A786E" cx="859.4" cy="282.3" rx="8.2" ry="10.9"/>
		
			<ellipse transform="matrix(0.8982 -0.4396 0.4396 0.8982 -30.9878 405.2115)" fill="#EEEEEE" cx="859.4" cy="269.5" rx="0.9" ry="1.2"/>
		
			<ellipse transform="matrix(0.8982 -0.4396 0.4396 0.8982 -42.388 407.8514)" fill="#EEEEEE" cx="859.4" cy="295.5" rx="0.9" ry="1.2"/>
		
			<ellipse transform="matrix(0.8982 -0.4396 0.4396 0.8982 -41.4613 410.4574)" fill="#EEEEEE" cx="865.5" cy="294.8" rx="0.9" ry="1.2"/>
		
			<ellipse transform="matrix(0.8982 -0.4396 0.4396 0.8982 -38.9319 411.8993)" fill="#EEEEEE" cx="869.9" cy="290" rx="0.9" ry="1.2"/>
		
			<ellipse transform="matrix(0.8982 -0.4396 0.4396 0.8982 -35.4961 411.3278)" fill="#EEEEEE" cx="870.4" cy="282.3" rx="0.9" ry="1.2"/>
		
			<ellipse transform="matrix(0.8982 -0.4396 0.4396 0.8982 -32.3446 408.7654)" fill="#EEEEEE" cx="866.4" cy="274.2" rx="0.9" ry="1.2"/>
		
			<ellipse transform="matrix(0.8982 -0.4396 0.4396 0.8982 -31.8864 402.2278)" fill="#EEEEEE" cx="852.6" cy="270" rx="0.9" ry="1.2"/>
		
			<ellipse transform="matrix(0.8982 -0.4396 0.4396 0.8982 -34.633 401.1159)" fill="#EEEEEE" cx="848.8" cy="275.3" rx="0.9" ry="1.2"/>
		
			<ellipse transform="matrix(0.8982 -0.4396 0.4396 0.8982 -38.1872 401.9389)" fill="#EEEEEE" cx="848.8" cy="283.4" rx="0.9" ry="1.2"/>
		
			<ellipse transform="matrix(0.8982 -0.4396 0.4396 0.8982 -40.8871 404.312)" fill="#EEEEEE" cx="852.6" cy="290.4" rx="0.9" ry="1.2"/>
		<path fill="#F83439" d="M877.2,306.8c-2.6-1.9-5.6-1.2-6.6,1.6s0.2,6.5,2.9,8.4s5.6,1.2,6.6-1.6
			C881.1,312.5,879.8,308.7,877.2,306.8z M879.2,313.1l-2.6-1.2c0-0.3-0.1-0.6-0.3-0.9l1.4-2C878.7,310.1,879.2,311.6,879.2,313.1z
			 M876.7,308c0.2,0.2,0.4,0.3,0.6,0.5l-1.4,2c0,0,0,0-0.1-0.1c-0.2-0.2-0.5-0.2-0.7-0.2l-1.3-3C874.7,307,875.7,307.3,876.7,308z
			 M873.2,307.4l1.3,3c-0.1,0.1-0.2,0.2-0.2,0.4c0,0.1,0,0.1,0,0.2l-2.9-0.8c0-0.3,0.1-0.7,0.2-1C872,308.3,872.5,307.7,873.2,307.4
			z M871.4,310.8l2.9,0.8c0.1,0.3,0.2,0.6,0.4,0.8l-1.2,3C872.2,314.2,871.4,312.4,871.4,310.8z M874,315.8l1.2-3
			c0.2,0.1,0.3,0.1,0.5,0.1l1.3,3.5C876,316.6,875,316.4,874,315.8z M877.5,316.2l-1.3-3.5c0.1-0.1,0.1-0.2,0.2-0.3l2.7,1.3
			c0,0.3-0.1,0.5-0.2,0.8C878.6,315.3,878.1,315.9,877.5,316.2z"/>
		<path fill="#F0F0F0" d="M870.4,303.6c-0.5-0.3-1.3,0.2-1.9,1.1l-8.8,13.9l-8.2-19.3c-0.5-1.2-1.4-2-1.9-1.8s-0.5,1.4,0,2.6
			l8.8,20.6l-9.7,15.3c-0.6,0.9-0.6,1.9-0.1,2.2s1.3-0.2,1.9-1.1l8.9-14.1l8.3,19.6c0.5,1.2,1.4,2,1.9,1.8c0.5-0.2,0.6-1.4,0-2.6
			l-8.9-20.9l9.6-15.1C870.9,304.9,870.9,303.9,870.4,303.6z"/>
	</g>
	<polygon fill="#F9F9F9" points="748.1,582.7 165.1,417.6 428.2,231.7 1011.2,396.9 	"/>
	<polygon fill="#EDEDEB" points="740.6,566.4 198.7,412.7 435.3,245.6 977.1,399.2 	"/>
	<polygon fill="#D8DADA" points="748.1,650.2 1042.6,442.2 1042.6,374.7 748.1,582.7 	"/>
	<polygon fill="#EEEEEE" points="748.1,650.2 14,442.3 14,374.8 748.1,582.7 	"/>
	<polygon fill="#E4E3E2" points="499.9,536.6 237.1,462.1 237.1,438 499.9,512.4 	"/>
	<polygon fill="#E7E2DE" points="647.2,566.6 511.6,528.2 511.6,515.8 647.2,554.2 	"/>
	<path fill="#F9F9F9" d="M64.4,498.3L24.2,487C-2.7,479.4-8.7,444.1,14,428l0,0l151.2,42.5l-19.4,13.7
		C122.2,500.9,92.2,506.1,64.4,498.3z"/>
	<path fill="#D8DADA" d="M145.8,484.2c-23.6,16.7-53.6,21.9-81.4,14L24.2,487C8.3,482.5-0.3,468.3,0,454.2h0v17.3h0.1
		c0.8,13.2,9.2,25.9,24.1,30.1l40.2,11.3c27.7,7.8,57.4,2.7,80.9-13.7v0l0.4-0.3c0,0,0.1,0,0.1-0.1l19.4-13.7v-14.6L145.8,484.2z"/>
	<g>
		<g>
			<polygon fill="#D8DADA" points="198.7,393.8 198.7,393.8 198.7,393.8 			"/>
			<polygon fill="#D8DADA" points="428.2,164.2 198.7,326.3 198.7,393.8 428.2,231.7 			"/>
		</g>
		<polygon fill="#EEEEEE" points="198.7,393.8 138.4,376.7 138.4,309.2 198.7,326.3 		"/>
		<path fill="#FFFFFF" d="M428.1,164.1l-151-42.8L14,307.2l90.8,25.7l0,0l12.1,3.4l33.6-23.8l48.2,13.7L428.1,164.1z"/>
		<polygon fill="#FFFFFF" points="165.1,404 153,400.6 186.6,376.9 198.7,380.3 		"/>
		<polygon fill="#D8DADA" points="198.7,393.8 165.1,417.5 165.1,404 198.7,380.3 		"/>
		<polygon fill="#FFFFFF" points="153,387.1 140.9,383.7 174.6,359.9 186.6,363.3 		"/>
		<polygon fill="#D8DADA" points="186.6,376.9 153,400.6 153,387.1 186.6,363.3 		"/>
		<polygon fill="#FFFFFF" points="140.9,370.2 128.9,366.8 162.5,343 174.6,346.4 		"/>
		<polygon fill="#D8DADA" points="174.6,359.9 140.9,383.7 140.9,370.2 174.6,346.4 		"/>
		<polygon fill="#FFFFFF" points="128.9,353.3 116.8,349.8 150.4,326.1 162.5,329.5 		"/>
		<polygon fill="#D8DADA" points="162.5,343 128.9,366.8 128.9,353.3 162.5,329.5 		"/>
		<polygon fill="#EEEEEE" points="153,400.6 153,387.1 140.9,383.7 140.9,370.2 128.9,366.8 128.9,353.3 116.8,349.8 116.8,336.4 
			116.8,336.3 104.8,332.9 14,307.3 14,374.8 165.1,417.6 165.1,417.5 165.1,404 		"/>
		<polygon fill="#D8DADA" points="150.4,326.1 116.8,349.8 116.8,336.3 150.4,312.6 		"/>
	</g>
	<g>
		<polygon fill="#CBCBCB" points="24.2,310.2 287.3,124.3 287.3,96.4 24.2,282.3 		"/>
		<polygon fill="#FFFFFF" points="24.2,282.3 14,279.4 277.1,93.5 287.3,96.4 		"/>
		<polygon fill="#E4E4E4" points="24.2,310.2 14,307.3 14,279.4 24.2,282.3 		"/>
		<g>
			<polygon fill="#E4E4E4" points="40.6,298.6 40.6,279 32.4,284.8 32.4,296.3 40.6,298.6 			"/>
			<polygon fill="#FFFFFF" points="40.6,298.6 32.4,296.3 32.4,304.4 			"/>
		</g>
		<g>
			<polygon fill="#E4E4E4" points="57,287 57,267.4 48.8,273.2 48.8,284.7 57,287 			"/>
			<polygon fill="#FFFFFF" points="57,287 48.8,284.7 48.8,292.8 			"/>
		</g>
		<g>
			<polygon fill="#E4E4E4" points="73.4,275.5 73.4,255.9 65.2,261.6 65.2,273.2 73.4,275.5 			"/>
			<polygon fill="#FFFFFF" points="73.4,275.5 65.2,273.2 65.2,281.3 			"/>
		</g>
		<g>
			<polygon fill="#E4E4E4" points="89.8,263.9 89.8,244.3 81.6,250.1 81.6,261.6 89.8,263.9 			"/>
			<polygon fill="#FFFFFF" points="89.8,263.9 81.6,261.6 81.6,269.7 			"/>
		</g>
		<g>
			<polygon fill="#E4E4E4" points="106.1,252.3 106.1,232.7 98,238.5 98,250 106.1,252.3 			"/>
			<polygon fill="#FFFFFF" points="106.1,252.3 98,250 98,258.1 			"/>
		</g>
		<g>
			<polygon fill="#E4E4E4" points="122.5,240.8 122.5,221.1 114.3,226.9 114.3,238.4 122.5,240.8 			"/>
			<polygon fill="#FFFFFF" points="122.5,240.8 114.3,238.4 114.3,246.5 			"/>
		</g>
		<g>
			<polygon fill="#E4E4E4" points="138.9,229.2 138.9,209.6 130.7,215.4 130.7,226.9 138.9,229.2 			"/>
			<polygon fill="#FFFFFF" points="138.9,229.2 130.7,226.9 130.7,235 			"/>
		</g>
		<g>
			<polygon fill="#E4E4E4" points="155.3,217.6 155.3,198 147.1,203.8 147.1,215.3 155.3,217.6 			"/>
			<polygon fill="#FFFFFF" points="155.3,217.6 147.1,215.3 147.1,223.4 			"/>
		</g>
		<g>
			<polygon fill="#E4E4E4" points="171.7,206 171.7,186.4 163.5,192.2 163.5,203.7 171.7,206 			"/>
			<polygon fill="#FFFFFF" points="171.7,206 163.5,203.7 163.5,211.8 			"/>
		</g>
		<g>
			<polygon fill="#E4E4E4" points="188.1,194.5 188.1,174.9 179.9,180.6 179.9,192.1 188.1,194.5 			"/>
			<polygon fill="#FFFFFF" points="188.1,194.5 179.9,192.1 179.9,200.3 			"/>
		</g>
		<g>
			<polygon fill="#E4E4E4" points="204.4,182.9 204.4,163.3 196.2,169.1 196.2,180.6 204.4,182.9 			"/>
			<polygon fill="#FFFFFF" points="204.4,182.9 196.2,180.6 196.2,188.7 			"/>
		</g>
		<g>
			<polygon fill="#E4E4E4" points="220.8,171.3 220.8,151.7 212.6,157.5 212.6,169 220.8,171.3 			"/>
			<polygon fill="#FFFFFF" points="220.8,171.3 212.6,169 212.6,177.1 			"/>
		</g>
		<g>
			<polygon fill="#E4E4E4" points="237.2,159.8 237.2,140.1 229,145.9 229,157.4 237.2,159.8 			"/>
			<polygon fill="#FFFFFF" points="237.2,159.8 229,157.4 229,165.5 			"/>
		</g>
		<g>
			<polygon fill="#E4E4E4" points="253.6,148.2 253.6,128.6 245.4,134.3 245.4,145.9 253.6,148.2 			"/>
			<polygon fill="#FFFFFF" points="253.6,148.2 245.4,145.9 245.4,154 			"/>
		</g>
		<g>
			<polygon fill="#E4E4E4" points="270,136.6 270,117 261.8,122.8 261.8,134.3 270,136.6 			"/>
			<polygon fill="#FFFFFF" points="270,136.6 261.8,134.3 261.8,142.4 			"/>
		</g>
		<g>
			<polygon fill="#E4E4E4" points="287.3,124.3 287.3,104.7 279.2,110.5 279.2,122 287.3,124.3 			"/>
			<polygon fill="#FFFFFF" points="287.3,124.3 279.2,122 279.2,130.1 			"/>
		</g>
	</g>
	<g>
		<polygon fill="#FFFFFF" points="396.6,174.3 353.7,162.1 361.5,156.6 404.5,168.7 		"/>
		<polygon fill="#EEEEEE" points="396.6,186.5 353.7,174.3 353.7,162.1 396.6,174.3 		"/>
		<polygon fill="#FFFFFF" points="420.3,121.1 377.3,108.9 385.2,103.3 428.2,115.5 		"/>
		<polygon fill="#EEEEEE" points="420.3,133.3 377.3,121.1 377.3,108.9 420.3,121.1 		"/>
		<polygon fill="#FFFFFF" points="404.5,156.6 361.5,144.4 369.4,138.8 412.4,151 		"/>
		<polygon fill="#EEEEEE" points="404.5,168.7 361.5,156.6 361.5,144.4 404.5,156.6 		"/>
		<polygon fill="#FFFFFF" points="412.4,138.8 369.4,126.7 377.3,121.1 420.3,133.3 		"/>
		<polygon fill="#EEEEEE" points="412.4,151 369.4,138.8 369.4,126.7 412.4,138.8 		"/>
	</g>
	<polygon fill="#D8DADA" points="420.3,121.1 420.3,133.3 412.4,138.8 412.4,151 404.5,156.6 404.5,168.7 396.6,174.3 396.6,186.5 
		404.5,180.9 412.4,175.3 420.3,169.8 428.2,164.2 428.2,152 428.2,139.9 428.2,127.7 428.2,115.5 	"/>
	<path display="none" fill="#C6B198" d="M186.5,385.1l-13.3-3.8L117,302.5c-0.1-0.2-0.3-0.3-0.5-0.4l-12.1-3.4
		c-0.5-0.1-1,0.2-1.2,0.7c-0.1,0.5,0.2,1,0.7,1.2l7,2v29.9c0,0.5,0.4,1,1,1s1-0.4,1-1v-29.3l2.8,0.8l7.9,11v34.5c0,0.5,0.4,1,1,1
		s1-0.4,1-1v-31.8l10.5,14.7v34.5c0,0.5,0.4,1,1,1s1-0.4,1-1V335l9.9,13.9v34.5c0,0.5,0.4,1,1,1s1-0.4,1-1v-31.8l10.4,14.6v34.5
		c0,0.5,0.4,1,1,1s1-0.4,1-1v-31.8l9.9,13.8c0.1,0.2,0.3,0.3,0.5,0.4l3.8,1.1v34.1c0,0.5,0.4,1,1,1s1-0.4,1-1v-33.5l7.9,2.2
		c0.1,0,0.2,0,0.3,0c0.4,0,0.8-0.3,0.9-0.7C187.3,385.7,187,385.2,186.5,385.1z"/>
	<polygon fill="#F95D61" points="53.9,356.5 32.4,350.5 32.4,328.3 53.9,334.4 	"/>
	<polygon fill="#8DD062" points="87.5,366.1 66,360 66,337.8 87.5,343.9 	"/>
	<line fill="none" x1="1042.6" y1="258.7" x2="1011.2" y2="280.9"/>
</g>
</svg>
