<?xml version="1.0" encoding="utf-8"?>
<!-- Generator: Adobe Illustrator 24.0.2, SVG Export Plug-In . SVG Version: 6.00 Build 0)  -->
<svg version="1.1" id="圖層_1" xmlns="http://www.w3.org/2000/svg" xmlns:xlink="http://www.w3.org/1999/xlink" x="0px" y="0px"
	 viewBox="0 0 9.1 13.9" style="enable-background:new 0 0 9.1 13.9;" xml:space="preserve">
<path d="M7.7,0H1.4C1,0,0.7,0.1,0.4,0.4C0.1,0.7,0,1,0,1.4v11.7c0,0.1,0,0.3,0.1,0.4s0.2,0.2,0.3,0.3c0.1,0.1,0.2,0.1,0.4,0.1
	c0.1,0,0.3,0,0.4-0.1l3.4-1.8l3.4,1.8c0.1,0.1,0.3,0.1,0.4,0.1c0.1,0,0.3,0,0.4-0.1c0.1-0.1,0.2-0.2,0.3-0.3
	c0.1-0.1,0.1-0.3,0.1-0.4V1.4c0-0.4-0.1-0.7-0.4-1C8.4,0.1,8,0,7.7,0z M8.1,12.8l-3.2-1.7C4.8,11,4.7,11,4.5,11
	c-0.1,0-0.3,0-0.4,0.1l-3.2,1.7V1.4c0-0.1,0-0.2,0.1-0.3C1.2,1,1.3,0.9,1.4,0.9h6.3c0.1,0,0.2,0,0.3,0.1c0.1,0.1,0.1,0.2,0.1,0.3
	V12.8z"/>
</svg>
