<?xml version="1.0" encoding="utf-8"?>
<!-- Generator: Adobe Illustrator 24.0.2, SVG Export Plug-In . SVG Version: 6.00 Build 0)  -->
<svg version="1.1" id="圖層_1" xmlns="http://www.w3.org/2000/svg" xmlns:xlink="http://www.w3.org/1999/xlink" x="0px" y="0px"
	 viewBox="0 0 13.3 15.2" style="enable-background:new 0 0 13.3 15.2;" xml:space="preserve">
<path d="M13.2,1.9c-0.1-0.1-0.2-0.1-0.3-0.1H9.5V0.9c0-0.2-0.1-0.5-0.3-0.7C9.1,0.1,8.8,0,8.6,0H4.9C4.7,0,4.4,0.1,4.3,0.3
	C4.1,0.5,4,0.7,4,0.9v0.8H0.5c-0.1,0-0.2,0-0.3,0.1C0,2,0,2.1,0,2.2s0,0.2,0.1,0.3c0.1,0.1,0.2,0.1,0.3,0.1h1l0.7,11.2
	c0,0.4,0.2,0.7,0.4,0.9s0.6,0.4,1,0.4h6c0.4,0,0.7-0.1,1-0.4c0.3-0.2,0.4-0.6,0.4-0.9l0.7-11.2h1.2c0.1,0,0.1,0,0.2,0
	c0.1,0,0.1-0.1,0.2-0.1c0,0,0.1-0.1,0.1-0.2c0-0.1,0-0.1,0-0.2C13.3,2.1,13.3,2,13.2,1.9z M4.9,0.9h3.6v0.8H4.9V0.9z M10.1,13.8
	c0,0.1-0.1,0.2-0.1,0.3c-0.1,0.1-0.2,0.1-0.3,0.1h-6c-0.1,0-0.2,0-0.3-0.1c-0.1-0.1-0.1-0.2-0.1-0.3L2.4,2.7h2c0,0,0,0,0,0H9
	c0,0,0,0,0,0h1.7L10.1,13.8z"/>
</svg>
