<?xml version="1.0" encoding="utf-8"?>
<!-- Generator: Adobe Illustrator 24.0.2, SVG Export Plug-In . SVG Version: 6.00 Build 0)  -->
<svg version="1.1" id="圖層_1" xmlns="http://www.w3.org/2000/svg" xmlns:xlink="http://www.w3.org/1999/xlink" x="0px" y="0px"
	 viewBox="0 0 12 16" style="enable-background:new 0 0 12 16;" xml:space="preserve">
<path d="M11.8,4.7c0-0.1-0.1-0.1-0.1-0.1c-0.1-0.1-0.1-0.2-0.2-0.3L8.1,0.5C8,0.4,7.9,0.4,7.8,0.3c0,0,0,0,0,0c0,0-0.1-0.1-0.2-0.1
	c0,0,0,0,0,0C7.4,0.1,7.2,0,7,0H1.5c-0.4,0-0.7,0.1-1,0.4s-0.4,0.6-0.4,1v13.1c0,0.4,0.1,0.7,0.4,1c0.3,0.3,0.6,0.4,1,0.4h9.1
	c0.4,0,0.7-0.1,1-0.4c0.3-0.3,0.4-0.6,0.4-1V5.2C11.9,5.1,11.9,4.9,11.8,4.7z M10.4,4.4h-2c-0.1,0-0.2,0-0.3-0.1
	C8,4.2,7.9,4.1,7.9,3.9V1.7L10.4,4.4z M10.9,14.9C10.8,15,10.7,15,10.5,15H1.5c-0.1,0-0.2,0-0.3-0.1C1,14.8,1,14.7,1,14.6V1.4
	c0-0.1,0-0.2,0.1-0.3C1.2,1,1.3,1,1.5,1H7v3c0,0.4,0.1,0.7,0.4,1c0.3,0.3,0.6,0.4,1,0.4H11v9.2C11,14.7,11,14.8,10.9,14.9z"/>
</svg>
