<?xml version="1.0" encoding="utf-8"?>
<!-- Generator: Adobe Illustrator 24.0.2, SVG Export Plug-In . SVG Version: 6.00 Build 0)  -->
<svg version="1.1" id="圖層_1" xmlns="http://www.w3.org/2000/svg" xmlns:xlink="http://www.w3.org/1999/xlink" x="0px" y="0px"
	 viewBox="0 0 28 24" enable-background="new 0 0 28 24" xml:space="preserve">
<path fill-rule="evenodd" clip-rule="evenodd" d="M4.2,4.5L1.3,1.6L2.9,0l22.6,22.4L23.8,24l-3.7-3.7l-0.5-0.5
	c-1.7,0.7-3.6,1.1-5.6,1.1c-6.4,0-11.8-3.9-14-9.5c1-2.5,2.7-4.7,4.8-6.3L4.2,4.5z M10.3,10.5l-2-2c-0.4,0.8-0.7,1.8-0.7,2.8
	c0,3.5,2.9,6.3,6.4,6.3c1,0,1.9-0.3,2.8-0.7l-2-2c-0.3,0.1-0.5,0.1-0.8,0.1c-2.1,0-3.8-1.7-3.8-3.8C10.2,11.1,10.2,10.8,10.3,10.5z
	 M14,5.1c3.5,0,6.4,2.8,6.4,6.3c0,0.8-0.2,1.6-0.5,2.3l3.7,3.7c1.9-1.6,3.4-3.7,4.4-6c-2.2-5.5-7.6-9.5-14-9.5
	c-1.8,0-3.5,0.3-5.1,0.9l2.7,2.7C12.4,5.2,13.2,5.1,14,5.1z M13.8,7.6l4,4l0-0.2c0-2.1-1.7-3.8-3.8-3.8L13.8,7.6z"/>
</svg>
