<?xml version="1.0" encoding="utf-8"?>
<!-- Generator: Adobe Illustrator 24.0.2, SVG Export Plug-In . SVG Version: 6.00 Build 0)  -->
<svg version="1.1" id="圖層_1" xmlns="http://www.w3.org/2000/svg" xmlns:xlink="http://www.w3.org/1999/xlink" x="0px" y="0px"
	 viewBox="0 0 14.2 13.2" style="enable-background:new 0 0 14.2 13.2;" xml:space="preserve">
<path d="M12.8,2.3H7.7c-0.1,0-0.2,0-0.3-0.1C7.3,2.2,7.3,2.1,7.2,2L6.5,0.7C6.4,0.5,6.2,0.3,6,0.2C5.7,0.1,5.5,0,5.2,0H1.5
	c-0.4,0-0.8,0.2-1,0.4C0.2,0.7,0,1.1,0,1.5v10.3c0,0.4,0.2,0.8,0.4,1c0.3,0.3,0.6,0.4,1,0.4h11.3c0.4,0,0.8-0.2,1-0.4
	c0.3-0.3,0.4-0.6,0.4-1v-8c0-0.4-0.2-0.8-0.4-1C13.5,2.4,13.2,2.3,12.8,2.3z M13.3,11.8c0,0.1,0,0.1,0,0.2c0,0.1-0.1,0.1-0.1,0.2
	c0,0-0.1,0.1-0.2,0.1c-0.1,0-0.1,0-0.2,0H1.4c-0.1,0-0.1,0-0.2,0c-0.1,0-0.1-0.1-0.2-0.1S1,12,1,12c0-0.1,0-0.1,0-0.2V1.5
	c0-0.1,0.1-0.3,0.2-0.4s0.2-0.2,0.4-0.2h3.8c0.1,0,0.2,0,0.3,0.1c0.1,0,0.1,0.1,0.2,0.2l0.8,1.3C6.5,2.7,6.7,2.9,6.9,3
	c0.2,0.1,0.5,0.2,0.7,0.2h5.1c0.1,0,0.3,0.1,0.4,0.2c0.1,0.1,0.2,0.2,0.2,0.4V11.8z"/>
</svg>
