<?xml version="1.0" encoding="utf-8"?>
<!-- Generator: Adobe Illustrator 24.0.2, SVG Export Plug-In . SVG Version: 6.00 Build 0)  -->
<svg version="1.1" id="圖層_1" xmlns="http://www.w3.org/2000/svg" xmlns:xlink="http://www.w3.org/1999/xlink" x="0px" y="0px"
	 viewBox="0 0 14.8 13.3" style="enable-background:new 0 0 14.8 13.3;" xml:space="preserve">
<path d="M10.4,0C9.3,0,8.2,0.4,7.4,1.1l0,0l0,0C6.7,0.5,5.9,0.2,5.1,0S3.4,0,2.6,0.4C1.8,0.8,1.2,1.3,0.7,2C0.2,2.8,0,3.6,0,4.5
	C0,8,5,12,6.6,13.1c0.2,0.2,0.5,0.3,0.8,0.3c0.3,0,0.6-0.1,0.8-0.3C9.8,12,14.8,8,14.8,4.5c0-1.2-0.5-2.3-1.3-3.1
	C12.7,0.5,11.5,0,10.4,0z M7.7,12.3c-0.1,0.1-0.2,0.1-0.3,0.1c-0.1,0-0.2,0-0.3-0.1c-1-0.8-6.2-4.7-6.2-7.9c0-0.9,0.4-1.8,1-2.5
	c0.7-0.7,1.6-1,2.5-1c0.5,0,1,0.1,1.4,0.3C6.3,1.4,6.7,1.7,7,2.1l0.3,0.4l0,0l0,0l0.3-0.4c0.3-0.4,0.7-0.6,1.2-0.8
	C9.4,1,9.9,0.9,10.4,0.9c0.9,0,1.8,0.4,2.5,1c0.7,0.7,1,1.5,1,2.5C13.9,7.7,8.7,11.6,7.7,12.3z"/>
</svg>
