<?xml version="1.0" encoding="utf-8"?>
<!-- Generator: Adobe Illustrator 24.0.2, SVG Export Plug-In . SVG Version: 6.00 Build 0)  -->
<svg version="1.1" id="圖層_1" xmlns="http://www.w3.org/2000/svg" xmlns:xlink="http://www.w3.org/1999/xlink" x="0px" y="0px"
	 viewBox="0 0 15.9 15.6" style="enable-background:new 0 0 15.9 15.6;" xml:space="preserve">
<path d="M15.4,1.7l-1.2-1.2c-0.2-0.2-0.4-0.3-0.6-0.4c-0.2,0-0.4-0.1-0.7-0.1l0,0l0,0c-0.2,0-0.5,0-0.7,0.1s-0.4,0.2-0.6,0.4
	l-1.3,1.3l0,0l-9,9c-0.2,0.2-0.4,0.5-0.5,0.8L0,15c0,0.1,0,0.2,0,0.3s0.1,0.2,0.1,0.2s0.1,0.1,0.2,0.1s0.2,0,0.3,0l3.5-0.8
	c0.3-0.1,0.6-0.2,0.9-0.5l10.4-10c0.3-0.4,0.5-0.8,0.5-1.3S15.7,2.1,15.4,1.7z M13.7,4.4l-2.1-2.1l0.9-0.9c0.1-0.1,0.3-0.2,0.5-0.2
	s0.4,0.1,0.5,0.2l1.2,1.1l0,0c0.1,0.1,0.1,0.1,0.1,0.2c0,0.1,0.1,0.2,0.1,0.3s0,0.2-0.1,0.3c0,0.1-0.1,0.2-0.1,0.2l-0.3,0.3
	L13.7,4.4z M4.3,13.8C4.2,13.9,4.1,14,3.9,14l-2.6,0.6L1.9,12c0-0.1,0.1-0.2,0.2-0.3l8.6-8.6l2.2,2.1L4.3,13.8z"/>
</svg>
