<?xml version="1.0" encoding="utf-8"?>
<!-- Generator: Adobe Illustrator 24.0.2, SVG Export Plug-In . SVG Version: 6.00 Build 0)  -->
<svg version="1.1" id="圖層_1" xmlns="http://www.w3.org/2000/svg" xmlns:xlink="http://www.w3.org/1999/xlink" x="0px" y="0px"
	 viewBox="0 0 16 16" style="enable-background:new 0 0 16 16;" xml:space="preserve">
<path d="M12.1,8.5H8c-0.1,0-0.3-0.1-0.4-0.2C7.5,8.3,7.5,8.1,7.5,8V4.6c0-0.1,0.1-0.3,0.2-0.4S7.9,4.1,8,4.1c0.1,0,0.3,0.1,0.4,0.2
	s0.2,0.2,0.2,0.4v2.9h3.6c0.1,0,0.3,0.1,0.4,0.2c0.1,0.1,0.2,0.2,0.2,0.4c0,0.1-0.1,0.3-0.2,0.4C12.4,8.5,12.2,8.5,12.1,8.5z"/>
<path d="M8,16c-1.6,0-3.1-0.5-4.4-1.3c-1.3-0.9-2.3-2.1-2.9-3.6C0,9.6-0.2,8,0.2,6.4c0.3-1.6,1.1-3,2.2-4.1c1.1-1.1,2.5-1.9,4.1-2.2
	C8-0.2,9.6,0,11.1,0.6c1.5,0.6,2.7,1.6,3.6,2.9C15.5,4.9,16,6.4,16,8c0,2.1-0.8,4.2-2.3,5.7S10.1,16,8,16z M8,1
	C6.6,1,5.3,1.4,4.1,2.2C3,3,2.1,4.1,1.6,5.3C1,6.6,0.9,8,1.2,9.4c0.3,1.4,0.9,2.6,1.9,3.6c1,1,2.2,1.6,3.6,1.9
	c1.4,0.3,2.8,0.1,4-0.4c1.3-0.5,2.4-1.4,3.1-2.6S15,9.4,15,8c0-1.8-0.7-3.6-2-4.9C11.6,1.8,9.8,1,8,1z"/>
</svg>
