<?xml version="1.0" encoding="utf-8"?>
<!-- Generator: Adobe Illustrator 24.0.2, SVG Export Plug-In . SVG Version: 6.00 Build 0)  -->
<svg version="1.1" id="圖層_1" xmlns="http://www.w3.org/2000/svg" xmlns:xlink="http://www.w3.org/1999/xlink" x="0px" y="0px"
	 viewBox="0 0 20 20" style="enable-background:new 0 0 20 20;" xml:space="preserve">
<path d="M19.7,18.1L16,14.7c1.2-1.5,1.9-3.5,1.9-5.6c0-5-4-9.1-9-9.1C4,0,0,4.1,0,9.1c0,5,4,9.1,9,9.1c2.1,0,4-0.7,5.5-1.9l3.7,3.5
	c0.2,0.2,0.5,0.3,0.8,0.3s0.6-0.1,0.8-0.3C20.1,19.3,20.1,18.6,19.7,18.1z M2.2,9.1c0-3.8,3.1-6.9,6.8-6.9c3.8,0,6.8,3.1,6.8,6.9
	c0,3.8-3.1,6.9-6.8,6.9C5.2,16,2.2,12.9,2.2,9.1z"/>
</svg>
