<svg width="36" height="36" viewBox="0 0 36 36" xmlns="http://www.w3.org/2000/svg">
<path fill-rule="evenodd" clip-rule="evenodd" d="M26.7501 11.4446C27.2871 10.9077 27.2871 10.0371 26.7501 9.50013C26.2132 8.96317 25.3426 8.96317 24.8056 9.50013L18.0003 16.3055L11.1946 9.49987C10.6577 8.96291 9.78709 8.96291 9.25013 9.49987C8.71317 10.0368 8.71317 10.9074 9.25013 11.4444L16.0558 18.25L9.24965 25.0561C8.71269 25.5931 8.71269 26.4636 9.24965 27.0006C9.7866 27.5376 10.6572 27.5376 11.1941 27.0006L18.0003 20.1945L24.8061 27.0004C25.3431 27.5373 26.2137 27.5373 26.7506 27.0004C27.2876 26.4634 27.2876 25.5928 26.7506 25.0559L19.9448 18.25L26.7501 11.4446Z"/>
</svg>
