<?xml version="1.0" encoding="utf-8"?><svg width="84" height="78" viewBox="0 0 84 78" xmlns="http://www.w3.org/2000/svg" xmlns:xlink="http://www.w3.org/1999/xlink"><view id="bookmark" viewBox="54 36 9.1 13.9"/><svg viewBox="0 0 9.1 13.9" width="9.1" height="13.9" x="54" y="36" xmlns="http://www.w3.org/2000/svg"><path d="M7.7 0H1.4C1 0 .7.1.4.4.1.7 0 1 0 1.4v11.7c0 .1 0 .3.1.4l.3.3c.1.1.2.1.4.1.1 0 .3 0 .4-.1L4.6 12 8 13.8c.1.1.3.1.4.1.1 0 .3 0 .4-.1l.3-.3c.1-.1.1-.3.1-.4V1.4c0-.4-.1-.7-.4-1C8.4.1 8 0 7.7 0zm.4 12.8l-3.2-1.7c-.1-.1-.2-.1-.4-.1-.1 0-.3 0-.4.1L.9 12.8V1.4c0-.1 0-.2.1-.3.2-.1.3-.2.4-.2h6.3c.1 0 .2 0 .3.1.1.1.1.2.1.3v11.5z"/></svg><view id="btn_more" viewBox="36 24 23 5"/><svg viewBox="0 0 23 5" width="23" height="5" x="36" y="24" xmlns="http://www.w3.org/2000/svg"><circle cx="2.5" cy="2.5" r="2.5"/><circle cx="11.5" cy="2.5" r="2.5"/><circle cx="20.5" cy="2.5" r="2.5"/></svg><view id="cleaner" viewBox="31.9 62 13.3 15.2"/><svg viewBox="0 0 13.3 15.2" width="13.3" height="15.2" x="31.9" y="62" xmlns="http://www.w3.org/2000/svg"><path d="M13.2 1.9c-.1-.1-.2-.1-.3-.1H9.5V.9c0-.2-.1-.5-.3-.7-.1-.1-.4-.2-.6-.2H4.9c-.2 0-.5.1-.6.3-.2.2-.3.4-.3.6v.8H.5c-.1 0-.2 0-.3.1-.2.2-.2.3-.2.4s0 .2.1.3c.1.1.2.1.3.1h1l.7 11.2c0 .4.2.7.4.9s.6.4 1 .4h6c.4 0 .7-.1 1-.4.3-.2.4-.6.4-.9l.7-11.2H13c.1 0 .1-.1.2-.1 0 0 .1-.1.1-.2v-.2s0-.1-.1-.2zM4.9.9h3.6v.8H4.9V.9zm5.2 12.9c0 .1-.1.2-.1.3-.1.1-.2.1-.3.1h-6c-.1 0-.2 0-.3-.1-.1-.1-.1-.2-.1-.3L2.4 2.7H10.7l-.6 11.1z"/></svg><view id="file" viewBox="64 38 12 16"/><svg viewBox="0 0 12 16" width="12" height="16" x="64" y="38" xmlns="http://www.w3.org/2000/svg"><path d="M11.8 4.7c0-.1-.1-.1-.1-.1-.1-.1-.1-.2-.2-.3L8.1.5C8 .4 7.9.4 7.8.3c0 0-.1-.1-.2-.1C7.4.1 7.2 0 7 0H1.5C1.1 0 .8.1.5.4s-.4.6-.4 1v13.1c0 .4.1.7.4 1 .3.3.6.4 1 .4h9.1c.4 0 .7-.1 1-.4.3-.3.4-.6.4-1V5.2c-.1-.1-.1-.3-.2-.5zm-1.4-.3h-2c-.1 0-.2 0-.3-.1-.1-.1-.2-.2-.2-.4V1.7l2.5 2.7zm.5 10.5c-.1.1-.2.1-.4.1h-9c-.1 0-.2 0-.3-.1-.2-.1-.2-.2-.2-.3V1.4c0-.1 0-.2.1-.3.1-.1.2-.1.4-.1H7v3c0 .4.1.7.4 1 .3.3.6.4 1 .4H11v9.2c0 .1 0 .2-.1.3z"/></svg><view id="hidden" viewBox="36 0 28 24"/><svg viewBox="0 0 28 24" width="28" height="24" x="36" xmlns="http://www.w3.org/2000/svg"><path fill-rule="evenodd" clip-rule="evenodd" d="M4.2 4.5L1.3 1.6 2.9 0l22.6 22.4-1.7 1.6-3.7-3.7-.5-.5c-1.7.7-3.6 1.1-5.6 1.1-6.4 0-11.8-3.9-14-9.5 1-2.5 2.7-4.7 4.8-6.3l-.6-.6zm6.1 6l-2-2c-.4.8-.7 1.8-.7 2.8 0 3.5 2.9 6.3 6.4 6.3 1 0 1.9-.3 2.8-.7l-2-2c-.3.1-.5.1-.8.1-2.1 0-3.8-1.7-3.8-3.8 0-.1 0-.4.1-.7zM14 5.1c3.5 0 6.4 2.8 6.4 6.3 0 .8-.2 1.6-.5 2.3l3.7 3.7c1.9-1.6 3.4-3.7 4.4-6-2.2-5.5-7.6-9.5-14-9.5-1.8 0-3.5.3-5.1.9l2.7 2.7c.8-.3 1.6-.4 2.4-.4zm-.2 2.5l4 4v-.2c0-2.1-1.7-3.8-3.8-3.8h-.2z"/></svg><view id="layout_default" viewBox="28 36 26 26"/><svg viewBox="0 0 26 26" width="26" height="26" x="28" y="36" xmlns="http://www.w3.org/2000/svg"><path d="M0 0h10v10H0zM0 16h10v10H0zM16 0h10v10H16zM16 16h10v10H16z"/></svg><view id="layout_list" viewBox="0 36 28 26"/><svg viewBox="0 0 28 26" width="28" height="26" y="36" xmlns="http://www.w3.org/2000/svg"><path d="M0 0h6v6H0zM9 1h19v4H9zM0 10h6v6H0zM9 11h19v4H9zM0 20h6v6H0zM9 21h19v4H9z"/></svg><view id="library" viewBox="60 62 14.2 13.2"/><svg viewBox="0 0 14.2 13.2" width="14.2" height="13.2" x="60" y="62" xmlns="http://www.w3.org/2000/svg"><path d="M12.8 2.3H7.7c-.1 0-.2 0-.3-.1-.1 0-.1-.1-.2-.2L6.5.7C6.4.5 6.2.3 6 .2 5.7.1 5.5 0 5.2 0H1.5C1.1 0 .7.2.5.4.2.7 0 1.1 0 1.5v10.3c0 .4.2.8.4 1 .3.3.6.4 1 .4h11.3c.4 0 .8-.2 1-.4.3-.3.4-.6.4-1v-8c0-.4-.2-.8-.4-1-.2-.4-.5-.5-.9-.5zm.5 9.5v.2c0 .1-.1.1-.1.2 0 0-.1.1-.2.1H1.2c-.1 0-.1-.1-.2-.1s0-.2 0-.2V1.5c0-.1.1-.3.2-.4s.2-.2.4-.2h3.8c.1 0 .2 0 .3.1.1 0 .1.1.2.2l.8 1.3c-.2.2 0 .4.2.5.2.1.5.2.7.2h5.1c.1 0 .3.1.4.2.1.1.2.2.2.4v8z"/></svg><view id="logout" viewBox="64 20 17.2 18"/><svg viewBox="0 0 17.2 18" width="17.2" height="18" x="64" y="20" xmlns="http://www.w3.org/2000/svg"><path d="M16.7 11.7c-.4-.2-1 0-1.2.4-.6 1.2-1.5 2.2-2.6 3-1.2.7-2.5 1.1-3.9 1.1-4 0-7.2-3.2-7.2-7.2S5 1.8 9 1.8c1.4 0 2.7.4 3.9 1.1 1.1.7 2 1.8 2.6 3 .2.4.7.6 1.2.4.4-.2.6-.7.4-1.2-.7-1.5-1.8-2.8-3.3-3.7C12.4.5 10.7 0 9 0 6.6 0 4.3.9 2.6 2.6S0 6.6 0 9s.9 4.7 2.6 6.4S6.6 18 9 18c1.7 0 3.4-.5 4.9-1.4 1.4-.9 2.5-2.2 3.3-3.7.1-.5-.1-1-.5-1.2z"/><path d="M9.5 12.4c.2.2.4.3.6.3.2 0 .4-.1.6-.3l2.2-2.2c.3-.3.5-.8.5-1.2 0-.5-.2-.9-.5-1.2l-2.2-2.2c-.3-.3-.9-.3-1.2 0s-.3.9 0 1.2l1.3 1.3h-5c-.5 0-.9.4-.9.9s.4.9.9.9h5l-1.3 1.3c-.4.3-.4.9 0 1.2z"/></svg><view id="love" viewBox="45.2 62 14.8 13.3"/><svg viewBox="0 0 14.8 13.3" width="14.8" height="13.3" x="45.2" y="62" xmlns="http://www.w3.org/2000/svg"><path d="M10.4 0c-1.1 0-2.2.4-3 1.1C6.7.5 5.9.2 5.1 0S3.4 0 2.6.4 1.2 1.3.7 2C.2 2.8 0 3.6 0 4.5 0 8 5 12 6.6 13.1c.2.2.5.3.8.3.3 0 .6-.1.8-.3C9.8 12 14.8 8 14.8 4.5c0-1.2-.5-2.3-1.3-3.1-.8-.9-2-1.4-3.1-1.4zM7.7 12.3c-.1.1-.2.1-.3.1-.1 0-.2 0-.3-.1-1-.8-6.2-4.7-6.2-7.9 0-.9.4-1.8 1-2.5.7-.7 1.6-1 2.5-1 .5 0 1 .1 1.4.3.5.2.9.5 1.2.9l.3.4.3-.4c.3-.4.7-.6 1.2-.8.6-.3 1.1-.4 1.6-.4.9 0 1.8.4 2.5 1 .7.7 1 1.5 1 2.5 0 3.3-5.2 7.2-6.2 7.9z"/></svg><view id="pencil" viewBox="16 62 15.9 15.6"/><svg viewBox="0 0 15.9 15.6" width="15.9" height="15.6" x="16" y="62" xmlns="http://www.w3.org/2000/svg"><path d="M15.4 1.7L14.2.5c-.2-.2-.4-.3-.6-.4-.2 0-.4-.1-.7-.1-.2 0-.5 0-.7.1s-.4.2-.6.4l-1.3 1.3-9 9c-.2.2-.4.5-.5.8L0 15v.3c0 .1.1.2.1.2s.1.1.2.1h.3l3.5-.8c.3-.1.6-.2.9-.5l10.4-10c.3-.4.5-.8.5-1.3s-.2-.9-.5-1.3zm-1.7 2.7l-2.1-2.1.9-.9c.1-.1.3-.2.5-.2s.4.1.5.2l1.2 1.1c.1.1.1.1.1.2s.1.2.1.3 0 .2-.1.3c0 .1-.1.2-.1.2l-.3.3-.7.6zm-9.4 9.4c-.1.1-.2.2-.4.2l-2.6.6.6-2.6c0-.1.1-.2.2-.3l8.6-8.6 2.2 2.1-8.6 8.6z"/></svg><view id="recent" viewBox="0 62 16 16"/><svg viewBox="0 0 16 16" width="16" height="16" y="62" xmlns="http://www.w3.org/2000/svg"><path d="M12.1 8.5H8c-.1 0-.3-.1-.4-.2-.1 0-.1-.2-.1-.3V4.6c0-.1.1-.3.2-.4s.2-.1.3-.1c.1 0 .3.1.4.2s.2.2.2.4v2.9h3.6c.1 0 .3.1.4.2.1.1.2.2.2.4 0 .1-.1.3-.2.4-.2-.1-.4-.1-.5-.1z"/><path d="M8 16c-1.6 0-3.1-.5-4.4-1.3-1.3-.9-2.3-2.1-2.9-3.6C0 9.6-.2 8 .2 6.4c.3-1.6 1.1-3 2.2-4.1C3.5 1.2 4.9.4 6.5.1 8-.2 9.6 0 11.1.6c1.5.6 2.7 1.6 3.6 2.9C15.5 4.9 16 6.4 16 8c0 2.1-.8 4.2-2.3 5.7S10.1 16 8 16zM8 1c-1.4 0-2.7.4-3.9 1.2-1.1.8-2 1.9-2.5 3.1C1 6.6.9 8 1.2 9.4c.3 1.4.9 2.6 1.9 3.6 1 1 2.2 1.6 3.6 1.9 1.4.3 2.8.1 4-.4 1.3-.5 2.4-1.4 3.1-2.6S15 9.4 15 8c0-1.8-.7-3.6-2-4.9C11.6 1.8 9.8 1 8 1z"/></svg><view id="search" viewBox="64 0 20 20"/><svg viewBox="0 0 20 20" width="20" height="20" x="64" xmlns="http://www.w3.org/2000/svg"><path d="M19.7 18.1L16 14.7c1.2-1.5 1.9-3.5 1.9-5.6 0-5-4-9.1-9-9.1C4 0 0 4.1 0 9.1s4 9.1 9 9.1c2.1 0 4-.7 5.5-1.9l3.7 3.5c.2.2.5.3.8.3s.6-.1.8-.3c.3-.5.3-1.2-.1-1.7zm-17.5-9c0-3.8 3.1-6.9 6.8-6.9 3.8 0 6.8 3.1 6.8 6.9 0 3.8-3.1 6.9-6.8 6.9-3.8 0-6.8-3.1-6.8-6.9z"/></svg><view id="svg-close" viewBox="0 0 36 36"/><svg width="36" height="36" viewBox="0 0 36 36" xmlns="http://www.w3.org/2000/svg"><path fill-rule="evenodd" clip-rule="evenodd" d="M26.75 11.445A1.375 1.375 0 1024.806 9.5L18 16.305 11.195 9.5a1.375 1.375 0 10-1.945 1.944l6.806 6.806-6.806 6.806a1.375 1.375 0 001.944 1.945L18 20.195 24.806 27a1.375 1.375 0 001.945-1.944l-6.806-6.806 6.805-6.805z"/></svg></svg>